<svg height="100" viewBox="0 0 100 100" width="100" xmlns="http://www.w3.org/2000/svg" xmlns:xlink="http://www.w3.org/1999/xlink"><linearGradient id="a" gradientTransform="matrix(1.1492603 0 0 .99540827 -7.463018 -.770413)" gradientUnits="userSpaceOnUse" x1="34.163204" x2="19.534246" y1="25.097649" y2="9.738761"><stop offset="0" stop-color="#0046b1"/><stop offset="1" stop-color="#c0dfff"/></linearGradient><g transform="matrix(.99080884 0 0 .99080884 .459558 .459558)"><path d="m8.2087142 3.7541698h58.2391058l25.343466 23.5278312-.000046 68.963829h-83.5825258z" fill="#fff" fill-rule="evenodd"/><g fill="none"><path d="m8.2087142 3.7541698h58.2391058c1.825683 9.7389532 3.073879 19.1965542-2.322257 25.4170522 11.221908.655373 16.443815-.600819 27.665723-1.889221l-25.343466-23.5278312 25.343466 23.5278312-.000046 68.963829h-83.5825258z" stroke="url(#a)" stroke-linecap="round" stroke-linejoin="round" stroke-width="6.417429"/><g stroke="#87a1c3"><g stroke-width="3"><path d="m20 86h60"/><path d="m20 69.75h60"/><path d="m20 53.5h60"/><path d="m20 37.25h60"/></g><path d="m20 21h40" stroke-width="2.44949"/></g></g></g><g transform="matrix(.99080884 0 0 .99080884 .459558 .459558)"><path d="m8.2087142 3.7541698h58.2391058l25.343466 23.5278312-.000046 68.963829h-83.5825258z" fill="#fff" fill-rule="evenodd"/><g fill="none"><path d="m8.2087142 3.7541698h58.2391058c1.825683 9.7389532 3.073879 19.1965542-2.322257 25.4170522 11.221908.655373 16.443815-.600819 27.665723-1.889221l-25.343466-23.5278312 25.343466 23.5278312-.000046 68.963829h-83.5825258z" stroke="url(#a)" stroke-linecap="round" stroke-linejoin="round" stroke-width="6.417429"/><g stroke="#87a1c3"><g stroke-width="3"><path d="m20 86h60"/><path d="m20 69.75h60"/><path d="m20 53.5h60"/><path d="m20 37.25h60"/></g><path d="m20 21h40" stroke-width="2.44949"/></g></g></g><g fill="#fff" transform="matrix(18.5196875 0 0 18.5196875 50.5 -5450.847)"><path d="m0 294.35416h2.645833v2.64583h-2.645833z"/><path d="m.75389499 294.53857-.56902153.57739.55301781.56112-.55301781.56117.56902153.57736.56902151-.57736.5690216.57736.5690217-.57736-.553018-.56117.553018-.56112-.5690217-.57739-.5690216.57739z" stroke="#114399" stroke-linecap="round" stroke-linejoin="round" stroke-width=".264583"/></g></svg>