#define align_width 17
#define align_height 17
static char align_bits[] = {
   0x3c, 0x00, 0x00, 0x42, 0x00, 0x00, 0x81, 0xff, 0x01, 0x81, 0x00, 0x01,
   0x81, 0x2a, 0x01, 0x81, 0xff, 0x01, 0x66, 0x00, 0x00, 0x3c, 0x1c, 0x00,
   0x24, 0x2a, 0x00, 0x34, 0x5d, 0x00, 0x24, 0x6b, 0x00, 0x34, 0x5d, 0x00,
   0x24, 0x6b, 0x00, 0x34, 0x5d, 0x00, 0x24, 0x6b, 0x00, 0x24, 0x2a, 0x00,
   0x3c, 0x1c, 0x00};
