#define bar_width 17
#define bar_height 17
static char bar_bits[] = {
   0x00, 0x00, 0xfe, 0xfe, 0xff, 0xfe, 0x02, 0x00, 0xfe, 0x7a, 0xef, 0xfe,
   0x02, 0x00, 0xfe, 0xfe, 0xff, 0xfe, 0x00, 0x00, 0xfe, 0xa4, 0x04, 0xfe,
   0x50, 0x01, 0xfe, 0xa4, 0x04, 0xfe, 0x00, 0x00, 0xfe, 0xa4, 0x04, 0xfe,
   0x50, 0x01, 0xfe, 0xa4, 0x04, 0xfe, 0x00, 0x00, 0xfe, 0x54, 0x05, 0xfe,
   0x00, 0x00, 0xfe};
