#define scolor_width 17
#define scolor_height 17
static char scolor_bits[] = {
   0xff, 0xff, 0xff, 0xff, 0xff, 0xff, 0x3f, 0xf8, 0xff, 0xcf, 0xe7, 0xff,
   0x77, 0xde, 0xff, 0x5b, 0xb3, 0xff, 0xcb, 0xbb, 0xff, 0xfd, 0x7f, 0xff,
   0xe5, 0x7f, 0xff, 0xe5, 0x4f, 0xff, 0xfd, 0x4f, 0xff, 0xcd, 0x59, 0xff,
   0xdb, 0x76, 0xff, 0x77, 0x8f, 0xff, 0x8f, 0xff, 0xff, 0xff, 0xff, 0xff,
   0xff, 0xff, 0xff};
