#define bg_pxmap_width 17
#define bg_pxmap_height 17
static char bg_pxmap_bits[] = {
   0x00, 0x00, 0x00, 0x52, 0x95, 0x00, 0xa4, 0x4a, 0x00, 0x48, 0x25, 0x00,
   0x92, 0x92, 0x00, 0x20, 0xc9, 0x00, 0x4e, 0xe4, 0x00, 0x80, 0xf2, 0x00,
   0x3e, 0xf9, 0x00, 0x80, 0xf2, 0x00, 0x4e, 0xe4, 0x00, 0x20, 0xc9, 0x00,
   0x12, 0x91, 0x00, 0x48, 0x24, 0x00, 0x44, 0x45, 0x00, 0x12, 0x91, 0x00,
   0x00, 0x00, 0x00};
