#define button_release_width 17
#define button_release_height 17
static char button_release_bits[] = {
   0xf8, 0x3f, 0x00, 0x04, 0x40, 0x00, 0xf4, 0x5f, 0x00, 0xf4, 0x5f, 0x00,
   0xf4, 0x5f, 0x00, 0x04, 0x41, 0x00, 0xf8, 0x3f, 0x00, 0x40, 0x05, 0x00,
   0x80, 0x03, 0x00, 0x00, 0x01, 0x00, 0xf8, 0x3f, 0x00, 0x04, 0x40, 0x00,
   0x04, 0x40, 0x00, 0x04, 0x40, 0x00, 0x04, 0x40, 0x00, 0x04, 0x40, 0x00,
   0xf8, 0x3f, 0x00};
