#define button_width 17
#define button_height 17
static char button_bits[] = {
   0x00, 0x00, 0x00, 0x00, 0x00, 0x00, 0x00, 0x00, 0x00, 0x00, 0x00, 0x00,
   0xfe, 0xff, 0x00, 0x01, 0x00, 0x01, 0x39, 0x3e, 0x01, 0x49, 0x08, 0x01,
   0x39, 0x08, 0x01, 0x49, 0x08, 0x01, 0x39, 0x08, 0x01, 0x01, 0x00, 0x01,
   0xfe, 0xff, 0x00, 0x00, 0x00, 0x00, 0x00, 0x00, 0x00, 0x00, 0x00, 0x00,
   0x00, 0x00, 0x00};
