#define cat_bltn_width 32
#define cat_bltn_height 32
static char cat_bltn_bits[] = {
   0x00, 0x00, 0x00, 0x00, 0x00, 0x00, 0x00, 0x00, 0x00, 0x00, 0x00, 0x00,
   0x00, 0x00, 0x00, 0x00, 0xf0, 0xff, 0xff, 0x1f, 0x10, 0x00, 0x20, 0x10,
   0x10, 0x00, 0x70, 0x10, 0x10, 0x00, 0xa8, 0x10, 0x10, 0x80, 0x22, 0x10,
   0x10, 0x00, 0x21, 0x10, 0x10, 0x00, 0x21, 0x10, 0x10, 0x00, 0x21, 0x10,
   0x10, 0x8a, 0x20, 0x10, 0x10, 0x04, 0xa8, 0x10, 0x10, 0x04, 0x70, 0x10,
   0x10, 0x04, 0x20, 0x10, 0x10, 0x0a, 0xff, 0x11, 0x90, 0x20, 0x01, 0x11,
   0x50, 0x40, 0x01, 0x11, 0xf0, 0xff, 0x01, 0x11, 0x50, 0x40, 0x01, 0x11,
   0x90, 0x20, 0x01, 0x11, 0x10, 0x00, 0xff, 0x11, 0x10, 0x00, 0x00, 0x10,
   0x10, 0x00, 0x00, 0x10, 0x10, 0x00, 0x00, 0x10, 0x10, 0x00, 0x00, 0x10,
   0x10, 0x00, 0x00, 0x10, 0xf0, 0xff, 0xff, 0x1f, 0x00, 0x00, 0x00, 0x00,
   0x00, 0x00, 0x00, 0x00, 0x00, 0x00, 0x00, 0x00};
