#define check_bx_width 17
#define check_bx_height 17
static char check_bx_bits[] = {
   0x00, 0x00, 0x00, 0xfc, 0x7f, 0x00, 0x04, 0x40, 0x00, 0x74, 0x40, 0x00,
   0x54, 0x5e, 0x00, 0x74, 0x40, 0x00, 0x04, 0x40, 0x00, 0x74, 0x40, 0x00,
   0x74, 0x5e, 0x00, 0x74, 0x40, 0x00, 0x04, 0x40, 0x00, 0x74, 0x40, 0x00,
   0x54, 0x5e, 0x00, 0x74, 0x40, 0x00, 0x04, 0x40, 0x00, 0xfc, 0x7f, 0x00,
   0x00, 0x00, 0x00};
