#define expand_width 17
#define expand_height 17
static char expand_bits[] = {
   0x00, 0x00, 0x00, 0x00, 0xf0, 0x00, 0x00, 0xf0, 0x00, 0x00, 0xf4, 0x00,
   0x00, 0xf2, 0x00, 0x00, 0x01, 0x00, 0x9c, 0xf0, 0x00, 0x22, 0xf0, 0x00,
   0xa2, 0xf7, 0x00, 0x22, 0xf0, 0x00, 0x9c, 0x00, 0x00, 0x00, 0xf1, 0x00,
   0x00, 0xf2, 0x00, 0x00, 0xf4, 0x00, 0x00, 0xf0, 0x00, 0x00, 0x00, 0x00,
   0x00, 0x00, 0x00};
