#define expose_width 17
#define expose_height 17
static char expose_bits[] = {
   0x00, 0x00, 0x00, 0x00, 0x00, 0x00, 0x0c, 0x60, 0x00, 0x1c, 0x70, 0x00,
   0x38, 0x38, 0x00, 0x70, 0x1c, 0x00, 0xe0, 0x0e, 0x00, 0xc0, 0x07, 0x00,
   0x80, 0x03, 0x00, 0xc0, 0x07, 0x00, 0xe0, 0x0e, 0x00, 0x70, 0x1c, 0x00,
   0x38, 0x38, 0x00, 0x1c, 0x70, 0x00, 0x0c, 0x60, 0x00, 0x00, 0x00, 0x00,
   0x00, 0x00, 0x00};
