#define generate_width 17
#define generate_height 17
static char generate_bits[] = {
   0x00, 0x00, 0x00, 0x1e, 0x04, 0x00, 0x12, 0x04, 0x00, 0x7e, 0x04, 0x00,
   0x4a, 0x04, 0x00, 0x7a, 0x04, 0x00, 0x4e, 0x04, 0x00, 0x48, 0x0a, 0x00,
   0x7a, 0x1f, 0x00, 0x02, 0x0e, 0x00, 0x0a, 0x0a, 0x00, 0x1a, 0x1f, 0x00,
   0x3c, 0x1f, 0x00, 0x98, 0x31, 0x00, 0xc8, 0x60, 0x00, 0xe0, 0xe0, 0x00,
   0x00, 0x00, 0x00};
