#define grid_width 10
#define grid_height 10
static char grid_bits[] = {
   0xff, 0x03, 0x01, 0x00, 0x01, 0x00, 0x01, 0x00, 0x01, 0x00, 0x01, 0x00,
   0x01, 0x00, 0x01, 0x00, 0x01, 0x00, 0x01, 0x00};
