#define import_width 17
#define import_height 17
static char import_bits[] = {
   0x00, 0x00, 0x00, 0xf8, 0x0f, 0x00, 0x08, 0x08, 0x00, 0xf8, 0x0f, 0x00,
   0x08, 0x08, 0x00, 0xc8, 0x3f, 0x00, 0x48, 0x20, 0x00, 0xc8, 0x3f, 0x00,
   0x48, 0x20, 0x00, 0x78, 0x20, 0x00, 0xc0, 0x3f, 0x00, 0x00, 0x00, 0x00,
   0xe0, 0x0f, 0x00, 0xc0, 0x07, 0x00, 0x80, 0x03, 0x00, 0x00, 0x01, 0x00,
   0x00, 0x00, 0x00};
