#define input_width 17
#define input_height 17
static char input_bits[] = {
   0x00, 0x00, 0x00, 0x00, 0x00, 0x00, 0xf8, 0xf8, 0x00, 0x70, 0x70, 0x00,
   0x20, 0x20, 0x00, 0x00, 0x00, 0x00, 0xfc, 0x01, 0x00, 0x02, 0xfa, 0x00,
   0xaa, 0x8a, 0x00, 0xaa, 0x8a, 0x00, 0x02, 0x8a, 0x00, 0x02, 0xfa, 0x00,
   0x02, 0x02, 0x00, 0x02, 0x02, 0x00, 0xfe, 0x03, 0x00, 0xfc, 0x01, 0x00,
   0x00, 0x00, 0x00};
