#define command_instance_width 17
#define command_instance_height 17
static char command_instance_bits[] = {
   0xff, 0xff, 0xff, 0xff, 0xff, 0xff, 0xff, 0xff, 0xff, 0xff, 0xfe, 0xff,
   0x7f, 0xfc, 0xff, 0x7f, 0xfc, 0xff, 0x3f, 0xf8, 0xff, 0x3f, 0xf9, 0xff,
   0x9f, 0xf3, 0xff, 0x9f, 0xf3, 0xff, 0xcf, 0xe7, 0xff, 0x0f, 0xe0, 0xff,
   0x07, 0xc0, 0xff, 0xff, 0xff, 0xff, 0xff, 0xff, 0xff, 0xff, 0xff, 0xff,
   0xff, 0xff, 0xff};
