#define key_rels_width 17
#define key_rels_height 17
static char key_rels_bits[] = {
   0x00, 0x00, 0x00, 0x00, 0x01, 0x00, 0x80, 0x03, 0x00, 0xc0, 0x07, 0x00,
   0x00, 0x01, 0x00, 0x00, 0x01, 0x00, 0x00, 0x00, 0x00, 0xfe, 0xff, 0x00,
   0x02, 0x80, 0x00, 0xaa, 0xaa, 0x00, 0x52, 0x95, 0x00, 0xa2, 0x8a, 0x00,
   0x02, 0x80, 0x00, 0xfe, 0xff, 0x00, 0x00, 0x00, 0x00, 0x00, 0x00, 0x00,
   0x00, 0x00, 0x00};
