#define key_return_width 17
#define key_return_height 17
static char key_return_bits[] = {
   0x00, 0x00, 0x00, 0x00, 0x00, 0x00, 0x00, 0x00, 0x00, 0x00, 0x00, 0x00,
   0x00, 0x00, 0x00, 0x00, 0x20, 0x00, 0x00, 0x20, 0x00, 0x00, 0x20, 0x00,
   0x00, 0x20, 0x00, 0x20, 0x20, 0x00, 0x30, 0x20, 0x00, 0xf8, 0x1f, 0x00,
   0x30, 0x00, 0x00, 0x20, 0x00, 0x00, 0x00, 0x00, 0x00, 0x00, 0x00, 0x00,
   0x00, 0x00, 0x00};
