#define menus_width 17
#define menus_height 17
static char menus_bits[] = {
   0x00, 0x00, 0x00, 0xf8, 0xff, 0x00, 0x08, 0x00, 0x00, 0xc8, 0xc7, 0x00,
   0x08, 0x00, 0x00, 0xf8, 0xff, 0x00, 0x10, 0x10, 0x00, 0xd0, 0x13, 0x00,
   0x10, 0x10, 0x00, 0xd0, 0x17, 0x00, 0x10, 0x10, 0x00, 0xd0, 0x11, 0x00,
   0x10, 0x10, 0x00, 0xd0, 0x17, 0x00, 0x10, 0x10, 0x00, 0xf0, 0x1f, 0x00,
   0x00, 0x00, 0x00};
