#define menu_pll_width 17
#define menu_pll_height 17
static char menu_pll_bits[] = {
   0x00, 0x00, 0x00, 0xfe, 0x07, 0x00, 0x02, 0x04, 0x00, 0xfa, 0xff, 0x00,
   0x82, 0x80, 0x00, 0xfe, 0xbe, 0x00, 0x82, 0x80, 0x00, 0xfa, 0xff, 0x00,
   0x82, 0x80, 0x00, 0xfa, 0xbe, 0x00, 0x82, 0x80, 0x00, 0xfa, 0xbe, 0x00,
   0x82, 0x80, 0x00, 0xfe, 0xbe, 0x00, 0x80, 0x80, 0x00, 0x80, 0xff, 0x00,
   0x00, 0x00, 0x00};
