#define mouse1u_width 17
#define mouse1u_height 17
static char mouse1u_bits[] = {
   0x00, 0x00, 0x00, 0xf8, 0x3f, 0x00, 0x7c, 0x44, 0x00, 0x7c, 0xc4, 0x00,
   0x7c, 0xc4, 0x00, 0x7c, 0xc4, 0x00, 0xfc, 0xff, 0x00, 0x04, 0xc0, 0x00,
   0x04, 0xc1, 0x00, 0x84, 0xc3, 0x00, 0xc4, 0xc7, 0x00, 0x04, 0xc1, 0x00,
   0x04, 0xc1, 0x00, 0x18, 0x70, 0x00, 0xf0, 0x3f, 0x00, 0xc0, 0x0f, 0x00,
   0x00, 0x00, 0x00};
