#define move_width 17
#define move_height 17
static char move_bits[] = {
   0x00, 0x00, 0x00, 0x00, 0x00, 0x00, 0x1c, 0x00, 0x00, 0x1c, 0x00, 0x00,
   0x1c, 0x00, 0x00, 0x1c, 0x00, 0x00, 0x1c, 0x10, 0x00, 0x1c, 0x20, 0x00,
   0x1c, 0x40, 0x00, 0x9c, 0xff, 0x00, 0x1c, 0x40, 0x00, 0x1c, 0x20, 0x00,
   0x1c, 0x10, 0x00, 0x1c, 0x00, 0x00, 0x1c, 0x00, 0x00, 0x00, 0x00, 0x00,
   0x00, 0x00, 0x00};
