#define mse_entr_width 17
#define mse_entr_height 17
static char mse_entr_bits[] = {
   0x00, 0x00, 0x00, 0xf8, 0x3f, 0x00, 0x08, 0x20, 0x00, 0x08, 0x20, 0x00,
   0x08, 0x20, 0x00, 0x08, 0x20, 0x00, 0x88, 0x20, 0x00, 0x80, 0x21, 0x00,
   0xfe, 0x23, 0x00, 0x80, 0x21, 0x00, 0x88, 0x20, 0x00, 0x08, 0x20, 0x00,
   0x08, 0x20, 0x00, 0x08, 0x20, 0x00, 0x08, 0x20, 0x00, 0xf8, 0x3f, 0x00,
   0x00, 0x00, 0x00};
