#define mse_leav_width 17
#define mse_leav_height 17
static char mse_leav_bits[] = {
   0x00, 0x00, 0x00, 0xfe, 0x0f, 0x00, 0x02, 0x08, 0x00, 0x02, 0x08, 0x00,
   0x02, 0x08, 0x00, 0x02, 0x08, 0x00, 0x02, 0x28, 0x00, 0x02, 0x60, 0x00,
   0xf2, 0xff, 0x00, 0x02, 0x60, 0x00, 0x02, 0x28, 0x00, 0x02, 0x08, 0x00,
   0x02, 0x08, 0x00, 0x02, 0x08, 0x00, 0x02, 0x08, 0x00, 0xfe, 0x0f, 0x00,
   0x00, 0x00, 0x00};
