#define mt1mouse_width 17
#define mt1mouse_height 17
static char mt1mouse_bits[] = {
   0x00, 0x00, 0x00, 0xf8, 0x3f, 0x00, 0x7c, 0x44, 0x00, 0x7c, 0xc4, 0x00,
   0x7c, 0xc4, 0x00, 0x7c, 0xc4, 0x00, 0xfc, 0xff, 0x00, 0x04, 0xc0, 0x00,
   0x04, 0xc2, 0x00, 0x04, 0xc6, 0x00, 0xe4, 0xcf, 0x00, 0x04, 0xc6, 0x00,
   0x04, 0xc2, 0x00, 0x18, 0x70, 0x00, 0xf0, 0x3f, 0x00, 0xc0, 0x0f, 0x00,
   0x00, 0x00, 0x00};
