#define ok_tick_width 17
#define ok_tick_height 17
static char ok_tick_bits[] = {
   0x00, 0x00, 0x00, 0x00, 0x00, 0x00, 0x00, 0x40, 0x00, 0x00, 0x20, 0x00,
   0x00, 0x30, 0x00, 0x00, 0x18, 0x00, 0x00, 0x18, 0x00, 0x00, 0x0c, 0x00,
   0x10, 0x0c, 0x00, 0x30, 0x06, 0x00, 0x60, 0x06, 0x00, 0x60, 0x03, 0x00,
   0xc0, 0x03, 0x00, 0x80, 0x01, 0x00, 0x00, 0x00, 0x00, 0x00, 0x00, 0x00,
   0x00, 0x00, 0x00};
