#define opt_pull_width 17
#define opt_pull_height 17
static char opt_pull_bits[] = {
   0x00, 0x00, 0x00, 0xfe, 0x1f, 0x00, 0x02, 0x30, 0x00, 0xfa, 0x35, 0x00,
   0xf2, 0x7f, 0x00, 0x1e, 0x40, 0x00, 0xdc, 0x5f, 0x00, 0x10, 0x40, 0x00,
   0xd0, 0x47, 0x00, 0x10, 0x40, 0x00, 0xd0, 0x4f, 0x00, 0x10, 0x40, 0x00,
   0xd0, 0x5f, 0x00, 0x10, 0x40, 0x00, 0xf0, 0x7f, 0x00, 0x00, 0x00, 0x00,
   0x00, 0x00, 0x00};
