#define scallers_width 17
#define scallers_height 17
static char scallers_bits[] = {
   0xe0, 0x0f, 0x00, 0x18, 0x30, 0x00, 0x04, 0x40, 0x00, 0x04, 0x40, 0x00,
   0x04, 0x40, 0x00, 0x18, 0x30, 0x00, 0xe0, 0x0f, 0x00, 0x00, 0x01, 0x00,
   0x80, 0x03, 0x00, 0xc0, 0x07, 0x00, 0x00, 0x01, 0x00, 0x00, 0x01, 0x00,
   0x00, 0x01, 0x00, 0x00, 0x01, 0x00, 0xe0, 0x0f, 0x00, 0x18, 0x30, 0x00,
   0x04, 0x40, 0x00};
