#define pointer_mot_width 17
#define pointer_mot_height 17
static char pointer_mot_bits[] = {
   0x00, 0x00, 0x00, 0x00, 0x00, 0x00, 0x00, 0x20, 0x00, 0x00, 0x40, 0x00,
   0x00, 0xfc, 0x00, 0x00, 0x41, 0x00, 0x00, 0x21, 0x00, 0x00, 0x01, 0x00,
   0x00, 0x01, 0x00, 0xf0, 0x1f, 0x00, 0x00, 0x01, 0x00, 0x00, 0x01, 0x00,
   0x00, 0x01, 0x00, 0x00, 0x01, 0x00, 0x00, 0x00, 0x00, 0x00, 0x00, 0x00,
   0x00, 0x00, 0x00};
