#define pop_fn_width 17
#define pop_fn_height 17
static char pop_fn_bits[] = {
   0xfc, 0x7f, 0x00, 0x00, 0x80, 0x00, 0xf0, 0x7f, 0x00, 0x08, 0x00, 0x00,
   0xf0, 0x0f, 0x00, 0x00, 0x10, 0x00, 0x00, 0x0f, 0x00, 0x00, 0x01, 0x00,
   0xc0, 0x07, 0x00, 0x80, 0x03, 0x00, 0x00, 0x01, 0x00, 0x00, 0x00, 0x00,
   0xc0, 0x07, 0x00, 0x20, 0x08, 0x00, 0x10, 0x10, 0x00, 0x20, 0x08, 0x00,
   0xc0, 0x07, 0x00};
