#define pred_cmd_width 17
#define pred_cmd_height 17
static char pred_cmd_bits[] = {
   0xff, 0xff, 0xff, 0x55, 0x55, 0xff, 0xab, 0xab, 0xff, 0xd5, 0x56, 0xff,
   0x6b, 0xac, 0xff, 0x75, 0x5c, 0xff, 0x3b, 0xa8, 0xff, 0x35, 0x58, 0xff,
   0x1b, 0xb0, 0xff, 0x1d, 0x70, 0xff, 0x0b, 0xa0, 0xff, 0x0d, 0x60, 0xff,
   0x07, 0xc0, 0xff, 0xfd, 0x7f, 0xff, 0xab, 0xaa, 0xff, 0x55, 0x55, 0xff,
   0xff, 0xff, 0xff};
