#define primitives_width 17
#define primitives_height 17
static char primitives_bits[] = {
   0x00, 0x00, 0x00, 0xfe, 0xf8, 0x00, 0x82, 0x20, 0x00, 0xfe, 0x20, 0x00,
   0x00, 0x20, 0x00, 0x00, 0x20, 0x00, 0x04, 0x00, 0x00, 0x0e, 0xff, 0x00,
   0x04, 0x85, 0x00, 0x04, 0x85, 0x00, 0x04, 0x85, 0x00, 0x04, 0x85, 0x00,
   0x04, 0x85, 0x00, 0x04, 0x85, 0x00, 0x0e, 0x85, 0x00, 0x04, 0xff, 0x00,
   0x00, 0x00, 0x00};
