#define radio_bx_width 17
#define radio_bx_height 17
static char radio_bx_bits[] = {
   0x00, 0x00, 0x00, 0xfc, 0x7f, 0x00, 0x04, 0x40, 0x00, 0x24, 0x40, 0x00,
   0x54, 0x5e, 0x00, 0x24, 0x40, 0x00, 0x04, 0x40, 0x00, 0x24, 0x40, 0x00,
   0x74, 0x5e, 0x00, 0x24, 0x40, 0x00, 0x04, 0x40, 0x00, 0x24, 0x40, 0x00,
   0x54, 0x5e, 0x00, 0x24, 0x40, 0x00, 0x04, 0x40, 0x00, 0xfc, 0x7f, 0x00,
   0x00, 0x00, 0x00};
