#define resize_width 17
#define resize_height 17
static char resize_bits[] = {
   0x00, 0x00, 0x00, 0x00, 0xe0, 0x00, 0x00, 0xc0, 0x00, 0xfc, 0xbf, 0x00,
   0x04, 0x30, 0x00, 0x04, 0x28, 0x00, 0x04, 0x24, 0x00, 0xac, 0x22, 0x00,
   0x04, 0x20, 0x00, 0x04, 0x22, 0x00, 0x04, 0x20, 0x00, 0x04, 0x22, 0x00,
   0x04, 0x20, 0x00, 0x04, 0x22, 0x00, 0x04, 0x20, 0x00, 0xfc, 0x3f, 0x00,
   0x00, 0x00, 0x00};
