#define sel_attrib_width 17
#define sel_attrib_height 17
static char sel_attrib_bits[] = {
   0xff, 0xff, 0xff, 0xc7, 0xc7, 0xff, 0x83, 0x83, 0xff, 0x39, 0x39, 0xff,
   0x39, 0x39, 0xff, 0x39, 0x39, 0xff, 0x83, 0x83, 0xff, 0xc7, 0xc7, 0xff,
   0xff, 0xff, 0xff, 0xc7, 0xc7, 0xff, 0x83, 0x83, 0xff, 0x39, 0x39, 0xff,
   0x39, 0x39, 0xff, 0x39, 0x39, 0xff, 0x83, 0x83, 0xff, 0xc7, 0xc7, 0xff,
   0xff, 0xff, 0xff};
