#define sel_beh_format_width 17
#define sel_beh_format_height 17
static char sel_beh_format_bits[] = {
   0xff, 0xff, 0xff, 0xff, 0xff, 0xff, 0xff, 0xff, 0xff, 0xff, 0xfe, 0xff,
   0x7f, 0xfc, 0xff, 0x3f, 0xf8, 0xff, 0x1f, 0xf0, 0xff, 0x0f, 0xe0, 0xff,
   0x07, 0xc0, 0xff, 0x0f, 0xe0, 0xff, 0x1f, 0xf0, 0xff, 0x3f, 0xf8, 0xff,
   0x7f, 0xfc, 0xff, 0xff, 0xfe, 0xff, 0xff, 0xff, 0xff, 0xff, 0xff, 0xff,
   0xff, 0xff, 0xff};
