#define sel_button_width 17
#define sel_button_height 17
static char sel_button_bits[] = {
   0xff, 0xff, 0xff, 0xff, 0xff, 0xff, 0xff, 0xff, 0xff, 0xff, 0xff, 0xff,
   0x01, 0x00, 0xff, 0xfe, 0xff, 0xfe, 0xc6, 0xc1, 0xfe, 0xb6, 0xf7, 0xfe,
   0xc6, 0xf7, 0xfe, 0xb6, 0xf7, 0xfe, 0xc6, 0xf7, 0xfe, 0xfe, 0xff, 0xfe,
   0x01, 0x00, 0xff, 0xff, 0xff, 0xff, 0xff, 0xff, 0xff, 0xff, 0xff, 0xff,
   0xff, 0xff, 0xff};
