#define scale_width 17
#define scale_height 17
static char scale_bits[] = {
   0x00, 0x00, 0x00, 0x00, 0x1f, 0x00, 0x00, 0x11, 0x00, 0x00, 0x11, 0x00,
   0x00, 0x11, 0x00, 0x00, 0x11, 0x00, 0x00, 0x11, 0x00, 0x00, 0x11, 0x00,
   0x00, 0x11, 0x00, 0x70, 0x15, 0x00, 0x40, 0x15, 0x00, 0x20, 0x15, 0x00,
   0x20, 0x15, 0x00, 0x00, 0x11, 0x00, 0x00, 0x11, 0x00, 0x00, 0x1f, 0x00,
   0x00, 0x00, 0x00};
