#define scr_t_modify_width 17
#define scr_t_modify_height 17
static char scr_t_modify_bits[] = {
   0x00, 0x00, 0x00, 0xfe, 0xff, 0x00, 0x02, 0x80, 0x00, 0xfa, 0xae, 0x00,
   0x02, 0x80, 0x00, 0xf2, 0x80, 0x00, 0x02, 0x80, 0x00, 0x02, 0x80, 0x00,
   0x02, 0x80, 0x00, 0x02, 0x80, 0x00, 0x02, 0x80, 0x00, 0x02, 0x80, 0x00,
   0x02, 0x80, 0x00, 0x02, 0x80, 0x00, 0x02, 0x80, 0x00, 0xfe, 0xff, 0x00,
   0x00, 0x00, 0x00};
