#define scrolled_t_width 17
#define scrolled_t_height 17
static char scrolled_t_bits[] = {
   0xff, 0xff, 0x00, 0x01, 0x88, 0x00, 0x01, 0xa8, 0x00, 0x01, 0xa8, 0x00,
   0x01, 0xa8, 0x00, 0x01, 0xa8, 0x00, 0x01, 0xa8, 0x00, 0x01, 0xa8, 0x00,
   0x01, 0xa8, 0x00, 0x01, 0xa8, 0x00, 0x01, 0x88, 0x00, 0xff, 0xff, 0x00,
   0x01, 0x08, 0x00, 0xfd, 0x0b, 0x00, 0x01, 0x08, 0x00, 0xff, 0x0f, 0x00,
   0x00, 0x00, 0x00};
