#define sets_width 17
#define sets_height 17
static char sets_bits[] = {
   0x00, 0x00, 0x00, 0xfe, 0xff, 0x00, 0x02, 0x80, 0x00, 0x02, 0x80, 0x00,
   0x92, 0xbf, 0x00, 0xba, 0xa0, 0x00, 0x92, 0xbf, 0x00, 0x02, 0x80, 0x00,
   0x02, 0x80, 0x00, 0x92, 0xbf, 0x00, 0xba, 0xa0, 0x00, 0x92, 0xbf, 0x00,
   0x02, 0x80, 0x00, 0x02, 0x80, 0x00, 0x02, 0x80, 0x00, 0xfe, 0xff, 0x00,
   0x00, 0x00, 0x00};
