#define sgeneral_width 17
#define sgeneral_height 17
static char sgeneral_bits[] = {
   0xff, 0xff, 0xff, 0xff, 0xfe, 0xff, 0xff, 0xfe, 0xff, 0x7f, 0xfc, 0xff,
   0x7f, 0xfc, 0xff, 0x7f, 0xfc, 0xff, 0x3f, 0xf8, 0xff, 0x01, 0x00, 0xff,
   0x03, 0x80, 0xff, 0x0f, 0xe0, 0xff, 0x1f, 0xf0, 0xff, 0x0f, 0xe0, 0xff,
   0x0f, 0xe0, 0xff, 0x8f, 0xe3, 0xff, 0xc7, 0xc7, 0xff, 0xf7, 0xdf, 0xff,
   0xff, 0xff, 0xff};
