#define sel_grid_width 17
#define sel_grid_height 17
static char sel_grid_bits[] = {
   0xff, 0xff, 0xff, 0xff, 0xff, 0xff, 0x03, 0x80, 0xff, 0xdb, 0xb6, 0xff,
   0xdb, 0xb6, 0xff, 0x03, 0x80, 0xff, 0xdb, 0xb6, 0xff, 0xdb, 0xb6, 0xff,
   0x03, 0x80, 0xff, 0xdb, 0xb6, 0xff, 0xdb, 0xb6, 0xff, 0x03, 0x80, 0xff,
   0xdb, 0xb6, 0xff, 0xdb, 0xb6, 0xff, 0x03, 0x80, 0xff, 0xff, 0xff, 0xff,
   0xff, 0xff, 0xff};
