#define sel_groups_width 17
#define sel_groups_height 17
static char sel_groups_bits[] = {
   0xff, 0xff, 0xff, 0x01, 0x00, 0xfe, 0xfd, 0xff, 0xff, 0x05, 0xfe, 0xff,
   0xf5, 0xfe, 0xff, 0xb5, 0xfe, 0xff, 0x35, 0xfe, 0xff, 0xf5, 0xfc, 0xff,
   0x05, 0xf8, 0xff, 0xfd, 0x03, 0xfe, 0xfd, 0xf3, 0xfe, 0xfd, 0xfb, 0xfe,
   0xfd, 0xfb, 0xfe, 0xfd, 0xfb, 0xfe, 0xfd, 0x03, 0xfe, 0xfd, 0xff, 0xff,
   0xfd, 0xff, 0xff};
