#define smenus_width 17
#define smenus_height 17
static char smenus_bits[] = {
   0xff, 0xff, 0xff, 0x07, 0x00, 0xff, 0xf7, 0xff, 0xff, 0x37, 0x38, 0xff,
   0xf7, 0xff, 0xff, 0x07, 0x00, 0xff, 0xef, 0xef, 0xff, 0x2f, 0xec, 0xff,
   0xef, 0xef, 0xff, 0x2f, 0xe8, 0xff, 0xef, 0xef, 0xff, 0x2f, 0xee, 0xff,
   0xef, 0xef, 0xff, 0x2f, 0xe8, 0xff, 0xef, 0xef, 0xff, 0x0f, 0xe0, 0xff,
   0xff, 0xff, 0xff};
