#define smouse_width 17
#define smouse_height 17
static char smouse_bits[] = {
   0xff, 0xff, 0xff, 0x07, 0xc0, 0xff, 0xbb, 0xbb, 0xff, 0xbb, 0x3b, 0xff,
   0xbb, 0x3b, 0xff, 0xbb, 0x3b, 0xff, 0x03, 0x00, 0xff, 0xfb, 0x3f, 0xff,
   0xfb, 0x3f, 0xff, 0xfb, 0x3f, 0xff, 0xfb, 0x3f, 0xff, 0xfb, 0x3f, 0xff,
   0xfb, 0x3f, 0xff, 0xe7, 0x8f, 0xff, 0x0f, 0xc0, 0xff, 0x3f, 0xf0, 0xff,
   0xff, 0xff, 0xff};
