#define sel_primitives_width 17
#define sel_primitives_height 17
static char sel_primitives_bits[] = {
   0xff, 0xff, 0xff, 0x01, 0x07, 0xff, 0x7d, 0xdf, 0xff, 0x01, 0xdf, 0xff,
   0xff, 0xdf, 0xff, 0xff, 0xdf, 0xff, 0xfb, 0xff, 0xff, 0xf1, 0x00, 0xff,
   0xfb, 0x7a, 0xff, 0xfb, 0x7a, 0xff, 0xfb, 0x7a, 0xff, 0xfb, 0x7a, 0xff,
   0xfb, 0x7a, 0xff, 0xfb, 0x7a, 0xff, 0xf1, 0x7a, 0xff, 0xfb, 0x00, 0xff,
   0xff, 0xff, 0xff};
