#define sel_scale_width 17
#define sel_scale_height 17
static char sel_scale_bits[] = {
   0xff, 0xf8, 0xff, 0x7f, 0xf0, 0xff, 0x7f, 0xf7, 0xff, 0x7f, 0xf7, 0xff,
   0x7f, 0xf7, 0xff, 0x7f, 0xf7, 0xff, 0x7f, 0xf7, 0xff, 0x7f, 0xf5, 0xff,
   0x7f, 0xf5, 0xff, 0x7f, 0xf5, 0xff, 0x7f, 0xf5, 0xff, 0x7f, 0xf5, 0xff,
   0x7f, 0xf7, 0xff, 0x7f, 0xf7, 0xff, 0x7f, 0xf7, 0xff, 0x7f, 0xf0, 0xff,
   0xff, 0xf8, 0xff};
