#define sel_sets_width 17
#define sel_sets_height 17
static char sel_sets_bits[] = {
   0xff, 0xff, 0xff, 0x01, 0x00, 0xff, 0xfd, 0x7f, 0xff, 0xfd, 0x7f, 0xff,
   0x6d, 0x40, 0xff, 0x45, 0x5f, 0xff, 0x6d, 0x40, 0xff, 0xfd, 0x7f, 0xff,
   0xfd, 0x7f, 0xff, 0x6d, 0x40, 0xff, 0x45, 0x5f, 0xff, 0x6d, 0x40, 0xff,
   0xfd, 0x7f, 0xff, 0xfd, 0x7f, 0xff, 0xfd, 0x7f, 0xff, 0x01, 0x00, 0xff,
   0xff, 0xff, 0xff};
