#define context_width 17
#define context_height 17
static char context_bits[] = {
   0xff, 0xff, 0xff, 0xff, 0xff, 0xff, 0xff, 0xff, 0xff, 0xff, 0xff, 0xff,
   0x3f, 0xf8, 0xff, 0x1f, 0xf0, 0xff, 0x0f, 0xe0, 0xff, 0x0f, 0xe0, 0xff,
   0x0f, 0xe0, 0xff, 0x0f, 0xe0, 0xff, 0x0f, 0xe0, 0xff, 0x1f, 0xf0, 0xff,
   0x3f, 0xf8, 0xff, 0xff, 0xff, 0xff, 0xff, 0xff, 0xff, 0xff, 0xff, 0xff,
   0xff, 0xff, 0xff};
