#define sel_translations_width 17
#define sel_translations_height 17
static char sel_translations_bits[] = {
   0xff, 0xff, 0xff, 0xff, 0xff, 0xff, 0xff, 0xff, 0xff, 0xff, 0xff, 0xff,
   0xff, 0xff, 0xff, 0xff, 0xff, 0xff, 0x00, 0x00, 0xfe, 0xfe, 0xff, 0xfe,
   0x56, 0xd5, 0xfe, 0xaa, 0xaa, 0xfe, 0xfe, 0xff, 0xfe, 0x00, 0x00, 0xfe,
   0xff, 0xff, 0xff, 0xff, 0xff, 0xff, 0xff, 0xff, 0xff, 0xff, 0xff, 0xff,
   0xff, 0xff, 0xff};
