#define stxt_fld_width 17
#define stxt_fld_height 17
static char stxt_fld_bits[] = {
   0xff, 0xff, 0xff, 0xff, 0xff, 0xff, 0x01, 0x00, 0xff, 0x01, 0x00, 0xff,
   0xf9, 0xff, 0xff, 0xf9, 0x8f, 0xff, 0xf9, 0xdd, 0xff, 0x99, 0xdd, 0xff,
   0x79, 0xd1, 0xff, 0x19, 0xcd, 0xff, 0x69, 0xcd, 0xff, 0x19, 0xd1, 0xff,
   0xf9, 0x8f, 0xff, 0xf9, 0xff, 0xff, 0x01, 0x00, 0xff, 0xff, 0xff, 0xff,
   0xff, 0xff, 0xff};
