#define susr_def_width 17
#define susr_def_height 17
static char susr_def_bits[] = {
   0xff, 0xff, 0xff, 0xff, 0xff, 0xff, 0xff, 0xff, 0xff, 0xe3, 0xe7, 0xff,
   0xc7, 0xe7, 0xff, 0xcf, 0xe7, 0xff, 0xcf, 0xe7, 0xff, 0xcf, 0xe7, 0xff,
   0xcf, 0xe7, 0xff, 0xcf, 0xe7, 0xff, 0xcf, 0xe3, 0xff, 0x8f, 0xc1, 0xff,
   0x1f, 0x88, 0xff, 0x3f, 0x1c, 0xff, 0xff, 0xff, 0xff, 0xff, 0xff, 0xff,
   0xff, 0xff, 0xff};
