#define text_fld_width 17
#define text_fld_height 17
static char text_fld_bits[] = {
   0x00, 0x00, 0x00, 0x00, 0x00, 0x00, 0xfe, 0xff, 0x00, 0xfe, 0xff, 0x00,
   0x06, 0x00, 0x00, 0x06, 0x70, 0x00, 0x06, 0x22, 0x00, 0x66, 0x22, 0x00,
   0x86, 0x2e, 0x00, 0xe6, 0x32, 0x00, 0x96, 0x32, 0x00, 0xe6, 0x2e, 0x00,
   0x06, 0x70, 0x00, 0x06, 0x00, 0x00, 0xfe, 0xff, 0x00, 0x00, 0x00, 0x00,
   0x00, 0x00, 0x00};
