#define text_width 17
#define text_height 17
static char text_bits[] = {
   0x06, 0x00, 0x00, 0x09, 0x00, 0x00, 0x09, 0x00, 0x00, 0x0f, 0x00, 0x00,
   0x09, 0x00, 0x00, 0x09, 0x00, 0x00, 0xc0, 0x01, 0x00, 0x40, 0x02, 0x00,
   0x40, 0x02, 0x00, 0xc0, 0x01, 0x00, 0x40, 0xc2, 0x01, 0x40, 0x22, 0x01,
   0xc0, 0x21, 0x00, 0x00, 0x20, 0x00, 0x00, 0x20, 0x00, 0x00, 0x20, 0x01,
   0x00, 0xc0, 0x01};
