#define toggle_b_width 17
#define toggle_b_height 17
static char toggle_b_bits[] = {
   0x00, 0x00, 0x00, 0x00, 0x00, 0x00, 0x00, 0x00, 0x00, 0x00, 0x00, 0x00,
   0x00, 0x00, 0x00, 0x00, 0x93, 0x00, 0x9e, 0xb4, 0x00, 0x9e, 0xd4, 0x00,
   0x9e, 0x94, 0x00, 0x9e, 0x94, 0x00, 0x00, 0x93, 0x00, 0x00, 0x00, 0x00,
   0x00, 0x00, 0x00, 0x00, 0x00, 0x00, 0x00, 0x00, 0x00, 0x00, 0x00, 0x00,
   0x00, 0x00, 0x00};
