#define translation_width 17
#define translation_height 17
static char translation_bits[] = {
   0x00, 0x00, 0x00, 0x00, 0x00, 0x00, 0x00, 0x00, 0x00, 0x00, 0x00, 0x00,
   0x00, 0x00, 0x00, 0x00, 0x00, 0x00, 0xff, 0xff, 0x01, 0x01, 0x00, 0x01,
   0xa9, 0x2a, 0x01, 0x55, 0x55, 0x01, 0x01, 0x00, 0x01, 0xff, 0xff, 0x01,
   0x00, 0x00, 0x00, 0x00, 0x00, 0x00, 0x00, 0x00, 0x00, 0x00, 0x00, 0x00,
   0x00, 0x00, 0x00};
