#define transition_width 17
#define transition_height 17
static char transition_bits[] = {
   0xff, 0xff, 0xff, 0xff, 0xff, 0xff, 0xff, 0xff, 0xff, 0xff, 0xff, 0xff,
   0xff, 0xff, 0xff, 0xff, 0xf7, 0xff, 0xff, 0xe7, 0xff, 0x03, 0xc0, 0xff,
   0x03, 0x80, 0xff, 0x03, 0xc0, 0xff, 0xff, 0xe7, 0xff, 0xff, 0xf7, 0xff,
   0xff, 0xff, 0xff, 0xff, 0xff, 0xff, 0xff, 0xff, 0xff, 0xff, 0xff, 0xff,
   0xff, 0xff, 0xff};
