#define command_type_width 17
#define command_type_height 17
static char command_type_bits[] = {
   0xff, 0xff, 0xff, 0xff, 0xff, 0xff, 0xff, 0xff, 0xff, 0x07, 0xc0, 0xff,
   0x07, 0xc0, 0xff, 0x07, 0xc0, 0xff, 0x07, 0xc0, 0xff, 0x07, 0xc0, 0xff,
   0x07, 0xc0, 0xff, 0x07, 0xc0, 0xff, 0x07, 0xc0, 0xff, 0x07, 0xc0, 0xff,
   0x07, 0xc0, 0xff, 0x07, 0xc0, 0xff, 0xff, 0xff, 0xff, 0xff, 0xff, 0xff,
   0xff, 0xff, 0xff};
