#define user_def_width 17
#define user_def_height 17
static char user_def_bits[] = {
   0x00, 0x00, 0x00, 0x00, 0x00, 0x00, 0x00, 0x00, 0x00, 0x1c, 0x18, 0x00,
   0x38, 0x18, 0x00, 0x30, 0x18, 0x00, 0x30, 0x18, 0x00, 0x30, 0x18, 0x00,
   0x30, 0x18, 0x00, 0x30, 0x18, 0x00, 0x30, 0x1c, 0x00, 0x70, 0x3e, 0x00,
   0xe0, 0x77, 0x00, 0xc0, 0xe3, 0x00, 0x00, 0x00, 0x00, 0x00, 0x00, 0x00,
   0x00, 0x00, 0x00};
