#define wdgt_dst_width 17
#define wdgt_dst_height 17
static char wdgt_dst_bits[] = {
   0x00, 0x00, 0xfe, 0x0c, 0x60, 0xfe, 0x92, 0x93, 0xfe, 0x72, 0x9c, 0xfe,
   0x2c, 0x68, 0xfe, 0x10, 0x10, 0xfe, 0xc8, 0x26, 0xfe, 0x68, 0x2c, 0xfe,
   0x08, 0x20, 0xfe, 0x88, 0x23, 0xfe, 0x10, 0x11, 0xfe, 0x30, 0x10, 0xfe,
   0xac, 0x6b, 0xfe, 0x32, 0x98, 0xfe, 0x52, 0x94, 0xfe, 0x8c, 0x63, 0xfe,
   0x00, 0x00, 0xfe};
