<?xml version="1.0" encoding="UTF-8" standalone="no"?>
<!-- Generator: Adobe Illustrator 16.0.4, SVG Export Plug-In . SVG Version: 6.00 Build 0)  -->

<svg
   xmlns:dc="http://purl.org/dc/elements/1.1/"
   xmlns:cc="http://creativecommons.org/ns#"
   xmlns:rdf="http://www.w3.org/1999/02/22-rdf-syntax-ns#"
   xmlns:svg="http://www.w3.org/2000/svg"
   xmlns="http://www.w3.org/2000/svg"
   xmlns:sodipodi="http://sodipodi.sourceforge.net/DTD/sodipodi-0.dtd"
   xmlns:inkscape="http://www.inkscape.org/namespaces/inkscape"
   version="1.1"
   id="Layer_1"
   x="0px"
   y="0px"
   width="67.025px"
   height="67.025px"
   viewBox="0 0 67.025 67.025"
   style="enable-background:new 0 0 67.025 67.025;"
   xml:space="preserve"
   inkscape:version="0.48.2 r9819"
   sodipodi:docname="blog1.svg"><metadata
   id="metadata5071"><rdf:RDF><cc:Work
       rdf:about=""><dc:format>image/svg+xml</dc:format><dc:type
         rdf:resource="http://purl.org/dc/dcmitype/StillImage" /></cc:Work></rdf:RDF></metadata><defs
   id="defs5069" /><sodipodi:namedview
   pagecolor="#ffffff"
   bordercolor="#666666"
   borderopacity="1"
   objecttolerance="10"
   gridtolerance="10"
   guidetolerance="10"
   inkscape:pageopacity="0"
   inkscape:pageshadow="2"
   inkscape:window-width="708"
   inkscape:window-height="480"
   id="namedview5067"
   showgrid="false"
   inkscape:zoom="3.5210741"
   inkscape:cx="33.512501"
   inkscape:cy="33.512501"
   inkscape:window-x="0"
   inkscape:window-y="0"
   inkscape:window-maximized="0"
   inkscape:current-layer="Layer_1" />
<g
   id="g5059"
   style="fill:#99cc33;fill-opacity:1">
	<g
   id="g5061"
   style="fill:#99cc33;fill-opacity:1">
		<polygon
   points="41.441,29.476 44.576,31.268 50.847,27.684 41.441,22.086   "
   id="polygon5063"
   style="fill:#99cc33;fill-opacity:1" />
		<path
   d="M60.48,18.052l2.24-4.031c1.791-3.137-3.359-6.721-5.824-8.063c-2.465-1.345-8.063-4.257-9.855-0.896l-3.136,5.376    c-3.138-0.672-6.722-1.12-10.305-1.12C15.008,9.317,0,19.398,0,31.718c0,12.318,15.008,22.398,33.6,22.398c0,0,0,0,0.225,0    c0.224,2.688-2.912,7.168-7.393,9.408c17.698,0,25.761-13.216,25.761-13.216c8.96-4.032,14.783-10.752,14.783-18.592    C67.424,26.565,64.737,21.861,60.48,18.052z M15.455,37.989c-1.792,0-3.136-1.345-3.136-3.137s1.344-3.136,3.136-3.136    s3.136,1.344,3.136,3.136S17.025,37.989,15.455,37.989z M23.743,37.989c-1.792,0-3.136-1.345-3.136-3.137s1.344-3.136,3.136-3.136    s3.136,1.344,3.136,3.136S25.535,37.989,23.743,37.989z M32.032,37.989c-1.792,0-3.137-1.345-3.137-3.137s1.345-3.136,3.137-3.136    s3.136,1.344,3.136,3.136S33.824,37.989,32.032,37.989z M51.969,28.357l-6.496,3.584l-5.377,2.911v-6.048v-7.392l8.961-15.456    c0.447-0.896,3.584,0,6.943,1.792c3.36,1.792,5.6,4.031,4.928,4.928L51.969,28.357z"
   id="path5065"
   style="fill:#99cc33;fill-opacity:1" />
	</g>
</g>
</svg>