<?xml version="1.0" encoding="UTF-8" standalone="no"?>
<!-- Generator: Adobe Illustrator 16.0.4, SVG Export Plug-In . SVG Version: 6.00 Build 0)  -->

<svg
   xmlns:dc="http://purl.org/dc/elements/1.1/"
   xmlns:cc="http://creativecommons.org/ns#"
   xmlns:rdf="http://www.w3.org/1999/02/22-rdf-syntax-ns#"
   xmlns:svg="http://www.w3.org/2000/svg"
   xmlns="http://www.w3.org/2000/svg"
   xmlns:sodipodi="http://sodipodi.sourceforge.net/DTD/sodipodi-0.dtd"
   xmlns:inkscape="http://www.inkscape.org/namespaces/inkscape"
   version="1.1"
   id="Capa_1"
   x="0px"
   y="0px"
   width="14"
   height="14"
   viewBox="0 0 14 14"
   enable-background="new 0 0 14 10"
   xml:space="preserve"
   inkscape:version="0.48.2 r9819"
   sodipodi:docname="close13.svg"><metadata
   id="metadata7326"><rdf:RDF><cc:Work
       rdf:about=""><dc:format>image/svg+xml</dc:format><dc:type
         rdf:resource="http://purl.org/dc/dcmitype/StillImage" /></cc:Work></rdf:RDF></metadata><defs
   id="defs7324" /><sodipodi:namedview
   pagecolor="#ffffff"
   bordercolor="#666666"
   borderopacity="1"
   objecttolerance="10"
   gridtolerance="10"
   guidetolerance="10"
   inkscape:pageopacity="0"
   inkscape:pageshadow="2"
   inkscape:window-width="915"
   inkscape:window-height="608"
   id="namedview7322"
   showgrid="false"
   inkscape:zoom="20.857143"
   inkscape:cx="7"
   inkscape:cy="5"
   inkscape:window-x="0"
   inkscape:window-y="0"
   inkscape:window-maximized="0"
   inkscape:current-layer="Capa_1"
   fit-margin-top="0"
   fit-margin-left="0"
   fit-margin-right="0"
   fit-margin-bottom="0" />
<g
   id="g7312"
   style="fill:#99cc33;fill-opacity:1"
   transform="translate(0,2.1)">
	<path
   d="M 7,7 5.268,5.484 0.316,9.729 C 0.496,9.896 0.739,10 1.007,10 h 11.986 c 0.267,0 0.509,-0.104 0.688,-0.271 L 8.732,5.484 7,7 z"
   id="path7314"
   style="fill:#99cc33;fill-opacity:1"
   inkscape:connector-curvature="0" />
	<path
   d="M 13.684,0.271 C 13.504,0.103 13.262,0 12.993,0 H 1.007 C 0.74,0 0.498,0.104 0.318,0.273 L 7,6 13.684,0.271 z"
   id="path7316"
   style="fill:#99cc33;fill-opacity:1"
   inkscape:connector-curvature="0" />
	<polygon
   points="0,0.878 0,9.186 4.833,5.079 "
   id="polygon7318"
   style="fill:#99cc33;fill-opacity:1" />
	<polygon
   points="9.167,5.079 14,9.186 14,0.875 "
   id="polygon7320"
   style="fill:#99cc33;fill-opacity:1" />
</g>
</svg>