<?xml version="1.0" encoding="UTF-8" standalone="no"?>
<!-- Generator: Adobe Illustrator 17.1.0, SVG Export Plug-In . SVG Version: 6.00 Build 0)  -->

<svg
   xmlns:dc="http://purl.org/dc/elements/1.1/"
   xmlns:cc="http://creativecommons.org/ns#"
   xmlns:rdf="http://www.w3.org/1999/02/22-rdf-syntax-ns#"
   xmlns:svg="http://www.w3.org/2000/svg"
   xmlns="http://www.w3.org/2000/svg"
   xmlns:sodipodi="http://sodipodi.sourceforge.net/DTD/sodipodi-0.dtd"
   xmlns:inkscape="http://www.inkscape.org/namespaces/inkscape"
   version="1.1"
   id="Capa_1"
   x="0px"
   y="0px"
   viewBox="0 0 100 100"
   style="enable-background:new 0 0 100 100;"
   xml:space="preserve"
   inkscape:version="0.48.2 r9819"
   width="100%"
   height="100%"
   sodipodi:docname="info15.svg"><metadata
   id="metadata8489"><rdf:RDF><cc:Work
       rdf:about=""><dc:format>image/svg+xml</dc:format><dc:type
         rdf:resource="http://purl.org/dc/dcmitype/StillImage" /></cc:Work></rdf:RDF></metadata><defs
   id="defs8487" /><sodipodi:namedview
   pagecolor="#ffffff"
   bordercolor="#666666"
   borderopacity="1"
   objecttolerance="10"
   gridtolerance="10"
   guidetolerance="10"
   inkscape:pageopacity="0"
   inkscape:pageshadow="2"
   inkscape:window-width="708"
   inkscape:window-height="480"
   id="namedview8485"
   showgrid="false"
   inkscape:zoom="2.36"
   inkscape:cx="50"
   inkscape:cy="50"
   inkscape:window-x="0"
   inkscape:window-y="0"
   inkscape:window-maximized="0"
   inkscape:current-layer="Capa_1" />
<g
   id="g8479"
   style="fill:#99cc33;fill-opacity:1">
	<path
   style="fill:#99cc33;fill-opacity:1"
   d="M62.87,81.493h-3.06V32.951c0-0.827-0.303-1.545-0.908-2.152c-0.606-0.605-1.323-0.908-2.151-0.908   H38.39c-0.829,0-1.546,0.303-2.152,0.908c-0.606,0.607-0.909,1.324-0.909,2.152v6.12c0,0.829,0.303,1.546,0.909,2.152   c0.605,0.607,1.322,0.91,2.152,0.91h3.06v39.36h-3.06c-0.829,0-1.546,0.303-2.152,0.908c-0.606,0.607-0.909,1.324-0.909,2.152v6.12   c0,0.829,0.303,1.546,0.909,2.152c0.605,0.607,1.322,0.91,2.152,0.91h24.48c0.829,0,1.546-0.303,2.152-0.91   c0.605-0.605,0.909-1.322,0.909-2.152v-6.12c0-0.827-0.303-1.545-0.909-2.152C64.416,81.795,63.698,81.493,62.87,81.493z"
   id="path8481" />
	<circle
   style="fill:#99cc33;fill-opacity:1"
   cx="50"
   cy="15.281"
   r="10.281"
   id="circle8483" />
</g>
</svg>