<?xml version="1.0" encoding="UTF-8" standalone="no"?>
<!-- Generator: Adobe Illustrator 16.2.1, SVG Export Plug-In . SVG Version: 6.00 Build 0)  -->

<svg
   xmlns:dc="http://purl.org/dc/elements/1.1/"
   xmlns:cc="http://creativecommons.org/ns#"
   xmlns:rdf="http://www.w3.org/1999/02/22-rdf-syntax-ns#"
   xmlns:svg="http://www.w3.org/2000/svg"
   xmlns="http://www.w3.org/2000/svg"
   xmlns:sodipodi="http://sodipodi.sourceforge.net/DTD/sodipodi-0.dtd"
   xmlns:inkscape="http://www.inkscape.org/namespaces/inkscape"
   version="1.2"
   id="Layer_1"
   x="0px"
   y="0px"
   width="24px"
   height="24px"
   viewBox="0 0 24 24"
   xml:space="preserve"
   inkscape:version="0.48.2 r9819"
   sodipodi:docname="menu.svg"><metadata
   id="metadata10775"><rdf:RDF><cc:Work
       rdf:about=""><dc:format>image/svg+xml</dc:format><dc:type
         rdf:resource="http://purl.org/dc/dcmitype/StillImage" /></cc:Work></rdf:RDF></metadata><defs
   id="defs10773" /><sodipodi:namedview
   pagecolor="#ffffff"
   bordercolor="#666666"
   borderopacity="1"
   objecttolerance="10"
   gridtolerance="10"
   guidetolerance="10"
   inkscape:pageopacity="0"
   inkscape:pageshadow="2"
   inkscape:window-width="708"
   inkscape:window-height="480"
   id="namedview10771"
   showgrid="false"
   inkscape:zoom="9.8333333"
   inkscape:cx="12"
   inkscape:cy="12"
   inkscape:window-x="0"
   inkscape:window-y="0"
   inkscape:window-maximized="0"
   inkscape:current-layer="Layer_1" />
<path
   d="M19,17H5c-1.103,0-2,0.897-2,2s0.897,2,2,2h14c1.103,0,2-0.897,2-2S20.103,17,19,17z"
   id="path10765"
   style="fill:#99cc33;fill-opacity:1" />
<path
   d="M19,10H5c-1.103,0-2,0.897-2,2s0.897,2,2,2h14c1.103,0,2-0.897,2-2S20.103,10,19,10z"
   id="path10767"
   style="fill:#99cc33;fill-opacity:1" />
<path
   d="M19,3H5C3.897,3,3,3.897,3,5s0.897,2,2,2h14c1.103,0,2-0.897,2-2S20.103,3,19,3z"
   id="path10769"
   style="fill:#99cc33;fill-opacity:1" />
</svg>