<?xml version="1.0" encoding="UTF-8" standalone="no"?>
<svg
   xmlns:dc="http://purl.org/dc/elements/1.1/"
   xmlns:cc="http://creativecommons.org/ns#"
   xmlns:rdf="http://www.w3.org/1999/02/22-rdf-syntax-ns#"
   xmlns:svg="http://www.w3.org/2000/svg"
   xmlns="http://www.w3.org/2000/svg"
   xmlns:sodipodi="http://sodipodi.sourceforge.net/DTD/sodipodi-0.dtd"
   xmlns:inkscape="http://www.inkscape.org/namespaces/inkscape"
   width="14"
   height="14"
   viewBox="0 0 14 14"
   enable-background="new 0 0 12 14"
   id="svg11846"
   version="1.1"
   inkscape:version="0.48.2 r9819"
   sodipodi:docname="notes1.svg">
  <metadata
     id="metadata11858">
    <rdf:RDF>
      <cc:Work
         rdf:about="">
        <dc:format>image/svg+xml</dc:format>
        <dc:type
           rdf:resource="http://purl.org/dc/dcmitype/StillImage" />
      </cc:Work>
    </rdf:RDF>
  </metadata>
  <defs
     id="defs11856" />
  <sodipodi:namedview
     pagecolor="#ffffff"
     bordercolor="#666666"
     borderopacity="1"
     objecttolerance="10"
     gridtolerance="10"
     guidetolerance="10"
     inkscape:pageopacity="0"
     inkscape:pageshadow="2"
     inkscape:window-width="708"
     inkscape:window-height="480"
     id="namedview11854"
     showgrid="false"
     inkscape:zoom="16.857143"
     inkscape:cx="6.0000001"
     inkscape:cy="7.0000001"
     inkscape:window-x="0"
     inkscape:window-y="0"
     inkscape:window-maximized="0"
     inkscape:current-layer="svg11846" />
  <path
     d="m 1,9 h 3 v 1 H 1 z"
     id="path11848"
     style="fill:#99cc33;fill-opacity:1"
     inkscape:connector-curvature="0" />
  <path
     d="M 12.004,0 H 2.996 C 2.445,0 2,0.45 2,1.007 V 3 H 4 C 4.557,3 5,3.447 5,3.999 V 5.001 C 5,5.557 4.553,6 4,6 H 2 v 2 h 2 c 0.557,0 1,0.447 1,0.999 v 1.002 C 5,10.558 4.553,11 4,11 H 2 v 1.993 C 2,13.549 2.445,14 2.996,14 h 9.008 C 12.555,14 13,13.55 13,12.993 V 1.007 C 13,0.451 12.555,0 12.004,0 z"
     id="path11850"
     style="fill:#99cc33;fill-opacity:1"
     inkscape:connector-curvature="0" />
  <path
     d="M 1,4 H 4 V 5 H 1 z"
     id="path11852"
     style="fill:#99cc33;fill-opacity:1"
     inkscape:connector-curvature="0" />
</svg>
