<?xml version="1.0" encoding="UTF-8" standalone="no"?>
<!-- Generator: Adobe Illustrator 16.0.4, SVG Export Plug-In . SVG Version: 6.00 Build 0)  -->

<svg
   xmlns:dc="http://purl.org/dc/elements/1.1/"
   xmlns:cc="http://creativecommons.org/ns#"
   xmlns:rdf="http://www.w3.org/1999/02/22-rdf-syntax-ns#"
   xmlns:svg="http://www.w3.org/2000/svg"
   xmlns="http://www.w3.org/2000/svg"
   xmlns:sodipodi="http://sodipodi.sourceforge.net/DTD/sodipodi-0.dtd"
   xmlns:inkscape="http://www.inkscape.org/namespaces/inkscape"
   version="1.1"
   id="Layer_1"
   x="0px"
   y="0px"
   width="32px"
   height="32px"
   viewBox="0 0 32 32"
   enable-background="new 0 0 32 32"
   xml:space="preserve"
   inkscape:version="0.48.2 r9819"
   sodipodi:docname="send4.svg"><metadata
   id="metadata12930"><rdf:RDF><cc:Work
       rdf:about=""><dc:format>image/svg+xml</dc:format><dc:type
         rdf:resource="http://purl.org/dc/dcmitype/StillImage" /></cc:Work></rdf:RDF></metadata><defs
   id="defs12928" /><sodipodi:namedview
   pagecolor="#ffffff"
   bordercolor="#666666"
   borderopacity="1"
   objecttolerance="10"
   gridtolerance="10"
   guidetolerance="10"
   inkscape:pageopacity="0"
   inkscape:pageshadow="2"
   inkscape:window-width="708"
   inkscape:window-height="480"
   id="namedview12926"
   showgrid="false"
   inkscape:zoom="7.375"
   inkscape:cx="16"
   inkscape:cy="16"
   inkscape:window-x="0"
   inkscape:window-y="0"
   inkscape:window-maximized="0"
   inkscape:current-layer="Layer_1" />
<g
   id="g12920"
   style="fill:#99cc33;fill-opacity:1">
	<path
   d="M1.285,11.671C0.6,11.934,0.114,12.55,0.017,13.277c-0.096,0.728,0.213,1.449,0.806,1.88l6.492,4.724L30.374,1.74   L9.985,21.826l8.875,6.458c0.565,0.411,1.293,0.534,1.964,0.33c0.67-0.204,1.204-0.712,1.444-1.368l9.494-25.985   c0.096-0.264,0.029-0.559-0.171-0.756c-0.2-0.197-0.495-0.259-0.758-0.158L1.285,11.671z"
   id="path12922"
   style="fill:#99cc33;fill-opacity:1" />
	<path
   d="M5.774,21.451l0.055,0.301l1.26,6.889c0.094,0.512,0.436,0.941,0.912,1.148c0.476,0.206,1.025,0.162,1.461-0.119   c1.755-1.132,4.047-2.634,3.985-2.722L5.774,21.451z"
   id="path12924"
   style="fill:#99cc33;fill-opacity:1" />
</g>
</svg>