#define breakpoint_width 17
#define breakpoint_height 17
static char breakpoint_bits[] = {
   0x00, 0x00, 0x00, 0xfe, 0xc7, 0x01, 0x00, 0x10, 0x00, 0x00, 0x38, 0x00,
   0x00, 0x7c, 0x00, 0x00, 0xfe, 0x00, 0x00, 0x10, 0x00, 0xb6, 0x11, 0x00,
   0xb6, 0x11, 0x00, 0xb6, 0x11, 0x00, 0xb6, 0x11, 0x00, 0xb6, 0x1d, 0x00,
   0xb6, 0x01, 0x00, 0xb6, 0x01, 0x00, 0xb6, 0x01, 0x00, 0xb6, 0x01, 0x00,
   0x00, 0x00, 0x00};
