#define clickable_dark.bm_width 17
#define clickable_dark.bm_height 17
static char clickable_dark.bm_bits[] = {
   0xff, 0xdf, 0x01, 0x01, 0x00, 0x01, 0xff, 0xf7, 0x01, 0xff, 0xf7, 0x01,
   0xff, 0xfb, 0x01, 0xff, 0xfd, 0x01, 0x01, 0x00, 0x01, 0x7f, 0xff, 0x01,
   0xbf, 0xff, 0x01, 0xc7, 0xff, 0x01, 0x83, 0xff, 0x01, 0x01, 0x00, 0x01,
   0x83, 0xff, 0x01, 0xc7, 0xff, 0x01, 0xff, 0xff, 0x01, 0xff, 0xff, 0x01,
   0x01, 0x00, 0x01};
