#define dshowaversions.bm_width 17
#define dshowaversions.bm_height 17
static char dshowaversions.bm_bits[] = {
   0xff, 0xfc, 0x01, 0x7f, 0xf8, 0x01, 0x3f, 0xf0, 0x01, 0x9f, 0xe4, 0x01,
   0xff, 0xfc, 0x01, 0xff, 0xfc, 0x01, 0xff, 0xfc, 0x01, 0xff, 0xfc, 0x01,
   0xff, 0xfc, 0x01, 0xff, 0xff, 0x01, 0xff, 0xff, 0x01, 0xff, 0xfc, 0x01,
   0xff, 0xfc, 0x01, 0x3f, 0xf0, 0x01, 0x3f, 0xf0, 0x01, 0xff, 0xfc, 0x01,
   0xff, 0xfc, 0x01};
