#define dshowclasses.bm_width 17
#define dshowclasses.bm_height 17
static char dshowclasses.bm_bits[] = {
   0xff, 0xff, 0x01, 0xff, 0xff, 0x01, 0x7f, 0xfc, 0x01, 0x3f, 0xf8, 0x01,
   0x7f, 0xfc, 0x01, 0xff, 0xff, 0x01, 0xff, 0xff, 0x01, 0x7f, 0xfc, 0x01,
   0x3f, 0xf8, 0x01, 0x7f, 0xfc, 0x01, 0xff, 0xff, 0x01, 0xff, 0xff, 0x01,
   0x7f, 0xfc, 0x01, 0x3f, 0xf8, 0x01, 0x7f, 0xfc, 0x01, 0xff, 0xff, 0x01,
   0xff, 0xff, 0x01};
