#define dshowonces.bm_width 17
#define dshowonces.bm_height 17
static char dshowonces.bm_bits[] = {
   0xff, 0xff, 0x01, 0x01, 0x00, 0x01, 0x01, 0x00, 0x01, 0x03, 0x00, 0x01,
   0xc7, 0x3f, 0x01, 0x8f, 0x3f, 0x01, 0x1f, 0x3f, 0x01, 0x3f, 0x3e, 0x01,
   0xff, 0x3f, 0x01, 0x3f, 0x3e, 0x01, 0x1f, 0x3f, 0x01, 0x8f, 0x3f, 0x01,
   0xc7, 0x3f, 0x01, 0xe3, 0x3f, 0x01, 0x01, 0x00, 0x01, 0x01, 0x00, 0x01,
   0xff, 0xff, 0x01};
