#define dshowroutines.bm_width 17
#define dshowroutines.bm_height 17
static char dshowroutines.bm_bits[] = {
   0xff, 0xff, 0x01, 0xff, 0xf1, 0x01, 0xff, 0xf0, 0x01, 0x7f, 0xf8, 0x01,
   0x7f, 0xfc, 0x01, 0x7f, 0x3c, 0x01, 0x7f, 0x1c, 0x01, 0x7f, 0x00, 0x01,
   0x3f, 0x80, 0x01, 0x1f, 0xc0, 0x01, 0x0f, 0xfe, 0x01, 0x07, 0xff, 0x01,
   0x83, 0xff, 0x01, 0xc1, 0xff, 0x01, 0xe1, 0xff, 0x01, 0xf1, 0xff, 0x01,
   0xff, 0xff, 0x01};
