#define dshowsuppliers.bm_width 17
#define dshowsuppliers.bm_height 17
static char dshowsuppliers.bm_bits[] = {
   0xff, 0xff, 0x01, 0xff, 0x07, 0x01, 0xff, 0x07, 0x01, 0xff, 0xff, 0x01,
   0xdf, 0xff, 0x01, 0xcf, 0x07, 0x01, 0x07, 0x04, 0x01, 0x03, 0xfc, 0x01,
   0xc1, 0xff, 0x01, 0x03, 0xfc, 0x01, 0x07, 0x04, 0x01, 0xcf, 0x07, 0x01,
   0xdf, 0xff, 0x01, 0xff, 0xff, 0x01, 0xff, 0x07, 0x01, 0xff, 0x07, 0x01,
   0xff, 0xff, 0x01};
