#define execlast.bm_width 17
#define execlast.bm_height 17
static char execlast.bm_bits[] = {
   0x00, 0x00, 0x00, 0x00, 0x00, 0x00, 0x70, 0x00, 0x00, 0x70, 0x00, 0x00,
   0x70, 0x00, 0x00, 0xfe, 0x03, 0x00, 0xfe, 0x03, 0x00, 0xfe, 0x63, 0x00,
   0x70, 0xf0, 0x00, 0x70, 0xf8, 0x01, 0x70, 0x60, 0x00, 0x00, 0x60, 0x00,
   0x00, 0x60, 0x00, 0x00, 0x60, 0x00, 0x80, 0x7f, 0x00, 0x80, 0x7f, 0x00,
   0x00, 0x00, 0x00};
