#define execstop.bm_width 17
#define execstop.bm_height 17
static char execstop.bm_bits[] = {
   0x00, 0x00, 0x00, 0x00, 0x00, 0x00, 0x00, 0x00, 0x00, 0x00, 0xa8, 0x00,
   0x80, 0xa8, 0x00, 0x80, 0xa9, 0x00, 0x80, 0xab, 0x00, 0xfe, 0xaf, 0x00,
   0xfe, 0xaf, 0x00, 0x80, 0xab, 0x00, 0x80, 0xa9, 0x00, 0x80, 0xa8, 0x00,
   0x00, 0xa8, 0x00, 0x00, 0x00, 0x00, 0x00, 0x00, 0x00, 0x00, 0x00, 0x00,
   0x00, 0x00, 0x00};
