#define font.bm_width 16
#define font.bm_height 16
static char font.bm_bits[] = {
   0x02, 0x06, 0x06, 0x0e, 0x0e, 0x3c, 0x1e, 0x3c, 0x38, 0x0c, 0x78, 0x06,
   0xf8, 0x06, 0xdc, 0x03, 0x8c, 0x03, 0x0c, 0x07, 0x0c, 0x0e, 0x1c, 0x1c,
   0x38, 0x38, 0x38, 0x70, 0x7c, 0x60, 0x7e, 0x40};
