#define gfont_width 16
#define gfont_height 16
static unsigned char gfont_bits[] = {
   0x00, 0x04, 0x02, 0x0a, 0x04, 0x14, 0x0a, 0x28, 0x10, 0x04, 0x28, 0x02,
   0x50, 0x04, 0x88, 0x02, 0x04, 0x01, 0x08, 0x02, 0x04, 0x04, 0x08, 0x08,
   0x10, 0x10, 0x28, 0x20, 0x54, 0x40, 0x2a, 0x00};
