#define gstoppt_width 16
#define gstoppt_height 16
static char gstoppt_bits[] = {
   0x00, 0x00, 0x00, 0x00, 0x00, 0x00, 0x00, 0x00, 0xf0, 0x0f, 0x08, 0x10,
   0xf4, 0x2f, 0x74, 0x2e, 0xb4, 0x2f, 0x34, 0x2e, 0xf4, 0x2d, 0xb4, 0x2d,
   0x74, 0x2e, 0xf4, 0x2f, 0x08, 0x10, 0xf0, 0x0f};
