#define hist_back.e_width 17
#define hist_back.e_height 17
static char hist_back.e_bits[] = {
   0x00, 0x00, 0x00, 0x00, 0x00, 0x00, 0x00, 0x00, 0x00, 0x00, 0x00, 0x00,
   0x40, 0x00, 0x00, 0x60, 0x00, 0x00, 0x70, 0x00, 0x00, 0xf8, 0x7f, 0x00,
   0xfc, 0x7f, 0x00, 0xf8, 0x7f, 0x00, 0x70, 0x00, 0x00, 0x60, 0x00, 0x00,
   0x40, 0x00, 0x00, 0x00, 0x00, 0x00, 0x00, 0x00, 0x00, 0x00, 0x00, 0x00,
   0x00, 0x00, 0x00};
