#define reset_width 25
#define reset_height 25
static char reset_bits[] = {
   0x00, 0x00, 0x00, 0x00, 0x00, 0x00, 0x00, 0x00, 0x00, 0x00, 0x00, 0x00,
   0x00, 0x00, 0x00, 0x00, 0x00, 0x00, 0x00, 0x00, 0x00, 0x00, 0x00, 0x00,
   0x00, 0x00, 0x10, 0x00, 0x00, 0x00, 0x10, 0x00, 0x8a, 0x11, 0x13, 0x00,
   0x56, 0xaa, 0x74, 0x00, 0x42, 0x8a, 0x14, 0x00, 0x42, 0x89, 0x12, 0x00,
   0xc2, 0x90, 0x11, 0x00, 0x42, 0xa0, 0x10, 0x00, 0x42, 0xa0, 0x10, 0x00,
   0x82, 0x2a, 0xa5, 0x00, 0x02, 0x11, 0x42, 0x00, 0x00, 0x00, 0x00, 0x00,
   0x00, 0x00, 0x00, 0x00, 0x00, 0x00, 0x00, 0x00, 0x00, 0x00, 0x00, 0x00,
   0x00, 0x00, 0x00, 0x00, 0x00, 0x00, 0x00, 0x00, 0x00, 0x00, 0x00, 0x00,
   0x00, 0x00, 0x00, 0x00};
