#define routdown_width 17
#define routdown_height 17
static unsigned char routdown_bits[] = {
   0x00, 0x00, 0x00, 0xfe, 0xff, 0x00, 0xfe, 0xff, 0x00, 0x7c, 0x7c, 0x00,
   0x7c, 0x7c, 0x00, 0x38, 0x38, 0x00, 0x38, 0x38, 0x00, 0x70, 0x1c, 0x00,
   0x70, 0x1c, 0x00, 0xe0, 0x0f, 0x00, 0xe0, 0x0f, 0x00, 0xc0, 0x07, 0x00,
   0xc0, 0x07, 0x00, 0x80, 0x03, 0x00, 0x80, 0x03, 0x00, 0x00, 0x01, 0x00,
   0x00, 0x00, 0x00};
