#define showaversions_width 17
#define showaversions_height 17
static char showaversions_bits[] = {
   0x00, 0x03, 0x00, 0x80, 0x07, 0x00, 0xc0, 0x0f, 0x00, 0x60, 0x1b, 0x00,
   0x00, 0x03, 0x00, 0x00, 0x03, 0x00, 0x00, 0x03, 0x00, 0x00, 0x03, 0x00,
   0x00, 0x03, 0x00, 0x00, 0x00, 0x00, 0x00, 0x00, 0x00, 0x00, 0x03, 0x00,
   0x00, 0x03, 0x00, 0xc0, 0x0f, 0x00, 0xc0, 0x0f, 0x00, 0x00, 0x03, 0x00,
   0x00, 0x03, 0x00};
