#define showclusters.bm_width 17
#define showclusters.bm_height 17
static char showclusters.bm_bits[] = {
   0x00, 0x00, 0x00, 0x06, 0x00, 0x00, 0xf6, 0xff, 0x00, 0x00, 0x00, 0x00,
   0xf0, 0xff, 0x00, 0x00, 0x00, 0x00, 0xf0, 0xff, 0x00, 0x00, 0x00, 0x00,
   0x00, 0x00, 0x00, 0x06, 0x00, 0x00, 0xf6, 0xff, 0x00, 0x00, 0x00, 0x00,
   0xf0, 0xff, 0x00, 0x00, 0x00, 0x00, 0xf0, 0xff, 0x00, 0x00, 0x00, 0x00,
   0x00, 0x00, 0x00};
