#define showexternals_width 17
#define showexternals_height 17
static char showexternals_bits[] = {
   0x00, 0x00, 0x00, 0x02, 0x00, 0x00, 0x42, 0x00, 0x00, 0x42, 0x00, 0x00,
   0xfe, 0x7f, 0x00, 0x40, 0x40, 0x00, 0x40, 0x40, 0x00, 0x40, 0x4e, 0x00,
   0x40, 0x4e, 0x00, 0x40, 0x4e, 0x00, 0x40, 0x40, 0x00, 0x40, 0x40, 0x00,
   0xfe, 0x7f, 0x00, 0x42, 0x00, 0x00, 0x42, 0x00, 0x00, 0x02, 0x00, 0x00,
   0x00, 0x00, 0x00};
