#define showhomonyms.bm_width 17
#define showhomonyms.bm_height 17
static char showhomonyms.bm_bits[] = {
   0x00, 0x00, 0x00, 0x00, 0x03, 0x00, 0x80, 0x04, 0x00, 0xf0, 0x04, 0x00,
   0x48, 0x63, 0x00, 0x04, 0x92, 0x00, 0xf4, 0x9e, 0x00, 0x04, 0x69, 0x00,
   0xf4, 0x40, 0x00, 0x84, 0x5e, 0x00, 0xf4, 0x40, 0x00, 0x84, 0x5e, 0x00,
   0xfc, 0x40, 0x00, 0x80, 0x5e, 0x00, 0x80, 0x40, 0x00, 0x80, 0x7f, 0x00,
   0x00, 0x00, 0x00};
