#define showindexing.bm_width 17
#define showindexing.bm_height 17
static char showindexing.bm_bits[] = {
   0x00, 0x00, 0x00, 0xf0, 0x03, 0x00, 0x18, 0x02, 0x00, 0x94, 0x1f, 0x00,
   0xde, 0x10, 0x00, 0xa2, 0xfc, 0x00, 0xf2, 0x86, 0x00, 0x12, 0x85, 0x00,
   0x92, 0x87, 0x00, 0x92, 0x80, 0x00, 0x92, 0x80, 0x00, 0x92, 0x80, 0x00,
   0x9e, 0x80, 0x00, 0x90, 0x80, 0x00, 0xf0, 0x80, 0x00, 0x80, 0x80, 0x00,
   0x80, 0xff, 0x00};
