#define slice.bm_width 17
#define slice.bm_height 17
static char slice.bm_bits[] = {
   0x00, 0x00, 0x00, 0xe0, 0x03, 0x00, 0xf8, 0x0f, 0x00, 0xfc, 0x1f, 0x00,
   0xfc, 0x3f, 0x00, 0xfe, 0x3f, 0x00, 0xfe, 0x3f, 0x00, 0x7e, 0x00, 0x00,
   0x7e, 0x00, 0x00, 0x7e, 0xfe, 0x00, 0x7c, 0xfe, 0x00, 0x7c, 0xfe, 0x00,
   0x78, 0x7e, 0x00, 0x60, 0x7e, 0x00, 0x00, 0x3e, 0x00, 0x00, 0x0e, 0x00,
   0x00, 0x00, 0x00};
