#define showmodified.bm_width 17
#define showmodified.bm_height 17
static char showmodified.bm_bits[] = {
   0x00, 0x00, 0x00, 0x00, 0x00, 0x00, 0xc0, 0x07, 0x00, 0xc0, 0x07, 0x00,
   0x80, 0x03, 0x00, 0x80, 0x03, 0x00, 0x00, 0x01, 0x00, 0x70, 0x1d, 0x00,
   0x78, 0x3c, 0x00, 0xfc, 0x7e, 0x00, 0xfc, 0x7e, 0x00, 0xfc, 0x7f, 0x00,
   0xf8, 0x3f, 0x00, 0xf0, 0x1f, 0x00, 0xc0, 0x07, 0x00, 0x00, 0x00, 0x00,
   0x00, 0x00, 0x00};
