#define showroutines_width 17
#define showroutines_height 17
static char showroutines_bits[] = {
   0x00, 0x00, 0x00, 0x00, 0x0e, 0x00, 0x00, 0x0f, 0x00, 0x80, 0x07, 0x00,
   0x80, 0x03, 0x00, 0x80, 0xc3, 0x00, 0x80, 0xe3, 0x00, 0x80, 0xff, 0x00,
   0xc0, 0x7f, 0x00, 0xe0, 0x3f, 0x00, 0xf0, 0x01, 0x00, 0xf8, 0x00, 0x00,
   0x7c, 0x00, 0x00, 0x3e, 0x00, 0x00, 0x1e, 0x00, 0x00, 0x0e, 0x00, 0x00,
   0x00, 0x00, 0x00};
