#define showsuppliers_width 17
#define showsuppliers_height 17
static char showsuppliers_bits[] = {
   0x00, 0x00, 0x00, 0x00, 0xf8, 0x00, 0x00, 0xf8, 0x00, 0x00, 0x00, 0x00,
   0x20, 0x00, 0x00, 0x30, 0xf8, 0x00, 0xf8, 0xfb, 0x00, 0xfc, 0x03, 0x00,
   0x3e, 0x00, 0x00, 0xfc, 0x03, 0x00, 0xf8, 0xfb, 0x00, 0x30, 0xf8, 0x00,
   0x20, 0x00, 0x00, 0x00, 0x00, 0x00, 0x00, 0xf8, 0x00, 0x00, 0xf8, 0x00,
   0x00, 0x00, 0x00};
