#define step_width 17
#define step_height 17
static char step_bits[] = {
   0x00, 0x00, 0x00, 0x00, 0x3c, 0x00, 0x60, 0x7e, 0x00, 0x70, 0xff, 0x00,
   0x70, 0xff, 0x00, 0x60, 0x7e, 0x00, 0x00, 0x3c, 0x00, 0x00, 0x00, 0x00,
   0x00, 0x00, 0x00, 0x00, 0x00, 0x00, 0x80, 0x07, 0x00, 0xcc, 0x0f, 0x00,
   0xee, 0x1f, 0x00, 0xee, 0x1f, 0x00, 0xcc, 0x0f, 0x00, 0x80, 0x07, 0x00,
   0x00, 0x00, 0x00};
