#define setstop_cur.bm_width 16
#define setstop_cur.bm_height 16
static char setstop_cur.bm_bits[] = {
   0x00, 0x00, 0x00, 0x00, 0x00, 0x00, 0xf0, 0x0f, 0xf8, 0x1f, 0xfc, 0x3f,
   0xfc, 0x3f, 0xfc, 0x3f, 0xfc, 0x3f, 0xfc, 0x3f, 0xfc, 0x3f, 0xfc, 0x3f,
   0xfc, 0x3f, 0xf8, 0x1f, 0xf0, 0x0f, 0x00, 0x00};
