<svg height="100" viewBox="0 0 100 100" width="100" xmlns="http://www.w3.org/2000/svg" xmlns:xlink="http://www.w3.org/1999/xlink"><linearGradient id="a" gradientUnits="userSpaceOnUse" x1="9.749154" x2="36.122083" y1="41.873424" y2="61.652099"><stop offset="0" stop-color="#fc5e17"/><stop offset="1" stop-color="#732d0d"/></linearGradient><linearGradient id="b" gradientUnits="userSpaceOnUse" x1="31.915285" x2="52.620623" y1="56.038348" y2="70.42018"><stop offset="0" stop-color="#9b17ce"/><stop offset="1" stop-color="#510070"/></linearGradient><linearGradient id="c" gradientUnits="userSpaceOnUse" x1="50.921287" x2="66.769237" y1="50" y2="54.494324"><stop offset="0" stop-color="#01db00"/><stop offset="1" stop-color="#118510"/></linearGradient><linearGradient id="d" gradientUnits="userSpaceOnUse" x1="69.510686" x2="91.521596" y1="51.660299" y2="62.147049"><stop offset="0" stop-color="#4e69ff"/><stop offset="1" stop-color="#041ca0"/></linearGradient><linearGradient id="e" gradientUnits="userSpaceOnUse" x1="14.750063" x2="15.09523" y1="44.750008" y2="52.500008"><stop offset="0" stop-color="#ffd200"/><stop offset="1" stop-color="#b85d00"/></linearGradient><g fill-rule="evenodd" stroke-width="3"><path d="m33.415287 35.926243h14.409499v40.224213h-14.409499z" fill="url(#b)" stroke="#490295"/><path d="m52.421288 23.849545h13.746818v52.300911h-13.746818z" fill="url(#c)" stroke="#00700c"/><path d="m71.010681 27.170143h13.917346v48.980312h-13.917346z" fill="url(#d)" stroke="#072ec3"/><path d="m15.071971 23.849545h13.746818v52.300911h-13.746818z" fill="url(#a)" stroke="#c9080a"/></g><g fill-rule="evenodd" stroke-width="3"><path d="m33.415287 35.926243h14.409499v40.224213h-14.409499z" fill="url(#b)" stroke="#490295"/><path d="m52.421288 23.849545h13.746818v52.300911h-13.746818z" fill="url(#c)" stroke="#00700c"/><path d="m71.010681 27.170143h13.917346v48.980312h-13.917346z" fill="url(#d)" stroke="#072ec3"/><path d="m15.071971 23.849545h13.746818v52.300911h-13.746818z" fill="url(#a)" stroke="#c9080a"/></g><g transform="matrix(.5647494 -.63526225 .63526225 .5647494 4.234805 67.220206)"><path d="m24 36-20.7500558 14.5 20.7500558 13.5c4.583277-9.515432 3.716782-18.067447 0-28z" fill="url(#e)" stroke="#000" stroke-linecap="round" stroke-linejoin="round" stroke-width="3"/><path d="m9.9332272 45.622914-6.683283 4.877086 6.683283 4.481057c1.9648908-4.437452 1.9593098-4.401909 0-9.358143z" stroke="#000" stroke-linecap="round" stroke-linejoin="round" stroke-width=".960227"/><g fill-rule="evenodd"><path d="m23.249944 34.5h70.499622l4.500378 10v10l-3.6 11h-71.4l2.437556-10.9375-.0625-10z" fill="#020202" stroke="#000" stroke-linecap="round" stroke-linejoin="bevel"/><path d="m78.178022 35.466641h2l4.071922 9.033359v10l-4.117361 10.011262h-2l4.117361-10.011262v-10z" fill="#ffcc36"/><path d="m85.249944 54.5h12l-3 10h-13z" fill="#851403"/><path d="m27.249944 54.5h54l-4 10h-52z" fill="#068503"/><path d="m27.249944 44.5h54v10h-54z" fill="#0cad08"/><path d="m25.249944 35.5h52l4 9h-54z" fill="#17ea11"/><path d="m85.249944 44.5h12l.01387 10h-12.01387z" fill="#c11300"/><path d="m81.249944 35.5h12l4 9h-12z" fill="#f23c3c"/></g></g></svg>