<svg height="100" viewBox="0 0 100 100" width="100" xmlns="http://www.w3.org/2000/svg" xmlns:xlink="http://www.w3.org/1999/xlink"><linearGradient id="a" gradientUnits="userSpaceOnUse" x1="29.362909" x2="-10.260718" y1="31.423464" y2="-12.321276"><stop offset="0" stop-color="#2c6eca"/><stop offset="1" stop-color="#c7deff"/></linearGradient><g fill-rule="evenodd"><g transform="scale(1 .95)"><path d="m0 0h100v100h-100z" fill="url(#a)"/><path d="m5 20h90v75h-90z" fill="#fff"/></g><g transform="scale(1 .95)"><path d="m0 0h100v100h-100z" fill="url(#a)"/><path d="m5 20h90v75h-90z" fill="#fff"/></g><path d="m37.168474 94.415763h58.831526v-44.267213h-4.890519l-7.425725-8.43855h-15.990038l-6.713199 8.439h-23.812045z" fill="#fff803" stroke="#bf7c00" stroke-linejoin="round" stroke-width="3.168473"/></g><g transform="matrix(.70041531 0 0 .70041531 31.163608 34.049542)"><path d="m2.8623961 91.897222h95.4169979v-68.912276h-37.106611l-10.601888-15.9028332h-37.106611l-10.6018879 15.9028332z" fill="#fff803" fill-rule="evenodd" stroke="#bf7c00" stroke-linejoin="round" stroke-width="4.523707"/><path d="m6.012383 31.39484h40.713361l11.309267-7.916487-9.047414-13.5711208h-33.9278l-9.047414 13.5711208z" fill="#fdffcc" stroke-width=".958259"/></g><circle cx="45.467564" cy="66.839363" r="5.018661" style="opacity:.8;fill:#9e9e9e;fill-rule:evenodd;stroke:#bf7c00;stroke-width:2.9;stroke-linecap:round;stroke-linejoin:round"/><path d="m55 66.839362h40" fill="none" stroke="#b1b07f" stroke-width="6.765503"/><circle cx="45.467564" cy="82.839363" r="5.018661" style="opacity:.8;fill:#9e9e9e;fill-rule:evenodd;stroke:#bf7c00;stroke-width:2.9;stroke-linecap:round;stroke-linejoin:round"/><path d="m55 82.839362h40" fill="none" stroke="#b1b07f" stroke-width="6.765503"/><g fill-rule="evenodd"><g transform="scale(1 .95)"><path d="m0 0h100v100h-100z" fill="url(#a)"/><path d="m5 20h90v75h-90z" fill="#fff"/></g><g transform="scale(1 .95)"><path d="m0 0h100v100h-100z" fill="url(#a)"/><path d="m5 20h90v75h-90z" fill="#fff"/></g><path d="m37.168474 94.415763h58.831526v-44.267213h-4.890519l-7.425725-8.43855h-15.990038l-6.713199 8.439h-23.812045z" fill="#fff803" stroke="#bf7c00" stroke-linejoin="round" stroke-width="3.168473"/></g><g transform="matrix(.70041531 0 0 .70041531 31.163608 34.049542)"><path d="m2.8623961 91.897222h95.4169979v-68.912276h-37.106611l-10.601888-15.9028332h-37.106611l-10.6018879 15.9028332z" fill="#fff803" fill-rule="evenodd" stroke="#bf7c00" stroke-linejoin="round" stroke-width="4.523707"/><path d="m6.012383 31.39484h40.713361l11.309267-7.916487-9.047414-13.5711208h-33.9278l-9.047414 13.5711208z" fill="#fdffcc" stroke-width=".958259"/></g><circle cx="45.467564" cy="66.839363" r="5.018661" style="opacity:.8;fill:#9e9e9e;fill-rule:evenodd;stroke:#bf7c00;stroke-width:2.9;stroke-linecap:round;stroke-linejoin:round"/><path d="m55 66.839362h40" fill="none" stroke="#b1b07f" stroke-width="6.765503"/><circle cx="45.467564" cy="82.839363" r="5.018661" style="opacity:.8;fill:#9e9e9e;fill-rule:evenodd;stroke:#bf7c00;stroke-width:2.9;stroke-linecap:round;stroke-linejoin:round"/><path d="m55 82.839362h40" fill="none" stroke="#b1b07f" stroke-width="6.765503"/><g transform="matrix(.50281285 0 0 .49625699 54.644281 -1.799842)"><path d="m23.812502 96.824998v-21.166667h-21.1666686v-21.166667h21.1666686v-21.166667h21.166666v21.166667h21.166668v21.166667h-21.166668v21.166667z" fill="#27c204" stroke="#005a1d" stroke-width="3.96875"/><g fill="none" stroke="#fff" stroke-linecap="round"><path d="m28.019449 75.658333v16.967731" opacity=".7" stroke-width="4.103144"/><path d="m6.8527784 58.48864v13.313167" opacity=".7" stroke-width="3.634507"/><path d="m28.019449 37.425931v16.967731" opacity=".7" stroke-width="4.103144"/></g></g></svg>