/* XPM */
static char *magick[] = {
/* columns rows colors chars-per-pixel */
"16 16 2 1",
"  c Gray0",
". c #c0c0c0",
/* pixels */
". .......  .....",
".  ......   ....",
".   ......    ..",
".    .....    ..",
"...   ....  ....",
"...    ..  .....",
"...     .  .....",
"..   .    ......",
"..  ...   ......",
"..  ....   .....",
"..  .....   ....",
"..   .....   ...",
"...   .....   ..",
"...   ......   .",
"..     ......  .",
".      ....... ."
};
