/* XPM */
static char *magick[] = {
/* columns rows colors chars-per-pixel */
"10 10 2 1",
"  c Gray0",
". c Gray100",
/* pixels */
"          ",
" .........",
" .........",
" .........",
" .........",
" .........",
" .........",
" .........",
" .........",
" ........."
};
