/* XPM */
static char *magick[] = {
/* columns rows colors chars-per-pixel */
"17 17 2 1",
"  c Gray0",
". c #C0C0C0",
/* pixels */
".................",
"......     ......",
"....  .....  ....",
"... ......... ...",
".. ........... ..",
". ............. .",
". ............. .",
". ............. .",
". ............. .",
".. ........... ..",
"... ......... ...",
".... ......  ....",
".... .     ......",
"...   ...........",
"..  .............",
". ...............",
"................."
};
