/* XPM */
static char *magick[] = {
/* columns rows colors chars-per-pixel */
"22 17 2 1",
"  c Gray0",
". c #c0c0c0",
/* pixels */
"... . ....... ........",
"... . ......   .......",
"... . .....     ......",
"..........       .....",
"... . ................",
"......................",
"... . ....... ........",
"... . ......   .......",
"... . .....     ......",
"..........       .....",
"... . ................",
"......................",
"... . ....... ........",
"... . ......   .......",
"... . .....     ......",
"..........       .....",
"... . ................"
};
