/* XPM */
static char * swindows_xpm[] = {
"17 17 2 1",
" 	c #38E33CF338E3",
".	c #C71BC30BC71B",
" ..........      ",
" .        .      ",
" ..........      ",
" .        .      ",
" .        .      ",
" .    .........  ",
" .    .       .  ",
" .    .........  ",
" .    .       .  ",
" .    .       .  ",
" .    .       .  ",
" .    .       .  ",
" .    .       .  ",
" ......       .  ",
"      .       .  ",
"      .       .  ",
"      .........  "};
