<svg height="100" viewBox="0 0 100 100" width="100" xmlns="http://www.w3.org/2000/svg" xmlns:xlink="http://www.w3.org/1999/xlink"><linearGradient id="a" gradientUnits="userSpaceOnUse" x1="9.749154" x2="36.122083" y1="41.873424" y2="61.652099"><stop offset="0" stop-color="#fc5e17"/><stop offset="1" stop-color="#732d0d"/></linearGradient><linearGradient id="b" gradientUnits="userSpaceOnUse" x1="31.915285" x2="52.620623" y1="56.038348" y2="70.42018"><stop offset="0" stop-color="#9b17ce"/><stop offset="1" stop-color="#510070"/></linearGradient><linearGradient id="c" gradientUnits="userSpaceOnUse" x1="50.921287" x2="66.769237" y1="50" y2="54.494324"><stop offset="0" stop-color="#01db00"/><stop offset="1" stop-color="#118510"/></linearGradient><linearGradient id="d" gradientUnits="userSpaceOnUse" x1="69.510686" x2="91.521596" y1="51.660299" y2="62.147049"><stop offset="0" stop-color="#4e69ff"/><stop offset="1" stop-color="#041ca0"/></linearGradient><g fill-rule="evenodd" stroke-width="3"><path d="m33.415287 35.926243h14.409499v40.224213h-14.409499z" fill="url(#b)" stroke="#490295"/><path d="m52.421288 23.849545h13.746818v52.300911h-13.746818z" fill="url(#c)" stroke="#00700c"/><path d="m71.010681 27.170143h13.917346v48.980312h-13.917346z" fill="url(#d)" stroke="#072ec3"/><path d="m15.071971 23.849545h13.746818v52.300911h-13.746818z" fill="url(#a)" stroke="#c9080a"/><path d="m33.415287 35.926243h14.409499v40.224213h-14.409499z" fill="url(#b)" stroke="#490295"/><path d="m52.421288 23.849545h13.746818v52.300911h-13.746818z" fill="url(#c)" stroke="#00700c"/><path d="m71.010681 27.170143h13.917346v48.980312h-13.917346z" fill="url(#d)" stroke="#072ec3"/><path d="m15.071971 23.849545h13.746818v52.300911h-13.746818z" fill="url(#a)" stroke="#c9080a"/><path d="m17.682 7.2226562v10.2363438h-10.2366875v8.291h10.2366875v10.236328h8.291v-10.236328h10.235984v-8.291h-10.235984v-10.2363438z" fill="#fff200" stroke="#000" stroke-linejoin="round"/></g></svg>