/* XPM */
static char *noname[] = {
/* width height ncolors chars_per_pixel */
"5 5 2 1",
/* colors */
"  c #000000",
". c #FFFFFF",
/* pixels */
".. ..",
".. ..",
".   .",
".   .",
"     "
};
