/* XPM */
static char *noname[] = {
/* width height ncolors chars_per_pixel */
"16 16 4 1",
/* colors */
"` c #000000",
"a c #800000",
"b c #C0C0C0",
"c c #FF0000",
/* pixels */
"b````````bbbb```",
"b````````bbbb```",
"bbbbbbbbbb``bbbb",
"bbbbbbbbb````bbb",
"bbbbbbbb``````bb",
"bbbbbbbbbb``bbbb",
"bbbbbbbbbb``bbbb",
"bcabcacabb``bbbb",
"bcabcacabb``bbbb",
"bcabcacab```bbbb",
"bcabcacab```bbbb",
"bcabcacab```bbbb",
"bcabcacabbbbbbbb",
"bcabcacabbbbbbbb",
"bbbbbbbbbbbbbbbb",
"bbbbbbbbbbbbbbbb"
};
