/* XPM */
static char *noname[] = {
/* width height ncolors chars_per_pixel */
"50 16 4 1",
/* colors */
"` c #800000",
"a c #C0C0C0",
"b c #FF00FF",
"c c #FFFFFF",
/* pixels */
"aaaaaaaaaaaaaaaaaaaaaaaaaaaa`bbbbaaaaaaaaaaaaaaaaa",
"aaaaaaaaaaaaaaaaaaaaaaaabaaa`bbbbaaaaaaaaaaaaaaaaa",
"aaaaaaaaaaaaaaaaaaaaaaabbaaa`bbbaaaaaaaaaaaaaaaaaa",
"aaaaaaaaaaaaaaaaaaaaaabbbba`bcaaaaaaaaaaaaaaaaaaaa",
"aaaaaaaaaaaaaaaaaaaaabbbabbbbcaaaaaaaaaaaaaaaaaaaa",
"aaaaaaaaaaaaaaaaaaaaa`baabbbbcaaaaaaaaaaaaaaaaaaaa",
"aaaaaaaaaaaaaaaaaaaaaaaa`bbbbbaaaaaaaaaaaaaaaaaaaa",
"aaaaaaaaaaaaaaaaaa`baaabbbb`bbbaaaaaaaaaaaaaaaaaaa",
"aaaaaaaaaaaaaaaaaa`bb``bbbaa`bbbaaaaaaaaaaaaaaaaaa",
"aaaaaaaaaaaaaaaaaaabbbbb`bbaaabbaaaaaaaaaaaaaaaaaa",
"aaaaaaaaaaaaaaaaaaaabbbcc`bbaaabaaaaaaaaaaaaaaaaaa",
"aaaaaaaaaaaaaaaaaaaaabcaaabbbaaaaaaaaaaaaaaaaaaaaa",
"aaaaaaaaaaaaaaaaaaaaaaaaaaabbbaaaaaaaaaaaaaaaaaaaa",
"aaaaaaaaaaaaaaaaaaaaaaaaaaaabbbaaaaaaaaaaaaaaaaaaa",
"aaaaaaaaaaaaaaaaaaaaaaaaaaaaabbbaaaaaaaaaaaaaaaaaa",
"aaaaaaaaaaaaaaaaaaaaaaaaaaaaaaaaaaaaaaaaaaaaaaaaaa"
};
