/* XPM */
static char *noname[] = {
/* width height ncolors chars_per_pixel */
"16 16 4 1",
/* colors */
"` c #000000",
"a c #FF00FF",
"b c #FF0000",
"c c #FFFFFF",
/* pixels */
"`cccccccc````ccc",
"`cccccccc````ccc",
"``````````cc````",
"`````````cccc```",
"````````cccccc``",
"``````````cc````",
"``````````cc````",
"`ba`b`b```cc````",
"`ba`b`b```cc````",
"`ba`b`b```cc````",
"`ba`b`b`cccc````",
"`ba`b`b`cccc````",
"`ba`b`b`````````",
"`ba`b`b`````````",
"````````````````",
"````````````````"
};
