/* XPM */
static char *noname[] = {
/* width height ncolors chars_per_pixel */
"16 16 4 1",
/* colors */
"` c #000000",
"a c #808080",
"b c #BF00BF",
"c c #FFFFFF",
/* pixels */
"````````````````",
"```````ccc``````",
"`````ccbbbcc````",
"````ccbbbbbbc```",
"```cbbbbbbbbbc``",
"``ccbbbbbbbbbbc`",
"``cbbbbbbbbbbba`",
"``cbbbbbbbbbbba`",
"``cbbbbbbbbbbba`",
"``cbbbbbbbbbbba`",
"``ccbbbbbbbbbb``",
"```cbbbbbbbbba``",
"````aabbbbbba```",
"`````aabbbaa````",
"```````aaa``````",
"````````````````"
};
