/* XPM */
static char *noname[] = {
/* width height ncolors chars_per_pixel */
"16 16 4 1",
/* colors */
"` c #000000",
"a c #C0C0C0",
"b c #BF00BF",
"c c #FFFFFF",
/* pixels */
"aaaaaaaaaaaaacca",
"````````````cc``",
"```````````cc```",
"aaaaaaaaaaccaaaa",
"`````````cc`````",
"````````cc``````",
"aaaabbbbcaaaaaaa",
"```bbbbbb```````",
"```bbbbbb```````",
"aaabbbbbbaaaaaaa",
"```bbbbbb```````",
"````bbbb````````",
"aaaaaaaaaaaaaaaa",
"````````````````",
"````````````````",
"aaaaaaaaaaaaaaaa"
};
