/* XPM */
static char *noname[] = {
/* width height ncolors chars_per_pixel */
"16 16 3 1",
/* colors */
"  c #000000",
". c #C0C0C0",
"X c #808080",
/* pixels */
"  X..........X  ",
"   X........X   ",
"X   X......X   X",
".X   X....X   X.",
"..X   X..X   X..",
"...X   XX   X...",
"....X      X....",
".....X    X.....",
".....X    X.....",
"....X      X....",
"...X   XX   X...",
"..X   X..X   X..",
".X   X....X   X.",
"X   X......X   X",
"   X........X   ",
"  X..........X  "
};
