/* XPM */
static char *noname[] = {
/* width height ncolors chars_per_pixel */
"16 16 3 1",
/* colors */
"` c #000000",
"a c #00FFFF",
"b c #FFFFFF",
/* pixels */
"````````b```````",
"```````bbb``````",
"``````bbbbb`````",
"`````bbbbbbb````",
"````````b```````",
"````````b```````",
"````````b```````",
"````````b```````",
"```````aaa``````",
"```````aaa``````",
"`````aaaaaaa````",
"`````aaaaaaa````",
"`````aaaaaaa````",
"```````aaa``````",
"```````aaa``````",
"````````````````"
};
