/* XPM */
static char *noname[] = {
/* width height ncolors chars_per_pixel */
"16 16 4 1",
/* colors */
"` c #000000",
"a c #00FFFF",
"b c #FF00FF",
"c c #FFFFFF",
/* pixels */
"```bbbbbb```````",
"``bbbbbbbb``````",
"`bbbbbbbbbb`````",
"`bbbbbbbbbb`````",
"`bbbbbbbbbb`````",
"``bbbbbbbb``````",
"```bbbbbb```````",
"````````````````",
"`c`c``c````aaa``",
"`c`c``cc```aaa``",
"`c`cccccc`aaaaaa",
"`c````ccccaaaaaa",
"`cccccccc`aaaaaa",
"``````cc```aaa``",
"``````c````aaa``",
"````````````````"
};
