/* XPM */
static char *noname[] = {
/* width height ncolors chars_per_pixel */
"16 16 2 1",
/* colors */
"` c #000000",
"a c #FFFFFF",
/* pixels */
"`aaaa```````````",
"`aaaa`aaaaaaaaa`",
"````````````````",
"``````aaaaaaaaa`",
"````````````````",
"``````aaaaaaaaa`",
"````````````````",
"````````````````",
"````````````````",
"`aaaa```````````",
"`aaaa`aaaaaaaaa`",
"````````````````",
"``````aaaaaaaaa`",
"````````````````",
"``````aaaaaaaaa`",
"````````````````"
};
