/* XPM */
static char *noname[] = {
/* width height ncolors chars_per_pixel */
"16 16 3 1",
/* colors */
"` c #000000",
"a c #FF00FF",
"b c #800080",
/* pixels */
"```````aaa``````",
"``````aaaaa`````",
"``````aaaaa`````",
"``````aaaaa`````",
"```````bbb``````",
"```````aaa``````",
"``````aaaaa`````",
"``````aaaaa`````",
"``````aaaaa`````",
"```````bbbb`````",
"```````aaa``````",
"``````aaaaa`````",
"``````aaaaa`````",
"``````aaaaa`````",
"```````aaa``````",
"````````````````"
};
