/* XPM */
static char *noname[] = {
/* width height ncolors chars_per_pixel */
"16 16 2 1",
/* colors */
"` c #000000",
"a c #FF00FF",
/* pixels */
"````````````````",
"``````aaaaa`````",
"`````````a``````",
"`````````a``````",
"`````aaaaaaaaa``",
"`````a```````a``",
"``aaaaaa`````a``",
"`````a`````aaaaa",
"`````a```````a``",
"`````a```````a``",
"``a````a`````a``",
"``a````a`````a``",
"``a````a`````a``",
"``a````a`````a``",
"`aaa``aaa``aaaaa",
"````````````````"
};
