/* XPM */
static char *noname[] = {
/* width height ncolors chars_per_pixel */
"16 16 3 1",
/* colors */
"` c #000000",
"a c #00FFFF",
"b c #FFFFFF",
/* pixels */
"```aaa``````````",
"```aaa``````````",
"`aaaaaaa````````",
"`aaaaaaa````b```",
"`aaaaaaa````bb``",
"```aaa``````bbb`",
"```aaa```bbbbbbb",
"`````````````bbb",
"```aaa```bbbbbbb",
"```aaa``````bbb`",
"`aaaaaaa````bb``",
"`aaaaaaa````b```",
"`aaaaaaa````````",
"```aaa``````````",
"```aaa``````````",
"````````````````"
};
