/* XPM */
static char *noname[] = {
/* width height ncolors chars_per_pixel */
"16 16 2 1",
/* colors */
"` c #000000",
"a c #00FFFF",
/* pixels */
"````````aaaa````",
"```````aaaa`````",
"``````aaaaa`````",
"``````aaaa````a`",
"``````aaaa```aa`",
"``````aaaaaaaaa`",
"``````aaaaaaaaa`",
"``````aaaaaaaa``",
"`````aaaaaaaa```",
"````aaaaaa``````",
"``aaaaaa````````",
"`aaaaaa`````````",
"`aaaaa``````````",
"`aaaaa``````````",
"`aaaa```````````",
"````````````````"
};
