/* XPM */
static char *noname[] = {
/* width height ncolors chars_per_pixel */
"16 16 21 1",
/* colors */
"  c #000000",
". c #928D92",
"X c #800000",
"o c #D6D3CE",
"O c #282829",
"+ c #E8E8E8",
"@ c #312F31",
"# c #DADADA",
"$ c #C0C0C0",
"% c #C7C7D4",
"& c #17171A",
"* c #EDEDF2",
"= c #808080",
"- c #353536",
"; c #181823",
": c #FFFFFF",
"> c #FFFF00",
", c #FBFBFB",
"< c #989899",
"1 c #98958F",
"2 c #0000FF",
/* pixels */
"ooooooooooo   oo",
"oooooooooo= XX o",
"oooooooooo >  =o",
".<<<<<<<<= >= oo",
"<:::::::, >$ =oo",
"<:222222= >= ooo",
"<::::::: >$ =ooo",
"<:22222= >= oooo",
"<:::::: >$ =oooo",
"<:22222 >= ooooo",
"<::::,,   ;ooooo",
"<,    =  #&ooooo",
"1* ***+ =#&ooooo",
".+    -==%&ooooo",
".#######%%&ooooo",
"O@@OO;&&&& ooooo"
};
