/* XPM */
static char *noname[] = {
/* width height ncolors chars_per_pixel */
"16 16 19 1",
/* colors */
"  c #000000",
". c #928D92",
"X c #D6D3CE",
"o c #282829",
"O c #434343",
"+ c #E8E8E8",
"@ c #312F31",
"# c #DADADA",
"$ c #C7C7D4",
"% c #17171A",
"& c #EDEDF2",
"* c #808080",
"= c #000080",
"- c #181823",
"; c #FFFFFF",
": c #FBFBFB",
"> c #989899",
", c #98958F",
"< c #0000FF",
/* pixels */
"XXXXXX*=====*XXX",
"XXXXX*=XXXXX=*XX",
"XXXXX=XXXXXXX=XX",
".>>>>=>>>.OXX=XX",
">;;;;=;;:&OXX=XX",
">;<<;=;<<&OXX=XX",
">;;;;;;;:&O=====",
">;<<<<<<<&@X===X",
">;;;;;;:&&@XX=XX",
">;<<<<<<<+oXXXXX",
">;;;;::&+#-XXXXX",
">:<<<<<<<#%XXXXX",
",&&&&&+###%XXXXX",
".+<<<<<<<$%XXXXX",
".#######$$%XXXXX",
"o@@oo-%%%% XXXXX"
};
