/* XPM */
static char *noname[] = {
/* width height ncolors chars_per_pixel */
"16 16 18 1",
/* colors */
"  c #928D92",
". c #D6D3CE",
"X c #282829",
"o c #434343",
"O c #E8E8E8",
"+ c #312F31",
"@ c #DADADA",
"# c #C7C7D4",
"$ c #17171A",
"% c #EDEDF2",
"& c #808080",
"* c #000080",
"= c #181823",
"- c #FFFFFF",
"; c #FBFBFB",
": c #989899",
"> c #98958F",
", c #0000FF",
/* pixels */
"................",
".&****..........",
"&*..............",
"*...*.. :::::: o",
"&*..**.:-----;%o",
".&*****:-,,,,,%o",
"....**.:-----;%o",
"....*..:-,,,,,%+",
".......:-----%%+",
".&****.:-,,,,,OX",
"&*.....:---;;O@=",
"*...*..:;,,,,,@$",
"&*..**.>%%%%O@@$",
".&***** O,,,,,#$",
"....**. @@@@@##$",
"....*..X++X=$$$$"
};
