/* XPM */
static char *noname[] = {
/* width height ncolors chars_per_pixel */
"16 16 3 1",
/* colors */
"` c #000000",
"a c #C0C0C0",
"b c #FFFFFF",
/* pixels */
"aaaaaaaaaaaaaaaa",
"a`baaaaaaa`baaaa",
"a``baaaaaa``baaa",
"a```baaaaaa```ba",
"a````baaaaa```ba",
"aaa```baaaa`baaa",
"aaa````baa`baaaa",
"aa```b```b`aaaaa",
"aa``ba`````aaaaa",
"aa``baa````baaaa",
"aa``baaaaa``baaa",
"aa```baaaaa``baa",
"aaa```baaaa```ba",
"aaa```baaaaa```b",
"a`````baaaaaa``b",
"aaaaaaaaaaaaaaaa"
};
