/* XPM */
static char *noname[] = {
/* width height ncolors chars_per_pixel */
"16 16 2 1",
/* colors */
"` c #000000",
"a c #FFFFFF",
/* pixels */
"aaaaaaaaaaaaaaaa",
"aaaaaaaaaaaaaaaa",
"aaaaaaaaaaaaaaaa",
"aaaaaaaaaaaaaaaa",
"aaaa````````aaaa",
"aaa`aaaaaaaa`aaa",
"aa`a````````a`aa",
"aa`a```aa```a`aa",
"aa`a``a`````a`aa",
"aa`a``aaa```a`aa",
"aa`a`````a``a`aa",
"aa`a``a``a``a`aa",
"aa`a```aa```a`aa",
"aa`a````````a`aa",
"aaa`aaaaaaaa`aaa",
"aaaa````````aaaa"
};
