/* XPM */
static char *noname[] = {
/* width height ncolors chars_per_pixel */
"16 16 2 1",
/* colors */
"` c #000000",
"a c #C0C0C0",
/* pixels */
"aaaaaaaaaaaaaaaa",
"aaaaaaaaaaaaaaaa",
"aaaaaaaaaaaaaaaa",
"aaaaaaaaaaa`aaaa",
"aaaaaaaaaaa``aaa",
"aaaaaaaaaaa```aa",
"a``````````````a",
"a```````````````",
"a``````````````a",
"aaaaaaaaaaa```aa",
"aaaaaaaaaaa``aaa",
"aaaaaaaaaaa`aaaa",
"aaaaaaaaaaaaaaaa",
"aaaaaaaaaaaaaaaa",
"aaaaaaaaaaaaaaaa",
"aaaaaaaaaaaaaaaa"
};
