/* XPM */
static char *noname[] = {
/* width height ncolors chars_per_pixel */
"20 20 43 1",
/* colors */
"  c #A3A3A3",
". c #A1A1A1",
"X c #9F9F9F",
"o c #9D9D9D",
"O c #979797",
"+ c #939393",
"@ c #878787",
"# c #858585",
"$ c #777777",
"% c #757575",
"& c #6F6F6F",
"* c #6D6D6D",
"= c #656565",
"- c #636363",
"; c #5F5F5F",
": c #5B5B5B",
"> c #595959",
", c #C0C0C0",
"< c #BEBEBE",
"1 c #B6B6B6",
"2 c #B4B4B4",
"3 c #B2B2B2",
"4 c #B0B0B0",
"5 c #ACACAC",
"6 c #A8A8A8",
"7 c #9E9E9E",
"8 c #8C8C8C",
"9 c #888888",
"0 c #868686",
"q c #848484",
"w c #828282",
"e c #707070",
"r c #6E6E6E",
"t c #666666",
"y c #626262",
"u c #606060",
"i c #5E5E5E",
"p c #5C5C5C",
"a c #585858",
"s c #4E4E4E",
"d c #464646",
"f c #444444",
"g c #424242",
/* pixels */
"<<<<<<<000000000g<<<",
"<<<<<<033>33>33gg<<<",
"<<<<<0>>>>>>>>g#g<<<",
"<<<<033>33>33gg#g<<<",
"<<<0>>>>>>>>>#ggg<<<",
"<<<>33>33>33>#g#g<<<",
"<<<>33>33>33>gg#g<<<",
"<<<>>>>>>>ggg>ggg<<<",
"<<<>33>33>g>>>g#g<<<",
"<<<>33>33>ggggg#g<<<",
"<<<>>>>ggg>>>>gg<<<<",
"<<<>33>gg<<<6$ *y<<<",
"<<<>33>g<<<<u33&@w<<",
"<<<>ggg<<rp<7338%s<<",
"<<<<<<<<rqy,<+Otef<<",
"<<<<<<<4oi:=+59d<<<<",
"<<<<<<<1+33a6<<<<<<<",
"<<<<<<<2.33; <<<<<<<",
"<<<<<<<<X--<<<<<<<<<",
"<<<<<<<<<XX<<<<<<<<<"
};
