/* XPM */
static char *noname[] = {
/* width height ncolors chars_per_pixel */
"20 20 15 1",
/* colors */
"  c #000000",
". c #800000",
"X c #E6E6E6",
"o c #DADADA",
"O c #CECECE",
"+ c #C0C0C0",
"@ c #B6B6B6",
"# c #929292",
"$ c #868686",
"% c #7A7A7A",
"& c #626262",
"* c #FFFFFF",
"= c #4A4A4A",
"- c #3E3E3E",
"; c #1A1A1A",
/* pixels */
".....%%..%%%%%%%%...",
"....%**%%*****XXX ..",
"....%*O**OOOOOOO@* .",
"....%*O##OOOO$$$$$* ",
"....%*-;;%$O#$-   $ ",
"....%%-..-;O# -..   ",
"..........;O$ ......",
"..........;O$ ......",
"..&&&& ...$$= ......",
".&****+ .$*OO& .....",
"&&&&&&&&&&*$&= .....",
"&********&*$&= .....",
"&***ooOO@&O$&= .....",
"&**ooOO@@&O$&= .....",
"&*ooOO@@@&O$&= .....",
"&*oOO@@@$&O$&= .....",
"&*OO@@@$$&O$&= .....",
"&*@@@@$$$&O$&= .....",
"         &&=== .....",
"..........    ......"
};
