/* XPM */
static char * icotool_xpm[] = {
/* width height ncolors chars_per_pixel */
"12 12 257 2",
/* colors */
"   	c #D6D6D6",
" .	c #4f4f4f",
" +	c #505050",
" @	c #525252",
" #	c #555555",
" $	c #585858",
" %	c #5a5a5a",
" &	c #5e5e5e",
" *	c #5f5f5f",
" =	c #626262",
" -	c #676767",
" ;	c #6c6c6c",
" >	c #6e6e6e",
" ,	c #6f6f6f",
" '	c #727272",
" )	c #777777",
" !	c #797979",
" ~	c #7c7c7c",
" {	c #7f7f7f",
" ]	c #808080",
" ^	c #828282",
" /	c #878787",
" (	c #909090",
" :	c #929292",
" <	c #969696",
" [	c #979797",
" }	c #a3a3a3",
" |	c #a9a9a9",
" 1	c #aaaaaa",
" 2	c #acacac",
" 3	c #adadad",
" 4	c #aeaeae",
" 5	c #afafaf",
" 6	c #b0b0b0",
" 7	c #b7b7b7",
" 8	c #bebebe",
" 9	c #c0c0c0",
" 0	c #c1c1c1",
" a	c #c4c4c4",
" b	c #c8c8c8",
" c	c #cccccc",
" d	c #cfcfcf",
" e	c #d6d6d6",
" f	c #ffffff",
" g	c #000000",
" h	c #000000",
" i	c #000000",
" j	c #000000",
" k	c #000000",
" l	c #000000",
" m	c #80c980",
" n	c #409e19",
" o	c #005500",
" p	c #000000",
" q	c #000000",
" r	c #000000",
" s	c #000000",
" t	c #000000",
" u	c #000000",
" v	c #000000",
" w	c #000000",
" x	c #000000",
" y	c #000000",
" z	c #000000",
" A	c #000000",
" B	c #000000",
" C	c #000000",
" D	c #000000",
" E	c #000000",
" F	c #000000",
" G	c #000000",
" H	c #000000",
" I	c #000000",
" J	c #000000",
" K	c #000000",
" L	c #000000",
" M	c #000000",
" N	c #000000",
" O	c #000000",
" P	c #000000",
" Q	c #000000",
" R	c #000000",
" S	c #000000",
" T	c #000000",
" U	c #000000",
" V	c #000000",
" W	c #000000",
" X	c #000000",
" Y	c #000000",
" Z	c #000000",
" `	c #000000",
". 	c #000000",
"..	c #000000",
".+	c #000000",
".@	c #000000",
".#	c #000000",
".$	c #000000",
".%	c #000000",
".&	c #000000",
".*	c #000000",
".=	c #000000",
".-	c #000000",
".;	c #000000",
".>	c #000000",
".,	c #000000",
".'	c #000000",
".)	c #000000",
".!	c #000000",
".~	c #000000",
".{	c #000000",
".]	c #000000",
".^	c #000000",
"./	c #000000",
".(	c #000000",
".:	c #000000",
".<	c #000000",
".[	c #000000",
".}	c #000000",
".|	c #000000",
".1	c #000000",
".2	c #000000",
".3	c #000000",
".4	c #000000",
".5	c #000000",
".6	c #000000",
".7	c #000000",
".8	c #000000",
".9	c #000000",
".0	c #000000",
".a	c #000000",
".b	c #000000",
".c	c #000000",
".d	c #000000",
".e	c #000000",
".f	c #000000",
".g	c #000000",
".h	c #000000",
".i	c #000000",
".j	c #000000",
".k	c #000000",
".l	c #000000",
".m	c #000000",
".n	c #000000",
".o	c #000000",
".p	c #000000",
".q	c #000000",
".r	c #000000",
".s	c #000000",
".t	c #000000",
".u	c #000000",
".v	c #000000",
".w	c #000000",
".x	c #000000",
".y	c #000000",
".z	c #000000",
".A	c #000000",
".B	c #000000",
".C	c #000000",
".D	c #000000",
".E	c #000000",
".F	c #000000",
".G	c #000000",
".H	c #000000",
".I	c #000000",
".J	c #000000",
".K	c #000000",
".L	c #000000",
".M	c #000000",
".N	c #000000",
".O	c #000000",
".P	c #000000",
".Q	c #000000",
".R	c #000000",
".S	c #000000",
".T	c #000000",
".U	c #000000",
".V	c #000000",
".W	c #000000",
".X	c #000000",
".Y	c #000000",
".Z	c #000000",
".`	c #000000",
"+ 	c #000000",
"+.	c #000000",
"++	c #000000",
"+@	c #000000",
"+#	c #000000",
"+$	c #000000",
"+%	c #000000",
"+&	c #000000",
"+*	c #000000",
"+=	c #000000",
"+-	c #000000",
"+;	c #000000",
"+>	c #000000",
"+,	c #000000",
"+'	c #000000",
"+)	c #000000",
"+!	c #000000",
"+~	c #000000",
"+{	c #000000",
"+]	c #000000",
"+^	c #000000",
"+/	c #000000",
"+(	c #000000",
"+:	c #000000",
"+<	c #000000",
"+[	c #000000",
"+}	c #000000",
"+|	c #000000",
"+1	c #000000",
"+2	c #000000",
"+3	c #000000",
"+4	c #000000",
"+5	c #000000",
"+6	c #000000",
"+7	c #000000",
"+8	c #000000",
"+9	c #000000",
"+0	c #000000",
"+a	c #000000",
"+b	c #000000",
"+c	c #000000",
"+d	c #000000",
"+e	c #000000",
"+f	c #000000",
"+g	c #000000",
"+h	c #000000",
"+i	c #000000",
"+j	c #000000",
"+k	c #000000",
"+l	c #000000",
"+m	c #000000",
"+n	c #000000",
"+o	c #000000",
"+p	c #000000",
"+q	c #000000",
"+r	c #000000",
"+s	c #000000",
"+t	c #000000",
"+u	c #000000",
"+v	c #000000",
"+w	c #000000",
"+x	c #000000",
"+y	c #000000",
"+z	c #000000",
"+A	c #000000",
"+B	c #000000",
"+C	c #000000",
"+D	c #000000",
"+E	c #000000",
"+F	c #000000",
"+G	c #000000",
"+H	c #000000",
"+I	c #000000",
"+J	c #000000",
"+K	c #000000",
/* pixels */
"                        ",
"     m m + @ + = 1      ",
"   ~ m m m m 4 > + [    ",
" < + m n n m m m < . 5  ",
" % ] m n n n n m m m )  ",
" + 7 m n n n n n n m m m",
" $ a m n n n n n n n o o",
" + 4 m n n n n n o o o o",
" = > m n n n o o o o ^  ",
" 1 + m n o o o o { % 8  ",
"   [ m o o o ( # % 2    ",
"     o o , ; ' ^ 8      "};
