/* XPM */
static char *noname[] = {
/* width height ncolors chars_per_pixel */
"16 16 4 1",
/* colors */
"  c #000000",
". c #2D2D2D",
"X c #525252",
"o c #FFFFFF",
/* pixels */
"oooooooooooooooo",
"oooooooooooooooo",
"oooXXXXooooooooo",
"ooX.   Xoooooooo",
"ooX oooXXXXXoooo",
"ooXXXXXXXXXXXooo",
"ooXXXXXXoXXXX oo",
"ooXXXXXooXXXX oo",
"ooXXXXoooooooooo",
"ooXXXXXooXXXX oo",
"ooXXXXXXoXXXX oo",
"ooXXXXXXXXXXX oo",
"oooXXXXXXXXX  oo",
"oooo         ooo",
"oooooooooooooooo",
"oooooooooooooooo"
};
