/* XPM */
static char *noname[] = {
/* width height ncolors chars_per_pixel */
"16 16 3 1",
/* colors */
"  c #000000",
". c #4040FF",
"X c #646464",
/* pixels */
".......XX.......",
"......XXXX......",
".....XXXXXX.....",
"....XXXXXXXX....",
"...XXXXXXXXXX...",
"..XXXXXXXXXXXX..",
"...    XX      .",
".......XX ......",
".......XX ......",
".......XX ......",
".......XX ......",
".......XX ......",
".......XX ......",
".......XX ......",
".......XX ......",
"........  ......"
};
