/* XPM */
static char *noname[] = {
/* width height ncolors chars_per_pixel */
"12 12 42 1",
/* colors */
"  c #AFAFAF",
". c #ADADAD",
"X c #A9A9A9",
"o c #A3A3A3",
"O c #979797",
"+ c #878787",
"@ c #7F7F7F",
"# c #797979",
"$ c #777777",
"% c #6F6F6F",
"& c #676767",
"* c #5F5F5F",
"= c #555555",
"- c #4F4F4F",
"; c #D6D6D6",
": c #CCCCCC",
"> c #C8C8C8",
", c #C4C4C4",
"< c #C0C0C0",
"1 c #BEBEBE",
"2 c #B0B0B0",
"3 c #AEAEAE",
"4 c #ACACAC",
"5 c #AAAAAA",
"6 c #969696",
"7 c #929292",
"8 c #909090",
"9 c #828282",
"0 c #808080",
"q c #7C7C7C",
"w c #727272",
"e c #6E6E6E",
"r c #6C6C6C",
"t c #626262",
"y c #5E5E5E",
"u c #5A5A5A",
"i c #585858",
"p c #525252",
"a c #505050",
"s c #CFCFCF",
"d c #C1C1C1",
"f c #B7B7B7",
/* pixels */
";;;;;;;;;;;;",
";;6uapat5;;;",
";qaq2d3eaO;;",
"6a.s;;;:6- ;",
"u0s;;;;;>*$;",
"af;;;;;;;7y;",
"i,;;;;;;;oi;",
"a3;;;;;;;+&;",
"te:;;;;;<p9;",
"5a6>;;;<@u1;",
";O-*7X8=u4;;",
";; #%rw91;;;"
};
