/* XPM */
static char *noname[] = {
/* width height ncolors chars_per_pixel */
"16 16 11 1",
/* colors */
"  c #C08060",
". c #EFCFBF",
"X c #C04A10",
"o c #C05520",
"O c #DF9F7F",
"+ c #FFFFC5",
"@ c #C04000",
"# c #C0A090",
"$ c #FFFFFF",
"% c #C06A40",
"& c #C07550",
/* pixels */
"++++++++++++++++",
"++++++++++++++++",
"++++++++++++++++",
"++++#&o@@o&#++++",
"+++%@@@@@@@@%+++",
"+#o@@O$$$@$@@o#+",
"+ @@O$.@$$.@@@ +",
"+X@@$$@@$$@@@@X+",
"+X@@$$@@$$@@@@X+",
"+ @@$$@$$$@.@@ +",
"+#o@O$$O$$$@@o#+",
"+++%@@@@@@@@%+++",
"++++#&o@@o&#++++",
"++++++++++++++++",
"++++++++++++++++",
"++++++++++++++++"
};
