/* XPM */
static char * icotool_xpm[] = {
/* width height ncolors chars_per_pixel */
"16 16 257 2",
/* colors */
"   	c #D6D6D6",
" .	c #ffffff",
" +	c #e9e9ca",
" @	c #cacaca",
" #	c #9b8bca",
" $	c #e9e9ba",
" %	c #fffca2",
" &	c #fdf5a1",
" *	c #ffe9a2",
" =	c #ffe1a2",
" -	c #e9e9ab",
" ;	c #e1e1a2",
" >	c #ffd2a2",
" ,	c #f8ee9b",
" '	c #d2d28b",
" )	c #d2d283",
" !	c #8b8b8b",
" ~	c #0000ff",
" {	c #c2c262",
" ]	c #d2d252",
" ^	c #d2c252",
" /	c #d2ba52",
" (	c #abab62",
" :	c #baba40",
" <	c #c2b338",
" [	c #525200",
" }	c #000000",
" |	c #000000",
" 1	c #000000",
" 2	c #000000",
" 3	c #000000",
" 4	c #000000",
" 5	c #000000",
" 6	c #000000",
" 7	c #000000",
" 8	c #000000",
" 9	c #000000",
" 0	c #000000",
" a	c #000000",
" b	c #000000",
" c	c #000000",
" d	c #000000",
" e	c #000000",
" f	c #000000",
" g	c #000000",
" h	c #000000",
" i	c #000000",
" j	c #000000",
" k	c #000000",
" l	c #000000",
" m	c #000000",
" n	c #000000",
" o	c #000000",
" p	c #000000",
" q	c #000000",
" r	c #000000",
" s	c #000000",
" t	c #000000",
" u	c #000000",
" v	c #000000",
" w	c #000000",
" x	c #000000",
" y	c #000000",
" z	c #000000",
" A	c #000000",
" B	c #000000",
" C	c #000000",
" D	c #000000",
" E	c #000000",
" F	c #000000",
" G	c #000000",
" H	c #000000",
" I	c #000000",
" J	c #000000",
" K	c #000000",
" L	c #000000",
" M	c #000000",
" N	c #000000",
" O	c #000000",
" P	c #000000",
" Q	c #000000",
" R	c #000000",
" S	c #000000",
" T	c #000000",
" U	c #000000",
" V	c #000000",
" W	c #000000",
" X	c #000000",
" Y	c #000000",
" Z	c #000000",
" `	c #000000",
". 	c #000000",
"..	c #000000",
".+	c #000000",
".@	c #000000",
".#	c #000000",
".$	c #000000",
".%	c #000000",
".&	c #000000",
".*	c #000000",
".=	c #000000",
".-	c #000000",
".;	c #000000",
".>	c #000000",
".,	c #000000",
".'	c #000000",
".)	c #000000",
".!	c #000000",
".~	c #000000",
".{	c #000000",
".]	c #000000",
".^	c #000000",
"./	c #000000",
".(	c #000000",
".:	c #000000",
".<	c #000000",
".[	c #000000",
".}	c #000000",
".|	c #000000",
".1	c #000000",
".2	c #000000",
".3	c #000000",
".4	c #000000",
".5	c #000000",
".6	c #000000",
".7	c #000000",
".8	c #000000",
".9	c #000000",
".0	c #000000",
".a	c #000000",
".b	c #000000",
".c	c #000000",
".d	c #000000",
".e	c #000000",
".f	c #000000",
".g	c #000000",
".h	c #000000",
".i	c #000000",
".j	c #000000",
".k	c #000000",
".l	c #000000",
".m	c #000000",
".n	c #000000",
".o	c #000000",
".p	c #000000",
".q	c #000000",
".r	c #000000",
".s	c #000000",
".t	c #000000",
".u	c #000000",
".v	c #000000",
".w	c #000000",
".x	c #000000",
".y	c #000000",
".z	c #000000",
".A	c #000000",
".B	c #000000",
".C	c #000000",
".D	c #000000",
".E	c #000000",
".F	c #000000",
".G	c #000000",
".H	c #000000",
".I	c #000000",
".J	c #000000",
".K	c #000000",
".L	c #000000",
".M	c #000000",
".N	c #000000",
".O	c #000000",
".P	c #000000",
".Q	c #000000",
".R	c #000000",
".S	c #000000",
".T	c #000000",
".U	c #000000",
".V	c #000000",
".W	c #000000",
".X	c #000000",
".Y	c #000000",
".Z	c #000000",
".`	c #000000",
"+ 	c #000000",
"+.	c #000000",
"++	c #000000",
"+@	c #000000",
"+#	c #000000",
"+$	c #000000",
"+%	c #000000",
"+&	c #000000",
"+*	c #000000",
"+=	c #000000",
"+-	c #000000",
"+;	c #000000",
"+>	c #000000",
"+,	c #000000",
"+'	c #000000",
"+)	c #000000",
"+!	c #000000",
"+~	c #000000",
"+{	c #000000",
"+]	c #000000",
"+^	c #000000",
"+/	c #000000",
"+(	c #000000",
"+:	c #000000",
"+<	c #000000",
"+[	c #000000",
"+}	c #000000",
"+|	c #000000",
"+1	c #000000",
"+2	c #000000",
"+3	c #000000",
"+4	c #000000",
"+5	c #000000",
"+6	c #000000",
"+7	c #000000",
"+8	c #000000",
"+9	c #000000",
"+0	c #000000",
"+a	c #000000",
"+b	c #000000",
"+c	c #000000",
"+d	c #000000",
"+e	c #000000",
"+f	c #000000",
"+g	c #000000",
"+h	c #000000",
"+i	c #000000",
"+j	c #000000",
"+k	c #000000",
"+l	c #000000",
"+m	c #000000",
"+n	c #000000",
"+o	c #000000",
"+p	c #000000",
"+q	c #000000",
"+r	c #000000",
"+s	c #000000",
"+t	c #000000",
"+u	c #000000",
"+v	c #000000",
"+w	c #000000",
"+x	c #000000",
"+y	c #000000",
"+z	c #000000",
"+A	c #000000",
"+B	c #000000",
"+C	c #000000",
"+D	c #000000",
"+E	c #000000",
"+F	c #000000",
"+G	c #000000",
"+H	c #000000",
"+I	c #000000",
"+J	c #000000",
"+K	c #ffffff",
/* pixels */
" < < < < < < < < < < < < < < < <",
" < . . . . . . . . . . . . . . <",
" < . . + ) ' ) + . . . . . . . <",
" < . + ; % % % ( @ . . . . . . <",
" < . { $ $ $ - $ ; ) ) ) ' @ . <",
" < . ) % % % % % * % % = * [ . <",
" < . ) % % % ~ % ~ % ~ * % [ . <",
" < . ) % * % % # ~ # > = = [ . <",
" < . ) % % % ~ ~ ~ ~ ~ * * [ . <",
" < . ) * , * % # ~ # = = = [ . <",
" < . ) & * % ~ * ~ = ~ > > [ . <",
" < . : ^ ^ ^ ] ^ ^ ^ ^ / ^ [ . <",
" < . @ ! ! ! ! ! ! ! ! ! ! @ . <",
" < . . . . . . . . . . . . . . <",
" < < : < < < < < < < < < < < < :",
"                                "};
