/* XPM */
static char *noname[] = {
/* width height ncolors chars_per_pixel */
"20 20 7 1",
/* colors */
"  c #000000",
". c #D6D6D6",
"X c #CECECE",
"o c #848484",
"O c #FFFFFF",
"+ c #E7E7E7",
"@ c #B5B5B5",
/* pixels */
"....................",
"....................",
"....................",
"....ooooo...........",
"...o++XXXoo.........",
"...o+@@@@XXoo..... .",
"..o+@    @@XXo...o .",
"..oX@ ...  @XOo.oO .",
"..oX@ ..... @XOoO+ .",
"..oX@ ...... @XO+X .",
"..oX@ ....... O+XX .",
"..oX@ ...... OXXX@ .",
"...oX@ .... @@@@@@ .",
"...oX@ ...         .",
"....oX@ ............",
"....oX@ ............",
".....   ............",
"....................",
"....................",
"...................."
};
