/* XPM */
static char *noname[] = {
/* width height ncolors chars_per_pixel */
"16 16 8 1",
/* colors */
"  c #7E4B4D",
". c #7F0000",
"X c #FF2A2B",
"o c #F90000",
"O c #FF5612",
"+ c #FFFFFF",
"@ c #DC0000",
"# c #FF6928",
/* pixels */
" @@ +++++++++++@",
"@#Oo.++++++++@.+",
"+@#Oo.++++++@.++",
"++@@#o.++++@.+++",
"++++@@o.++@.++++",
"++++++@o.@.+++++",
"+++++++@o.++++++",
"+++++++@o..+++++",
"++++++@o.+o.++++",
"+++++@O.+++o.+++",
"++++@#@.++++o.++",
"+++X#o.++++++o.+",
"++X#O@.+++++++o.",
"++XOo.+++++++++o",
"++Xo.+++++++++++",
"+++.++++++++++++"
};
