/* XPM */
static char * icotool_xpm[] = {
/* width height ncolors chars_per_pixel */
"12 12 257 2",
/* colors */
"   	c #D6D6D6",
" .	c #c31e1d",
" +	c #c31f1e",
" @	c #c3201f",
" #	c #c32322",
" $	c #c42625",
" %	c #c42a29",
" &	c #c42e2c",
" *	c #c42e2d",
" =	c #c53331",
" -	c #c53432",
" ;	c #c53937",
" >	c #c63f3c",
" ,	c #c74643",
" '	c #c74947",
" )	c #c74a47",
" !	c #c84f4c",
" ~	c #c85652",
" {	c #c85855",
" ]	c #c95c59",
" ^	c #c95d59",
" /	c #c9605d",
" (	c #c9625e",
" :	c #ca6460",
" <	c #ca6c68",
" [	c #cc7873",
" }	c #cc7a76",
" |	c #cc807b",
" 1	c #cc817c",
" 2	c #cc827d",
" 3	c #ce928c",
" 4	c #cf9a94",
" 5	c #cf9c96",
" 6	c #cf9f99",
" 7	c #cfa09a",
" 8	c #cfa19b",
" 9	c #d0a39d",
" 0	c #d0a49e",
" a	c #d1ada6",
" b	c #d2b7b0",
" c	c #d2bab3",
" d	c #d2bcb4",
" e	c #d2c0b8",
" f	c #d3c5bd",
" g	c #d4cbc3",
" h	c #d4cfc7",
" i	c #d6d6d6",
" j	c #ffffff",
" k	c #000000",
" l	c #409e19",
" m	c #005500",
" n	c #80c980",
" o	c #000000",
" p	c #000000",
" q	c #000000",
" r	c #000000",
" s	c #000000",
" t	c #000000",
" u	c #000000",
" v	c #000000",
" w	c #000000",
" x	c #000000",
" y	c #000000",
" z	c #000000",
" A	c #000000",
" B	c #000000",
" C	c #000000",
" D	c #000000",
" E	c #000000",
" F	c #000000",
" G	c #000000",
" H	c #000000",
" I	c #000000",
" J	c #000000",
" K	c #000000",
" L	c #000000",
" M	c #000000",
" N	c #000000",
" O	c #000000",
" P	c #000000",
" Q	c #000000",
" R	c #000000",
" S	c #000000",
" T	c #000000",
" U	c #000000",
" V	c #000000",
" W	c #000000",
" X	c #000000",
" Y	c #000000",
" Z	c #000000",
" `	c #000000",
". 	c #000000",
"..	c #000000",
".+	c #000000",
".@	c #000000",
".#	c #000000",
".$	c #000000",
".%	c #000000",
".&	c #000000",
".*	c #000000",
".=	c #000000",
".-	c #000000",
".;	c #000000",
".>	c #000000",
".,	c #000000",
".'	c #000000",
".)	c #000000",
".!	c #000000",
".~	c #000000",
".{	c #000000",
".]	c #000000",
".^	c #000000",
"./	c #000000",
".(	c #000000",
".:	c #000000",
".<	c #000000",
".[	c #000000",
".}	c #000000",
".|	c #000000",
".1	c #000000",
".2	c #000000",
".3	c #000000",
".4	c #000000",
".5	c #000000",
".6	c #000000",
".7	c #000000",
".8	c #000000",
".9	c #000000",
".0	c #000000",
".a	c #000000",
".b	c #000000",
".c	c #000000",
".d	c #000000",
".e	c #000000",
".f	c #000000",
".g	c #000000",
".h	c #000000",
".i	c #000000",
".j	c #000000",
".k	c #000000",
".l	c #000000",
".m	c #000000",
".n	c #000000",
".o	c #000000",
".p	c #000000",
".q	c #000000",
".r	c #000000",
".s	c #000000",
".t	c #000000",
".u	c #000000",
".v	c #000000",
".w	c #000000",
".x	c #000000",
".y	c #000000",
".z	c #000000",
".A	c #000000",
".B	c #000000",
".C	c #000000",
".D	c #000000",
".E	c #000000",
".F	c #000000",
".G	c #000000",
".H	c #000000",
".I	c #000000",
".J	c #000000",
".K	c #000000",
".L	c #000000",
".M	c #000000",
".N	c #000000",
".O	c #000000",
".P	c #000000",
".Q	c #000000",
".R	c #000000",
".S	c #000000",
".T	c #000000",
".U	c #000000",
".V	c #000000",
".W	c #000000",
".X	c #000000",
".Y	c #000000",
".Z	c #000000",
".`	c #000000",
"+ 	c #000000",
"+.	c #000000",
"++	c #000000",
"+@	c #000000",
"+#	c #000000",
"+$	c #000000",
"+%	c #000000",
"+&	c #000000",
"+*	c #000000",
"+=	c #000000",
"+-	c #000000",
"+;	c #000000",
"+>	c #000000",
"+,	c #000000",
"+'	c #000000",
"+)	c #000000",
"+!	c #000000",
"+~	c #000000",
"+{	c #000000",
"+]	c #000000",
"+^	c #000000",
"+/	c #000000",
"+(	c #000000",
"+:	c #000000",
"+<	c #000000",
"+[	c #000000",
"+}	c #000000",
"+|	c #000000",
"+1	c #000000",
"+2	c #000000",
"+3	c #000000",
"+4	c #000000",
"+5	c #000000",
"+6	c #000000",
"+7	c #000000",
"+8	c #000000",
"+9	c #000000",
"+0	c #000000",
"+a	c #000000",
"+b	c #000000",
"+c	c #000000",
"+d	c #000000",
"+e	c #000000",
"+f	c #000000",
"+g	c #000000",
"+h	c #000000",
"+i	c #000000",
"+j	c #000000",
"+k	c #000000",
"+l	c #000000",
"+m	c #000000",
"+n	c #000000",
"+o	c #000000",
"+p	c #000000",
"+q	c #000000",
"+r	c #000000",
"+s	c #000000",
"+t	c #000000",
"+u	c #000000",
"+v	c #000000",
"+w	c #000000",
"+x	c #000000",
"+y	c #000000",
"+z	c #000000",
"+A	c #000000",
"+B	c #000000",
"+C	c #000000",
"+D	c #000000",
"+E	c #000000",
"+F	c #000000",
"+G	c #000000",
"+H	c #000000",
"+I	c #000000",
"+J	c #000000",
"+K	c #000000",
/* pixels */
"                        ",
"     n n @ # @ ; 5      ",
"   ^ n n n n 8 ' @ 2    ",
" 1 + n l l n n n | . 9  ",
" & ( n l l l l n n n ~  ",
" + a n l l l l l l n n n",
" % e n l l l l l l l m m",
" @ 8 n l l l l l m m m m",
" ; ' n l l l m m m m :  ",
" 5 @ n l m m m m / * b  ",
"   2 n m m m [ $ * 6    ",
"     m m ) , ! : b      "};
