/* XPM */
static char *noname[] = {
/* width height ncolors chars_per_pixel */
"16 16 3 1",
/* colors */
"  c #000000",
". c #414141",
"X c #4040FF",
/* pixels */
"XXXXXXXXXXXXXXXX",
"XXXXXXXXXXXXXXXX",
"XXX..XXXX.XXXXXX",
"XXX.. XXX..XXXXX",
"XXX.. XXX...XXXX",
".............XXX",
"..............XX",
"X  ..    ......X",
"XXX.. XXX...... ",
"..............  ",
".............  X",
"X  ..    ...  XX",
"XXX.. XXX..  XXX",
"XXX.. XXX.  XXXX",
"XXXX  XXXX XXXXX",
"XXXXXXXXXXXXXXXX"
};
