/* XPM */
static char *noname[] = {
/* width height ncolors chars_per_pixel */
"20 20 25 1",
/* colors */
"  c #A5A5A5",
". c #7B7B7B",
"X c #737373",
"o c #6B6B6B",
"O c #636363",
"+ c #393939",
"@ c #313131",
"# c #DEDEDE",
"$ c #292929",
"% c #D6D6D6",
"& c #CECECE",
"* c #C6C6C6",
"= c #9C9C9C",
"- c #949494",
"; c #848484",
": c #5A5A5A",
"> c #525252",
", c #FFFFFF",
"< c #F7F7F7",
"1 c #EFEFEF",
"2 c #E7E7E7",
"3 c #181818",
"4 c #BDBDBD",
"5 c #080808",
"6 c #B5B5B5",
/* pixels */
"%%%%%;;;;;;;;;;=%%%%",
"%%%%%;#2,,<,,,,=>%%%",
"%%%XXXXX2,,<,,,=4>%%",
"%%X*4**4X222<,,=24>%",
"%X**#11*4X===,,@@@@@",
"X*1*#1===*X2#2,2*XX>",
"X1,*#14*4*X===,<2=X>",
"X11*#1===*32#22,,#=>",
"X1,*#14*4&3=====,,#>",
"X*1*#1===*32#22#,,#>",
"%X**#114 3O=====,,#>",
"%%X*4***36O;&#22<,#>",
"%%%X3333,635====,,#>",
"%%%%%:&OO3X:5;&2,<#>",
"%%%%%;#22$;-O5;&2,#>",
"%%%%%;,,,,@.-o5;&2%>",
"%%%%%;&&&&&$.-O5;==>",
"%%%%%;>>>>>>@.-:5>>>",
"%%%%%%%%%%%%%@.X+5%%",
"%%%%%%%%%%%%%%@$@%%%"
};
