/* XPM */
static char *noname[] = {
/* width height ncolors chars_per_pixel */
"20 20 15 1",
/* colors */
"  c #EEEEE2",
". c #737373",
"X c #BDBDB8",
"o c #DEDEDB",
"O c #313131",
"+ c #E6E6D5",
"@ c #C0C0C0",
"# c #9C9C9C",
"$ c #C04000",
"% c #848484",
"& c #525252",
"* c #FFFFFF",
"= c #FFFF00",
"- c #3E7E36",
"; c #FFFFF7",
/* pixels */
"$=$$=$$=$$$$$$$$$$$$",
"$$=$=$=$$$$$$$$$$$$$",
"$$$===%%%%%%%%%#$$$$",
"==========;;;;;#&$$$",
"$$$===;;;;;;;;;#X&$$",
"$$=$=%=;++++;;;# X&$",
"$=$$=%;=#####;;OOOOO",
"$---=------+++;+@..&",
"$-**=*****-###;;+#.&",
"$-***--***-++++;;+#&",
"$-***--***-#####;;o&",
"$-*------*-+++++;;o&",
"$-*------*-#####;;o&",
"$-***--***-+++++;;o&",
"$-***--***-#####;;o&",
"$-********-+++++;;o&",
"$----------#####;;o&",
"$$$$$%;;++++++++;;o&",
"$$$$$%;;;;;;;;;;;;o&",
"$$$$$%&&&&&&&&&&&&&&"
};
