/* XPM */
static char *noname[] = {
/* width height ncolors chars_per_pixel */
"20 20 7 1",
/* colors */
"  c #000000",
". c #8CFFFF",
"X c #D6FFFF",
"o c #2152FF",
"O c #4ABDFF",
"+ c #D6D6D6",
"@ c #FFFFFF",
/* pixels */
"++++++++++++++++++++",
"++++++++++++++++++++",
"++++++++++++++++++++",
"+++++++++++ooooo++++",
"+++++++++oo..... +++",
"+o+++++oo..OOOO.O ++",
"+o +++o..OO    O.O +",
"+o@ +o..O  ++++o.O +",
"+oXX ..O ++++++o.O +",
"+oXX..O +++++++o.O +",
"+oX..O ++++++++o.O +",
"+o....O +++++++o.O +",
"+oOOOOOO +++++o.O ++",
"+         ++++o.O ++",
"+++++++++++++o.O +++",
"+++++++++++++o.O +++",
"+++++++++++++   ++++",
"++++++++++++++++++++",
"++++++++++++++++++++",
"++++++++++++++++++++"
};
