/* XPM */
static char *noname[] = {
/* width height ncolors chars_per_pixel */
"60 20 33 1",
/* colors */
"  c #000000",
". c #31FFFF",
"X c #9CCEFF",
"o c #737373",
"O c #636363",
"+ c #00A5BD",
"@ c #00B5FF",
"# c #313131",
"$ c #DEDEDE",
"% c #D6D6D6",
"& c #CECECE",
"* c #84A5EF",
"= c #C6C6C6",
"- c #000063",
"; c #9C9C9C",
": c #848484",
"> c #00ADEF",
", c #5A5A5A",
"< c #525252",
"1 c #00CEFF",
"2 c #00C6FF",
"3 c #0073EF",
"4 c #0042CE",
"5 c #EFEFEF",
"6 c #0094FF",
"7 c #0084FF",
"8 c #00319C",
"9 c #E7E7D6",
"0 c #181818",
"q c #BDBDBD",
"w c #CEFFFF",
"e c #FFFFF7",
"r c #B5B5B5",
/* pixels */
"%%%%%::::::::::;%%%%%%%%%%%%%%%%%%%%%%%%%%%%%%%%%%%%%%%%%%%%",
"%%%%%:99eeeeeee;<%%%%%%%%%%%%%%%%%%%%%%%%%%%%%%%%%%%%%%%%%%%",
"%%%ooooo9eeeeee;q<%%%%%%%%%%%%%%%%%%%%%%%%%%%%%%%%%%%%%%%%%%",
"%%oXXXXXo999eee;9q<%%%%%%%%%%%%%%%%%%%%%%%%%%%%%%%%%%%%%%%%%",
"%oX=9ww.Xo;;;ee#####%%%%%%%%%%%%%%%%%%%%%%%%%%%%%%%%%%%%%%%%",
"oXw=9w;;;Xo999e9=oo<%%%%%%%%%%%%%%%%%%%%%%%%%%%%% %%%%%%%%%%",
"owe=9w...Xo;;;ee9;o<%%%    %%%%%%%%%%%%%%%%%%%%%% %%%%%%%%%%",
"ow5=9w;;;X09999ee9;<%% %%%%%%%%%%%%%%%%%%%%%%%%%% %%%%%%%%%%",
"owe=9w...&0;;;;;ee%<%% %%%%%%   %%%   %% % %%   %    %%%%%%%",
"oXw=9w;;;X099999ee$<%%%   %% %%% %%%%% %  %% %%%% %%% %%%%%%",
"%oX=9ww.*0O;;;;;ee%<%%%%%% %     %%    % %%% %%%% %%% %%%%%%",
"%%oXXXXX0rO:&999ee$<%%%%%% % %%%%% %%% % %%% %%%% %%% %%%%%%",
"%%%o0000er0-;;;;ee$<%%%%%% % %%% % %%% % %%% %%%% %%% %%%%%%",
"%%%%%,&OO0+3-:&9ee$<%%    %%%   %%%    % %%%%   % %%% %%%%%%",
"%%%%%:9998@13-:&9e$<%%%%%%%%%%%%%%%%%%%%%%%%%%%%%%%%%%%%%%%%",
"%%%%%:eeee8>17-:&9$<%%%%%%%%%%%%%%%%%%%%%%%%%%%%%%%%%%%%%%%%",
"%%%%%:&&&&&8>27-:;;<%%%%%%%%%%%%%%%%%%%%%%%%%%%%%%%%%%%%%%%%",
"%%%%%:<<<<<<8>23-<<<%%%%%%%%%%%%%%%%%%%%%%%%%%%%%%%%%%%%%%%%",
"%%%%%%%%%%%%%8>64-%%%%%%%%%%%%%%%%%%%%%%%%%%%%%%%%%%%%%%%%%%",
"%%%%%%%%%%%%%%888%%%%%%%%%%%%%%%%%%%%%%%%%%%%%%%%%%%%%%%%%%%"
};
