/* XPM */
static char *noname[] = {
/* width height ncolors chars_per_pixel */
"8 8 2 1",
/* colors */
"  c #000000",
". c #D6D6D6",
/* pixels */
".       ",
".       ",
". ..... ",
". ..... ",
". ..... ",
". ..... ",
".       ",
"........"
};
