/* XPM */
static char *noname[] = {
/* width height ncolors chars_per_pixel */
"60 20 13 1",
/* colors */
"  c #000000",
". c #996633",
"X c #FFFF99",
"o c #996600",
"O c #4D4D4D",
"+ c #F8F8F8",
"@ c #EAEAEA",
"# c #FFCC00",
"$ c #D6D6D6",
"% c #C0C0C0",
"& c #868686",
"* c #CC9900",
"= c #FFFFCC",
/* pixels */
"$$$$$$$$$$$$$$$$$o$$$$$$$$$$$$$$$$$$$$$$$$$$$$$$$$$$$$$$$$$$",
"$$$$$$$&&&&&&$$$o=O$$$$$$$$$$$$$$$$$$$$$$$$$$$$$$$$$$$$$$$$$",
"$$$$$&&@+*+++&&o=O $$$$$$$$$$$$$$$$$$$$$$$$$$$$$$$$$$$$$$$$$",
"$$$&&@+++*==XXo=O  $$$$$$$$$$$$$$$$$$$$$$$$$$$$$$$$$$$$$$$$$",
"$$&@&+++===XXo=O   $$$$$$$$$$$$$$$$$$$$$$$$$$$$$$$$$$$$$$$$$",
"$&@++&+===XXo=O    $$$$$$$$$$$$$$$$$$$$$$$$$$$$$$$$$$$$$$$$$",
"$&++++===XXo=O     $$$ $$$$ $ $$$$$$ $$$$$$$$$$$$$$$$$$$$$$$",
"&@+++===XXo=O   OOO $$ $$$$ $$$$$$$$ $$$$$$$$$$$$$$$$$$$$$$$",
"&++====XXo=O  O.... $$ $$$$ $ $$   $   $$   $$ $ $ $$$ $$$$$",
"&&&&==XX%*O O...    $$      $ $ $$$$ $$$ $$$ $  $$ $$$ $$$$$",
"&+==XXX%X%*.......O $$ $$$$ $ $  $$$ $$$ $$$ $ $$$$ $ $$$$$$",
"&+XXXX%X%X%#......O $$ $$$$ $ $$$  $ $$$ $$$ $ $$$$ $ $$$$$$",
"&oXXX%o%X%#%** ...O $$ $$$$ $ $$$$ $ $$$ $$$ $ $$$$$ $$$$$$$",
"$&oX%o%X%#%*%** .  $$$ $$$$ $ $   $$$  $$   $$ $$$$$ $$$$$$$",
"$&*oo%#%# *%***  o $$$$$$$$$$$$$$$$$$$$$$$$$$$$$$$$ $$$$$$$$",
"$$ **oo** ***  oo $$$$$$$$$$$$$$$$$$$$$$$$$$$$$$$$$ $$$$$$$$",
"$$$  **      oo  $$$$$$$$$$$$$$$$$$$$$$$$$$$$$$$$$$$$$$$$$$$",
"$$$$$  *&&ooo  $$$$$$$$$$$$$$$$$$$$$$$$$$$$$$$$$$$$$$$$$$$$$",
"$$$$$$$      $$$$$$$$$$$$$$$$$$$$$$$$$$$$$$$$$$$$$$$$$$$$$$$",
"$$$$$$$$$$$$$$$$$$$$$$$$$$$$$$$$$$$$$$$$$$$$$$$$$$$$$$$$$$$$"
};
