/* XPM */
static char *noname[] = {
/* width height ncolors chars_per_pixel */
"20 20 14 1",
/* colors */
"  c #000000",
". c #666600",
"X c #FFFF99",
"o c #999966",
"O c #F8F8F8",
"+ c #FFCC00",
"@ c #D6D6D6",
"# c #FFFBF0",
"$ c #CCCC99",
"% c #999900",
"& c #CC9900",
"* c #FFFF00",
"= c #FFFFCC",
"- c #0000FF",
/* pixels */
"@@@@@@@@@@@@@@@@@@@@",
"@@@.......@@@@@@@@@@",
"@@.#XXXXX$ @@@@@@@@@",
"@.#&$&$&$&% @@@@@@@@",
"................... ",
".XXXXXXXXXXXXXXXXXX ",
".X+O+O+O+=++++++++& ",
".XO+O+O+=-++++++&+& ",
".X+O+O+-+-+-+++&+&& ",
".XO+O+=+---+++&+&+& ",
".X+O+X---*---++&+&& ",
".XO+X+++---+++&+&+& ",
".X+X+X+-+-+-+&+&+&o ",
".XX++++++-++&+&+&o& ",
".X+X+++++++&+&+&o&o ",
".X++++++&+&+&+&o&o& ",
".X+++++&+&+&+&o&o&o ",
"                    ",
"@@@@@@@@@@@@@@@@@@@@",
"@@@@@@@@@@@@@@@@@@@@"
};
