/* XPM */
static char *noname[] = {
/* width height ncolors chars_per_pixel */
"16 16 7 1",
/* colors */
"  c #000000",
". c #959500",
"X c #E1DD6F",
"o c #E08000",
"O c #956464",
"+ c #C00000",
"@ c #FFFF00",
/* pixels */
"   X   ++       ",
"   @  ++++      ",
"  X@X++++++     ",
"X@@@@@o+++++    ",
" X@@@o+++++++   ",
" +@@@+++++++++  ",
" X@@@.O++OOOOOO ",
" X   X ++O      ",
"       ++O      ",
"       ++O      ",
"       ++O      ",
"       ++O      ",
"       ++O      ",
"       ++O      ",
"       ++O      ",
"        OO      "
};
