/* XPM */
static char *noname[] = {
/* width height ncolors chars_per_pixel */
"20 20 21 1",
/* colors */
"  c #EFEFE7",
". c #FF6BC6",
"X c #FF8CD6",
"o c #737373",
"O c #313131",
"+ c #DEDEDE",
"@ c #D6D6D6",
"# c #FF21AD",
"$ c #FF4ABD",
"% c #FFB5E7",
"& c #9C9C9C",
"* c #848484",
"= c #525252",
"- c #FFFFFF",
"; c #FFFF00",
": c #DE0094",
"> c #F7F7F7",
", c #E7E7D6",
"< c #FFD6E7",
"1 c #BDBDBD",
"2 c #FFFFF7",
/* pixels */
"@;@@;@@;@@@@@@@@@@@@",
"@@;@;@;@@@@@@@@@@@@@",
"@@@;;;*********&@@@@",
";;;;;;;;;;22222&=@@@",
"@@@;;;222222222&1=@@",
"@@;@;*;2,,,,222& 1=@",
"@;@@;*2;&&&&&22OOOOO",
"@:::;:::::::,,2,1oo=",
"@:--;------:&&22,&o=",
"@:--<.$.<--:,,,22,&=",
"@:-<::::#<-:&&&&22+=",
"@:-.:::::X-:,,,,22@=",
"@:-X:::::%2:&&&&22+=",
"@:-<#:::.2-:,,,,22@=",
"@:-->%X% --:&&&&22+=",
"@:--2-2----:,,,,22@=",
"@:::::::::::&&&&22+=",
"@@@@@*>2,,,,,,,,22@=",
"@@@@@*222222222222+=",
"@@@@@*=============="
};
