/* XPM */
static char * icotool_xpm[] = {
/* width height ncolors chars_per_pixel */
"16 16 257 2",
/* colors */
"   	c #D6D6D6",
" .	c #fcfcfc",
" +	c #f5f5f5",
" @	c #ededed",
" #	c #e3e3e3",
" $	c #dcdcdc",
" %	c #d4d4d4",
" &	c #cecece",
" *	c #c3c3c3",
" =	c #bebebe",
" -	c #b4b4b4",
" ;	c #adadad",
" >	c #a3a3a3",
" ,	c #9c9c9c",
" '	c #929292",
" )	c #8e8e8e",
" !	c #868686",
" ~	c #7b7b7b",
" {	c #747474",
" ]	c #6d6d6d",
" ^	c #636363",
" /	c #5c5c5c",
" (	c #535353",
" :	c #4b4b4b",
" <	c #444444",
" [	c #2a2a2a",
" }	c #242424",
" |	c #1b1b1b",
" 1	c #131313",
" 2	c #0a0a0a",
" 3	c #000000",
" 4	c #000000",
" 5	c #000000",
" 6	c #000000",
" 7	c #000000",
" 8	c #000000",
" 9	c #000000",
" 0	c #000000",
" a	c #000000",
" b	c #000000",
" c	c #000000",
" d	c #000000",
" e	c #000000",
" f	c #000000",
" g	c #000000",
" h	c #000000",
" i	c #000000",
" j	c #000000",
" k	c #000000",
" l	c #000000",
" m	c #000000",
" n	c #000000",
" o	c #000000",
" p	c #000000",
" q	c #000000",
" r	c #000000",
" s	c #000000",
" t	c #000000",
" u	c #000000",
" v	c #000000",
" w	c #000000",
" x	c #000000",
" y	c #000000",
" z	c #000000",
" A	c #000000",
" B	c #000000",
" C	c #000000",
" D	c #000000",
" E	c #000000",
" F	c #000000",
" G	c #000000",
" H	c #000000",
" I	c #000000",
" J	c #000000",
" K	c #000000",
" L	c #000000",
" M	c #000000",
" N	c #000000",
" O	c #000000",
" P	c #000000",
" Q	c #000000",
" R	c #000000",
" S	c #000000",
" T	c #000000",
" U	c #000000",
" V	c #000000",
" W	c #000000",
" X	c #000000",
" Y	c #000000",
" Z	c #000000",
" `	c #000000",
". 	c #000000",
"..	c #000000",
".+	c #000000",
".@	c #000000",
".#	c #000000",
".$	c #000000",
".%	c #000000",
".&	c #000000",
".*	c #000000",
".=	c #000000",
".-	c #000000",
".;	c #000000",
".>	c #000000",
".,	c #000000",
".'	c #000000",
".)	c #000000",
".!	c #000000",
".~	c #000000",
".{	c #000000",
".]	c #000000",
".^	c #000000",
"./	c #000000",
".(	c #000000",
".:	c #000000",
".<	c #000000",
".[	c #000000",
".}	c #000000",
".|	c #000000",
".1	c #000000",
".2	c #000000",
".3	c #000000",
".4	c #000000",
".5	c #000000",
".6	c #000000",
".7	c #000000",
".8	c #000000",
".9	c #000000",
".0	c #000000",
".a	c #000000",
".b	c #000000",
".c	c #000000",
".d	c #000000",
".e	c #000000",
".f	c #000000",
".g	c #000000",
".h	c #000000",
".i	c #000000",
".j	c #000000",
".k	c #000000",
".l	c #000000",
".m	c #000000",
".n	c #000000",
".o	c #000000",
".p	c #000000",
".q	c #000000",
".r	c #000000",
".s	c #000000",
".t	c #000000",
".u	c #000000",
".v	c #000000",
".w	c #000000",
".x	c #000000",
".y	c #000000",
".z	c #000000",
".A	c #000000",
".B	c #000000",
".C	c #000000",
".D	c #000000",
".E	c #000000",
".F	c #000000",
".G	c #000000",
".H	c #000000",
".I	c #000000",
".J	c #000000",
".K	c #000000",
".L	c #000000",
".M	c #000000",
".N	c #000000",
".O	c #000000",
".P	c #000000",
".Q	c #000000",
".R	c #000000",
".S	c #000000",
".T	c #000000",
".U	c #000000",
".V	c #000000",
".W	c #000000",
".X	c #000000",
".Y	c #000000",
".Z	c #000000",
".`	c #000000",
"+ 	c #000000",
"+.	c #000000",
"++	c #000000",
"+@	c #000000",
"+#	c #000000",
"+$	c #000000",
"+%	c #000000",
"+&	c #000000",
"+*	c #000000",
"+=	c #000000",
"+-	c #000000",
"+;	c #000000",
"+>	c #000000",
"+,	c #000000",
"+'	c #000000",
"+)	c #000000",
"+!	c #000000",
"+~	c #000000",
"+{	c #000000",
"+]	c #000000",
"+^	c #000000",
"+/	c #000000",
"+(	c #000000",
"+:	c #000000",
"+<	c #000000",
"+[	c #000000",
"+}	c #000000",
"+|	c #000000",
"+1	c #000000",
"+2	c #000000",
"+3	c #000000",
"+4	c #000000",
"+5	c #000000",
"+6	c #000000",
"+7	c #000000",
"+8	c #000000",
"+9	c #000000",
"+0	c #000000",
"+a	c #000000",
"+b	c #000000",
"+c	c #000000",
"+d	c #000000",
"+e	c #000000",
"+f	c #000000",
"+g	c #000000",
"+h	c #000000",
"+i	c #000000",
"+j	c #000000",
"+k	c #000000",
"+l	c #000000",
"+m	c #000000",
"+n	c #000000",
"+o	c #000000",
"+p	c #000000",
"+q	c #000000",
"+r	c #000000",
"+s	c #000000",
"+t	c #000000",
"+u	c #000000",
"+v	c #000000",
"+w	c #000000",
"+x	c #000000",
"+y	c #000000",
"+z	c #000000",
"+A	c #000000",
"+B	c #000000",
"+C	c #000000",
"+D	c #000000",
"+E	c #4b574b",
"+F	c #000000",
"+G	c #a6b9a6",
"+H	c #000000",
"+I	c #000000",
"+J	c #000000",
"+K	c #ffffff",
/* pixels */
"                                ",
"                                ",
"       ( ( ( (                  ",
"     ( [ 3 3 3 (                ",
"     ( 3       ( ( ( ( (        ",
"     ( ( ( ( ( ( ( ( ( ( (      ",
"     ( ( (+K+K ( ( ( ) ( ( 3    ",
"     ( (+K ) ( ( ( )+K ) ( 3    ",
"     ( (+K ( ( ( )+K+K+K ) 3    ",
"     )+K+K+K ) ( ( (+K ( ( 3    ",
"     ( )+K ) ( ( ( )+K ( ( 3    ",
"     ( ( ) ( ( (+K+K ( ( ( 3    ",
"       ( ( ( ( ( ( ( ( ( 3 3    ",
"         3 3 3 3 3 3 3 3 3      ",
"                                ",
"                                "};
