/* XPM */
static char *noname[] = {
/* width height ncolors chars_per_pixel */
"20 20 35 1",
/* colors */
"  c #000000",
". c #8BB7B3",
"X c #52A19F",
"o c #94BAB5",
"O c #00A4A4",
"+ c #096A6B",
"@ c #00999A",
"# c #729D9A",
"$ c #007879",
"% c #9BBDB8",
"& c #8BCEC9",
"* c #00FFFF",
"= c #00B0B0",
"- c #00EBEB",
"; c #81A5A1",
": c #00A7A9",
"> c #00696A",
", c #008787",
"< c #00E3E3",
"1 c #82CDC8",
"2 c #2E9593",
"3 c #00C4C5",
"4 c #00DCDC",
"5 c #D7D4CC",
"6 c #00D5D5",
"7 c #009393",
"8 c #006768",
"9 c #008C8C",
"0 c #86B5B0",
"q c #009799",
"w c #FFFF00",
"e c #00AEAF",
"r c #98CCC7",
"t c #83B4AF",
"y c #00CCCC",
/* pixels */
"55555553333333338555",
"5555553**,**,**88555",
"555553,,,,,,,,838555",
"55553**,**,**8838555",
"5553,,,,,,,,,3888555",
"555,**,**,**,3838555",
"555,**,**,**,8838555",
"555,,,,,,,888,888555",
"555,**,**,8,,,838555",
"555,**,**,8888838555",
"555,,,,88 ,,,,885555",
"555,*    w 5o=-O7555",
"555,* wwwww 7**O3X55",
"555,8    w 5t**ye$55",
"5555 5552 75564@:>55",
"    w 51<99q;%#+5555",
" wwwww r6**,%5555555",
"    w 5&-**7.5555555",
"5555 555077555555555",
"55555555500555555555"
};
