/* XPM */
static char *noname[] = {
/* width height ncolors chars_per_pixel */
"12 12 30 1",
/* colors */
"  c #000000",
". c #D2B7B0",
"X c #CC817C",
"o c #CF9F99",
"O c #C42625",
"+ c #D0A39D",
"@ c #C53432",
"# c #C85652",
"$ c #C3201F",
"% c #D6D6D6",
"& c #9EA000",
"* c #C85855",
"= c #C53331",
"- c #C53937",
"; c #C31F1E",
": c #CA6460",
"> c #C42E2C",
", c #CF9C96",
"< c #FCFF05",
"1 c #D9DC00",
"2 c #C31E1D",
"3 c #FFFF00",
"4 c #C84F4C",
"5 c #FFFFC0",
"6 c #C74A47",
"7 c #C42E2D",
"8 c #C63F3C",
"9 c #C32322",
"0 c #CC827D",
"q c #C95D59",
/* pixels */
"%%%%%%%%%%%%",
"%%X>$&$-,%%%",
"%q;;;& ;$0%%",
"X;;;;&3 ;2+%",
"&&&&&&53 ;#%",
"&5555555< =%",
"&5<<<<<<<& %",
"&111111<& 8%",
"      1& 9:%",
",$;;; & ;7.%",
"%02@;  O7o%%",
"%%+*6 4:.%%%"
};
