/* XPM */
static char * icotool_xpm[] = {
/* width height ncolors chars_per_pixel */
"20 20 257 2",
/* colors */
"   	c #D6D6D6",
" .	c #ffffff",
" +	c #c0c0c0",
" @	c #808080",
" #	c #000080",
" $	c #000000",
" %	c #dededb",
" &	c #d4d0c8",
" *	c #cecece",
" =	c #c6c6c6",
" -	c #9cceff",
" ;	c #87a6ef",
" >	c #bdbdb8",
" ,	c #b5b5b5",
" '	c #9c9c9c",
" )	c #848484",
" !	c #31ffff",
" ~	c #00ceff",
" {	c #00c7ff",
" ]	c #00b7ff",
" ^	c #00abf4",
" /	c #00abee",
" (	c #0092ff",
" :	c #0081ff",
" <	c #00a4b8",
" [	c #0072f2",
" }	c #0071ed",
" |	c #0042cb",
" 1	c #00319c",
" 2	c #737373",
" 3	c #636363",
" 4	c #595959",
" 5	c #525252",
" 6	c #000063",
" 7	c #313131",
" 8	c #dedc83",
" 9	c #525252",
" 0	c #000063",
" a	c #313131",
" b	c #181818",
" c	c #000000",
" d	c #000000",
" e	c #000000",
" f	c #000000",
" g	c #000000",
" h	c #000000",
" i	c #000000",
" j	c #000000",
" k	c #000000",
" l	c #000000",
" m	c #000000",
" n	c #000000",
" o	c #000000",
" p	c #000000",
" q	c #000000",
" r	c #000000",
" s	c #000000",
" t	c #000000",
" u	c #000000",
" v	c #000000",
" w	c #000000",
" x	c #000000",
" y	c #000000",
" z	c #000000",
" A	c #000000",
" B	c #000000",
" C	c #000000",
" D	c #000000",
" E	c #000000",
" F	c #000000",
" G	c #000000",
" H	c #000000",
" I	c #000000",
" J	c #000000",
" K	c #000000",
" L	c #000000",
" M	c #000000",
" N	c #000000",
" O	c #000000",
" P	c #000000",
" Q	c #000000",
" R	c #000000",
" S	c #000000",
" T	c #000000",
" U	c #000000",
" V	c #000000",
" W	c #000000",
" X	c #000000",
" Y	c #000000",
" Z	c #000000",
" `	c #000000",
". 	c #000000",
"..	c #000000",
".+	c #000000",
".@	c #000000",
".#	c #000000",
".$	c #000000",
".%	c #000000",
".&	c #000000",
".*	c #000000",
".=	c #000000",
".-	c #000000",
".;	c #000000",
".>	c #000000",
".,	c #000000",
".'	c #000000",
".)	c #000000",
".!	c #000000",
".~	c #000000",
".{	c #000000",
".]	c #000000",
".^	c #000000",
"./	c #000000",
".(	c #000000",
".:	c #000000",
".<	c #000000",
".[	c #000000",
".}	c #000000",
".|	c #000000",
".1	c #000000",
".2	c #000000",
".3	c #000000",
".4	c #000000",
".5	c #000000",
".6	c #000000",
".7	c #000000",
".8	c #000000",
".9	c #000000",
".0	c #000000",
".a	c #000000",
".b	c #000000",
".c	c #000000",
".d	c #000000",
".e	c #000000",
".f	c #000000",
".g	c #000000",
".h	c #000000",
".i	c #000000",
".j	c #000000",
".k	c #000000",
".l	c #000000",
".m	c #000000",
".n	c #000000",
".o	c #000000",
".p	c #000000",
".q	c #000000",
".r	c #000000",
".s	c #000000",
".t	c #000000",
".u	c #000000",
".v	c #000000",
".w	c #000000",
".x	c #000000",
".y	c #000000",
".z	c #000000",
".A	c #000000",
".B	c #000000",
".C	c #000000",
".D	c #000000",
".E	c #000000",
".F	c #000000",
".G	c #000000",
".H	c #000000",
".I	c #000000",
".J	c #000000",
".K	c #000000",
".L	c #000000",
".M	c #000000",
".N	c #000000",
".O	c #000000",
".P	c #000000",
".Q	c #000000",
".R	c #000000",
".S	c #000000",
".T	c #000000",
".U	c #000000",
".V	c #000000",
".W	c #000000",
".X	c #000000",
".Y	c #000000",
".Z	c #000000",
".`	c #000000",
"+ 	c #000000",
"+.	c #000000",
"++	c #000000",
"+@	c #000000",
"+#	c #000000",
"+$	c #000000",
"+%	c #000000",
"+&	c #000000",
"+*	c #000000",
"+=	c #000000",
"+-	c #000000",
"+;	c #000000",
"+>	c #000000",
"+,	c #000000",
"+'	c #000000",
"+)	c #000000",
"+!	c #000000",
"+~	c #000000",
"+{	c #000000",
"+]	c #000000",
"+^	c #000000",
"+/	c #000000",
"+(	c #000000",
"+:	c #000000",
"+<	c #000000",
"+[	c #000000",
"+}	c #000000",
"+|	c #000000",
"+1	c #000000",
"+2	c #000000",
"+3	c #000000",
"+4	c #000000",
"+5	c #000000",
"+6	c #000000",
"+7	c #000000",
"+8	c #000000",
"+9	c #000000",
"+0	c #000000",
"+a	c #000000",
"+b	c #000000",
"+c	c #000000",
"+d	c #000000",
"+e	c #000000",
"+f	c #000000",
"+g	c #000000",
"+h	c #000000",
"+i	c #000000",
"+j	c #000000",
"+k	c #000000",
"+l	c #000000",
"+m	c #000000",
"+n	c #000000",
"+o	c #000000",
"+p	c #000000",
"+q	c #000000",
"+r	c #000000",
"+s	c #000000",
"+t	c #000000",
"+u	c #000000",
"+v	c #000000",
"+w	c #000000",
"+x	c #000000",
"+y	c #000000",
"+z	c #000000",
"+A	c #000000",
"+B	c #000000",
"+C	c #000000",
"+D	c #000000",
"+E	c #000000",
"+F	c #000000",
"+G	c #000000",
"+H	c #000000",
"+I	c #000000",
"+J	c #000000",
"+K	c #ffffff",
/* pixels */
" ) ) ) ) ) ) ) ) ) ) ) ) ) ) ) ) ) ) $  ",
" ) = = = = = = = = = = = = = = = = ) $  ",
" ) = # # # # # # # # # # # # # # # ) $  ",
" ) = # # # # # # # # $ = $ = $ = $ ) $  ",
" ) = # # # # # # # # $ $ $ $ $ $ $ ) $  ",
" ) = . . . . . . . . . . . . . . . ) $  ",
" ) = . . . . . . . . . . . . . . . ) $  ",
" ) = . ) $ ) ) ) $ ) ) ) ) $ ) ) . ) $  ",
" ) = . . . . . . . . . . . . . . . ) $  ",
" ) = . ) $ ) ) $ ) ) $ ) ) $ ) ) . ) $  ",
" ) = . . . . . . . . . . . . 8 . 8 ) $  ",
" ) = . ) $ ) ) $ ) ) $ ) ) $ ) ) . ) $  ",
" ) = . . . . . . . . . . 8 . 8 . 8 ) $  ",
" ) = . ) ) ) $ ) ) $ $ ) ) ) $ ) . ) $  ",
" ) = . . . . . . . . 8 . 8 . 8 . 8 ) $  ",
" ) = . ) ) ) $ ) ) $ $ ) $ ) $ ) 8 ) $  ",
" ) = . . . . 8 . 8 . 8 . 8 . 8 8 8 ) $  ",
" ) ) ) ) ) ) ) ) ) ) ) ) ) ) ) ) ) ) $  ",
" $ $ $ $ $ $ $ $ $ $ $ $ $ $ $ $ $ $ $  ",
"                                        "};
