/* XPM */
static char *noname[] = {
/* width height ncolors chars_per_pixel */
"70 20 7 1",
/* colors */
"  c #000000",
". c #000084",
"X c #C6C6C6",
"o c #848484",
"O c #FFFF8C",
"+ c #FFFFFF",
"@ c #0000FF",
/* pixels */
"ooooooooooooo @@@@@@@@@@@@@@@@@@@@@@@@@@@@@@@@@@@@@@@@@@@@@@@@@@@@@@@@",
"o............ @@@@@@@@@@@@@@@@@@@@@@@@@@@@@@@@@@@@@@@@@@@@@@@@@@@@@@@@",
"o........X.X. @@@@@@@@@@@@@@@@@@@@@@@@@@@@@@@@@@@@@@@@@@@@@@@@@@@@@@@@",
"o............ @@@@@@@@@@@@@@@@@@@@@@@@@@@@@@@@@@@@@@@@@@@@@@@@@@@@@@@@",
"o++X+oooooooooooooo @@@@@@@@@@@@@@@@@@@@@@@@@@@@@@@@@@@@@@@@@@@@@@@@@@",
"o++X+o............. @@@@@@@@@@@@@@@@@@@@@@@@ @@@@@@@@@@@@@@@@@@@@@@@@@",
"o++X+o.........X.X. @@ @@@ @@@ @ @@@@@@@@@@@ @@@@@@@@@@@@@@@@@@@@@@@@@",
"o++X+o............. @@ @@@ @@@ @@@@@@@@@@@@@ @@@@@@@@@@@@@@@@@@@@@@@@@",
"o++X+o+++X+++++++++ @@ @@@ @@@ @ @    @@@    @@   @@ @@ @@ @@   @@@@@@",
"o++X+o+++X+++++O+O+ @@@ @ @ @ @@ @ @@@ @ @@@ @ @@@ @ @@ @@ @ @@@@@@@@@",
"o++XOo+++X++++O+O+O @@@ @ @ @ @@ @ @@@ @ @@@ @ @@@ @ @ @ @ @  @@@@@@@@",
"o++XXo+++X+++O+O+O+ @@@ @ @ @ @@ @ @@@ @ @@@ @ @@@ @ @ @ @ @@@  @@@@@@",
"o+OXOo+++X++O+O+O+O @@@@ @@@ @@@ @ @@@ @ @@@ @ @@@ @@ @@@ @@@@@ @@@@@@",
"o++X+o+++X+O+O+O+O+ @@@@ @@@ @@@ @ @@@ @@    @@   @@@ @@@ @@   @@@@@@@",
"o+OXOo+++XO+O+O+O+O @@@@@@@@@@@@@@@@@@@@@@@@@@@@@@@@@@@@@@@@@@@@@@@@@@",
"o    o+++XXXXXXXXXX @@@@@@@@@@@@@@@@@@@@@@@@@@@@@@@@@@@@@@@@@@@@@@@@@@",
"@@@@@o++OXO+O+O+O+O @@@@@@@@@@@@@@@@@@@@@@@@@@@@@@@@@@@@@@@@@@@@@@@@@@",
"@@@@@o+O+X+O+O+O+O+ @@@@@@@@@@@@@@@@@@@@@@@@@@@@@@@@@@@@@@@@@@@@@@@@@@",
"@@@@@oO+OXO+O+O+O+O @@@@@@@@@@@@@@@@@@@@@@@@@@@@@@@@@@@@@@@@@@@@@@@@@@",
"@@@@@o              @@@@@@@@@@@@@@@@@@@@@@@@@@@@@@@@@@@@@@@@@@@@@@@@@@"
};
