/* XPM */
static char *noname[] = {
/* width height ncolors chars_per_pixel */
"16 16 2 1",
/* colors */
"` c #000000",
"a c #C0C0C0",
/* pixels */
"aaaaaaaaaaaaaaaa",
"aaaaaaaaaaaaaaaa",
"aaaaaaaaaaaaaaaa",
"aaaaaaaaaaaaaaaa",
"aaaaa``````aaaaa",
"aaaa`aa`aaa`aaaa",
"aaaa`aa`aaa`aaaa",
"aaaa`a``aa`aaaaa",
"aaaa`a````aaaaaa",
"aaaaaa`aaaaaaaaa",
"aaaaaa`aaaaaaaaa",
"aaa``````aaaaaaa",
"aaaaaaaaaaaaaaaa",
"aaaaaaaaaaaaaaaa",
"aaaaaaaaaaaaaaaa",
"aaaaaaaaaaaaaaaa"
};
