/* XPM */
static char *noname[] = {
/* width height ncolors chars_per_pixel */
"16 16 24 1",
/* colors */
"  c #646465",
". c #2929FF",
"X c #928D92",
"o c #D6D3CE",
"O c #818181",
"+ c #6C6C73",
"@ c #7B83FF",
"# c #DADADA",
"$ c #C0C0C0",
"% c #C7C7D4",
"& c #757576",
"* c #A7A6A7",
"= c #555556",
"- c #494AFD",
"; c #807E80",
": c #555AFE",
"> c #B3A7A7",
", c #5A63FF",
"< c #6B73FF",
"1 c #8C93FE",
"2 c #98958F",
"3 c #6465FE",
"4 c #B7B7B7",
"5 c #7475FD",
/* pixels */
"ooooo +&;O2ooooo",
"ooooo=1@5,Xooooo",
"ooooo=1@53Xooooo",
"ooooo=1@5,Xooooo",
"ooooo=1@5,Xooooo",
"&+ ===1@53O2*>4$",
";111111@5333,33$",
"O@@@@@@53::::::$",
"X55<5553:------%",
"23,3,3,:-......#",
"*222223:-.>4$$%#",
"ooooo*3:-.4ooooo",
"ooooo>3:-.$ooooo",
"ooooo43:-.$ooooo",
"ooooo$3:-.#ooooo",
"ooooo%%#%##ooooo"
};
