/* XPM */
static char *noname[] = {
/* width height ncolors chars_per_pixel */
"16 16 38 1",
/* colors */
"  c #C5C6E9",
". c #646465",
"X c #2929FF",
"o c #928D92",
"O c #D6D3CE",
"+ c #818181",
"@ c #6C6C73",
"# c #353540",
"$ c #7B83FF",
"% c #282829",
"& c #70706F",
"* c #312F31",
"= c #DADADA",
"- c #9797AC",
"; c #A7A8F7",
": c #C0C0C0",
"> c #C7C7D4",
", c #17171A",
"< c #757576",
"1 c #A7A6A7",
"2 c #A8A8EA",
"3 c #A19B97",
"4 c #555556",
"5 c #494AFD",
"6 c #807E80",
"7 c #555AFE",
"8 c #181823",
"9 c #B3A7A7",
"0 c #5A63FF",
"q c #6B73FF",
"w c #B6B6F9",
"e c #9598FD",
"r c #8C93FE",
"t c #989899",
"y c #98958F",
"u c #A0A0A4",
"i c #6465FE",
"p c #B7B7B7",
/* pixels */
"OOOOO.@<6+yOOOOO",
"OOOOO4r$qioOOOOO",
"OOOOO4r$qioOOOOO",
"OOOOO4r$qi+OOOOO",
"OOOOO&w  etOOOOO",
"<@.4&9o44tp319pO",
"6rrrwo%,,*tr0iiO",
"+$$$ 4,,,,.2777>",
"oqqq 4,,,8.2555>",
"yiiiet*,8#-iXXX=",
"1yyyupt@@-:p::>=",
"OOOOO1r;;i:OOOOO",
"OOOOO9i75X:OOOOO",
"OOOOOpi75X:OOOOO",
"OOOOO:i75X=OOOOO",
"OOOOO>>=>==OOOOO"
};
