/* XPM */
static char *noname[] = {
/* width height ncolors chars_per_pixel */
"16 16 7 1",
/* colors */
"  c #000000",
". c #D6D3CE",
"X c #7B7B98",
"o c #C0C0C0",
"O c #000063",
"+ c #FFFFFF",
"@ c #65658C",
/* pixels */
"   .   ..   .   ",
" o . o .. o . o ",
"   .   ..   .   ",
".XO.O@....XO.O@.",
"...O........O...",
".     ....     .",
". ooo .... ooo .",
". ooo .... ooo .",
".     ....     .",
"...O.......O....",
"....OOO.OOO.....",
".......O........",
".....     ......",
"..... +++ ......",
"..... +++ ......",
".....     ......"
};
