/* XPM */
static char *noname[] = {
/* width height ncolors chars_per_pixel */
"16 16 3 1",
/* colors */
"` c #000000",
"a c #C0C0C0",
"b c #0000FF",
/* pixels */
"aaaaaaaa`aaaaaaa",
"aaaaaaa```aaaaaa",
"aaaaaa`````aaaaa",
"aaaaa```````aaaa",
"aaaaaaa```aaaaaa",
"aaaaaaa```aaaaaa",
"aaaaaaa```aaaaaa",
"aaaaaaa```aaaaaa",
"aaaaaaaaaaaaaaaa",
"aaaaaaabbbaaaaaa",
"aaaaabbbbbbbaaaa",
"aaaaabbbbbbbaaaa",
"aaaaabbbbbbbaaaa",
"aaaaaaabbbaaaaaa",
"aaaaaaabbbaaaaaa",
"aaaaaaaaaaaaaaaa"
};
