/* XPM */
static char *noname[] = {
/* width height ncolors chars_per_pixel */
"16 16 28 1",
/* colors */
"  c #000000",
". c #646465",
"X c #928D92",
"o c #D6D3CE",
"O c #6C6C73",
"+ c #282829",
"@ c #BDC4DC",
"# c #434343",
"$ c #8585A8",
"% c #E8E8E8",
"& c #312F31",
"* c #5B5B78",
"= c #DADADA",
"- c #A7A8F7",
"; c #C0C0C0",
": c #C7C7D4",
"> c #17171A",
", c #757576",
"< c #A8A8EA",
"1 c #EDEDF2",
"2 c #555556",
"3 c #B7B9E1",
"4 c #807E80",
"5 c #180E09",
"6 c #FFFFFF",
"7 c #FBFBFB",
"8 c #B6B6F9",
"9 c #989899",
/* pixels */
"oooooX9999999ooo",
"ooooo91111%%##oo",
"ooooo91--<<%#=#o",
"ooooo9177111%###",
"ooooo97--<<<3%=#",
"ooooo9177111%%=#",
"oo,##91##*<333=#",
"oo,9#91#9X1%%%=#",
"oo+ +4;> +8333=#",
"o99# #4= 59====#",
"X## +# O 5 $@3=#",
" XX #956    ===#",
" XX 5+>6 5  @@=#",
"+#  .4;2+#  =:=#",
"#=  o####=5 ++++",
">&5 oooo5&5 oooo"
};
