/* XPM */
static char *noname[] = {
/* width height ncolors chars_per_pixel */
"16 16 5 1",
/* colors */
"` c #000000",
"a c #00FFFF",
"b c #C0C0C0",
"c c #808080",
"d c #FFFFFF",
/* pixels */
"bbbbbbbbbbbbbbbb",
"bb```````bbbbbbb",
"bb`ddddd``bbbbbb",
"bb`ddddd`b`bbbbb",
"bb`ddddd````bbbb",
"bb`ddddd````bbbb",
"bb`dddddcbbcbbbb",
"bb`dddd`aabc`bbb",
"bb`dddd`abbc`bbb",
"bb`dddd`bbbc`bbb",
"bb`dddddcbbccbbb",
"bb`ddddd``````bb",
"bb`dddddddd````b",
"bb``````````b``b",
"bbbbbbbbbbbbbbbb",
"bbbbbbbbbbbbbbbb"
};
