/* XPM */
static char *noname[] = {
/* width height ncolors chars_per_pixel */
"16 16 27 1",
/* colors */
"  c #000000",
". c #646465",
"X c #928D92",
"o c #6C6C73",
"O c #282829",
"+ c #BDC4DC",
"@ c #434343",
"# c #8585A8",
"$ c #E8E8E8",
"% c #312F31",
"& c #5B5B78",
"* c #DADADA",
"= c #A7A8F7",
"- c #C0C0C0",
"; c #C7C7D4",
": c #17171A",
"> c #757576",
", c #A8A8EA",
"< c #EDEDF2",
"1 c #555556",
"2 c #B7B9E1",
"3 c #807E80",
"4 c #180E09",
"5 c #FFFFFF",
"6 c #FBFBFB",
"7 c #B6B6F9",
"8 c #989899",
/* pixels */
"-----X8888888---",
"-----8<<<<$$@@--",
"-----8<==,,$@*@-",
"-----8<66<<<$@@@",
"-----86==,,,2$*@",
"-----8<66<<<$$*@",
"-->@@8<@@&,222*@",
"-->8@8<@8X<$$$*@",
"--O O3-: O7222*@",
"-88@ @3* 48****@",
"X@@ O@ o 4 #+2*@",
" XX @845    ***@",
" XX 4O:5 4  ++*@",
"O@  .3-1O@  *;*@",
"@*  -@@@@*4 OOOO",
":%4 ----4%4 ----"
};
