/* XPM */
static char *noname[] = {
/* width height ncolors chars_per_pixel */
"16 16 15 1",
/* colors */
"  c #000000",
". c #009C9C",
"X c #313131",
"o c #180808",
"O c #B5BDE7",
"+ c #CECE00",
"@ c #9C9C9C",
"# c #948C94",
"$ c #D6D6CE",
"% c #101018",
"& c #FFFFFF",
"* c #FFFF00",
"= c #424242",
"- c #9494BD",
"; c #D60000",
/* pixels */
"#@@@@@@@@@#=$$$$",
"@&&&&&&&&&&X$$$$",
"@&OO&X++&O&X$$$$",
"@&&&&X++&&&X$$$$",
"@&OO&X..&O&X $$$",
"@&&&X;;+&&& * $$",
"@&O&X;;+&&  ** $",
"@&&X;;X-- ***** ",
"@&OX;--++&  ** $",
"@&&X;;X++&& * $$",
"@&X;;&X..+&% $$$",
"@&X;;..X++&%$$$$",
"@X;;&&&&X++o$$$$",
"@X;;&OO&X++o$$$$",
"@&&&&&&&&&& $$$$",
"XXXXXXXXXXX $$$$"
};
