/* XPM */
static char *noname[] = {
/* width height ncolors chars_per_pixel */
"16 16 11 1",
/* colors */
"  c #000000",
". c #800000",
"X c #D6D3CE",
"o c #C0C0C0",
"O c #FF0000",
"+ c #808080",
"@ c #000080",
"# c #FFFFFF",
"$ c #FFFF00",
"% c #808000",
"& c #0000FF",
/* pixels */
"XXX XXXXXXXXXXXX",
"XX  XXX    XXXXX",
"X # XX $$o XXXXX",
" #+ XX $$% X   X",
" +o XX $$%  O. X",
" o+ XX $$% OO. X",
" +o    $$% OO. X",
" o &&@ $$% OO. X",
" + &&@ $$% OO. X",
" + &&@ $$% OO. X",
" + &&@ $$% OO. X",
" + &&@ $$% OO. X",
" + &&  $$  OO.  ",
" o   #   +    + ",
" +############ X",
"              XX"
};
