/* XPM */
static char *noname[] = {
/* width height ncolors chars_per_pixel */
"16 16 2 1",
/* colors */
"` c #000000",
"a c #C0C0C0",
/* pixels */
"aaaaaaaaaaaaaaaa",
"a``````````````a",
"a``````````````a",
"aaaaaaaaaaaaaaaa",
"aaaaaaaaaaaaaaaa",
"a``````````````a",
"a``````````````a",
"aaaaaaaaaaaaaaaa",
"aaaaaaaaaaaaaaaa",
"a``````````````a",
"a``````````````a",
"aaaaaaaaaaaaaaaa",
"a``````````````a",
"a``````````````a",
"aaaaaaaaaaaaaaaa",
"aaaaaaaaaaaaaaaa"
};
