/* XPM */
static char *systdot[] = {
/* width height num_colors chars_per_pixel */
"    16    16       47            1",
/* colors */
". c #c0c0c0",
"# c #17171a",
"a c #181823",
"b c #2b1009",
"c c #372e05",
"d c #282829",
"e c #312f31",
"f c #353536",
"g c #353540",
"h c #543116",
"i c #6a3918",
"j c #754c0a",
"k c #6a4e2c",
"l c #5c4c46",
"m c #5d524c",
"n c #555556",
"o c #66574a",
"p c #616341",
"q c #646465",
"r c #6c6c73",
"s c #885427",
"t c #8f623a",
"u c #a4542c",
"v c #b07204",
"w c #b76c33",
"x c #aa7e7e",
"y c #c47f04",
"z c #99896a",
"A c #ae846c",
"B c #cf8604",
"C c #cc843c",
"D c #fba404",
"E c #cf8d4b",
"F c #d9a84e",
"G c #d4a375",
"H c #f7bc4e",
"I c #f5c05e",
"J c #928d92",
"K c #98958f",
"L c #989899",
"M c #a19b97",
"N c #afa494",
"O c #a7a6a7",
"P c #cfb092",
"Q c #d7d1b1",
"R c #edce8f",
"S c #a0a0a4",
/* pixels */
"................",
".....SmboO......",
"...LliuhCsoS....",
".LliuuuhCCCsoL..",
"fhuuutxNQGECChf.",
"jyjhkNJnnKPtjyDk",
"jDDBzJd##eKFDDvk",
"jDDDRn####qRvib.",
"jDDDRn###aqNsuh.",
"jDDDIKe#agMAwCk.",
"jDDDDRMrrMPECCk.",
"jDDDDDHNPGECCCk.",
"fvDDDDDjCCCCCso.",
".LpvDDDjCCCsoL..",
"...LpvDjCsoS....",
".....SocoO......"
};
