<svg height="100" viewBox="0 0 100 100" width="100" xmlns="http://www.w3.org/2000/svg" xmlns:xlink="http://www.w3.org/1999/xlink"><linearGradient id="a" gradientUnits="userSpaceOnUse" x1="53.955833" x2="53.955833" y1="8.13175" y2="19.156932"><stop offset="0" stop-color="#f1f1f1"/><stop offset="1" stop-color="#888"/></linearGradient><linearGradient id="b" gradientUnits="userSpaceOnUse" x1="22.727274" x2="35.59322" y1="84.545456" y2="29.661016"><stop offset="0" stop-color="#888"/><stop offset="1" stop-color="#888" stop-opacity="0"/></linearGradient><g transform="translate(-.000001 -.062999)"><path d="m13.636383 14.757678h72.727235v80.696867h-72.727235z" style="fill-rule:evenodd;stroke:#2c2c2c;stroke-width:5;stroke-linecap:round;stroke-linejoin:round;fill:url(#b)"/><g fill="none" stroke="#984400" stroke-width="4"><path d="m22.727273 35.454544h54.545454" opacity=".5"/><path d="m22.727273 51.81818h54.545454" opacity=".5"/><path d="m22.727273 68.181817h54.545454" opacity=".5"/><path d="m22.727273 84.545453h54.545454" opacity=".5"/></g><path d="m27.771807 4.545455h44.456387v22.257977h-44.456387z" style="fill-rule:evenodd;stroke:#2c2c2c;stroke-width:4.748004;stroke-linecap:square;stroke-linejoin:round;fill:url(#a)"/></g><g transform="translate(-.000001 -.062999)"><path d="m13.636383 14.757678h72.727235v80.696867h-72.727235z" style="fill-rule:evenodd;stroke:#2c2c2c;stroke-width:5;stroke-linecap:round;stroke-linejoin:round;fill:url(#b)"/><g fill="none" stroke="#984400" stroke-width="4"><path d="m22.727273 35.454544h54.545454" opacity=".5"/><path d="m22.727273 51.81818h54.545454" opacity=".5"/><path d="m22.727273 68.181817h54.545454" opacity=".5"/><path d="m22.727273 84.545453h54.545454" opacity=".5"/></g><path d="m27.771807 4.545455h44.456387v22.257977h-44.456387z" style="fill-rule:evenodd;stroke:#2c2c2c;stroke-width:4.748004;stroke-linecap:square;stroke-linejoin:round;fill:url(#a)"/></g><g transform="matrix(.5 0 0 .5 50 50)"><path d="m13.636363 4.5454545h45.454545l27.27273 23.6363635-.00004 67.272727h-72.727235z" fill="#ddd" fill-rule="evenodd"/><path d="m13.636363 4.5454545h45.454545c1.226635 7.5626315 3.707549 14.8256425-.222924 23.1373275 9.935654 2.855766 18.24073 2.000945 27.495654.499036l-27.27273-23.6363635 27.27273 23.6363635-.00004 67.272727h-72.727235z" style="fill-rule:evenodd;stroke-width:6;stroke-linecap:round;stroke-linejoin:round;fill:url(#b);stroke:url(#a)"/><g fill="none" opacity=".75" stroke="#00328d" stroke-width="2.2" transform="matrix(1.8181818 0 0 1.8181818 -86.363637 -80.909091)"><path d="m60 64h30"/><path d="m60 73h30"/><path d="m60 82h30"/><path d="m60 91h30"/><path d="m60 55h15"/></g></g></svg>