<svg height="100" viewBox="0 0 100 100" width="100" xmlns="http://www.w3.org/2000/svg" xmlns:xlink="http://www.w3.org/1999/xlink"><linearGradient id="a" gradientUnits="userSpaceOnUse" x1="29.362909" x2="-10.260718" y1="31.423464" y2="-12.321276"><stop offset="0" stop-color="#2c6eca"/><stop offset="1" stop-color="#c7deff"/></linearGradient><g fill-rule="evenodd"><path d="m0 0h100v100h-100z" fill="url(#a)"/><path d="m5 20h90v75h-90z" fill="#fff"/></g><g fill-rule="evenodd"><path d="m0 0h100v100h-100z" fill="url(#a)"/><path d="m5 20h90v75h-90z" fill="#fff"/></g><g transform="matrix(.7 0 0 .7 30 30)"><path d="m0 0h100v100h-100z" fill="#5090de" fill-rule="evenodd"/><path d="m6.25 100h22.5c-.707811-6.159915 1.25-18 10.25-23l-26.229453-.503282-10.383719 23.513042c-.9991181 2.93595 9.877982-20.134858 10.983914-17.97596.235076 3.342028-5.870742 14.8412-7.120742 17.9662z" fill="#020202"/><path d="m25 0c-3.00756 30.685256-11.039021 57.983926-25 81.25v18.75h3.112793s10.887207-24 25.530323-23.190917c14.800422.817775 19.767529 23.190917 19.767529 23.190917h14.089355c-9.26525-26.84452-13.53207-61.188504-14.819336-100zm12 32.5h3c.251589 4.5 1.083993 17.52623 1.825852 23.75h-8.075852c.861223-5.70328 2.83802-18.25 3.25-23.75z" fill="#fff"/><path d="m86.25 100c-2.5-5-7.5-20-16.25-25-3.75-1.25-6 5-6 5s6 3.75 12.25 20z" fill="#020202"/><path d="m53.75 0c3.745269 52.289213 25.25 82 35.25 100h-4s-11.75-25.5-18-23-.966309 23-.966309 23h-3.533691c-8.75-26.25-13.75-57.5-15-100z" fill="#5090de"/></g></svg>