<svg height="100" viewBox="0 0 100 100" width="100" xmlns="http://www.w3.org/2000/svg" xmlns:xlink="http://www.w3.org/1999/xlink"><filter id="a" color-interpolation-filters="sRGB" height="1.0864" width="1.0864" x="-.0432" y="-.0432"><feGaussianBlur stdDeviation="1.62"/></filter><linearGradient id="b" gradientTransform="matrix(0 -1 1 0 0 100)" gradientUnits="userSpaceOnUse" x1="35" x2="15" y1="50" y2="80"><stop offset="0" stop-color="#009502"/><stop offset="1" stop-color="#00df03"/></linearGradient><path d="m5 95 45-90 45 90z" fill="url(#b)" stroke="#006100" stroke-linecap="round" stroke-linejoin="round" stroke-width="6"/><path d="m5 5 90 45h-15l-72.5505677-35 .2996215 73.101135-2.7490538 6.898865c0-30 0-60 0-90z" fill="#41e741" filter="url(#a)" opacity=".65" transform="matrix(0 -1 1 0 0 100)"/><path d="m5 95 45-90 45 90z" fill="url(#b)" stroke="#006100" stroke-linecap="round" stroke-linejoin="round" stroke-width="6"/><path d="m5 5 90 45h-15l-72.5505677-35 .2996215 73.101135-2.7490538 6.898865c0-30 0-60 0-90z" fill="#41e741" filter="url(#a)" opacity=".65" transform="matrix(0 -1 1 0 0 100)"/></svg>