<svg height="100" viewBox="0 0 100 100" width="100" xmlns="http://www.w3.org/2000/svg" xmlns:xlink="http://www.w3.org/1999/xlink"><linearGradient id="a" gradientUnits="userSpaceOnUse" x1="38.679246" x2="15.09434" y1="58.49083" y2="11.321018"><stop offset="0" stop-color="#fff87a"/><stop offset="1" stop-color="#fffffd"/></linearGradient><g style="fill-rule:evenodd;stroke:#000;stroke-width:5.660378;stroke-linecap:round;stroke-linejoin:round;fill:url(#a)"><path d="m12.264151 2.8304523h75.471698c6.923669.6869733 8.520676 4.838139 9.433962 9.4339617v46.603774c-.733303 7.109535-4.964493 8.467645-9.433962 9.433962h-47.735849l-13.584906 28.867925-4.716981-28.867925h-9.433962c-6.2650906-.594846-8.6865364-4.330456-9.4339622-9.433962v-18.301887-28.301887c.7890431-4.9554827 2.9893712-8.8260684 9.4339622-9.4339617z"/><path d="m12.264151 2.8304523h75.471698c6.923669.6869733 8.520676 4.838139 9.433962 9.4339617v46.603774c-.733303 7.109535-4.964493 8.467645-9.433962 9.433962h-47.735849l-13.584906 28.867925-4.716981-28.867925h-9.433962c-6.2650906-.594846-8.6865364-4.330456-9.4339622-9.433962v-18.301887-28.301887c.7890431-4.9554827 2.9893712-8.8260684 9.4339622-9.4339617z"/></g></svg>