<svg height="100" viewBox="0 0 100 100" width="100" xmlns="http://www.w3.org/2000/svg"><path d="m50.000001 2.3547809a47.644402 47.644402 0 0 0 -47.645219 47.6452191 47.644402 47.644402 0 0 0 47.645219 47.645219 47.644402 47.644402 0 0 0 47.645217-47.645219 47.644402 47.644402 0 0 0 -47.645217-47.6452191zm0 18.4588151a29.185315 29.185315 0 0 1 29.186404 29.186404 29.185315 29.185315 0 0 1 -29.186404 29.186404 29.185315 29.185315 0 0 1 -29.186404-29.186404 29.185315 29.185315 0 0 1 29.186404-29.186404z" style="fill:#0027c7;fill-rule:evenodd;stroke:#000c68;stroke-width:4.709562;stroke-linecap:round;stroke-linejoin:round"/></svg>