/* XPM */
static char * power_small_xpm[] = {
"30 76 71 1",
" 	c None",
".	c #C0C0C0",
"+	c #080808",
"@	c #101010",
"#	c #181818",
"$	c #212121",
"%	c #292929",
"&	c #313131",
"*	c #393939",
"=	c #424242",
"-	c #4A4A4A",
";	c #525252",
">	c #5A5A5A",
",	c #636363",
"'	c #6B6B6B",
")	c #737373",
"!	c #7B7B7B",
"~	c #848484",
"{	c #8C8C8C",
"]	c #949494",
"^	c #9C9C9C",
"/	c #A5A5A5",
"(	c #ADADAD",
"_	c #B5B5B5",
":	c #BDBDBD",
"<	c #C6C6C6",
"[	c #CECECE",
"}	c #D6D6D6",
"|	c #DEDEDE",
"1	c #E7E7E7",
"2	c #EFEFEF",
"3	c #F7F7F7",
"4	c #FFF7F7",
"5	c #FFEFEF",
"6	c #FFE7E7",
"7	c #FFDEDE",
"8	c #FFD6D6",
"9	c #FFCECE",
"0	c #FFC6C6",
"a	c #FFBDBD",
"b	c #FFB5B5",
"c	c #FFADAD",
"d	c #FFA5A5",
"e	c #FF9C9C",
"f	c #FF9494",
"g	c #FF8C8C",
"h	c #FF8484",
"i	c #FF7B7B",
"j	c #FF7373",
"k	c #FF6B6B",
"l	c #FF6363",
"m	c #FF5A5A",
"n	c #FF5252",
"o	c #FF4A4A",
"p	c #FF4242",
"q	c #FF3939",
"r	c #FF3131",
"s	c #FF2929",
"t	c #FF2121",
"u	c #FF1818",
"v	c #FF1010",
"w	c #FF0808",
"x	c #FF0000",
"y	c #FF5A52",
"z	c #FF3931",
"A	c #FF2921",
"B	c #FF847B",
"C	c #FF7B73",
"D	c #FF6B63",
"E	c #FF424A",
"F	c #000000",
"               9              ",
"               8              ",
"               7              ",
"               5              ",
"             5                ",
"             8                ",
"             b                ",
"             e  4             ",
"             f  8             ",
"             e  c             ",
"             a  h             ",
"             8  i             ",
"             4  C             ",
"                g             ",
"            8   c             ",
"            e   8             ",
"            l                 ",
"            n    a            ",
"            o    i            ",
"            p    p            ",
"            m    q            ",
"            f    z            ",
"           78    r            ",
"           h     p            ",
"           t     e7           ",
"           u     4k           ",
"           v      v           ",
"                              ",
"                              ",
"     FFF FF F= F=     F=      ",
"     FF=   {F {F  ^)  F=      ",
"     FF! FF:F :F :FFF F=      ",
"     FFF FF:F :F :FFF F=      ",
"     FF  FF:F :F :FFF F=      ",
"     FFF FF:F :F  FF$ F=      ",
"                   |          ",
"                              ",
"                          FFF ",
"    F=F  ={ !:!:!^ ;!  ! [ F  ",
"    F!F FFF F$F&F{:FF; FF:    ",
"    FFF FFF =FFFF !FFF F$     ",
"    F   FFF :FFFF !F!! F!     ",
"    F   FFF  FFFF ^FF$ F!     ",
"    F   |FF  F!FF  FF  F!     ",
"                              ",
"                              ",
"        x     j      v        ",
"        t     j      x        ",
"        7     j      x        ",
"       q      j      p        ",
"       x      j       a       ",
"       x      m       v       ",
"       r      m       x       ",
"      h4      m       x       ",
"      x       m       k4      ",
"      x       l        u      ",
"      x       o        x      ",
"     bj       o        x      ",
"     x        o        s      ",
"     x        o         x     ",
"     w        q         x     ",
"    u7        r       3,x     ",
"    x &       r      F} er    ",
"    x ]-      r , F' FF, x    ",
"    o} }##3   r F2F+3F 2 x    ",
"   q 13 )-#@-2t +   ]FF; o    ",
"   x     3+> +u F*@@      x   ",
"  cx  kxx8 1 @u @   mxx4  x   ",
"  x  x    r   u    w   dj wo  ",
"  x s         u   k     h4 x  ",
" vc h      s  x   4      x x  ",
" s 6        8 x  w            ",
"            n x               ",
"              x 0             ",
"              x 5             ",
"              w               "};
