#define xobjcur_width 17
#define xobjcur_height 17
static char xobjcur_bits[] = {
   0x03, 0x80, 0x01, 0x07, 0xc0, 0x01, 0x0e, 0xe0, 0x00, 0x7c, 0x66, 0x00,
   0x78, 0x66, 0x00, 0x78, 0x66, 0x00, 0x00, 0x66, 0x00, 0x00, 0x06, 0x00,
   0x78, 0x06, 0x00, 0x78, 0x66, 0x00, 0x78, 0x66, 0x00, 0x78, 0x00, 0x00,
   0x78, 0x00, 0x00, 0x7c, 0x7e, 0x00, 0x0e, 0xe0, 0x00, 0x07, 0xc0, 0x01,
   0x03, 0x80, 0x01};
