#define xsystcur_width 17
#define xsystcur_height 17
static char xsystcur_bits[] = {
   0x03, 0x80, 0x01, 0x07, 0xc0, 0x01, 0x1e, 0xf0, 0x00, 0x3e, 0xf8, 0x00,
   0xfe, 0xff, 0x00, 0x3e, 0xf8, 0x00, 0x5c, 0x74, 0x00, 0x88, 0x12, 0x00,
   0xf8, 0x1f, 0x00, 0x80, 0x12, 0x00, 0x70, 0x1c, 0x00, 0xf8, 0x3e, 0x00,
   0xf8, 0x3f, 0x00, 0xfc, 0x7e, 0x00, 0x7e, 0xfc, 0x00, 0x07, 0xc0, 0x01,
   0x03, 0x80, 0x01};
