#define 1st_up_width 17
#define 1st_up_height 17
static unsigned char 1st_up_bits[] = {
   0x00, 0x00, 0x00, 0xfc, 0x7f, 0x00, 0xfc, 0x7f, 0x00, 0x00, 0x00, 0x00,
   0x00, 0x01, 0x00, 0x80, 0x03, 0x00, 0xc0, 0x07, 0x00, 0xe0, 0x0f, 0x00,
   0xf0, 0x1f, 0x00, 0x80, 0x03, 0x00, 0x80, 0x03, 0x00, 0x80, 0x03, 0x00,
   0x80, 0x03, 0x00, 0x80, 0x03, 0x00, 0x80, 0x03, 0x00, 0x80, 0x03, 0x00,
   0x00, 0x00, 0x00};
