#define fromdisk_width 16
#define fromdisk_height 16
static unsigned char fromdisk_bits[] = {
   0x00, 0x00, 0x00, 0x7f, 0x00, 0x41, 0x20, 0x7f, 0x7c, 0x41, 0x24, 0x4d,
   0x04, 0x41, 0x04, 0x7f, 0x04, 0x00, 0x80, 0x03, 0x7c, 0x04, 0x02, 0x04,
   0x02, 0x04, 0x02, 0x04, 0xfe, 0x07, 0x00, 0x00};
