#define inewd_width 16
#define inewd_height 16
static unsigned char inewd_bits[] = {
   0xff, 0x7f, 0x81, 0x40, 0xbd, 0x46, 0x81, 0x40, 0x9d, 0x5e, 0x81, 0x40,
   0xbd, 0x4e, 0x81, 0x40, 0x8d, 0x5e, 0x81, 0x40, 0xff, 0x7f, 0x08, 0x00,
   0x1c, 0x08, 0x2a, 0x08, 0x08, 0x08, 0xf8, 0x0f};
