#define lefttxt_width 16
#define lefttxt_height 16
static unsigned char lefttxt_bits[] = {
   0x00, 0x00, 0xff, 0x01, 0x01, 0x01, 0x7d, 0x01, 0x01, 0x81, 0x3d, 0xc5,
   0x01, 0x6d, 0x7d, 0x39, 0x01, 0x39, 0x0d, 0x6d, 0x01, 0x4d, 0x7d, 0x81,
   0x01, 0x01, 0x3d, 0x01, 0x01, 0x01, 0xff, 0x01};
