#define righttxt_width 16
#define righttxt_height 16
static unsigned char righttxt_bits[] = {
   0x00, 0x00, 0x80, 0xff, 0x80, 0x80, 0x80, 0xbe, 0xa0, 0x80, 0xb1, 0x9e,
   0x9b, 0x80, 0x8e, 0xbe, 0x8e, 0x80, 0x9b, 0x86, 0x93, 0x80, 0xa0, 0xbe,
   0x80, 0x80, 0x80, 0x9e, 0x80, 0x80, 0x80, 0xff};
