#define sdiffs_width 16
#define sdiffs_height 16
static unsigned char sdiffs_bits[] = {
   0xff, 0xff, 0x00, 0x80, 0x7e, 0xbf, 0x42, 0xb9, 0x7e, 0xbf, 0x62, 0xa1,
   0x7e, 0xbf, 0x42, 0xb1, 0x7e, 0xbf, 0x72, 0xa1, 0x7e, 0xbf, 0x42, 0xb1,
   0x7e, 0xbf, 0x7e, 0xbf, 0x00, 0x80, 0xff, 0xff};
