<svg height="100" viewBox="0 0 100 100" width="100" xmlns="http://www.w3.org/2000/svg" xmlns:xlink="http://www.w3.org/1999/xlink"><linearGradient id="a" gradientTransform="matrix(1.1492603 0 0 .99540827 -7.463018 -.770413)" gradientUnits="userSpaceOnUse" x1="34.163204" x2="19.534246" y1="25.097649" y2="9.738761"><stop offset="0" stop-color="#0046b1"/><stop offset="1" stop-color="#c0dfff"/></linearGradient><linearGradient id="b" gradientUnits="userSpaceOnUse" x1="14.750063" x2="15.09523" y1="44.750008" y2="52.500008"><stop offset="0" stop-color="#ffd200"/><stop offset="1" stop-color="#b85d00"/></linearGradient><g transform="matrix(.99080884 0 0 .99080884 .459558 .459558)"><path d="m8.2087142 3.7541698h58.2391058l25.343466 23.5278312-.000046 68.963829h-83.5825258z" fill="#fff" fill-rule="evenodd"/><g fill="none"><path d="m8.2087142 3.7541698h58.2391058c1.825683 9.7389532 3.073879 19.1965542-2.322257 25.4170522 11.221908.655373 16.443815-.600819 27.665723-1.889221l-25.343466-23.5278312 25.343466 23.5278312-.000046 68.963829h-83.5825258z" stroke="url(#a)" stroke-linecap="round" stroke-linejoin="round" stroke-width="6.417429"/><g stroke="#87a1c3"><g stroke-width="3"><path d="m20 86h60"/><path d="m20 69.75h60"/><path d="m20 53.5h60"/><path d="m20 37.25h60"/></g><path d="m20 21h40" stroke-width="2.44949"/></g></g></g><g transform="matrix(.99080884 0 0 .99080884 .459558 .459558)"><path d="m8.2087142 3.7541698h58.2391058l25.343466 23.5278312-.000046 68.963829h-83.5825258z" fill="#fff" fill-rule="evenodd"/><g fill="none"><path d="m8.2087142 3.7541698h58.2391058c1.825683 9.7389532 3.073879 19.1965542-2.322257 25.4170522 11.221908.655373 16.443815-.600819 27.665723-1.889221l-25.343466-23.5278312 25.343466 23.5278312-.000046 68.963829h-83.5825258z" stroke="url(#a)" stroke-linecap="round" stroke-linejoin="round" stroke-width="6.417429"/><g stroke="#87a1c3"><g stroke-width="3"><path d="m20 86h60"/><path d="m20 69.75h60"/><path d="m20 53.5h60"/><path d="m20 37.25h60"/></g><path d="m20 21h40" stroke-width="2.44949"/></g></g></g><g transform="matrix(.5647494 -.63526225 .63526225 .5647494 4.234805 67.220206)"><path d="m24 36-20.7500558 14.5 20.7500558 13.5c4.583277-9.515432 3.716782-18.067447 0-28z" fill="url(#b)" stroke="#000" stroke-linecap="round" stroke-linejoin="round" stroke-width="3"/><path d="m9.9332272 45.622914-6.683283 4.877086 6.683283 4.481057c1.9648908-4.437452 1.9593098-4.401909 0-9.358143z" stroke="#000" stroke-linecap="round" stroke-linejoin="round" stroke-width=".960227"/><g fill-rule="evenodd"><path d="m23.249944 34.5h70.499622l4.500378 10v10l-3.6 11h-71.4l2.437556-10.9375-.0625-10z" fill="#020202" stroke="#000" stroke-linecap="round" stroke-linejoin="bevel"/><path d="m78.178022 35.466641h2l4.071922 9.033359v10l-4.117361 10.011262h-2l4.117361-10.011262v-10z" fill="#ffcc36"/><path d="m85.249944 54.5h12l-3 10h-13z" fill="#851403"/><path d="m27.249944 54.5h54l-4 10h-52z" fill="#068503"/><path d="m27.249944 44.5h54v10h-54z" fill="#0cad08"/><path d="m25.249944 35.5h52l4 9h-54z" fill="#17ea11"/><path d="m85.249944 44.5h12l.01387 10h-12.01387z" fill="#c11300"/><path d="m81.249944 35.5h12l4 9h-12z" fill="#f23c3c"/></g></g></svg>