<svg height="100" viewBox="0 0 100 100" width="100" xmlns="http://www.w3.org/2000/svg" xmlns:xlink="http://www.w3.org/1999/xlink"><marker id="a" orient="auto" overflow="visible" refX="0.0" refY="0.0"><path d="m-2.5-1c0 2.76-2.24 5-5 5s-5-2.24-5-5 2.24-5 5-5 5 2.24 5 5z" fill-rule="evenodd" stroke="#000" stroke-width="1pt" transform="matrix(.8 0 0 .8 5.92 .8)"/></marker><marker id="b" orient="auto" overflow="visible" refX="0.0" refY="0.0"><path d="m-2.5-1c0 2.76-2.24 5-5 5s-5-2.24-5-5 2.24-5 5-5 5 2.24 5 5z" fill="#ece8e8" fill-rule="evenodd" stroke="#ece8e8" stroke-width="1pt" transform="matrix(.8 0 0 .8 5.92 .8)"/></marker><linearGradient id="c" gradientTransform="matrix(1.1492603 0 0 .99540827 -7.463018 -.770413)" gradientUnits="userSpaceOnUse" x1="34.163204" x2="19.534246" y1="25.097649" y2="9.738761"><stop offset="0" stop-color="#0046b1"/><stop offset="1" stop-color="#c0dfff"/></linearGradient><filter id="d" color-interpolation-filters="sRGB" height="1.173047" width="1.123303" x="-.061651" y="-.086524"><feGaussianBlur stdDeviation=".18230517"/></filter><g transform="matrix(.99080884 0 0 .99080884 .459558 .459558)"><path d="m8.2087142 3.7541698h58.2391058l25.343466 23.5278312-.000046 68.963829h-83.5825258z" fill="#fff" fill-rule="evenodd"/><g fill="none"><path d="m8.2087142 3.7541698h58.2391058c1.825683 9.7389532 3.073879 19.1965542-2.322257 25.4170522 11.221908.655373 16.443815-.600819 27.665723-1.889221l-25.343466-23.5278312 25.343466 23.5278312-.000046 68.963829h-83.5825258z" stroke="url(#c)" stroke-linecap="round" stroke-linejoin="round" stroke-width="6.417429"/><g stroke="#87a1c3"><g stroke-width="3"><path d="m20 86h60"/><path d="m20 69.75h60"/><path d="m20 53.5h60"/><path d="m20 37.25h60"/></g><path d="m20 21h40" stroke-width="2.44949"/></g></g></g><g transform="matrix(.99080884 0 0 .99080884 .459558 .459558)"><path d="m8.2087142 3.7541698h58.2391058l25.343466 23.5278312-.000046 68.963829h-83.5825258z" fill="#fff" fill-rule="evenodd"/><g fill="none"><path d="m8.2087142 3.7541698h58.2391058c1.825683 9.7389532 3.073879 19.1965542-2.322257 25.4170522 11.221908.655373 16.443815-.600819 27.665723-1.889221l-25.343466-23.5278312 25.343466 23.5278312-.000046 68.963829h-83.5825258z" stroke="url(#c)" stroke-linecap="round" stroke-linejoin="round" stroke-width="6.417429"/><g stroke="#87a1c3"><g stroke-width="3"><path d="m20 86h60"/><path d="m20 69.75h60"/><path d="m20 53.5h60"/><path d="m20 37.25h60"/></g><path d="m20 21h40" stroke-width="2.44949"/></g></g></g><path d="m43.220339 71.61017 36.440678-61.440678" fill="none" marker-mid="url(#b)" stroke="#ece8e8" stroke-dasharray="8 8" stroke-width="8"/><path d="m45.220339 73.61017 36.440678-61.440678" fill="none" marker-mid="url(#a)" stroke="#000" stroke-dasharray="8 8" stroke-width="8"/><g transform="matrix(1.9353003 0 0 1.9353003 49.137662 -522.758)"><ellipse cx="13.363476" cy="283.03516" rx="10.583333" ry="6.614584" style="fill:#08e;fill-opacity:.941176;stroke:#00456c;stroke-width:.79375;stroke-linecap:square;stroke-linejoin:round"/><path d="m11.018045 277.73994c-2.1673904.61486-3.8847432 1.95838-4.3352026 2.2979-.6460434.48693-1.5363493 1.36116-2.7101662 2.75818-.3247612-1.4019.9257424-3.08386 2.6350005-4.03447 1.5540447-.86429 2.9696191-1.03511 4.4103683-1.02161z" fill="#fff" filter="url(#d)" opacity=".94"/></g></svg>