#define ear_width 32
#define ear_height 32
static char ear_bits[] = {
   0x00, 0x00, 0x00, 0x00, 0x00, 0x00, 0x00, 0x00, 0x00, 0x00, 0x00, 0x00,
   0x00, 0x00, 0x00, 0x00, 0x00, 0xf4, 0x0f, 0x00, 0x00, 0x03, 0x18, 0x00,
   0x00, 0x01, 0x10, 0x00, 0x80, 0x00, 0x10, 0x00, 0x00, 0x00, 0x10, 0x00,
   0x00, 0x00, 0x18, 0x00, 0x00, 0x00, 0x0c, 0x00, 0x00, 0x00, 0x06, 0x00,
   0x00, 0x80, 0x01, 0x00, 0x00, 0xc0, 0x00, 0x00, 0x00, 0x48, 0x00, 0x00,
   0x00, 0x48, 0x00, 0x00, 0x00, 0x48, 0x00, 0x00, 0x00, 0xc8, 0x00, 0x00,
   0x00, 0x82, 0x01, 0x00, 0x00, 0x03, 0x03, 0x00, 0x00, 0x01, 0x02, 0x00,
   0x00, 0x01, 0x03, 0x00, 0x00, 0x01, 0x01, 0x00, 0x00, 0x81, 0x01, 0x00,
   0x00, 0x77, 0x00, 0x00, 0x00, 0x00, 0x00, 0x00, 0x00, 0x00, 0x00, 0x00,
   0x00, 0x00, 0x00, 0x00, 0x00, 0x00, 0x00, 0x00, 0x00, 0x00, 0x00, 0x00,
   0x00, 0x00, 0x00, 0x00, 0x00, 0x00, 0x00, 0x00};
