/* XPM */
static char *noname[] = {
/* width height ncolors chars_per_pixel */
"16 16 3 1",
/* colors */
"` c #000000",
"a c #C0C0C0",
"b c #FFFF00",
/* pixels */
"aaaaaaaaaaa```aa",
"aaaaaaaaaa`bbb`a",
"aaaaaaaaaa`bbb`a",
"aaa````````bbb`a",
"aa`bbbbbbbbbbb`a",
"aa`bbbbbbbbbbb`a",
"aa`bbbbbbbbbbb`a",
"aa`bbbbbbbbbbb`a",
"aa`bbbbbbbbbbb`a",
"aa`````````````a",
"aaaaaaaa`aaaaaaa",
"aaaaaaa```aaaaaa",
"aaaaaa`````aaaaa",
"aaaaaa`````aaaaa",
"aaaaa```````aaaa",
"aaaaaaaaaaaaaaaa"
};
