<svg height="100" viewBox="0 0 100 100" width="100" xmlns="http://www.w3.org/2000/svg" xmlns:xlink="http://www.w3.org/1999/xlink"><linearGradient id="a" gradientUnits="userSpaceOnUse" x1=".364408" x2="99.423729" y1=".423729" y2="99.36441"><stop offset="0" stop-color="#fff"/><stop offset="1" stop-color="#797979"/></linearGradient><circle cx="50" cy="50" r="45.145748" style="fill-rule:evenodd;stroke:#666;stroke-width:7.7085;stroke-linecap:round;stroke-linejoin:round;fill:url(#a)"/><circle cx="50" cy="50" r="45.145748" style="fill-rule:evenodd;stroke:#666;stroke-width:7.7085;stroke-linecap:round;stroke-linejoin:round;fill:url(#a)"/><path d="m53.993627 56.880018h-12.988282v-1.762952c0-1.966831.395765-3.705798 1.187295-5.2169.791529-1.535088 2.458539-3.477933 5.001028-5.828536l2.302631-2.08676c1.367188-1.247259 2.362597-2.42256 2.986226-3.525905.647615-1.103344.971423-2.206688.971423-3.310033 0-1.679002-.575658-2.986225-1.726974-3.921669-1.151316-.95943-2.758361-1.439145-4.821135-1.439145-1.942845 0-4.041598.407758-6.296258 1.223273-2.254661.791529-4.605264 1.978824-7.05181 3.561883v-11.297286c2.902275-1.007401 5.5527-1.75096 7.951275-2.230675s4.713199-.719572 6.943873-.719572c5.852523 0 10.313872 1.199287 13.384047 3.597862 3.070175 2.374589 4.605263 5.852522 4.605263 10.4338 0 2.350603-.467722 4.461348-1.403166 6.332236-.935444 1.846903-2.530496 3.83772-4.785156 5.972451l-2.302632 2.050782c-1.631031 1.487116-2.698396 2.686403-3.202097 3.597861-.503701.887473-.755551 1.870888-.755551 2.950247zm-12.988282 9.985853h12.988282v12.808388h-12.988282z" fill="#fffc03" stroke="#000" stroke-width="1.842105"/></svg>