<svg height="100" viewBox="0 0 100 100" width="100" xmlns="http://www.w3.org/2000/svg" xmlns:xlink="http://www.w3.org/1999/xlink"><linearGradient id="a" gradientTransform="matrix(1.1492603 0 0 .99540827 -7.463018 -.770413)" gradientUnits="userSpaceOnUse" x1="34.163204" x2="19.534246" y1="25.097649" y2="9.738761"><stop offset="0" stop-color="#0046b1"/><stop offset="1" stop-color="#c0dfff"/></linearGradient><g transform="matrix(.99080884 0 0 .99080884 .459558 .459558)"><path d="m8.2087142 3.7541698h58.2391058l25.343466 23.5278312-.000046 68.963829h-83.5825258z" fill="#fff" fill-rule="evenodd"/><g fill="none"><path d="m8.2087142 3.7541698h58.2391058c1.825683 9.7389532 3.073879 19.1965542-2.322257 25.4170522 11.221908.655373 16.443815-.600819 27.665723-1.889221l-25.343466-23.5278312 25.343466 23.5278312-.000046 68.963829h-83.5825258z" stroke="url(#a)" stroke-linecap="round" stroke-linejoin="round" stroke-width="6.417429"/><g stroke="#87a1c3"><g stroke-width="3"><path d="m20 86h60"/><path d="m20 69.75h60"/><path d="m20 53.5h60"/><path d="m20 37.25h60"/></g><path d="m20 21h40" stroke-width="2.44949"/></g></g></g><g transform="matrix(.99080884 0 0 .99080884 .459558 .459558)"><path d="m8.2087142 3.7541698h58.2391058l25.343466 23.5278312-.000046 68.963829h-83.5825258z" fill="#fff" fill-rule="evenodd"/><g fill="none"><path d="m8.2087142 3.7541698h58.2391058c1.825683 9.7389532 3.073879 19.1965542-2.322257 25.4170522 11.221908.655373 16.443815-.600819 27.665723-1.889221l-25.343466-23.5278312 25.343466 23.5278312-.000046 68.963829h-83.5825258z" stroke="url(#a)" stroke-linecap="round" stroke-linejoin="round" stroke-width="6.417429"/><g stroke="#87a1c3"><g stroke-width="3"><path d="m20 86h60"/><path d="m20 69.75h60"/><path d="m20 53.5h60"/><path d="m20 37.25h60"/></g><path d="m20 21h40" stroke-width="2.44949"/></g></g></g><g transform="matrix(.7 0 0 .7 30 30)"><path d="m0 0h100v100h-100z" fill="#5090de" fill-rule="evenodd"/><path d="m6.25 100h22.5c-.707811-6.159915 1.25-18 10.25-23l-26.229453-.503282-10.383719 23.513042c-.9991181 2.93595 9.877982-20.134858 10.983914-17.97596.235076 3.342028-5.870742 14.8412-7.120742 17.9662z" fill="#020202"/><path d="m25 0c-3.00756 30.685256-11.039021 57.983926-25 81.25v18.75h3.112793s10.887207-24 25.530323-23.190917c14.800422.817775 19.767529 23.190917 19.767529 23.190917h14.089355c-9.26525-26.84452-13.53207-61.188504-14.819336-100zm12 32.5h3c.251589 4.5 1.083993 17.52623 1.825852 23.75h-8.075852c.861223-5.70328 2.83802-18.25 3.25-23.75z" fill="#fff"/><path d="m86.25 100c-2.5-5-7.5-20-16.25-25-3.75-1.25-6 5-6 5s6 3.75 12.25 20z" fill="#020202"/><path d="m53.75 0c3.745269 52.289213 25.25 82 35.25 100h-4s-11.75-25.5-18-23-.966309 23-.966309 23h-3.533691c-8.75-26.25-13.75-57.5-15-100z" fill="#5090de"/></g></svg>