<svg height="100" viewBox="0 0 100 100" width="100" xmlns="http://www.w3.org/2000/svg"><g stroke="#000" stroke-linecap="round" stroke-linejoin="round" stroke-width=".841939" transform="matrix(1.3063873 0 0 1.3066278 -21.416693 -21.710368)"><g stroke-width=".841939"><path d="m18.883434 73.06317 31.711804 15.678911v-26.115738l-23.66174-11.594927z" fill="#666"/><path d="m90.451212 66.580015-11.164996-19.9074-28.690978 15.953728v25.976515z" fill="#b3b3b3"/><path d="m26.933498 51.031416 28.703505-15.960693 23.639078 11.583821-28.680843 15.948091z" fill="#fff"/></g><g stroke-width="1.35353" transform="matrix(.62234493 0 0 .62171989 19.107548 4.390803)"><path d="m18.883434 73.06317 31.711804 15.678911v-26.115738l-23.66174-11.594927z" fill="#666"/><path d="m90.451212 66.580015-11.164996-19.9074-28.690978 15.953728v25.976515z" fill="#b3b3b3"/><path d="m26.933498 51.031416 28.703505-15.960693 23.639078 11.583821-28.680843 15.948091z" fill="#fff"/></g><g stroke-width="2.35278" transform="matrix(.35390618 0 0 .36183428 32.81345 8.33687)"><path d="m18.883434 73.06317 31.711804 15.678911v-26.115738l-23.66174-11.594927z" fill="#666"/><path d="m90.451212 66.580015-11.164996-19.9074-28.690978 15.953728v25.976515z" fill="#b3b3b3"/><path d="m26.933498 51.031416 28.703505-15.960693 23.639078 11.583821-28.680843 15.948091z" fill="#fff"/></g></g></svg>