<svg height="100" viewBox="0 0 100 100" width="100" xmlns="http://www.w3.org/2000/svg" xmlns:xlink="http://www.w3.org/1999/xlink"><linearGradient id="a" gradientUnits="userSpaceOnUse" x1="-103.0698" x2="-112.35807" y1="62.547312" y2="45.768507"><stop offset="0" stop-color="#00ae1c"/><stop offset="1" stop-color="#00ae1c" stop-opacity="0"/></linearGradient><g transform="matrix(.87715136 0 0 .87715136 163.45787 7.674424)"><g><path d="m-88.873157 88.172911c-4.63271 4.71259-13.196203 2.97428-19.161473 5.8182-5.96513 2.84391-10.00654 10.591699-16.5844 11.223889-6.57786.6322-12.02066-6.204032-18.41827-7.859859-6.3976-1.65577-14.47363 1.681687-19.91905-2.06231-5.44547-3.74399-5.22062-12.47912-9.05696-17.85988-3.83654-5.38069-12.16825-8.01529-13.93288-14.383512-1.76489-6.368349 4.02234-12.915381 4.54206-19.503689.51968-6.587654-4.16941-13.961621-1.4279-19.974561 2.74152-6.012876 11.38325-7.308659 16.01622-12.020657 4.63272-4.7125865 5.78031-13.3751526 11.74571-16.2193315 5.96514-2.843918 13.4176 1.7185239 19.99612 1.086274 6.57785-.632198 13.0251-6.5305105 19.4227-4.874747 6.39761 1.655763 9.17386 9.941239 14.61928 13.685367 5.445476 3.7439984 14.175827 3.3699124 18.012043 8.7506675 3.836542 5.38069.637589 13.5123 2.402435 19.880518 1.76489 6.368349 8.693191 11.693462 8.173342 18.281116-.519675 6.587654-8.196853 10.760858-10.938501 16.773795-2.741514 6.01288-.857108 14.54548-5.489818 19.25814z" fill="#038400" stroke-width=".653084"/><path d="m-90.295185 86.770401c-4.469947 4.54702-12.732575 2.869783-18.488265 5.613786-5.75555 2.743994-9.65497 10.219573-16.00173 10.829553s-11.59833-5.986061-17.77117-7.583713c-6.17283-1.597597-13.96512 1.622604-19.21922-1.989854-5.25416-3.61245-5.03721-12.040684-8.73876-17.232399-3.70175-5.191648-11.74074-7.733685-13.44337-13.878169-1.70288-6.144607 3.88102-12.461619 4.38248-18.818456.50142-6.356207-4.02292-13.471101-1.37773-19.272785 2.6452-5.801623 10.98331-7.05188 15.45351-11.598329 4.46996-4.5470176 5.57723-12.90523733 11.33304-15.6494903 5.75557-2.7440013 12.9462 1.6581461 19.29359 1.0481094 6.34675-.6099867 12.56748-6.3010709 18.74031-4.7034801 6.17284 1.5975902 8.85155 9.5919684 14.10566 13.2045521 5.254152 3.6124589 13.677775 3.2515153 17.379211 8.4432269 3.701751 5.191647.615189 13.037565 2.31803 19.182045 1.702883 6.144607 8.387768 11.28263 7.886183 17.638837-.501417 6.356206-7.908868 10.382791-10.554193 16.184472-2.645195 5.801627-.826995 14.034447-5.296941 18.581534z" fill="url(#a)" stroke-width=".630139"/><circle cx="-129.34811" cy="48.253445" r="42.750648" style="fill:#00ae1c;fill-rule:evenodd;stroke:#d2ffbc;stroke-width:5;stroke-linecap:round;stroke-linejoin:round;stroke-opacity:.879656"/><path d="m-165.45092 49.493914c5.55735 12.296727 21.19097 28.634284 37.46254 36.235944 7.30289-16.957598 17.13676-36.378919 34.688963-52.667998l-6.557061-6.345543c-14.077942 9.465908-26.213652 26.358741-32.996822 37.227179-3.16532-.504114-17.05814-9.710407-20.51385-17.601166z" fill="#fff" stroke="#038400" stroke-width="1.996731"/></g><g><path d="m-88.873157 88.172911c-4.63271 4.71259-13.196203 2.97428-19.161473 5.8182-5.96513 2.84391-10.00654 10.591699-16.5844 11.223889-6.57786.6322-12.02066-6.204032-18.41827-7.859859-6.3976-1.65577-14.47363 1.681687-19.91905-2.06231-5.44547-3.74399-5.22062-12.47912-9.05696-17.85988-3.83654-5.38069-12.16825-8.01529-13.93288-14.383512-1.76489-6.368349 4.02234-12.915381 4.54206-19.503689.51968-6.587654-4.16941-13.961621-1.4279-19.974561 2.74152-6.012876 11.38325-7.308659 16.01622-12.020657 4.63272-4.7125865 5.78031-13.3751526 11.74571-16.2193315 5.96514-2.843918 13.4176 1.7185239 19.99612 1.086274 6.57785-.632198 13.0251-6.5305105 19.4227-4.874747 6.39761 1.655763 9.17386 9.941239 14.61928 13.685367 5.445476 3.7439984 14.175827 3.3699124 18.012043 8.7506675 3.836542 5.38069.637589 13.5123 2.402435 19.880518 1.76489 6.368349 8.693191 11.693462 8.173342 18.281116-.519675 6.587654-8.196853 10.760858-10.938501 16.773795-2.741514 6.01288-.857108 14.54548-5.489818 19.25814z" fill="#038400" stroke-width=".653084"/><path d="m-90.295185 86.770401c-4.469947 4.54702-12.732575 2.869783-18.488265 5.613786-5.75555 2.743994-9.65497 10.219573-16.00173 10.829553s-11.59833-5.986061-17.77117-7.583713c-6.17283-1.597597-13.96512 1.622604-19.21922-1.989854-5.25416-3.61245-5.03721-12.040684-8.73876-17.232399-3.70175-5.191648-11.74074-7.733685-13.44337-13.878169-1.70288-6.144607 3.88102-12.461619 4.38248-18.818456.50142-6.356207-4.02292-13.471101-1.37773-19.272785 2.6452-5.801623 10.98331-7.05188 15.45351-11.598329 4.46996-4.5470176 5.57723-12.90523733 11.33304-15.6494903 5.75557-2.7440013 12.9462 1.6581461 19.29359 1.0481094 6.34675-.6099867 12.56748-6.3010709 18.74031-4.7034801 6.17284 1.5975902 8.85155 9.5919684 14.10566 13.2045521 5.254152 3.6124589 13.677775 3.2515153 17.379211 8.4432269 3.701751 5.191647.615189 13.037565 2.31803 19.182045 1.702883 6.144607 8.387768 11.28263 7.886183 17.638837-.501417 6.356206-7.908868 10.382791-10.554193 16.184472-2.645195 5.801627-.826995 14.034447-5.296941 18.581534z" fill="url(#a)" stroke-width=".630139"/><circle cx="-129.34811" cy="48.253445" r="42.750648" style="fill:#00ae1c;fill-rule:evenodd;stroke:#d2ffbc;stroke-width:5;stroke-linecap:round;stroke-linejoin:round;stroke-opacity:.879656"/><path d="m-165.45092 49.493914c5.55735 12.296727 21.19097 28.634284 37.46254 36.235944 7.30289-16.957598 17.13676-36.378919 34.688963-52.667998l-6.557061-6.345543c-14.077942 9.465908-26.213652 26.358741-32.996822 37.227179-3.16532-.504114-17.05814-9.710407-20.51385-17.601166z" fill="#fff" stroke="#038400" stroke-width="1.996731"/></g><g><path d="m-88.873157 88.172911c-4.63271 4.71259-13.196203 2.97428-19.161473 5.8182-5.96513 2.84391-10.00654 10.591699-16.5844 11.223889-6.57786.6322-12.02066-6.204032-18.41827-7.859859-6.3976-1.65577-14.47363 1.681687-19.91905-2.06231-5.44547-3.74399-5.22062-12.47912-9.05696-17.85988-3.83654-5.38069-12.16825-8.01529-13.93288-14.383512-1.76489-6.368349 4.02234-12.915381 4.54206-19.503689.51968-6.587654-4.16941-13.961621-1.4279-19.974561 2.74152-6.012876 11.38325-7.308659 16.01622-12.020657 4.63272-4.7125865 5.78031-13.3751526 11.74571-16.2193315 5.96514-2.843918 13.4176 1.7185239 19.99612 1.086274 6.57785-.632198 13.0251-6.5305105 19.4227-4.874747 6.39761 1.655763 9.17386 9.941239 14.61928 13.685367 5.445476 3.7439984 14.175827 3.3699124 18.012043 8.7506675 3.836542 5.38069.637589 13.5123 2.402435 19.880518 1.76489 6.368349 8.693191 11.693462 8.173342 18.281116-.519675 6.587654-8.196853 10.760858-10.938501 16.773795-2.741514 6.01288-.857108 14.54548-5.489818 19.25814z" fill="#038400" stroke-width=".653084"/><path d="m-90.295185 86.770401c-4.469947 4.54702-12.732575 2.869783-18.488265 5.613786-5.75555 2.743994-9.65497 10.219573-16.00173 10.829553s-11.59833-5.986061-17.77117-7.583713c-6.17283-1.597597-13.96512 1.622604-19.21922-1.989854-5.25416-3.61245-5.03721-12.040684-8.73876-17.232399-3.70175-5.191648-11.74074-7.733685-13.44337-13.878169-1.70288-6.144607 3.88102-12.461619 4.38248-18.818456.50142-6.356207-4.02292-13.471101-1.37773-19.272785 2.6452-5.801623 10.98331-7.05188 15.45351-11.598329 4.46996-4.5470176 5.57723-12.90523733 11.33304-15.6494903 5.75557-2.7440013 12.9462 1.6581461 19.29359 1.0481094 6.34675-.6099867 12.56748-6.3010709 18.74031-4.7034801 6.17284 1.5975902 8.85155 9.5919684 14.10566 13.2045521 5.254152 3.6124589 13.677775 3.2515153 17.379211 8.4432269 3.701751 5.191647.615189 13.037565 2.31803 19.182045 1.702883 6.144607 8.387768 11.28263 7.886183 17.638837-.501417 6.356206-7.908868 10.382791-10.554193 16.184472-2.645195 5.801627-.826995 14.034447-5.296941 18.581534z" fill="url(#a)" stroke-width=".630139"/><circle cx="-129.34811" cy="48.253445" r="42.750648" style="fill:#00ae1c;fill-rule:evenodd;stroke:#d2ffbc;stroke-width:5;stroke-linecap:round;stroke-linejoin:round;stroke-opacity:.879656"/><path d="m-165.45092 49.493914c5.55735 12.296727 21.19097 28.634284 37.46254 36.235944 7.30289-16.957598 17.13676-36.378919 34.688963-52.667998l-6.557061-6.345543c-14.077942 9.465908-26.213652 26.358741-32.996822 37.227179-3.16532-.504114-17.05814-9.710407-20.51385-17.601166z" fill="#fff" stroke="#038400" stroke-width="1.996731"/></g><g><path d="m-88.873157 88.172911c-4.63271 4.71259-13.196203 2.97428-19.161473 5.8182-5.96513 2.84391-10.00654 10.591699-16.5844 11.223889-6.57786.6322-12.02066-6.204032-18.41827-7.859859-6.3976-1.65577-14.47363 1.681687-19.91905-2.06231-5.44547-3.74399-5.22062-12.47912-9.05696-17.85988-3.83654-5.38069-12.16825-8.01529-13.93288-14.383512-1.76489-6.368349 4.02234-12.915381 4.54206-19.503689.51968-6.587654-4.16941-13.961621-1.4279-19.974561 2.74152-6.012876 11.38325-7.308659 16.01622-12.020657 4.63272-4.7125865 5.78031-13.3751526 11.74571-16.2193315 5.96514-2.843918 13.4176 1.7185239 19.99612 1.086274 6.57785-.632198 13.0251-6.5305105 19.4227-4.874747 6.39761 1.655763 9.17386 9.941239 14.61928 13.685367 5.445476 3.7439984 14.175827 3.3699124 18.012043 8.7506675 3.836542 5.38069.637589 13.5123 2.402435 19.880518 1.76489 6.368349 8.693191 11.693462 8.173342 18.281116-.519675 6.587654-8.196853 10.760858-10.938501 16.773795-2.741514 6.01288-.857108 14.54548-5.489818 19.25814z" fill="#038400" stroke-width=".653084"/><path d="m-90.295185 86.770401c-4.469947 4.54702-12.732575 2.869783-18.488265 5.613786-5.75555 2.743994-9.65497 10.219573-16.00173 10.829553s-11.59833-5.986061-17.77117-7.583713c-6.17283-1.597597-13.96512 1.622604-19.21922-1.989854-5.25416-3.61245-5.03721-12.040684-8.73876-17.232399-3.70175-5.191648-11.74074-7.733685-13.44337-13.878169-1.70288-6.144607 3.88102-12.461619 4.38248-18.818456.50142-6.356207-4.02292-13.471101-1.37773-19.272785 2.6452-5.801623 10.98331-7.05188 15.45351-11.598329 4.46996-4.5470176 5.57723-12.90523733 11.33304-15.6494903 5.75557-2.7440013 12.9462 1.6581461 19.29359 1.0481094 6.34675-.6099867 12.56748-6.3010709 18.74031-4.7034801 6.17284 1.5975902 8.85155 9.5919684 14.10566 13.2045521 5.254152 3.6124589 13.677775 3.2515153 17.379211 8.4432269 3.701751 5.191647.615189 13.037565 2.31803 19.182045 1.702883 6.144607 8.387768 11.28263 7.886183 17.638837-.501417 6.356206-7.908868 10.382791-10.554193 16.184472-2.645195 5.801627-.826995 14.034447-5.296941 18.581534z" fill="url(#a)" stroke-width=".630139"/><circle cx="-129.34811" cy="48.253445" r="42.750648" style="fill:#00ae1c;fill-rule:evenodd;stroke:#d2ffbc;stroke-width:5;stroke-linecap:round;stroke-linejoin:round;stroke-opacity:.879656"/><path d="m-165.45092 49.493914c5.55735 12.296727 21.19097 28.634284 37.46254 36.235944 7.30289-16.957598 17.13676-36.378919 34.688963-52.667998l-6.557061-6.345543c-14.077942 9.465908-26.213652 26.358741-32.996822 37.227179-3.16532-.504114-17.05814-9.710407-20.51385-17.601166z" fill="#fff" stroke="#038400" stroke-width="1.996731"/></g></g><g transform="matrix(.5 0 0 .5 -.285448 50.255167)"><path d="m2.8623961 91.897222h95.4169979v-68.912276h-37.106611l-10.601888-15.9028332h-37.106611l-10.6018879 15.9028332z" fill="#fff803" fill-rule="evenodd" stroke="#bf7c00" stroke-linejoin="round" stroke-width="4.523707"/><path d="m6.012383 31.39484h40.713361l11.309267-7.916487-9.047414-13.5711208h-33.9278l-9.047414 13.5711208z" fill="#fdffcc" stroke-width=".958259"/></g></svg>