<svg height="100" viewBox="0 0 100 100" width="100" xmlns="http://www.w3.org/2000/svg"><g stroke="#000" stroke-linecap="round" stroke-linejoin="round" stroke-width=".841939" transform="matrix(1.3063873 0 0 1.3066278 -21.416693 -21.710368)"><path d="m18.883434 73.06317 31.711804 15.678911v-26.115738l-23.66174-11.594927z" fill="#666"/><path d="m90.451212 66.580015-11.164996-19.9074-28.690978 15.953728v25.976515z" fill="#b3b3b3"/><path d="m26.933498 51.031416 28.703505-15.960693 23.639078 11.583821-28.680843 15.948091z" fill="#fff"/></g><g fill-rule="evenodd"><g stroke-width="0" transform="matrix(.48707436 -.25030207 0 .48596955 28.261278 19.95263)"><path d="m33.415287 35.926243h14.409499v40.224213h-14.409499z"/><path d="m52.421288 23.849545h13.746818v52.300911h-13.746818z"/><path d="m71.010681 27.170143h13.917346v48.980312h-13.917346z"/><path d="m15.071971 23.849545h13.746818v52.300911h-13.746818z"/></g><path d="m55.872568 11.695861 6.976192 3.686511-.000002 23.802937-6.97619-3.686508z" fill="#041863"/><path d="m62.848758 15.382369 6.77878-3.483539v23.80294l-6.77878 3.483539z" fill="#072ec3"/><path d="m55.872568 11.695861 6.77879-3.4835386 6.97618 3.6865076-6.778778 3.483542z" fill="#6283ff"/><path d="m46.818148 14.735116 6.976195 3.68651-.000005 25.416652-6.97619-3.686508z" fill="#004207"/><path d="m53.794338 18.421624 6.69573-3.440857v25.416654l-6.69573 3.440857z" fill="#00700c"/><path d="m46.818148 14.735116 6.69572-3.440857 6.976198 3.68651-6.695723 3.440857z" fill="#08b91b"/><path d="m37.560808 25.361265 6.9762 3.68651v19.547742l-6.9762-3.686505z" fill="#2a0058"/><path d="m44.537008 29.047773 7.0185-3.606727v19.547746l-7.0185 3.606728z" fill="#490295"/></g><path d="m44.537008 29.047775-6.9762-3.68651 7.0185-3.606727 6.976197 3.686509z" fill="#822bde"/><path d="m28.626248 24.083727 6.976201 3.68651v25.41665l-6.976201-3.686505z" fill="#6e0405" fill-rule="evenodd"/><path d="m35.602448 27.770235 6.69572-3.440857v25.416655l-6.69572 3.440857z" fill="#c9080a" fill-rule="evenodd"/><path d="m35.602449 27.770237-6.976201-3.68651 6.69573-3.440857 6.976193 3.68651z" fill="#fd7c7d"/></svg>