<svg xmlns="http://www.w3.org/2000/svg" height="100" viewBox="0 0 100 100" width="100"><g style="fill:#00801f;fill-rule:evenodd;stroke:#000;stroke-width:3;stroke-linecap:round;stroke-linejoin:round"><path d="m62.116612 19.592915 7.20329-9.305858c-2.935047-4.290999-8.799315-7.8605291-12.541929-9.190448l-27.434095 36.086935c1.676993 4.332555 7.471954 8.345742 12.540054 9.188573l10.852041-13.942623c7.74304 3.720135 17.373695 14.237082 17.375241 25.946856.0015 11.709773-10.154097 18.89483-17.573063 19.393422-7.418965.498593-16.748578 2.208648-16.811479-8.22404l7.032599-6.080629-28.654765.143813 7.620568 6.080631c.723357 13.114612 11.576027 19.48055 22.570967 19.223594v3.059899h-23.31298v6.78653l60.728307.14381v-6.786522h-21.537414v-4.668596c14.406087-3.874393 25.729929-14.961539 25.721426-29.795697-.008503-14.834159-19.023896-34.959047-23.778768-38.05965z" /><path d="m62.116612 19.592915 7.20329-9.305858c-2.935047-4.290999-8.799315-7.8605291-12.541929-9.190448l-27.434095 36.086935c1.676993 4.332555 7.471954 8.345742 12.540054 9.188573l10.852041-13.942623c7.74304 3.720135 17.373695 14.237082 17.375241 25.946856.0015 11.709773-10.154097 18.89483-17.573063 19.393422-7.418965.498593-16.748578 2.208648-16.811479-8.22404l7.032599-6.080629-28.654765.143813 7.620568 6.080631c.723357 13.114612 11.576027 19.48055 22.570967 19.223594v3.059899h-23.31298v6.78653l60.728307.14381v-6.786522h-21.537414v-4.668596c14.406087-3.874393 25.729929-14.961539 25.721426-29.795697-.008503-14.834159-19.023896-34.959047-23.778768-38.05965z" /></g><g style="fill:#00801f;fill-rule:evenodd;stroke:#000;stroke-width:3;stroke-linecap:round;stroke-linejoin:round"><path d="m62.116612 19.592915 7.20329-9.305858c-2.935047-4.290999-8.799315-7.8605291-12.541929-9.190448l-27.434095 36.086935c1.676993 4.332555 7.471954 8.345742 12.540054 9.188573l10.852041-13.942623c7.74304 3.720135 17.373695 14.237082 17.375241 25.946856.0015 11.709773-10.154097 18.89483-17.573063 19.393422-7.418965.498593-16.748578 2.208648-16.811479-8.22404l7.032599-6.080629-28.654765.143813 7.620568 6.080631c.723357 13.114612 11.576027 19.48055 22.570967 19.223594v3.059899h-23.31298v6.78653l60.728307.14381v-6.786522h-21.537414v-4.668596c14.406087-3.874393 25.729929-14.961539 25.721426-29.795697-.008503-14.834159-19.023896-34.959047-23.778768-38.05965z" /><path d="m62.116612 19.592915 7.20329-9.305858c-2.935047-4.290999-8.799315-7.8605291-12.541929-9.190448l-27.434095 36.086935c1.676993 4.332555 7.471954 8.345742 12.540054 9.188573l10.852041-13.942623c7.74304 3.720135 17.373695 14.237082 17.375241 25.946856.0015 11.709773-10.154097 18.89483-17.573063 19.393422-7.418965.498593-16.748578 2.208648-16.811479-8.22404l7.032599-6.080629-28.654765.143813 7.620568 6.080631c.723357 13.114612 11.576027 19.48055 22.570967 19.223594v3.059899h-23.31298v6.78653l60.728307.14381v-6.786522h-21.537414v-4.668596c14.406087-3.874393 25.729929-14.961539 25.721426-29.795697-.008503-14.834159-19.023896-34.959047-23.778768-38.05965z" /></g><linearGradient gradientUnits="userSpaceOnUse" id="a" x1="78.201012" x2="22.398232" y1="74.419151" y2="16.592201"><stop offset="0" stop-color="#375ca1" /><stop offset="1" /></linearGradient><linearGradient gradientUnits="userSpaceOnUse" id="b" x1="20.823696" x2="78.201012" y1="11.761463" y2="74.419151"><stop offset="0" stop-color="#ddd" /><stop offset="1" stop-color="#ddd" stop-opacity="0" /></linearGradient><g transform="matrix(.5 0 0 .5 0 50)"><path d="m13.636363 4.5454545h45.454545l27.27273 23.6363635-.00004 67.272727h-72.727235z" fill="#ddd" fill-rule="evenodd" /><path d="m13.636363 4.5454545h45.454545c1.226635 7.5626315 3.707549 14.8256425-.222924 23.1373275 9.935654 2.855766 18.24073 2.000945 27.495654.499036l-27.27273-23.6363635 27.27273 23.6363635-.00004 67.272727h-72.727235z" style="fill-rule:evenodd;stroke-width:6;stroke-linecap:round;stroke-linejoin:round;fill:url(#b);stroke:url(#a)" /><g fill="none" opacity=".75" stroke="#00328d" stroke-width="2.2" transform="matrix(1.8181818 0 0 1.8181818 -86.363637 -80.909091)"><path d="m60 64h30" /><path d="m60 73h30" /><path d="m60 82h30" /><path d="m60 91h30" /><path d="m60 55h15" /></g></g></svg>