<svg height="100" viewBox="0 0 100 100" width="100" xmlns="http://www.w3.org/2000/svg"><g fill-rule="evenodd"><g fill="#00801f" stroke="#000" stroke-linecap="round" stroke-linejoin="round" stroke-width="3"><path d="m62.116612 19.592915 7.20329-9.305858c-2.935047-4.290999-8.799315-7.8605291-12.541929-9.190448l-27.434095 36.086935c1.676993 4.332555 7.471954 8.345742 12.540054 9.188573l10.852041-13.942623c7.74304 3.720135 17.373695 14.237082 17.375241 25.946856.0015 11.709773-10.154097 18.89483-17.573063 19.393422-7.418965.498593-16.748578 2.208648-16.811479-8.22404l7.032599-6.080629-28.654765.143813 7.620568 6.080631c.723357 13.114612 11.576027 19.48055 22.570967 19.223594v3.059899h-23.31298v6.78653l60.728307.14381v-6.786522h-21.537414v-4.668596c14.406087-3.874393 25.729929-14.961539 25.721426-29.795697-.008503-14.834159-19.023896-34.959047-23.778768-38.05965z"/><path d="m62.116612 19.592915 7.20329-9.305858c-2.935047-4.290999-8.799315-7.8605291-12.541929-9.190448l-27.434095 36.086935c1.676993 4.332555 7.471954 8.345742 12.540054 9.188573l10.852041-13.942623c7.74304 3.720135 17.373695 14.237082 17.375241 25.946856.0015 11.709773-10.154097 18.89483-17.573063 19.393422-7.418965.498593-16.748578 2.208648-16.811479-8.22404l7.032599-6.080629-28.654765.143813 7.620568 6.080631c.723357 13.114612 11.576027 19.48055 22.570967 19.223594v3.059899h-23.31298v6.78653l60.728307.14381v-6.786522h-21.537414v-4.668596c14.406087-3.874393 25.729929-14.961539 25.721426-29.795697-.008503-14.834159-19.023896-34.959047-23.778768-38.05965z"/></g><g fill="#00801f" stroke="#000" stroke-linecap="round" stroke-linejoin="round" stroke-width="3"><path d="m62.116612 19.592915 7.20329-9.305858c-2.935047-4.290999-8.799315-7.8605291-12.541929-9.190448l-27.434095 36.086935c1.676993 4.332555 7.471954 8.345742 12.540054 9.188573l10.852041-13.942623c7.74304 3.720135 17.373695 14.237082 17.375241 25.946856.0015 11.709773-10.154097 18.89483-17.573063 19.393422-7.418965.498593-16.748578 2.208648-16.811479-8.22404l7.032599-6.080629-28.654765.143813 7.620568 6.080631c.723357 13.114612 11.576027 19.48055 22.570967 19.223594v3.059899h-23.31298v6.78653l60.728307.14381v-6.786522h-21.537414v-4.668596c14.406087-3.874393 25.729929-14.961539 25.721426-29.795697-.008503-14.834159-19.023896-34.959047-23.778768-38.05965z"/><path d="m62.116612 19.592915 7.20329-9.305858c-2.935047-4.290999-8.799315-7.8605291-12.541929-9.190448l-27.434095 36.086935c1.676993 4.332555 7.471954 8.345742 12.540054 9.188573l10.852041-13.942623c7.74304 3.720135 17.373695 14.237082 17.375241 25.946856.0015 11.709773-10.154097 18.89483-17.573063 19.393422-7.418965.498593-16.748578 2.208648-16.811479-8.22404l7.032599-6.080629-28.654765.143813 7.620568 6.080631c.723357 13.114612 11.576027 19.48055 22.570967 19.223594v3.059899h-23.31298v6.78653l60.728307.14381v-6.786522h-21.537414v-4.668596c14.406087-3.874393 25.729929-14.961539 25.721426-29.795697-.008503-14.834159-19.023896-34.959047-23.778768-38.05965z"/></g><g><circle cx="25" cy="75" fill="#fff" r="18.75" stroke="#076bc3" stroke-width="7.5"/><ellipse cx="25" cy="75" fill="#f00" rx="7.8125005" ry="7.8124995" stroke="#a20b00" stroke-width="3.1249995"/></g></g></svg>