<svg xmlns="http://www.w3.org/2000/svg" height="100" viewBox="0 0 100 100" width="100"><g style="fill:#00801f;fill-rule:evenodd;stroke:#000;stroke-width:3;stroke-linecap:round;stroke-linejoin:round"><path d="m62.116612 19.592915 7.20329-9.305858c-2.935047-4.290999-8.799315-7.8605291-12.541929-9.190448l-27.434095 36.086935c1.676993 4.332555 7.471954 8.345742 12.540054 9.188573l10.852041-13.942623c7.74304 3.720135 17.373695 14.237082 17.375241 25.946856.0015 11.709773-10.154097 18.89483-17.573063 19.393422-7.418965.498593-16.748578 2.208648-16.811479-8.22404l7.032599-6.080629-28.654765.143813 7.620568 6.080631c.723357 13.114612 11.576027 19.48055 22.570967 19.223594v3.059899h-23.31298v6.78653l60.728307.14381v-6.786522h-21.537414v-4.668596c14.406087-3.874393 25.729929-14.961539 25.721426-29.795697-.008503-14.834159-19.023896-34.959047-23.778768-38.05965z" /><path d="m62.116612 19.592915 7.20329-9.305858c-2.935047-4.290999-8.799315-7.8605291-12.541929-9.190448l-27.434095 36.086935c1.676993 4.332555 7.471954 8.345742 12.540054 9.188573l10.852041-13.942623c7.74304 3.720135 17.373695 14.237082 17.375241 25.946856.0015 11.709773-10.154097 18.89483-17.573063 19.393422-7.418965.498593-16.748578 2.208648-16.811479-8.22404l7.032599-6.080629-28.654765.143813 7.620568 6.080631c.723357 13.114612 11.576027 19.48055 22.570967 19.223594v3.059899h-23.31298v6.78653l60.728307.14381v-6.786522h-21.537414v-4.668596c14.406087-3.874393 25.729929-14.961539 25.721426-29.795697-.008503-14.834159-19.023896-34.959047-23.778768-38.05965z" /></g><g style="fill:#00801f;fill-rule:evenodd;stroke:#000;stroke-width:3;stroke-linecap:round;stroke-linejoin:round"><path d="m62.116612 19.592915 7.20329-9.305858c-2.935047-4.290999-8.799315-7.8605291-12.541929-9.190448l-27.434095 36.086935c1.676993 4.332555 7.471954 8.345742 12.540054 9.188573l10.852041-13.942623c7.74304 3.720135 17.373695 14.237082 17.375241 25.946856.0015 11.709773-10.154097 18.89483-17.573063 19.393422-7.418965.498593-16.748578 2.208648-16.811479-8.22404l7.032599-6.080629-28.654765.143813 7.620568 6.080631c.723357 13.114612 11.576027 19.48055 22.570967 19.223594v3.059899h-23.31298v6.78653l60.728307.14381v-6.786522h-21.537414v-4.668596c14.406087-3.874393 25.729929-14.961539 25.721426-29.795697-.008503-14.834159-19.023896-34.959047-23.778768-38.05965z" /><path d="m62.116612 19.592915 7.20329-9.305858c-2.935047-4.290999-8.799315-7.8605291-12.541929-9.190448l-27.434095 36.086935c1.676993 4.332555 7.471954 8.345742 12.540054 9.188573l10.852041-13.942623c7.74304 3.720135 17.373695 14.237082 17.375241 25.946856.0015 11.709773-10.154097 18.89483-17.573063 19.393422-7.418965.498593-16.748578 2.208648-16.811479-8.22404l7.032599-6.080629-28.654765.143813 7.620568 6.080631c.723357 13.114612 11.576027 19.48055 22.570967 19.223594v3.059899h-23.31298v6.78653l60.728307.14381v-6.786522h-21.537414v-4.668596c14.406087-3.874393 25.729929-14.961539 25.721426-29.795697-.008503-14.834159-19.023896-34.959047-23.778768-38.05965z" /></g><filter color-interpolation-filters="sRGB" height="1.120278" id="a" width="1.029983" x="-.014991" y="-.060139"><feGaussianBlur stdDeviation=".15808479" /></filter><filter color-interpolation-filters="sRGB" height="1.04603" id="b" width="1.050147" x="-.025073" y="-.023015"><feGaussianBlur stdDeviation=".08567747" /></filter><g transform="matrix(.5 0 0 .5 0 50)"><path d="m23.81217 20.287191c-9.607647 7.852157-15.1849204 19.601044-15.1949892 32.009233.0001056 22.855056 18.5277632 41.382714 41.3828192 41.382819 22.855056-.000105 41.382714-18.527763 41.382819-41.382819-.016034-12.227683-4.029932-22.955269-13.404568-30.805919l12.495822-7.243721-36.617706-7.9261204 2.243433 35.5145334 9.370118-9.550477c5.955518 4.808825 9.879898 12.357102 9.887092 20.011704-.00033 14.004154-11.352856 25.35668-25.35701 25.35701-14.004154-.00033-25.35668-11.352856-25.35701-25.35701.005209-7.835284 3.632253-15.228104 9.825736-20.027318z" style="fill:#12a3ee;fill-rule:evenodd;stroke:#000;stroke-width:4;stroke-linecap:round;stroke-linejoin:round" /><g fill="#fff"><path d="m52.665312 18.224046 25.308174 5.478105-1.382735.830679-23.857364-5.205924z" filter="url(#a)" opacity=".9" transform="matrix(1.1246606 0 0 1.1246606 -3.089812 -11.570756)" /><path d="m31.900391 27.876953 7.365234 8.28125-.785752.653238-7.415254-8.262712z" filter="url(#b)" opacity=".9" transform="matrix(1.0686796 0 0 1.0686796 -10.523168 -6.585894)" /></g></g></svg>