<svg height="100" viewBox="0 0 100 100" width="100" xmlns="http://www.w3.org/2000/svg" xmlns:xlink="http://www.w3.org/1999/xlink"><filter id="a" color-interpolation-filters="sRGB" height="1.173047" width="1.123303" x="-.061651" y="-.086524"><feGaussianBlur stdDeviation=".18230517"/></filter><filter id="b" color-interpolation-filters="sRGB"><feGaussianBlur result="blur" stdDeviation="2 2"/></filter><radialGradient id="c" cx="178.04436" cy="134.44092" gradientTransform="matrix(.83333382 -.83333299 .83333282 .83333368 -82.360059 170.77703)" gradientUnits="userSpaceOnUse" r="13.515203"><stop offset="0" stop-color="#fff"/><stop offset=".60852629" stop-color="#f00"/><stop offset="1" stop-color="#210000"/></radialGradient><filter id="d" color-interpolation-filters="sRGB"><feFlood flood-opacity=".498039" result="flood"/><feComposite in="flood" in2="SourceGraphic" operator="in" result="composite1"/><feGaussianBlur in="composite1" result="blur" stdDeviation="3"/><feOffset dx="4" dy="4" result="offset"/><feComposite in="SourceGraphic" in2="offset" operator="over" result="composite2"/></filter><g transform="matrix(3.8706006 0 0 3.8706006 -1.724677 -1045.516)"><g><ellipse cx="13.363476" cy="283.03516" rx="10.583333" ry="6.614584" style="fill:#08e;fill-opacity:.941176;stroke:#00456c;stroke-width:.79375;stroke-linecap:square;stroke-linejoin:round"/><path d="m11.018045 277.73994c-2.1673904.61486-3.8847432 1.95838-4.3352026 2.2979-.6460434.48693-1.5363493 1.36116-2.7101662 2.75818-.3247612-1.4019.9257424-3.08386 2.6350005-4.03447 1.5540447-.86429 2.9696191-1.03511 4.4103683-1.02161z" fill="#fff" filter="url(#a)" opacity=".94"/></g><g><ellipse cx="13.363476" cy="283.03516" rx="10.583333" ry="6.614584" style="fill:#08e;fill-opacity:.941176;stroke:#00456c;stroke-width:.79375;stroke-linecap:square;stroke-linejoin:round"/><path d="m11.018045 277.73994c-2.1673904.61486-3.8847432 1.95838-4.3352026 2.2979-.6460434.48693-1.5363493 1.36116-2.7101662 2.75818-.3247612-1.4019.9257424-3.08386 2.6350005-4.03447 1.5540447-.86429 2.9696191-1.03511 4.4103683-1.02161z" fill="#fff" filter="url(#a)" opacity=".94"/></g><g><ellipse cx="13.363476" cy="283.03516" rx="10.583333" ry="6.614584" style="fill:#08e;fill-opacity:.941176;stroke:#00456c;stroke-width:.79375;stroke-linecap:square;stroke-linejoin:round"/><path d="m11.018045 277.73994c-2.1673904.61486-3.8847432 1.95838-4.3352026 2.2979-.6460434.48693-1.5363493 1.36116-2.7101662 2.75818-.3247612-1.4019.9257424-3.08386 2.6350005-4.03447 1.5540447-.86429 2.9696191-1.03511 4.4103683-1.02161z" fill="#fff" filter="url(#a)" opacity=".94"/></g><g><ellipse cx="13.363476" cy="283.03516" rx="10.583333" ry="6.614584" style="fill:#08e;fill-opacity:.941176;stroke:#00456c;stroke-width:.79375;stroke-linecap:square;stroke-linejoin:round"/><path d="m11.018045 277.73994c-2.1673904.61486-3.8847432 1.95838-4.3352026 2.2979-.6460434.48693-1.5363493 1.36116-2.7101662 2.75818-.3247612-1.4019.9257424-3.08386 2.6350005-4.03447 1.5540447-.86429 2.9696191-1.03511 4.4103683-1.02161z" fill="#fff" filter="url(#a)" opacity=".94"/></g></g><path d="m166.78169 123.17825h22.52534v22.52534h-22.52534z" fill="url(#c)" filter="url(#d)" stroke="#771b04" stroke-linejoin="round" stroke-width="3" transform="matrix(.69114344 .72271762 -.72271762 .69114344 -4.04614 -199.882481)"/><g fill="#fff" filter="url(#b)" transform="matrix(1.2121212 0 0 1.2121212 -9.366469 -246.77266)"><path d="m24.379465 215.26265h2.740327v12.47321h-2.740327z"/><path d="m220.12909-31.986237h2.74033v12.473214h-2.74033z" transform="rotate(90)"/></g></svg>