<svg height="100" viewBox="0 0 100 100" width="100" xmlns="http://www.w3.org/2000/svg" xmlns:xlink="http://www.w3.org/1999/xlink"><filter id="a" color-interpolation-filters="sRGB"><feComposite in2="SourceGraphic" k1="0" k2="1" operator="arithmetic" result="composite1"/><feColorMatrix in="composite1" result="colormatrix1" type="saturate" values="0"/><feFlood flood-color="#00c0db" result="flood1"/><feBlend in="flood1" in2="colormatrix1" mode="screen" result="blend1"/><feBlend in2="blend1" mode="multiply" result="blend2"/><feColorMatrix in="blend2" result="colormatrix2" type="saturate" values="1"/><feComposite in="colormatrix2" in2="SourceGraphic" k2="1" operator="in" result="composite2"/></filter><filter id="b" color-interpolation-filters="sRGB" height="1.173047" width="1.123303" x="-.061651" y="-.086524"><feGaussianBlur stdDeviation=".18230517"/></filter><g filter="url(#a)" transform="matrix(3.8706006 0 0 3.8706006 -1.724677 -1045.516)"><ellipse cx="13.363476" cy="283.03516" rx="10.583333" ry="6.614584" style="fill:#08e;fill-opacity:.941176;stroke:#00456c;stroke-width:.79375;stroke-linecap:square;stroke-linejoin:round"/><path d="m11.018045 277.73994c-2.1673904.61486-3.8847432 1.95838-4.3352026 2.2979-.6460434.48693-1.5363493 1.36116-2.7101662 2.75818-.3247612-1.4019.9257424-3.08386 2.6350005-4.03447 1.5540447-.86429 2.9696191-1.03511 4.4103683-1.02161z" fill="#fff" filter="url(#b)" opacity=".94"/><ellipse cx="13.363476" cy="283.03516" rx="10.583333" ry="6.614584" style="fill:#08e;fill-opacity:.941176;stroke:#00456c;stroke-width:.79375;stroke-linecap:square;stroke-linejoin:round"/><path d="m11.018045 277.73994c-2.1673904.61486-3.8847432 1.95838-4.3352026 2.2979-.6460434.48693-1.5363493 1.36116-2.7101662 2.75818-.3247612-1.4019.9257424-3.08386 2.6350005-4.03447 1.5540447-.86429 2.9696191-1.03511 4.4103683-1.02161z" fill="#fff" filter="url(#b)" opacity=".94"/></g></svg>