<svg height="100mm" viewBox="0 0 100 100" width="100mm" xmlns="http://www.w3.org/2000/svg" xmlns:xlink="http://www.w3.org/1999/xlink"><linearGradient id="a" gradientUnits="userSpaceOnUse" x1="47.970534" x2="22.902423" y1="240.499327" y2="215.431234"><stop offset="0" stop-color="#009eff"/><stop offset="1" stop-color="#fff"/></linearGradient><linearGradient id="b" gradientTransform="matrix(.77564977 0 0 .58343932 15.166438 3.37017)" gradientUnits="userSpaceOnUse" x1="32.348999" x2="7.6905" y1="71.676003" y2="137.73"><stop offset="0" stop-color="#9eed40"/><stop offset="1" stop-color="#52af34"/></linearGradient><filter id="c" color-interpolation-filters="sRGB"><feFlood flood-opacity=".498039" result="flood"/><feComposite in="flood" in2="SourceGraphic" operator="in" result="composite1"/><feGaussianBlur in="composite1" result="blur" stdDeviation="3"/><feOffset dx="4" dy="4" result="offset"/><feComposite in="SourceGraphic" in2="offset" operator="over" result="composite2"/></filter><path d="m9.3820853 209.08994h81.2358297v16.24716h-28.161754v14.08089h28.161754v16.24716h-28.161754v13.05306l28.161754-.0553v16.24716h-81.2358297z" fill="url(#a)" stroke="#1e75c2" stroke-linejoin="round" stroke-width="4.746557" transform="translate(0 -197)"/><path d="m9.3820853 209.08994h81.2358297v16.24716h-28.161754v14.08089h28.161754v16.24716h-28.161754v13.05306l28.161754-.0553v16.24716h-81.2358297z" fill="url(#a)" stroke="#1e75c2" stroke-linejoin="round" stroke-width="4.746557" transform="translate(0 -197)"/><path d="m33.440291 92.88945c-5.017168-12.0081.645815-26.72998 4.092177-31.00179 3.766577 2.11372 6.936446 4.8248 6.936446 4.8248l-2.200476-25.36033-24.533541 2.75144 5.282228 4.91694c-5.461581 10.36935-4.496699 20.47836-2.952846 27.26614 1.543877 6.78777 10.341763 15.54663 13.375745 16.6028z" fill="url(#b)" fill-rule="evenodd" filter="url(#c)" stroke="#2a5607" stroke-width="3" transform="matrix(.7098157 .19019455 -.19019455 .7098157 15.689388 21.441196)"/></svg>