<svg height="100" viewBox="0 0 100 100" width="100" xmlns="http://www.w3.org/2000/svg" xmlns:xlink="http://www.w3.org/1999/xlink"><linearGradient id="a" gradientUnits="userSpaceOnUse" x1="294.51819" x2="316.60001" y1="36.985508" y2="22.193991"><stop offset="0" stop-color="#00ae1c"/><stop offset="1" stop-color="#ceffd6"/></linearGradient><path d="m293.4-3.5158c-2.74 0-5.41.2872-8 .8125v6.1875c-3.47.8389-6.72 2.1847-9.68 4l-4.38-4.375c-2.24 1.4862-4.29 3.2298-6.19 5.125-1.89 1.8948-3.64 3.9448-5.12 6.1878l4.37 4.375c-1.81 2.967-3.16 6.212-4 9.687h-6.18c-.53 2.585-.82 5.261-.82 8s.29 5.415.82 8h6.18c.84 3.475 2.19 6.72 4 9.688l-4.37 4.375c1.48 2.242 3.23 4.292 5.12 6.187 1.9 1.895 3.95 3.639 6.19 5.125l4.38-4.375c2.96 1.816 6.21 3.161 9.68 4v6.188c2.59.525 5.26.812 8 .812s5.42-.287 8-.812v-6.188c3.48-.839 6.72-2.184 9.69-4l4.38 4.375c2.24-1.486 4.29-3.23 6.18-5.125 1.9-1.895 3.64-3.945 5.13-6.187l-4.38-4.375c1.82-2.968 3.16-6.213 4-9.688h6.19c.53-2.585.81-5.261.81-8s-.28-5.415-.81-8h-6.19c-.84-3.475-2.18-6.72-4-9.687l4.38-4.375c-1.49-2.243-3.23-4.293-5.13-6.1878-1.89-1.8952-3.94-3.6388-6.18-5.125l-4.38 4.375c-2.97-1.8153-6.21-3.1611-9.69-4v-6.1875c-2.58-.5253-5.26-.8125-8-.8125zm0 20c11.04 0 20 8.96 20 20s-8.96 20-20 20-20-8.96-20-20 8.96-20 20-20z" style="stroke:#005b13;stroke-width:3.346939;stroke-linecap:round;stroke-linejoin:round;stroke-dashoffset:162;fill:url(#a)" transform="matrix(1.195122 0 0 1.195122 -300.64879 6.397049)"/></svg>