<svg height="100" viewBox="0 0 100 100" width="100" xmlns="http://www.w3.org/2000/svg" xmlns:xlink="http://www.w3.org/1999/xlink"><linearGradient id="a" gradientUnits="userSpaceOnUse" x1="60" x2="95" y1="45" y2="60"><stop offset="0" stop-color="#00ae1c"/><stop offset="1" stop-color="#8bff9e"/></linearGradient><linearGradient id="b" gradientUnits="userSpaceOnUse" x1="85" x2="30" y1="20" y2="55"><stop offset="0" stop-color="#00a61b"/><stop offset="1"/></linearGradient><g stroke-linejoin="round"><path d="m59.875 3.5976576-.136719.5214844s-3.461129 9.749609-5.513672 11.861328c-2.052544 2.11172-2.577258 2.052734-4.107421 2.052734-1.530164 0-1.976213.04122-4.105469-2.052734-2.129256-2.09395-6.158203-11.8222655-6.158203-11.8222655l-.087891-.4160156a47.5 47.5 0 0 0 -15.568359 6.5410151l.201172.341797s4.444488 9.340578 4.486328 12.285156c.04184 2.94458-.369184 3.27348-1.451172 4.355469-1.081989 1.081988-1.369211 1.426212-4.355469 1.451172-2.986258.02497-12.710938-4.001953-12.710937-4.001953l-.283204-.183594a47.5 47.5 0 0 0 -6.4570312 15.583984l.3847657.09961s9.7457025 3.459175 11.8574225 5.511718c2.111719 2.052546 2.052734 2.577259 2.052734 4.107422s.04121 1.976213-2.052734 4.105469c-2.093952 2.129256-11.8183601 6.160156-11.8183601 6.160156l-.3984374.08203a47.5 47.5 0 0 0 6.5000005 15.583984l.363281-.212891s9.338625-4.444488 12.283203-4.486328c2.94458-.04184 3.27348.369184 4.355469 1.451172 1.081988 1.081989 1.426212 1.369211 1.451172 4.355469s-4.001953 12.712891-4.001953 12.712891l-.21875.335937a47.5 47.5 0 0 0 15.597656 6.480469l.121094-.460938s3.461128-9.747656 5.513672-11.859375c2.052543-2.11172 2.575305-2.052734 4.105468-2.052734s1.976213-.04122 4.105469 2.052734c2.129256 2.09395 6.160156 11.820313 6.160156 11.820313l.105469.498047a47.5 47.5 0 0 0 15.617188-6.50586l-.267579-.457029s-4.446441-9.340578-4.488281-12.285156c-.04184-2.94458.371137-3.27348 1.453125-4.355469 1.081989-1.081988 1.367258-1.426212 4.353516-1.451172s12.71289 4.001953 12.71289 4.001953l.419922.273438a47.5 47.5 0 0 0 6.478516-15.63086l-.541016-.140625s-9.747656-3.463082-11.859375-5.515625c-2.11172-2.052544-2.052734-2.577255-2.052734-4.107422 0-1.530161-.04122-1.974259 2.052734-4.103515 2.09395-2.129256 11.81836-6.158203 11.81836-6.158203l.548828-.117188a47.5 47.5 0 0 0 -6.527344-15.623047l-.486328.283203s-9.340576 4.446442-12.285156 4.488282-3.27348-.369184-4.355469-1.451172c-1.081988-1.081989-1.426212-1.369211-1.451172-4.355469s4.003906-12.712891 4.003906-12.712891l.273438-.419921a47.5 47.5 0 0 0 -15.636719-6.4589844zm-9.875 28.2910154a18.111111 18.111111 0 0 1 18.111328 18.111328 18.111111 18.111111 0 0 1 -18.111328 18.111328 18.111111 18.111111 0 0 1 -18.111328-18.111328 18.111111 18.111111 0 0 1 18.111328-18.111328z" fill="url(#a)" fill-rule="evenodd" stroke="#00510d" stroke-linecap="round" stroke-width="7"/><circle cx="50" cy="50" fill="none" opacity=".377" r="30.380434" stroke="url(#b)" stroke-linecap="square" stroke-width="3"/></g></svg>