<svg height="100" viewBox="0 0 100 100" width="100" xmlns="http://www.w3.org/2000/svg" xmlns:xlink="http://www.w3.org/1999/xlink"><filter id="a" color-interpolation-filters="sRGB" height="1.025661" width="1.022541" x="-.011271" y="-.01283"><feGaussianBlur stdDeviation=".43941962"/></filter><path d="m3.5279252 54.268101c9.3802448 18.398233 28.8366118 35.130127 50.0981248 45.062963 11.040559-22.157928 23.202344-39.856596 43.740239-62.039857l-.299622-17.446848c-18.39518 12.368786-42.066122 38.651845-53.048106 51.158356-7.313991-3.836675-17.761219-13.259978-26.199281-23.549277z" fill="#008615" stroke="#024700" stroke-width="2.609062"/><path d="m3.5279252 54.268101c13.3649678 20.863098 32.1386848 34.502329 49.9044348 44.435165 9.542452-22.157928 25.118858-41.401053 42.810348-62.011302-16.871583 11.47231-36.356276 39.793795-46.066174 53.465152-19.917586-7.160836-34.168517-20.890694-46.6486088-35.889015z" fill="#035e12" filter="url(#a)" opacity=".75"/></svg>