<svg height="100" viewBox="0 0 100 100" width="100" xmlns="http://www.w3.org/2000/svg"><path d="m24.503507 20c-11.146799.000174-20.1830209 9.036396-20.183195 20.183195.00742 8.447629 5.2749026 15.996964 13.2009 18.919471v34.897334l7.478788 5 6.485801-5v-3.309726h6.982294v-9.309725h-6.982294v-6.516808h6.982294v-9.309726h-6.982294v-6.462258c7.922255-2.921121 13.188921-10.46493 13.2009-18.908562-.000174-11.146799-9.036395-20.183021-20.183194-20.183195zm0 11.10803c4.943849-.000149 8.951669.283779 8.951519 5.227629.00015 4.94385-4.00767 5.944192-8.951519 5.944042-4.94385.00015-8.951669-1.000192-8.951519-5.944042-.00015-4.94385 4.007669-5.227778 8.951519-5.227629z" fill="#fd0" stroke="#371d00" stroke-width="2.119676"/></svg>