<svg height="100" viewBox="0 0 100 100" width="100" xmlns="http://www.w3.org/2000/svg"><path d="m80.47478-48.473815c-6.604185.207699-10.982094 3.383226-10.982094 9.933863v6.685318h-1.487972c-1.090421 0-1.981255.751286-1.981255 1.692422v17.574921c0 .941137.890834 1.692424 1.981255 1.692424h26.895423c1.09042 0 1.95367-.751287 1.95367-1.692424v-17.574921c0-.941136-.86325-1.692422-1.95367-1.692422h-1.515555l.02758-6.576601c0-6.953055-4.752742-9.95658-11.945948-10.04258-.335889-.0032-.66691-.0098-.99144 0zm.660418 4.394135c.121694-.0032.261246 0 .386191 0 7.981814 0 7.370075 5.676029 7.486905 7.368453v4.856593h-15.028983v-4.829006c-.0292-1.677821-.494908-7.224039 7.155887-7.39604z" fill="#999" stroke="#030303" stroke-width="2.5" transform="translate(0 52)"/></svg>