<svg height="100" viewBox="0 0 100 100" width="100" xmlns="http://www.w3.org/2000/svg" xmlns:xlink="http://www.w3.org/1999/xlink"><filter id="a" color-interpolation-filters="sRGB" height="1.022578" width="1.025613" x="-.012806" y="-.011289"><feGaussianBlur stdDeviation=".43337757"/></filter><filter id="b" color-interpolation-filters="sRGB" height="1.02478" width="1.023268" x="-.011634" y="-.01239"><feGaussianBlur stdDeviation=".43281248"/></filter><g transform="translate(-.299649 .000028)"><path d="m5.6666053 21.999883 9.3333567-18.6667132c52.523046 42.7779062 61.525871 62.2826002 79.932772 88.4945302l-9.333356 4.666679c-18.019827-26.029985-41.203954-51.161105-79.9327727-74.494496z" fill="#f00" stroke="#640000" stroke-linecap="round" stroke-linejoin="round" stroke-width="4.666678"/><path d="m0 20c49.844837 30.144055 67.79745 54.748354 85.642045 79.815335l4.287212-2.190916c-19.294125-26.455797-48.760514-62.871787-85.7345558-86.462199z" fill="#af0000" filter="url(#b)" opacity=".9" transform="matrix(.93333564 0 0 .93333564 5.666605 3.33317)"/><path d="m28.999996 96.666734-23.3333907-14.000035c22.8840157-27.258418 45.7215557-54.571763 74.6668507-74.666851l14.000035 4.666678c-26.15775 27.270083-49.305843 55.041776-65.333495 84.000208z" fill="#f00" stroke="#640000" stroke-linecap="round" stroke-linejoin="round" stroke-width="4.666678"/><path d="m25 100c18.741241-33.280066 42.797136-62.76395 70-90l-6.16222-2.1336167c-28.763578 26.1093807-54.157134 54.2926197-75.05519 85.2423217z" fill="#af0000" filter="url(#a)" opacity=".9" transform="matrix(.93333564 0 0 .93333564 5.666605 3.33317)"/></g></svg>