<svg height="100" viewBox="0 0 100 100" width="100" xmlns="http://www.w3.org/2000/svg" xmlns:xlink="http://www.w3.org/1999/xlink"><filter id="a" color-interpolation-filters="sRGB" height="1.120278" width="1.029983" x="-.014991" y="-.060139"><feGaussianBlur stdDeviation=".15808479"/></filter><filter id="b" color-interpolation-filters="sRGB" height="1.04603" width="1.050147" x="-.025073" y="-.023015"><feGaussianBlur stdDeviation=".08567747"/></filter><path d="m23.81217 20.287191c-9.607647 7.852157-15.1849204 19.601044-15.1949892 32.009233.0001056 22.855056 18.5277632 41.382714 41.3828192 41.382819 22.855056-.000105 41.382714-18.527763 41.382819-41.382819-.016034-12.227683-4.029932-22.955269-13.404568-30.805919l12.495822-7.243721-36.617706-7.9261204 2.243433 35.5145334 9.370118-9.550477c5.955518 4.808825 9.879898 12.357102 9.887092 20.011704-.00033 14.004154-11.352856 25.35668-25.35701 25.35701-14.004154-.00033-25.35668-11.352856-25.35701-25.35701.005209-7.835284 3.632253-15.228104 9.825736-20.027318z" style="fill:#12a3ee;fill-rule:evenodd;stroke:#000;stroke-width:4;stroke-linecap:round;stroke-linejoin:round"/><g fill="#fff"><path d="m52.665312 18.224046 25.308174 5.478105-1.382735.830679-23.857364-5.205924z" filter="url(#a)" opacity=".9" transform="matrix(1.1246606 0 0 1.1246606 -3.089812 -11.570756)"/><path d="m31.900391 27.876953 7.365234 8.28125-.785752.653238-7.415254-8.262712z" filter="url(#b)" opacity=".9" transform="matrix(1.0686796 0 0 1.0686796 -10.523168 -6.585894)"/></g></svg>