<svg height="100" viewBox="0 0 100 100" width="100" xmlns="http://www.w3.org/2000/svg"><g transform="matrix(3.3357796 0 0 3.3357796 .001667 0)"><path d="m25.462 19.105v6.848h-20.947v-6.848h-4.026v8.861c0 1.111.9 2.012 2.016 2.012h24.967c1.115 0 2.016-.9 2.016-2.012v-8.861z"/><path d="m14.62 18.426-5.764-6.965s-.877-.828.074-.828h3.248s0-.557 0-1.416c0-2.449 0-6.906 0-8.723 0 0-.129-.494.615-.494h4.572c.536 0 .524.416.524.416v8.742 1.266h2.998c1.154 0 .285.867.285.867s-4.904 6.51-5.588 7.193c-.492.495-.964-.058-.964-.058z"/></g></svg>