<svg height="100" viewBox="0 0 100 100" width="100" xmlns="http://www.w3.org/2000/svg" xmlns:xlink="http://www.w3.org/1999/xlink"><linearGradient id="a" gradientUnits="userSpaceOnUse" x1="73.050055" x2="64.902836" y1="62.537883" y2="47.820331"><stop offset="0" stop-color="#00ae1c"/><stop offset="1" stop-color="#00ae1c" stop-opacity="0"/></linearGradient><path d="m85.502659 85.015413c-4.063587 4.133654-11.575067 2.608893-16.807512 5.103442-5.232322 2.494539-8.77725 9.290523-14.547029 9.845049-5.769778.554536-10.543938-5.441875-16.15561-6.894286-5.611664-1.452361-12.695564 1.475094-17.472022-1.808958-4.776501-3.284046-4.579274-10.946077-7.944325-15.665818-3.3652261-4.719679-10.6733968-7.030622-12.22124445-12.616517-1.54807565-5.586006 3.52820105-11.328744 3.98407415-17.107687.455838-5.77837-3.65720369-12.246455-1.2524845-17.520714 2.404728-5.274202 9.9848328-6.4108 14.0486488-10.543935 4.063597-4.133652 5.070207-11.7320336 10.302766-14.226809 5.232331-2.4945466 11.769266 1.5074055 17.539624.9528267 5.76977-.5545334 11.424984-5.7282462 17.036647-4.27589098 5.611673 1.45235478 8.046864 8.71997128 12.823322 12.00413828 4.776506 3.284053 12.434346 2.955923 15.799288 7.67566 3.365228 4.719679.559262 11.852332 2.107299 17.438223 1.548076 5.586006 7.625249 10.256936 7.169258 16.035306-.455834 5.77837-7.189881 9.438901-9.594721 14.713157-2.404723 5.274206-.751813 12.758588-4.815401 16.892304z" fill="#038400" stroke-width=".572853"/><path d="m84.255326 83.785199c-3.92082 3.988425-11.168396 2.517234-16.217007 4.92414-5.048489 2.406898-8.46887 8.964112-14.035939 9.499157-5.56707.535045-10.173491-5.250681-15.588006-6.652064-5.414507-1.401334-12.249524 1.423269-16.858165-1.745403-4.608694-3.168666-4.418396-10.561502-7.665215-15.115422-3.246996-4.553861-10.2984065-6.783613-11.7918707-12.173255-1.49368355-5.389751 3.4042419-10.930726 3.8440983-16.506634.4398212-5.575356-3.5287098-11.816195-1.2084778-16.90515 2.3202408-5.088901 9.6340252-6.185566 13.5550672-10.17349 3.920832-3.988423 4.892075-11.3198465 9.940792-13.7269717 5.048506-2.4069045 11.355777 1.4544451 16.923398.9193505 5.567061-.5350506 11.023582-5.52699286 16.438089-4.1256639 5.414515 1.4013284 7.764149 8.4136081 12.372799 11.5823911 4.608686 3.168673 11.997478 2.852071 15.244198 7.405988 3.246996 4.55386.539614 11.435918 2.033263 16.825557 1.493686 5.38975 7.357342 9.896574 6.917376 15.471929-.439818 5.575355-6.937274 9.10728-9.257624 14.196232-2.320237 5.088905-.7254 12.310334-4.646219 16.298818z" fill="url(#a)" stroke-width=".552727"/><circle cx="49.999996" cy="50" r="37.498791" style="fill:#00ae1c;fill-rule:evenodd;stroke:#d2ffbc;stroke-width:4.385757;stroke-linecap:round;stroke-linejoin:round;stroke-opacity:.879656"/></svg>