<svg height="100" viewBox="0 0 100 100" width="100" xmlns="http://www.w3.org/2000/svg" xmlns:xlink="http://www.w3.org/1999/xlink"><linearGradient id="a" gradientTransform="matrix(1.1177594 .1485388 -.1485388 1.1177594 -5.577546 -9.82445)" gradientUnits="userSpaceOnUse" x1="50.122314" x2="69.221748" xlink:href="#d" y1="72.013435" y2="72.013435"/><linearGradient id="b" gradientTransform="matrix(-.84449761 .74717718 .74717718 .84449761 63.612537 -30.379288)" gradientUnits="userSpaceOnUse" x1="50.122314" x2="69.221748" xlink:href="#d" y1="72.013435" y2="72.013435"/><linearGradient id="c" gradientUnits="userSpaceOnUse" x1="61.385905" x2="51.414286" xlink:href="#d" y1="43.310103" y2="24.332353"/><linearGradient id="d" gradientUnits="userSpaceOnUse" x1="73.050055" x2="58.311165" y1="62.537883" y2="34.487175"><stop offset="0" stop-color="#ff0901"/><stop offset="1" stop-color="#9a0c00"/></linearGradient><path d="m62.008968 53.973409 24.433445 29.418538c-4.495977-1.1686-11.321853-2.916475-13.969275-4.321286-1.436713 5.539372-.724628 12.036379-2.654237 15.118417l-14.842982-35.906975z" fill="url(#b)" stroke="#840f00" stroke-width="1.127586"/><path d="m42.838645 59.268396-3.851147 38.0475c3.078027-3.479249 7.765836-8.739679 9.178252-11.383051 4.284128 3.794078 7.319937 9.582172 10.641341 11.06225l-7.727969-38.077598z" fill="url(#a)" stroke="#840f00" stroke-width="1.127586"/><path d="m69.810733 58.517311c-2.749226 2.79663-7.831129 1.76505-11.371148 3.452741-3.539936 1.687684-5.938262 6.285518-9.841815 6.660683-3.903552.375172-7.133518-3.681709-10.930103-4.66434-3.79658-.982597-8.589203.997978-11.820723-1.223853-3.231549-2.221826-3.098115-7.405585-5.374746-10.598733-2.276748-3.193106-7.221103-4.756578-8.268301-8.535724-1.047353-3.779221 2.38701-7.664479 2.695431-11.574232.308398-3.909365-2.474287-8.285358-.84737-11.853666 1.626922-3.56827 6.755254-4.337237 9.504635-7.133516 2.749233-2.796628 3.430256-7.937325 6.970352-9.6251692 3.539942-1.6876893 7.962515 1.0198376 11.86646.6446364 3.903546-.3751704 7.72959-3.87545378 11.526169-2.8928606 3.796586.9825928 5.444119 5.89951 8.675639 8.1214182 3.231552 2.2218312 8.412476 1.9998342 10.689032 5.1929792 2.27675 3.193107.37837 8.018714 1.425697 11.797857 1.047353 3.779221 5.158874 6.939346 4.850372 10.848711-.308395 3.909365-4.864325 6.385903-6.491323 9.954209-1.626919 3.568272-.50864 8.631842-3.257867 11.428514z" fill="#840f00" stroke-width=".387565"/><path d="m68.966848 57.685008c-2.652637 2.698375-7.555996 1.703039-10.971641 3.331435-3.415563 1.62839-5.729627 6.064683-9.496036 6.426669-3.76641.361986-6.882891-3.552356-10.54609-4.500464-3.663193-.948075-8.287434.962915-11.405417-1.180855-3.118019-2.143766-2.989273-7.145401-5.185913-10.226362-2.19676-3.080922-6.967403-4.589464-7.977808-8.235835-1.010554-3.646444 2.303145-7.395199 2.60073-11.167588.297562-3.772016-2.387354-7.994265-.817597-11.437206 1.569762-3.442903 6.517914-4.184854 9.170701-6.88289 2.652645-2.698374 3.309741-7.6584598 6.725458-9.2870041 3.415575-1.6283949 7.682769.9840071 11.449551.621988 3.766404-.3619893 7.458022-3.7392955 11.121215-2.7912242 3.663198.9480709 5.252847 5.6922396 8.370836 7.8360843 3.118013 2.143771 8.116912 1.929574 10.313486 5.010533 2.19676 3.080921.365076 7.736988 1.375607 11.383357 1.010555 3.646443 4.977621 6.695542 4.679961 10.467557-.297559 3.772015-4.693423 6.161544-6.26326 9.604483-1.56976 3.442906-.49077 8.328575-3.143406 11.02699z" fill="url(#c)" stroke-width=".373948"/><circle cx="45.791355" cy="34.827579" r="14.171283" style="fill:#fff;fill-rule:evenodd;stroke:#ffd4bc;stroke-width:1.657435;stroke-linecap:round;stroke-linejoin:round;stroke-opacity:.879656"/></svg>