<svg height="100" viewBox="0 0 100 100" width="100" xmlns="http://www.w3.org/2000/svg" xmlns:xlink="http://www.w3.org/1999/xlink"><linearGradient id="a" gradientUnits="userSpaceOnUse" x1="63.54852" x2="36.282622" y1="71.073826" y2="26.82451"><stop offset="0" stop-color="#006ee2"/><stop offset="1" stop-color="#d0eaff"/></linearGradient><g fill-rule="evenodd" transform="matrix(.98010326 0 0 .98010326 .994837 2.435324)"><path d="m84.564164 61.456322c3.580745 20.728965-15.519152 38.088981-34.662988 38.088981-19.143839-.000002-37.194035-17.205842-34.662987-38.088981 2.901197-23.937159 35.654911-51.4775005 34.662987-63.9410851.495962 11.9676239 30.472371 39.6815711 34.662988 63.9410851z" fill="#004c9d"/><path d="m79.530174 61.003672c3.059239 17.70996-13.258913 32.541631-29.614605 32.541631-16.355695-.000002-31.777026-14.699951-29.614605-32.541631 2.478661-20.450907 30.462063-43.980221 29.614605-54.6285864.423729 10.2246364 26.034318 33.9022734 29.614605 54.6285864z" fill="url(#a)"/></g></svg>