<svg height="100" viewBox="0 0 100 100" width="100" xmlns="http://www.w3.org/2000/svg" xmlns:xlink="http://www.w3.org/1999/xlink"><filter id="a" color-interpolation-filters="sRGB"><feComposite in2="SourceGraphic" k1="0" k2="1" operator="arithmetic" result="composite1"/><feColorMatrix in="composite1" result="colormatrix1" type="saturate" values="0"/><feFlood flood-color="#00c0db" result="flood1"/><feBlend in="flood1" in2="colormatrix1" mode="screen" result="blend1"/><feBlend in2="blend1" mode="multiply" result="blend2"/><feColorMatrix in="blend2" result="colormatrix2" type="saturate" values="1"/><feComposite in="colormatrix2" in2="SourceGraphic" k2="1" operator="in" result="composite2"/></filter><filter id="b" color-interpolation-filters="sRGB"><feComposite in2="SourceGraphic" k1="0" k2="1" operator="arithmetic" result="composite1"/><feColorMatrix in="composite1" result="colormatrix1" type="saturate" values="0"/><feFlood flood-color="#00c0db" result="flood1"/><feBlend in="flood1" in2="colormatrix1" mode="screen" result="blend1"/><feBlend in2="blend1" mode="multiply" result="blend2"/><feColorMatrix in="blend2" result="colormatrix2" type="saturate" values="1"/><feComposite in="colormatrix2" in2="SourceGraphic" k2="1" operator="in" result="composite2"/></filter><filter id="c" color-interpolation-filters="sRGB"><feColorMatrix in="SourceGraphic" result="colormatrix" values="1 0 0 0 0 0 1 0 0 0 0 0 1 0 0 -0.2125 -0.7154 -0.0721 1 0"/><feComposite in="SourceGraphic" in2="colormatrix" k2="1" k3="0" k4="0" operator="arithmetic" result="composite"/><feGaussianBlur result="blur1" stdDeviation="5 .01"/><feGaussianBlur in="composite" result="blur2" stdDeviation=".01 5"/><feBlend in="blur2" in2="blur1" mode="darken" result="blend"/></filter><filter id="d" color-interpolation-filters="sRGB"><feComposite in2="SourceGraphic" k1="0" k2="1" operator="arithmetic" result="composite1"/><feColorMatrix in="composite1" result="colormatrix1" type="saturate" values="0"/><feFlood flood-color="#00c0db" result="flood1"/><feBlend in="flood1" in2="colormatrix1" mode="screen" result="blend1"/><feBlend in2="blend1" mode="multiply" result="blend2"/><feColorMatrix in="blend2" result="colormatrix2" type="saturate" values="1"/><feComposite in="colormatrix2" in2="SourceGraphic" k2="1" operator="in" result="composite2"/></filter><filter id="e" color-interpolation-filters="sRGB"><feComposite in2="SourceGraphic" k1="0" k2="1" operator="arithmetic" result="composite1"/><feColorMatrix in="composite1" result="colormatrix1" type="saturate" values="0"/><feFlood flood-color="#00c0db" result="flood1"/><feBlend in="flood1" in2="colormatrix1" mode="screen" result="blend1"/><feBlend in2="blend1" mode="multiply" result="blend2"/><feColorMatrix in="blend2" result="colormatrix2" type="saturate" values="1"/><feComposite in="colormatrix2" in2="SourceGraphic" k2="1" operator="in" result="composite2"/></filter><filter id="f" color-interpolation-filters="sRGB"><feColorMatrix in="SourceGraphic" result="colormatrix" values="1 0 0 0 0 0 1 0 0 0 0 0 1 0 0 -0.2125 -0.7154 -0.0721 1 0"/><feComposite in="SourceGraphic" in2="colormatrix" k2="1" k3="0" k4="0" operator="arithmetic" result="composite"/><feGaussianBlur result="blur1" stdDeviation="5 .01"/><feGaussianBlur in="composite" result="blur2" stdDeviation=".01 5"/><feBlend in="blur2" in2="blur1" mode="darken" result="blend"/></filter><g filter="url(#a)" transform="matrix(1.0056257 0 0 .99251397 9.288561 -3.599683)"><path d="m23.812502 96.824998v-21.166667h-21.1666686v-21.166667h21.1666686v-21.166667h21.166666v21.166667h21.166668v21.166667h-21.166668v21.166667z" fill="#27c204" stroke="#005a1d" stroke-width="3.96875"/><g fill="none" stroke="#fff" stroke-linecap="round"><path d="m28.019449 75.658333v16.967731" opacity=".7" stroke-width="4.103144"/><path d="m6.8527784 58.48864v13.313167" opacity=".7" stroke-width="3.634507"/><path d="m28.019449 37.425931v16.967731" opacity=".7" stroke-width="4.103144"/></g><path d="m23.812502 96.824998v-21.166667h-21.1666686v-21.166667h21.1666686v-21.166667h21.166666v21.166667h21.166668v21.166667h-21.166668v21.166667z" fill="#27c204" stroke="#005a1d" stroke-width="3.96875"/><g fill="none" stroke="#fff" stroke-linecap="round"><path d="m28.019449 75.658333v16.967731" opacity=".7" stroke-width="4.103144"/><path d="m6.8527784 58.48864v13.313167" opacity=".7" stroke-width="3.634507"/><path d="m28.019449 37.425931v16.967731" opacity=".7" stroke-width="4.103144"/></g></g><g filter="url(#b)" transform="matrix(1.0056257 0 0 .99251397 9.288561 -3.599683)"><path d="m23.812502 96.824998v-21.166667h-21.1666686v-21.166667h21.1666686v-21.166667h21.166666v21.166667h21.166668v21.166667h-21.166668v21.166667z" fill="#27c204" stroke="#005a1d" stroke-width="3.96875"/><g fill="none" stroke="#fff" stroke-linecap="round"><path d="m28.019449 75.658333v16.967731" opacity=".7" stroke-width="4.103144"/><path d="m6.8527784 58.48864v13.313167" opacity=".7" stroke-width="3.634507"/><path d="m28.019449 37.425931v16.967731" opacity=".7" stroke-width="4.103144"/></g><path d="m23.812502 96.824998v-21.166667h-21.1666686v-21.166667h21.1666686v-21.166667h21.166666v21.166667h21.166668v21.166667h-21.166668v21.166667z" fill="#27c204" stroke="#005a1d" stroke-width="3.96875"/><g fill="none" stroke="#fff" stroke-linecap="round"><path d="m28.019449 75.658333v16.967731" opacity=".7" stroke-width="4.103144"/><path d="m6.8527784 58.48864v13.313167" opacity=".7" stroke-width="3.634507"/><path d="m28.019449 37.425931v16.967731" opacity=".7" stroke-width="4.103144"/></g></g><g transform="matrix(.38970288 0 0 .38970288 62.027437 -80.654172)"><ellipse cx="49.892864" cy="245.78423" fill="#0b8ff9" rx="41.199402" ry="30.427082" stroke="#00456c" stroke-linejoin="round" stroke-width="3"/><path d="m-83.97641 208.44868c.000002 2.86502-13.21346.85756-19.05847.85756-5.84502 0-18.66755.89684-18.66755-1.96818s10.29752-6.00533 16.14253-6.00533c5.845016 0 21.583492 4.25093 21.58349 7.11595z" fill="#f6fbff" filter="url(#c)" transform="matrix(.8299576 -.55782648 .55782648 .8299576 0 0)"/></g><g filter="url(#d)" transform="matrix(1.0056257 0 0 .99251397 9.288561 -3.599683)"><path d="m23.812502 96.824998v-21.166667h-21.1666686v-21.166667h21.1666686v-21.166667h21.166666v21.166667h21.166668v21.166667h-21.166668v21.166667z" fill="#27c204" stroke="#005a1d" stroke-width="3.96875"/><g fill="none" stroke="#fff" stroke-linecap="round"><path d="m28.019449 75.658333v16.967731" opacity=".7" stroke-width="4.103144"/><path d="m6.8527784 58.48864v13.313167" opacity=".7" stroke-width="3.634507"/><path d="m28.019449 37.425931v16.967731" opacity=".7" stroke-width="4.103144"/></g><path d="m23.812502 96.824998v-21.166667h-21.1666686v-21.166667h21.1666686v-21.166667h21.166666v21.166667h21.166668v21.166667h-21.166668v21.166667z" fill="#27c204" stroke="#005a1d" stroke-width="3.96875"/><g fill="none" stroke="#fff" stroke-linecap="round"><path d="m28.019449 75.658333v16.967731" opacity=".7" stroke-width="4.103144"/><path d="m6.8527784 58.48864v13.313167" opacity=".7" stroke-width="3.634507"/><path d="m28.019449 37.425931v16.967731" opacity=".7" stroke-width="4.103144"/></g></g><g filter="url(#e)" transform="matrix(1.0056257 0 0 .99251397 9.288561 -3.599683)"><path d="m23.812502 96.824998v-21.166667h-21.1666686v-21.166667h21.1666686v-21.166667h21.166666v21.166667h21.166668v21.166667h-21.166668v21.166667z" fill="#27c204" stroke="#005a1d" stroke-width="3.96875"/><g fill="none" stroke="#fff" stroke-linecap="round"><path d="m28.019449 75.658333v16.967731" opacity=".7" stroke-width="4.103144"/><path d="m6.8527784 58.48864v13.313167" opacity=".7" stroke-width="3.634507"/><path d="m28.019449 37.425931v16.967731" opacity=".7" stroke-width="4.103144"/></g><path d="m23.812502 96.824998v-21.166667h-21.1666686v-21.166667h21.1666686v-21.166667h21.166666v21.166667h21.166668v21.166667h-21.166668v21.166667z" fill="#27c204" stroke="#005a1d" stroke-width="3.96875"/><g fill="none" stroke="#fff" stroke-linecap="round"><path d="m28.019449 75.658333v16.967731" opacity=".7" stroke-width="4.103144"/><path d="m6.8527784 58.48864v13.313167" opacity=".7" stroke-width="3.634507"/><path d="m28.019449 37.425931v16.967731" opacity=".7" stroke-width="4.103144"/></g></g><g transform="matrix(.38970288 0 0 .38970288 62.027437 -80.654172)"><ellipse cx="49.892864" cy="245.78423" fill="#0b8ff9" rx="41.199402" ry="30.427082" stroke="#00456c" stroke-linejoin="round" stroke-width="3"/><path d="m-83.97641 208.44868c.000002 2.86502-13.21346.85756-19.05847.85756-5.84502 0-18.66755.89684-18.66755-1.96818s10.29752-6.00533 16.14253-6.00533c5.845016 0 21.583492 4.25093 21.58349 7.11595z" fill="#f6fbff" filter="url(#f)" transform="matrix(.8299576 -.55782648 .55782648 .8299576 0 0)"/></g><path d="m27.955778 84.536765h44.093413-20.672263v-69.073781l-23.42115 8.456786 23.42115-8.456786v69.073781z" stroke="#0b0b0b" stroke-linecap="round" stroke-linejoin="round" stroke-width="11.8223" transform="matrix(.5 0 0 .5 50 50)"/></svg>