<svg xmlns="http://www.w3.org/2000/svg" height="100" viewBox="0 0 100 100" width="100"><filter color-interpolation-filters="sRGB" id="grey"><feColorMatrix values="0.4 0.4 0.4 0 0 0.4 0.4 0.4 0 0 0.4 0.4 0.4 0 0 0 0 0 1 0" /></filter><g filter="url(#grey)" transform="matrix(1.0056257 0 0 .99251397 9.288561 -3.599683)"><path d="m23.812502 96.824998v-21.166667h-21.1666686v-21.166667h21.1666686v-21.166667h21.166666v21.166667h21.166668v21.166667h-21.166668v21.166667z" fill="#27c204" stroke="#005a1d" stroke-width="3.96875" /><g fill="none" stroke="#fff" stroke-linecap="round"><path d="m28.019449 75.658333v16.967731" opacity=".7" stroke-width="4.103144" /><path d="m6.8527784 58.48864v13.313167" opacity=".7" stroke-width="3.634507" /><path d="m28.019449 37.425931v16.967731" opacity=".7" stroke-width="4.103144" /></g><path d="m23.812502 96.824998v-21.166667h-21.1666686v-21.166667h21.1666686v-21.166667h21.166666v21.166667h21.166668v21.166667h-21.166668v21.166667z" fill="#27c204" stroke="#005a1d" stroke-width="3.96875" /><g fill="none" stroke="#fff" stroke-linecap="round"><path d="m28.019449 75.658333v16.967731" opacity=".7" stroke-width="4.103144" /><path d="m6.8527784 58.48864v13.313167" opacity=".7" stroke-width="3.634507" /><path d="m28.019449 37.425931v16.967731" opacity=".7" stroke-width="4.103144" /></g></g><g filter="url(#grey)" transform="matrix(1.0056257 0 0 .99251397 9.288561 -3.599683)"><path d="m23.812502 96.824998v-21.166667h-21.1666686v-21.166667h21.1666686v-21.166667h21.166666v21.166667h21.166668v21.166667h-21.166668v21.166667z" fill="#27c204" stroke="#005a1d" stroke-width="3.96875" /><g fill="none" stroke="#fff" stroke-linecap="round"><path d="m28.019449 75.658333v16.967731" opacity=".7" stroke-width="4.103144" /><path d="m6.8527784 58.48864v13.313167" opacity=".7" stroke-width="3.634507" /><path d="m28.019449 37.425931v16.967731" opacity=".7" stroke-width="4.103144" /></g><path d="m23.812502 96.824998v-21.166667h-21.1666686v-21.166667h21.1666686v-21.166667h21.166666v21.166667h21.166668v21.166667h-21.166668v21.166667z" fill="#27c204" stroke="#005a1d" stroke-width="3.96875" /><g fill="none" stroke="#fff" stroke-linecap="round"><path d="m28.019449 75.658333v16.967731" opacity=".7" stroke-width="4.103144" /><path d="m6.8527784 58.48864v13.313167" opacity=".7" stroke-width="3.634507" /><path d="m28.019449 37.425931v16.967731" opacity=".7" stroke-width="4.103144" /></g></g><g fill="#f00" filter="url(#grey)" stroke="#781600" stroke-linecap="round" stroke-linejoin="round" transform="matrix(.70262055 0 0 .70262055 19.885523 23.199374)"><path d="m74.07339 6.5958012h15.852058l-1.321006 34.6062358h-13.21005z" stroke-width="4.404195" /><path d="m75.523168 51.758435h12.952498l-.05978 11.159073h-12.553964z" stroke-width="3.72039" /></g></svg>