<svg xmlns="http://www.w3.org/2000/svg" height="100" viewBox="0 0 100 100" width="100"><filter color-interpolation-filters="sRGB" id="grey"><feColorMatrix values="0.4 0.4 0.4 0 0 0.4 0.4 0.4 0 0 0.4 0.4 0.4 0 0 0 0 0 1 0" /></filter><g filter="url(#grey)" transform="matrix(1.0056257 0 0 .99251397 9.288561 -3.599683)"><path d="m23.812502 96.824998v-21.166667h-21.1666686v-21.166667h21.1666686v-21.166667h21.166666v21.166667h21.166668v21.166667h-21.166668v21.166667z" fill="#27c204" stroke="#005a1d" stroke-width="3.96875" /><g fill="none" stroke="#fff" stroke-linecap="round"><path d="m28.019449 75.658333v16.967731" opacity=".7" stroke-width="4.103144" /><path d="m6.8527784 58.48864v13.313167" opacity=".7" stroke-width="3.634507" /><path d="m28.019449 37.425931v16.967731" opacity=".7" stroke-width="4.103144" /></g><path d="m23.812502 96.824998v-21.166667h-21.1666686v-21.166667h21.1666686v-21.166667h21.166666v21.166667h21.166668v21.166667h-21.166668v21.166667z" fill="#27c204" stroke="#005a1d" stroke-width="3.96875" /><g fill="none" stroke="#fff" stroke-linecap="round"><path d="m28.019449 75.658333v16.967731" opacity=".7" stroke-width="4.103144" /><path d="m6.8527784 58.48864v13.313167" opacity=".7" stroke-width="3.634507" /><path d="m28.019449 37.425931v16.967731" opacity=".7" stroke-width="4.103144" /></g></g><g filter="url(#grey)" transform="matrix(1.0056257 0 0 .99251397 9.288561 -3.599683)"><path d="m23.812502 96.824998v-21.166667h-21.1666686v-21.166667h21.1666686v-21.166667h21.166666v21.166667h21.166668v21.166667h-21.166668v21.166667z" fill="#27c204" stroke="#005a1d" stroke-width="3.96875" /><g fill="none" stroke="#fff" stroke-linecap="round"><path d="m28.019449 75.658333v16.967731" opacity=".7" stroke-width="4.103144" /><path d="m6.8527784 58.48864v13.313167" opacity=".7" stroke-width="3.634507" /><path d="m28.019449 37.425931v16.967731" opacity=".7" stroke-width="4.103144" /></g><path d="m23.812502 96.824998v-21.166667h-21.1666686v-21.166667h21.1666686v-21.166667h21.166666v21.166667h21.166668v21.166667h-21.166668v21.166667z" fill="#27c204" stroke="#005a1d" stroke-width="3.96875" /><g fill="none" stroke="#fff" stroke-linecap="round"><path d="m28.019449 75.658333v16.967731" opacity=".7" stroke-width="4.103144" /><path d="m6.8527784 58.48864v13.313167" opacity=".7" stroke-width="3.634507" /><path d="m28.019449 37.425931v16.967731" opacity=".7" stroke-width="4.103144" /></g></g><path d="m85.223464 93.904936h11.569287-5.424015v-18.340709l-6.145272 2.245475 6.145272-2.245475v18.340709z" filter="url(#grey)" stroke="#0b0b0b" stroke-linecap="round" stroke-linejoin="round" stroke-width="3.87" /></svg>