<svg height="100" viewBox="0 0 100 100" width="100" xmlns="http://www.w3.org/2000/svg"><g transform="matrix(1.0056257 0 0 .99251397 9.288561 -3.599683)"><path d="m23.812502 96.824998v-21.166667h-21.1666686v-21.166667h21.1666686v-21.166667h21.166666v21.166667h21.166668v21.166667h-21.166668v21.166667z" fill="#27c204" stroke="#005a1d" stroke-width="3.96875"/><g fill="none" stroke="#fff" stroke-linecap="round"><path d="m28.019449 75.658333v16.967731" opacity=".7" stroke-width="4.103144"/><path d="m6.8527784 58.48864v13.313167" opacity=".7" stroke-width="3.634507"/><path d="m28.019449 37.425931v16.967731" opacity=".7" stroke-width="4.103144"/></g><path d="m23.812502 96.824998v-21.166667h-21.1666686v-21.166667h21.1666686v-21.166667h21.166666v21.166667h21.166668v21.166667h-21.166668v21.166667z" fill="#27c204" stroke="#005a1d" stroke-width="3.96875"/><g fill="none" stroke="#fff" stroke-linecap="round"><path d="m28.019449 75.658333v16.967731" opacity=".7" stroke-width="4.103144"/><path d="m6.8527784 58.48864v13.313167" opacity=".7" stroke-width="3.634507"/><path d="m28.019449 37.425931v16.967731" opacity=".7" stroke-width="4.103144"/></g></g><g transform="matrix(1.0056257 0 0 .99251397 9.288561 -3.599683)"><path d="m23.812502 96.824998v-21.166667h-21.1666686v-21.166667h21.1666686v-21.166667h21.166666v21.166667h21.166668v21.166667h-21.166668v21.166667z" fill="#27c204" stroke="#005a1d" stroke-width="3.96875"/><g fill="none" stroke="#fff" stroke-linecap="round"><path d="m28.019449 75.658333v16.967731" opacity=".7" stroke-width="4.103144"/><path d="m6.8527784 58.48864v13.313167" opacity=".7" stroke-width="3.634507"/><path d="m28.019449 37.425931v16.967731" opacity=".7" stroke-width="4.103144"/></g><path d="m23.812502 96.824998v-21.166667h-21.1666686v-21.166667h21.1666686v-21.166667h21.166666v21.166667h21.166668v21.166667h-21.166668v21.166667z" fill="#27c204" stroke="#005a1d" stroke-width="3.96875"/><g fill="none" stroke="#fff" stroke-linecap="round"><path d="m28.019449 75.658333v16.967731" opacity=".7" stroke-width="4.103144"/><path d="m6.8527784 58.48864v13.313167" opacity=".7" stroke-width="3.634507"/><path d="m28.019449 37.425931v16.967731" opacity=".7" stroke-width="4.103144"/></g></g><g fill="#fdfdfd" stroke="#000" stroke-linecap="round" stroke-linejoin="round" stroke-width="3.164021"><path d="m59.73735 22.880764s20.364442 2.639605 20.546876 6.645236l1.083984 23.800636c.238686 5.24074 5.521484 7.310571 5.521484 7.310571s-5.282794 2.069833-5.521484 7.310573l-1.083984 23.80022c-.182437 4.00563-20.546876 6.645651-20.546876 6.645651v-5.561684c4.190019-.316171 9.630955-3.46199 10.74565-5.337327v-53.71464c-1.114695-1.875337-6.555631-5.02138-10.74565-5.337552z"/><path d="m28.758424 22.880764s-20.3644415 2.639605-20.5468753 6.645236l-1.0839844 23.800636c-.2386861 5.24074-5.5214843 7.310571-5.5214843 7.310571s5.282794 2.069833 5.5214843 7.310573l1.0839844 23.80022c.182437 4.00563 20.5468753 6.645651 20.5468753 6.645651v-5.561684c-4.190019-.316171-9.631729-3.46199-10.746424-5.337327v-53.71464c1.114695-1.875337 6.556405-5.02138 10.746424-5.337552z"/></g></svg>