<svg xmlns="http://www.w3.org/2000/svg" height="100" viewBox="0 0 100 100" width="100"><g transform="translate(-.570895 .510333)"><path d="m2.8623961 91.897222h95.4169979v-68.912276h-37.106611l-10.601888-15.9028332h-37.106611l-10.6018879 15.9028332z" fill="#fff803" fill-rule="evenodd" stroke="#bf7c00" stroke-linejoin="round" stroke-width="4.523707" /><path d="m6.012383 31.39484h40.713361l11.309267-7.916487-9.047414-13.5711208h-33.9278l-9.047414 13.5711208z" fill="#fdffcc" stroke-width=".958259" /></g><g transform="translate(-.570895 .510333)"><path d="m2.8623961 91.897222h95.4169979v-68.912276h-37.106611l-10.601888-15.9028332h-37.106611l-10.6018879 15.9028332z" fill="#fff803" fill-rule="evenodd" stroke="#bf7c00" stroke-linejoin="round" stroke-width="4.523707" /><path d="m6.012383 31.39484h40.713361l11.309267-7.916487-9.047414-13.5711208h-33.9278l-9.047414 13.5711208z" fill="#fdffcc" stroke-width=".958259" /></g><filter color-interpolation-filters="sRGB" height="1.173047" id="a" width="1.123303" x="-.061651" y="-.086524"><feGaussianBlur stdDeviation=".18230517" /></filter><g transform="matrix(1.9353003 0 0 1.9353003 -.8623385 -472.758)"><ellipse cx="13.363476" cy="283.03516" rx="10.583333" ry="6.614584" style="fill:#08e;fill-opacity:.941176;stroke:#00456c;stroke-width:.79375;stroke-linecap:square;stroke-linejoin:round" /><path d="m11.018045 277.73994c-2.1673904.61486-3.8847432 1.95838-4.3352026 2.2979-.6460434.48693-1.5363493 1.36116-2.7101662 2.75818-.3247612-1.4019.9257424-3.08386 2.6350005-4.03447 1.5540447-.86429 2.9696191-1.03511 4.4103683-1.02161z" fill="#fff" filter="url(#a)" opacity=".94" /></g><path d="m36.950033 4.7223755v32.2265755h-32.2276585v26.102147h32.2276585v32.226526h26.102146v-32.226526h32.225446v-26.102147h-32.225446v-32.2265755z" fill="#fff200" fill-rule="evenodd" stroke="#000" stroke-linejoin="round" stroke-width="9.444752" transform="scale(.5)" /></svg>