<svg xmlns="http://www.w3.org/2000/svg" height="100" viewBox="0 0 100 100" width="100"><g transform="translate(-.570895 .510333)"><path d="m2.8623961 91.897222h95.4169979v-68.912276h-37.106611l-10.601888-15.9028332h-37.106611l-10.6018879 15.9028332z" fill="#fff803" fill-rule="evenodd" stroke="#bf7c00" stroke-linejoin="round" stroke-width="4.523707" /><path d="m6.012383 31.39484h40.713361l11.309267-7.916487-9.047414-13.5711208h-33.9278l-9.047414 13.5711208z" fill="#fdffcc" stroke-width=".958259" /></g><g transform="translate(-.570895 .510333)"><path d="m2.8623961 91.897222h95.4169979v-68.912276h-37.106611l-10.601888-15.9028332h-37.106611l-10.6018879 15.9028332z" fill="#fff803" fill-rule="evenodd" stroke="#bf7c00" stroke-linejoin="round" stroke-width="4.523707" /><path d="m6.012383 31.39484h40.713361l11.309267-7.916487-9.047414-13.5711208h-33.9278l-9.047414 13.5711208z" fill="#fdffcc" stroke-width=".958259" /></g><linearGradient gradientUnits="userSpaceOnUse" id="a" x1="9.749154" x2="36.122083" y1="41.873424" y2="61.652099"><stop offset="0" stop-color="#fc5e17" /><stop offset="1" stop-color="#732d0d" /></linearGradient><linearGradient gradientUnits="userSpaceOnUse" id="b" x1="31.915285" x2="52.620623" y1="56.038348" y2="70.42018"><stop offset="0" stop-color="#9b17ce" /><stop offset="1" stop-color="#510070" /></linearGradient><linearGradient gradientUnits="userSpaceOnUse" id="c" x1="50.921287" x2="66.769237" y1="50" y2="54.494324"><stop offset="0" stop-color="#01db00" /><stop offset="1" stop-color="#118510" /></linearGradient><linearGradient gradientUnits="userSpaceOnUse" id="d" x1="69.510686" x2="91.521596" y1="51.660299" y2="62.147049"><stop offset="0" stop-color="#4e69ff" /><stop offset="1" stop-color="#041ca0" /></linearGradient><g fill-rule="evenodd" stroke-width="3" transform="matrix(.75491322 0 0 .75491322 12.25434 12.254339)"><path d="m33.415287 35.926243h14.409499v40.224213h-14.409499z" fill="url(#b)" stroke="#490295" /><path d="m52.421288 23.849545h13.746818v52.300911h-13.746818z" fill="url(#c)" stroke="#00700c" /><path d="m71.010681 27.170143h13.917346v48.980312h-13.917346z" fill="url(#d)" stroke="#072ec3" /><path d="m15.071971 23.849545h13.746818v52.300911h-13.746818z" fill="url(#a)" stroke="#c9080a" /></g><path d="m36.950033 4.7223755v32.2265755h-32.2276585v26.102147h32.2276585v32.226526h26.102146v-32.226526h32.225446v-26.102147h-32.225446v-32.2265755z" fill="#fff200" fill-rule="evenodd" stroke="#000" stroke-linejoin="round" stroke-width="9.444752" transform="scale(.5)" /></svg>