#define system_cur_width 17
#define system_cur_height 17
static char system_cur_bits[] = {
   0x00, 0x00, 0x00, 0x1c, 0x70, 0x00, 0x3e, 0xf8, 0x00, 0xfe, 0xff, 0x00,
   0x3e, 0xf8, 0x00, 0x1c, 0x70, 0x00, 0x08, 0x10, 0x00, 0x08, 0x10, 0x00,
   0xf8, 0x1f, 0x00, 0x00, 0x10, 0x00, 0x00, 0x10, 0x00, 0x70, 0x1c, 0x00,
   0xf8, 0x3e, 0x00, 0xf8, 0x3f, 0x00, 0xf8, 0x3e, 0x00, 0x70, 0x1c, 0x00,
   0x00, 0x00, 0x00};
