#define xexplcur_width 17
#define xexplcur_height 17
static char xexplcur_bits[] = {
   0x03, 0x80, 0x01, 0xc7, 0xc7, 0x01, 0x3e, 0xf8, 0x00, 0x0c, 0x60, 0x00,
   0x04, 0x40, 0x00, 0x52, 0x95, 0x00, 0x02, 0x80, 0x00, 0xa2, 0x8a, 0x00,
   0x02, 0x80, 0x00, 0x44, 0x45, 0x00, 0x08, 0x20, 0x00, 0x10, 0x18, 0x00,
   0xf8, 0x3f, 0x00, 0x1c, 0x70, 0x00, 0x0e, 0xe0, 0x00, 0x07, 0xc0, 0x01,
   0x03, 0x80, 0x01};
