#define xfeatcur_width 17
#define xfeatcur_height 17
static char xfeatcur_bits[] = {
   0x03, 0x80, 0x01, 0x07, 0xc0, 0x01, 0x0e, 0xe0, 0x00, 0xdc, 0x77, 0x00,
   0xf8, 0x3f, 0x00, 0xf0, 0x1f, 0x00, 0xf8, 0x3f, 0x00, 0xf8, 0x3f, 0x00,
   0xf8, 0x3f, 0x00, 0xf8, 0x3f, 0x00, 0xf8, 0x3f, 0x00, 0xf0, 0x1f, 0x00,
   0xf8, 0x3f, 0x00, 0xdc, 0x77, 0x00, 0x0e, 0xe0, 0x00, 0x07, 0xc0, 0x01,
   0x03, 0x80, 0x01};
