<?xml version="1.0" encoding="UTF-8" standalone="no"?>
<!-- Generator: Adobe Illustrator 16.0.0, SVG Export Plug-In . SVG Version: 6.00 Build 0)  -->

<svg
   xmlns:dc="http://purl.org/dc/elements/1.1/"
   xmlns:cc="http://creativecommons.org/ns#"
   xmlns:rdf="http://www.w3.org/1999/02/22-rdf-syntax-ns#"
   xmlns:svg="http://www.w3.org/2000/svg"
   xmlns="http://www.w3.org/2000/svg"
   xmlns:sodipodi="http://sodipodi.sourceforge.net/DTD/sodipodi-0.dtd"
   xmlns:inkscape="http://www.inkscape.org/namespaces/inkscape"
   version="1.1"
   id="Layer_1"
   x="0px"
   y="0px"
   width="30"
   height="30"
   viewBox="0 0 30 30"
   enable-background="new 0 0 30 27.333"
   xml:space="preserve"
   inkscape:version="0.48.2 r9819"
   sodipodi:docname="chat94.svg"><metadata
   id="metadata6744"><rdf:RDF><cc:Work
       rdf:about=""><dc:format>image/svg+xml</dc:format><dc:type
         rdf:resource="http://purl.org/dc/dcmitype/StillImage" /></cc:Work></rdf:RDF></metadata><defs
   id="defs6742" /><sodipodi:namedview
   pagecolor="#ffffff"
   bordercolor="#666666"
   borderopacity="1"
   objecttolerance="10"
   gridtolerance="10"
   guidetolerance="10"
   inkscape:pageopacity="0"
   inkscape:pageshadow="2"
   inkscape:window-width="708"
   inkscape:window-height="480"
   id="namedview6740"
   showgrid="false"
   inkscape:zoom="8.6342516"
   inkscape:cx="15"
   inkscape:cy="13.6665"
   inkscape:window-x="0"
   inkscape:window-y="0"
   inkscape:window-maximized="0"
   inkscape:current-layer="Layer_1" />
<g
   id="g6728"
   style="fill:#99cc33;fill-opacity:1"
   transform="translate(0,1.667)">
	<path
   d="M 27.346,27.333 C 26.706,26.866 26.215,26.514 25.731,26.15 24.182,24.991 22.655,23.797 21.074,22.682 20.651,22.383 20.067,22.174 19.555,22.168 16.188,22.123 12.819,22.158 9.451,22.131 8.871,22.127 8.293,21.953 7.713,21.86 7.707,21.77 7.7,21.681 7.694,21.59 c 0.841,-0.639 1.671,-1.295 2.533,-1.904 0.182,-0.128 0.479,-0.125 0.725,-0.126 3.255,-0.009 6.511,-0.019 9.766,0.013 0.383,0.004 0.811,0.189 1.135,0.411 0.938,0.646 1.836,1.351 2.9,2.146 0,-0.944 0,-1.709 0,-2.57 0.893,0 1.691,0 2.534,0 0,-3.955 0,-7.809 0,-11.75 -1.169,0 -2.286,-0.028 -3.397,0.033 -0.156,0.009 -0.406,0.455 -0.412,0.702 -0.035,1.823 -0.011,3.648 -0.021,5.473 -0.013,1.921 -0.983,2.896 -2.908,2.899 -3.366,0.01 -6.735,-0.02 -10.103,0.024 -0.513,0.007 -1.101,0.211 -1.52,0.511 -1.895,1.354 -3.74,2.773 -5.606,4.168 -0.191,0.143 -0.398,0.264 -0.736,0.487 0,-1.545 -0.017,-2.937 0.009,-4.325 C 2.603,17.249 2.546,16.944 1.895,16.814 0.777,16.59 0.025,15.588 0.019,14.422 -0.002,10.464 -0.006,6.507 0.016,2.55 0.022,1.119 1.09,0.022 2.516,0.016 c 6.146,-0.022 12.292,-0.021 18.438,0.002 1.387,0.006 2.423,1.079 2.491,2.464 0.029,0.616 0.048,1.237 0.003,1.852 -0.05,0.671 0.132,0.961 0.877,0.907 0.977,-0.069 1.964,-0.027 2.944,-0.011 1.594,0.025 2.686,1.016 2.701,2.609 0.041,3.9 0.031,7.802 0,11.703 -0.012,1.33 -0.771,2.244 -2.046,2.533 -0.464,0.104 -0.589,0.291 -0.582,0.727 0.019,1.179 0.005,2.357 0.003,3.535 0.001,0.27 0.001,0.538 0.001,0.996 z M 20.732,14.346 c 0.067,-0.188 0.104,-0.24 0.104,-0.292 0.01,-3.616 0.006,-7.231 0.029,-10.848 C 20.869,2.621 20.55,2.597 20.115,2.597 14.535,2.604 8.956,2.611 3.376,2.59 2.744,2.588 2.568,2.785 2.573,3.407 c 0.029,3.393 0.014,6.785 0.02,10.178 0,0.238 0.041,0.477 0.07,0.789 0.884,0 1.685,0 2.592,0 0,0.838 0,1.598 0,2.526 1.068,-0.802 1.964,-1.515 2.906,-2.157 0.321,-0.222 0.755,-0.373 1.143,-0.383 1.541,-0.042 3.083,-0.016 4.626,-0.014 2.265,0 4.533,0 6.802,0 z"
   id="path6730"
   style="fill:#99cc33;fill-opacity:1"
   inkscape:connector-curvature="0" />
	<g
   id="g6732"
   style="fill:#99cc33;fill-opacity:1">
		<circle
   cx="7.4580002"
   cy="8.585"
   r="1.438"
   id="circle6734"
   style="fill:#99cc33;fill-opacity:1"
   sodipodi:cx="7.4580002"
   sodipodi:cy="8.585"
   sodipodi:rx="1.438"
   sodipodi:ry="1.438"
   d="m 8.8960001,8.585 c 0,0.7941855 -0.6438145,1.438 -1.4379999,1.438 -0.7941855,0 -1.438,-0.6438145 -1.438,-1.438 0,-0.7941854 0.6438145,-1.4379999 1.438,-1.4379999 0.7941854,0 1.4379999,0.6438145 1.4379999,1.4379999 z" />
		<circle
   cx="12.333"
   cy="8.585"
   r="1.438"
   id="circle6736"
   style="fill:#99cc33;fill-opacity:1"
   sodipodi:cx="12.333"
   sodipodi:cy="8.585"
   sodipodi:rx="1.438"
   sodipodi:ry="1.438"
   d="m 13.771,8.585 c 0,0.7941855 -0.643814,1.438 -1.438,1.438 -0.794185,0 -1.438,-0.6438145 -1.438,-1.438 0,-0.7941854 0.643815,-1.4379999 1.438,-1.4379999 0.794186,0 1.438,0.6438145 1.438,1.4379999 z" />
		<circle
   cx="17.208"
   cy="8.585"
   r="1.438"
   id="circle6738"
   style="fill:#99cc33;fill-opacity:1"
   sodipodi:cx="17.208"
   sodipodi:cy="8.585"
   sodipodi:rx="1.438"
   sodipodi:ry="1.438"
   d="m 18.646,8.585 c 0,0.7941855 -0.643814,1.438 -1.438,1.438 -0.794185,0 -1.438,-0.6438145 -1.438,-1.438 0,-0.7941854 0.643815,-1.4379999 1.438,-1.4379999 0.794186,0 1.438,0.6438145 1.438,1.4379999 z" />
	</g>
</g>
</svg>