<?xml version="1.0" encoding="UTF-8" standalone="no"?>
<!-- Generator: Adobe Illustrator 18.1.1, SVG Export Plug-In . SVG Version: 6.00 Build 0)  -->

<svg
   xmlns:dc="http://purl.org/dc/elements/1.1/"
   xmlns:cc="http://creativecommons.org/ns#"
   xmlns:rdf="http://www.w3.org/1999/02/22-rdf-syntax-ns#"
   xmlns:svg="http://www.w3.org/2000/svg"
   xmlns="http://www.w3.org/2000/svg"
   xmlns:sodipodi="http://sodipodi.sourceforge.net/DTD/sodipodi-0.dtd"
   xmlns:inkscape="http://www.inkscape.org/namespaces/inkscape"
   version="1.1"
   id="Capa_1"
   x="0px"
   y="0px"
   viewBox="0 0 29.978 29.978"
   style="enable-background:new 0 0 29.978 29.978;"
   xml:space="preserve"
   inkscape:version="0.48.2 r9819"
   width="100%"
   height="100%"
   sodipodi:docname="download.svg"><metadata
   id="metadata5263"><rdf:RDF><cc:Work
       rdf:about=""><dc:format>image/svg+xml</dc:format><dc:type
         rdf:resource="http://purl.org/dc/dcmitype/StillImage" /></cc:Work></rdf:RDF></metadata><defs
   id="defs5261">
	
	
	
	
	
	
	
	
	
	
	
	
	
	
	
	
	
</defs><sodipodi:namedview
   pagecolor="#ffffff"
   bordercolor="#666666"
   borderopacity="1"
   objecttolerance="10"
   gridtolerance="10"
   guidetolerance="10"
   inkscape:pageopacity="0"
   inkscape:pageshadow="2"
   inkscape:window-width="1604"
   inkscape:window-height="1027"
   id="namedview5259"
   showgrid="false"
   inkscape:zoom="11.133311"
   inkscape:cx="4.9549688"
   inkscape:cy="9.2962099"
   inkscape:window-x="-8"
   inkscape:window-y="-8"
   inkscape:window-maximized="1"
   inkscape:current-layer="Capa_1" />
<path
   inkscape:connector-curvature="0"
   id="path5197"
   d="m 14.72,22.02609 -5.764,-6.965 c 0,0 -0.877,-0.828 0.074,-0.828 0.951,0 3.248,0 3.248,0 0,0 0,-0.557 0,-1.416 0,-2.449 0,-2.9059928 0,-4.7229928 0,0 -0.129,-0.494 0.615,-0.494 0.75,0 4.035,0 4.572,0 0.536,0 0.524,0.416 0.524,0.416 0,1.762 0,2.3729928 0,4.7419928 0,0.768 0,1.266 0,1.266 0,0 1.842,0 2.998,0 1.154,0 0.285,0.867 0.285,0.867 0,0 -4.904,6.51 -5.588,7.193 -0.492,0.495 -0.964,-0.058 -0.964,-0.058 z"
   style="fill:#99cc33;fill-opacity:1"
   sodipodi:nodetypes="ccscscsscscsccc" /><g
   id="g5199">
	</g><g
   id="g5201">
	</g><g
   id="g5203">
	</g><g
   id="g5205">
	</g><g
   id="g5207">
	</g><g
   id="g5209">
	</g><g
   id="g5211">
	</g><g
   id="g5213">
	</g><g
   id="g5215">
	</g><g
   id="g5217">
	</g><g
   id="g5219">
	</g><g
   id="g5221">
	</g><g
   id="g5223">
	</g><g
   id="g5225">
	</g><g
   id="g5227">
	</g>
<g
   id="g5229">
</g>
<g
   id="g5231">
</g>
<g
   id="g5233">
</g>
<g
   id="g5235">
</g>
<g
   id="g5237">
</g>
<g
   id="g5239">
</g>
<g
   id="g5241">
</g>
<g
   id="g5243">
</g>
<g
   id="g5245">
</g>
<g
   id="g5247">
</g>
<g
   id="g5249">
</g>
<g
   id="g5251">
</g>
<g
   id="g5253">
</g>
<g
   id="g5255">
</g>
<g
   id="g5257">
</g>
<path
   d="m 2.6,0.52500524 c -1.116,0 -2.00000001,0.92025006 -2.00000001,2.03125016 l 0,11.9687436 0,0.875 0,12 c 0,1.111 0.88400001,2 2.00000001,2 l 24.96875,0 c 1.115,0 2.03125,-0.888 2.03125,-2 l 0,-12 0,-0.875 0,-11.9687436 c 0,-1.1120001 -0.91625,-2.03125016 -2.03125,-2.03125016 l -24.96875,0 z m 2,4.03125016 20.96875,0 0,9.9687436 0,0.875 0,9.96875 -20.96875,0 0,-9.96875 0,-0.875 0,-9.9687436 z"
   id="path5282"
   style="fill:#99cc33;fill-opacity:1"
   inkscape:connector-curvature="0" /></svg>