<?xml version="1.0" encoding="UTF-8" standalone="no"?>
<!-- Generator: Adobe Illustrator 18.1.1, SVG Export Plug-In . SVG Version: 6.00 Build 0)  -->

<svg
   xmlns:osb="http://www.openswatchbook.org/uri/2009/osb"
   xmlns:dc="http://purl.org/dc/elements/1.1/"
   xmlns:cc="http://creativecommons.org/ns#"
   xmlns:rdf="http://www.w3.org/1999/02/22-rdf-syntax-ns#"
   xmlns:svg="http://www.w3.org/2000/svg"
   xmlns="http://www.w3.org/2000/svg"
   xmlns:sodipodi="http://sodipodi.sourceforge.net/DTD/sodipodi-0.dtd"
   xmlns:inkscape="http://www.inkscape.org/namespaces/inkscape"
   version="1.1"
   id="Capa_1"
   x="0px"
   y="0px"
   viewBox="0 0 155.123 155.123"
   style="enable-background:new 0 0 155.123 155.123;"
   xml:space="preserve"
   inkscape:version="0.91 r13725"
   sodipodi:docname="thumbs4.svg"><metadata
     id="metadata3399"><rdf:RDF><cc:Work
         rdf:about=""><dc:format>image/svg+xml</dc:format><dc:type
           rdf:resource="http://purl.org/dc/dcmitype/StillImage" /></cc:Work></rdf:RDF></metadata><defs
     id="defs3397"><linearGradient
       inkscape:collect="always"
       id="linearGradient4209"
       osb:paint="gradient"><stop
         style="stop-color:#000000;stop-opacity:1;"
         offset="0"
         id="stop4211" /><stop
         style="stop-color:#000000;stop-opacity:0;"
         offset="1"
         id="stop4213" /></linearGradient></defs><sodipodi:namedview
     pagecolor="#ffffff"
     bordercolor="#666666"
     borderopacity="1"
     objecttolerance="10"
     gridtolerance="10"
     guidetolerance="10"
     inkscape:pageopacity="0"
     inkscape:pageshadow="2"
     inkscape:window-width="1536"
     inkscape:window-height="801"
     id="namedview3395"
     showgrid="false"
     inkscape:zoom="1.5213734"
     inkscape:cx="-21.690928"
     inkscape:cy="77.561501"
     inkscape:window-x="-8"
     inkscape:window-y="-8"
     inkscape:window-maximized="1"
     inkscape:current-layer="Capa_1" /><g
     id="g3359"
     style="fill:#99cc33;fill-opacity:0.94117647;stroke:none;stroke-opacity:1"><g
       id="g3361"
       style="fill:#99cc33;fill-opacity:0.94117647;stroke:none;stroke-opacity:1"><path
         style="fill:#99cc33;fill-opacity:0.94117647;stroke:none;stroke-opacity:1"
         d="M150.669,84.068c7.858-7.823,5.43-23.647-8.181-23.647l-35.813,0.024    c1.36-7.584,3.33-20.156,3.252-21.343c-0.752-11.242-7.918-24.924-8.228-25.484c-1.307-2.434-7.906-5.734-14.547-4.32    c-8.586,1.838-9.463,7.315-9.428,8.825c0,0,0.37,14.983,0.406,18.981c-4.105,9.016-18.259,32.71-22.549,34.536    c-1.026-0.621-2.19-0.955-3.401-0.955H6.934C3.091,70.685,0,73.793,0,77.618l0.006,62.533c0.269,3.371,3.133,6.015,6.516,6.015    h40.64c3.604,0,6.534-2.93,6.534-6.534v-2.076c0,0,1.51-0.113,2.196,0.328c2.613,1.659,5.842,3.747,10.054,3.747h60.647    c22.674,0,20.24-20.126,18.169-22.871c3.831-4.171,6.2-11.528,2.966-17.34C150.21,98.789,154.578,91.557,150.669,84.068z     M45.766,139.62H6.51V77.212h39.256V139.62z M140.09,83.531l-0.37,1.545c10.448,2.971,4.887,15.013-2.608,15.794l-0.37,1.545    c10.018,2.548,5.239,14.947-2.608,15.794l-0.37,1.539c8.181,1.343,6.2,15.305-6.194,15.305l-61.686,0.024    c-4.356,0-8.324-4.964-11.528-4.964H51.56V82.075c3.485-2.16,7.769-4.964,10.15-6.987c4.499-3.837,22.913-33.593,22.913-37.317    s-0.406-19.834-0.406-19.834s3.61-4.654,11.671-1.259c0,0,6.784,12.721,7.476,22.859c0,0-3.055,20.884-4.696,27.436h42.765    C151.94,66.985,149.935,81.986,140.09,83.531z"
         id="path3363" /></g></g><g
     id="g3365" /><g
     id="g3367" /><g
     id="g3369" /><g
     id="g3371" /><g
     id="g3373" /><g
     id="g3375" /><g
     id="g3377" /><g
     id="g3379" /><g
     id="g3381" /><g
     id="g3383" /><g
     id="g3385" /><g
     id="g3387" /><g
     id="g3389" /><g
     id="g3391" /><g
     id="g3393" /></svg>