<?xml version="1.0" encoding="UTF-8" standalone="no"?>
<!-- Generator: Adobe Illustrator 16.0.0, SVG Export Plug-In . SVG Version: 6.00 Build 0)  -->

<svg
   xmlns:dc="http://purl.org/dc/elements/1.1/"
   xmlns:cc="http://creativecommons.org/ns#"
   xmlns:rdf="http://www.w3.org/1999/02/22-rdf-syntax-ns#"
   xmlns:svg="http://www.w3.org/2000/svg"
   xmlns="http://www.w3.org/2000/svg"
   xmlns:sodipodi="http://sodipodi.sourceforge.net/DTD/sodipodi-0.dtd"
   xmlns:inkscape="http://www.inkscape.org/namespaces/inkscape"
   version="1.1"
   id="Capa_1"
   x="0px"
   y="0px"
   width="461.785px"
   height="461.784px"
   viewBox="0 0 461.785 461.784"
   style="enable-background:new 0 0 461.785 461.784;"
   xml:space="preserve"
   inkscape:version="0.91 r13725"
   sodipodi:docname="navigation9.svg"><metadata
     id="metadata4198"><rdf:RDF><cc:Work
         rdf:about=""><dc:format>image/svg+xml</dc:format><dc:type
           rdf:resource="http://purl.org/dc/dcmitype/StillImage" /></cc:Work></rdf:RDF></metadata><defs
     id="defs4196" /><sodipodi:namedview
     pagecolor="#ffffff"
     bordercolor="#666666"
     borderopacity="1"
     objecttolerance="10"
     gridtolerance="10"
     guidetolerance="10"
     inkscape:pageopacity="0"
     inkscape:pageshadow="2"
     inkscape:window-width="961"
     inkscape:window-height="480"
     id="namedview4194"
     showgrid="false"
     inkscape:zoom="0.51106145"
     inkscape:cx="-64.570988"
     inkscape:cy="230.892"
     inkscape:window-x="111"
     inkscape:window-y="160"
     inkscape:window-maximized="0"
     inkscape:current-layer="Capa_1" /><g
     id="g4160"
     style="fill:#99cc33;fill-opacity:1"><path
       d="M50.755,170.975C50.755,76.698,127.451,0,221.73,0c78.046,0,143.88,52.614,164.308,124.2   c-3.735,4.043-6.349,9.17-7.081,14.975l-1.868,14.919l-3.168,16.898l-17.472-0.018c0-74.29-60.444-134.727-134.719-134.727   c-74.295,0-134.736,60.438-134.736,134.727c0,50.392,27.86,94.336,68.935,117.447l-26.347,26.344   C82.248,284.319,50.755,231.306,50.755,170.975z M221.73,63.588c-10.016,0-18.119,8.118-18.119,18.122v89.265   c0,10.004,8.104,18.119,18.119,18.119h102.528c10.013,0,18.122-8.115,18.122-18.119c0-10.013-8.109-18.128-18.122-18.128h-84.405   V81.71C239.853,71.706,231.731,63.588,221.73,63.588z M410.46,143.472c-0.124-4.74-3.883-8.582-8.605-8.825   c-4.527-0.26-8.854,3.201-9.451,7.923l-1.934,15.457l-3.387,18.048c-1.4,6.26-2.843,12.729-5.532,19.763l-4.061,11.881   l-5.757,12.664c-2.058,5.192-5.178,10.42-8.488,15.959c-1.679,2.802-3.375,5.633-4.965,8.529c-1.667,2.252-3.299,4.539-4.918,6.845   c-4.268,6.011-8.287,11.691-13.684,17.348c-4.688,5.852-10.314,11.083-16.248,16.615c-1.75,1.632-3.488,3.251-5.208,4.895   c-1.927,1.466-3.836,2.949-5.722,4.421c-6.312,4.918-12.253,9.552-19.334,13.618c-5.461,3.807-11.703,6.887-17.727,9.848   c-2.518,1.241-5.018,2.471-7.441,3.735c-3.073,1.105-6.064,2.294-9.014,3.476c-5.521,2.205-10.729,4.279-16.249,5.497   l-11.981,3.322l-11.777,2.01c-5.994,1.288-11.266,1.584-16.373,1.891l-9.599,0.733l-1.356-0.035v-42.28   c0-3.658-2.205-6.969-5.595-8.375c-3.399-1.396-7.279-0.627-9.883,1.962L98.21,368.358c-1.696,1.702-2.651,4.008-2.651,6.407   c0,2.4,0.955,4.705,2.651,6.407l77.963,77.964c1.738,1.726,4.055,2.647,6.41,2.647c1.167,0,2.35-0.225,3.473-0.686   c3.39-1.407,5.595-4.717,5.595-8.382v-44.183l16.686-3.056c7.716-1.596,17.324-3.594,26.524-7.005l10.725-3.6l17.78-7.519   c7.495-2.955,14.594-7.104,21.456-11.117c2.932-1.721,5.898-3.452,8.925-5.113c0.331-0.184,0.639-0.385,0.958-0.604   c2.364-1.702,4.764-3.381,7.182-5.064c7.323-5.084,14.883-10.351,21.355-16.433c7.991-6.366,14.972-13.742,21.722-20.883l4.9-5.154   c0.207-0.225,0.414-0.455,0.614-0.703l4.434-5.609c6.035-7.589,12.294-15.462,17.011-23.536c5.296-7.566,9.28-15.451,13.134-23.088   c1.324-2.637,2.648-5.249,3.996-7.803c0.177-0.354,0.349-0.709,0.484-1.075c1.206-3.239,2.494-6.401,3.771-9.505   c2.813-6.88,5.716-13.984,7.353-20.959l4.185-14.866l2.377-13.075c1.896-8.618,2.446-16.506,2.932-23.46l0.875-11.827   L410.46,143.472z"
       id="path4162"
       style="fill:#99cc33;fill-opacity:1" /></g><g
     id="g4164" /><g
     id="g4166" /><g
     id="g4168" /><g
     id="g4170" /><g
     id="g4172" /><g
     id="g4174" /><g
     id="g4176" /><g
     id="g4178" /><g
     id="g4180" /><g
     id="g4182" /><g
     id="g4184" /><g
     id="g4186" /><g
     id="g4188" /><g
     id="g4190" /><g
     id="g4192" /></svg>