<?xml version="1.0" encoding="UTF-8" standalone="no"?>
<!-- Generator: Adobe Illustrator 18.1.1, SVG Export Plug-In . SVG Version: 6.00 Build 0)  -->

<svg
   xmlns:dc="http://purl.org/dc/elements/1.1/"
   xmlns:cc="http://creativecommons.org/ns#"
   xmlns:rdf="http://www.w3.org/1999/02/22-rdf-syntax-ns#"
   xmlns:svg="http://www.w3.org/2000/svg"
   xmlns="http://www.w3.org/2000/svg"
   xmlns:sodipodi="http://sodipodi.sourceforge.net/DTD/sodipodi-0.dtd"
   xmlns:inkscape="http://www.inkscape.org/namespaces/inkscape"
   version="1.1"
   id="Capa_1"
   x="0px"
   y="0px"
   viewBox="0 0 155.129 155.129"
   style="enable-background:new 0 0 155.129 155.129;"
   xml:space="preserve"
   inkscape:version="0.91 r13725"
   sodipodi:docname="like6.svg"><metadata
     id="metadata3377"><rdf:RDF><cc:Work
         rdf:about=""><dc:format>image/svg+xml</dc:format><dc:type
           rdf:resource="http://purl.org/dc/dcmitype/StillImage" /></cc:Work></rdf:RDF></metadata><defs
     id="defs3375" /><sodipodi:namedview
     pagecolor="#ffffff"
     bordercolor="#666666"
     borderopacity="1"
     objecttolerance="10"
     gridtolerance="10"
     guidetolerance="10"
     inkscape:pageopacity="0"
     inkscape:pageshadow="2"
     inkscape:window-width="1536"
     inkscape:window-height="801"
     id="namedview3373"
     showgrid="false"
     inkscape:zoom="4.0740288"
     inkscape:cx="25.159371"
     inkscape:cy="77.564499"
     inkscape:window-x="-8"
     inkscape:window-y="-8"
     inkscape:window-maximized="1"
     inkscape:current-layer="Capa_1" /><g
     id="g3337"><g
       id="g3339"><path
         style="fill:#99cc0f;stroke:#99cc33;stroke-opacity:0.94117647;fill-opacity:0.94117647"
         d="M4.454,71.061c-7.858,7.829-5.43,23.653,8.181,23.653l35.813-0.024    c-1.36,7.584-3.33,20.156-3.252,21.338c0.752,11.248,7.924,24.93,8.228,25.485c1.307,2.434,7.906,5.734,14.553,4.32    c8.586-1.838,9.463-7.315,9.428-8.825c0,0-0.376-14.983-0.406-18.981c4.099-9.022,18.253-32.71,22.555-34.536    c1.026,0.621,2.184,0.949,3.395,0.949h45.247c3.843,0,6.934-3.109,6.934-6.934l-0.006-62.533    c-0.269-3.371-3.127-6.015-6.516-6.015h-40.634c-3.604,0-6.54,2.93-6.54,6.534v2.076c0,0-1.51,0.107-2.196-0.328    c-2.608-1.659-5.842-3.747-10.054-3.747H28.542c-22.674,0-20.234,20.126-18.169,22.871c-3.831,4.171-6.2,11.528-2.966,17.34    C4.913,56.34,0.545,63.572,4.454,71.061z M109.357,15.509h39.256v62.407h-39.256C109.357,77.917,109.357,15.509,109.357,15.509z     M15.027,71.598l0.37-1.545c-10.448-2.971-4.887-15.007,2.602-15.794l0.37-1.545C8.35,50.165,13.13,37.766,20.976,36.918    l0.364-1.539c-8.181-1.343-6.2-15.305,6.194-15.305l61.685-0.024c4.356,0,8.324,4.964,11.534,4.964h2.793v48.033    c-3.485,2.166-7.763,4.964-10.15,6.993c-4.499,3.837-22.913,33.593-22.913,37.317c0,3.723,0.412,19.834,0.412,19.834    s-3.616,4.648-11.671,1.259c0,0-6.784-12.727-7.476-22.859c0,0,3.049-20.884,4.696-27.442H13.678    C3.183,88.144,5.188,73.137,15.027,71.598z"
         id="path3341" /></g></g><g
     id="g3343"
     style="stroke:#99cc33;stroke-opacity:0.94117647;fill:#99cc0f;fill-opacity:0.94117647" /><g
     id="g3345"
     style="stroke:#99cc33;stroke-opacity:0.94117647;fill:#99cc0f;fill-opacity:0.94117647" /><g
     id="g3347"
     style="stroke:#99cc33;stroke-opacity:0.94117647;fill:#99cc0f;fill-opacity:0.94117647" /><g
     id="g3349"
     style="stroke:#99cc33;stroke-opacity:0.94117647;fill:#99cc0f;fill-opacity:0.94117647" /><g
     id="g3351"
     style="stroke:#99cc33;stroke-opacity:0.94117647;fill:#99cc0f;fill-opacity:0.94117647" /><g
     id="g3353"
     style="stroke:#99cc33;stroke-opacity:0.94117647;fill:#99cc0f;fill-opacity:0.94117647" /><g
     id="g3355"
     style="stroke:#99cc33;stroke-opacity:0.94117647;fill:#99cc0f;fill-opacity:0.94117647" /><g
     id="g3357"
     style="stroke:#99cc33;stroke-opacity:0.94117647;fill:#99cc0f;fill-opacity:0.94117647" /><g
     id="g3359"
     style="stroke:#99cc33;stroke-opacity:0.94117647;fill:#99cc0f;fill-opacity:0.94117647" /><g
     id="g3361"
     style="stroke:#99cc33;stroke-opacity:0.94117647;fill:#99cc0f;fill-opacity:0.94117647" /><g
     id="g3363"
     style="stroke:#99cc33;stroke-opacity:0.94117647;fill:#99cc0f;fill-opacity:0.94117647" /><g
     id="g3365"
     style="stroke:#99cc33;stroke-opacity:0.94117647;fill:#99cc0f;fill-opacity:0.94117647" /><g
     id="g3367"
     style="stroke:#99cc33;stroke-opacity:0.94117647;fill:#99cc0f;fill-opacity:0.94117647" /><g
     id="g3369"
     style="stroke:#99cc33;stroke-opacity:0.94117647;fill:#99cc0f;fill-opacity:0.94117647" /><g
     id="g3371"
     style="stroke:#99cc33;stroke-opacity:0.94117647;fill:#99cc0f;fill-opacity:0.94117647" /></svg>