<?xml version="1.0" encoding="UTF-8" standalone="no"?>
<!-- Generator: Adobe Illustrator 16.0.0, SVG Export Plug-In . SVG Version: 6.00 Build 0)  -->

<svg
   xmlns:dc="http://purl.org/dc/elements/1.1/"
   xmlns:cc="http://creativecommons.org/ns#"
   xmlns:rdf="http://www.w3.org/1999/02/22-rdf-syntax-ns#"
   xmlns:svg="http://www.w3.org/2000/svg"
   xmlns="http://www.w3.org/2000/svg"
   xmlns:sodipodi="http://sodipodi.sourceforge.net/DTD/sodipodi-0.dtd"
   xmlns:inkscape="http://www.inkscape.org/namespaces/inkscape"
   version="1.1"
   id="Capa_1"
   x="0px"
   y="0px"
   width="80"
   height="80"
   viewBox="0 0 79.999999 80"
   xml:space="preserve"
   inkscape:version="0.48.2 r9819"
   sodipodi:docname="pencil5.svg"><metadata
   id="metadata16341"><rdf:RDF><cc:Work
       rdf:about=""><dc:format>image/svg+xml</dc:format><dc:type
         rdf:resource="http://purl.org/dc/dcmitype/StillImage" /></cc:Work></rdf:RDF></metadata><defs
   id="defs16339" /><sodipodi:namedview
   pagecolor="#ffffff"
   bordercolor="#666666"
   borderopacity="1"
   objecttolerance="10"
   gridtolerance="10"
   guidetolerance="10"
   inkscape:pageopacity="0"
   inkscape:pageshadow="2"
   inkscape:window-width="708"
   inkscape:window-height="480"
   id="namedview16337"
   showgrid="false"
   inkscape:zoom="3.025641"
   inkscape:cx="38.9995"
   inkscape:cy="39"
   inkscape:window-x="0"
   inkscape:window-y="0"
   inkscape:window-maximized="0"
   inkscape:current-layer="Capa_1" />
<g
   id="g16303"
   style="fill:#99cc33;fill-opacity:1"
   transform="translate(0.5999995,1.4)">
	<path
   d="M 71.807,6.191 C 64.592,-1.025 59.178,0.058 59.178,0.058 L 33.918,25.317 5.049,54.185 0,78 23.812,72.949 52.681,44.08 77.941,18.823 c 0,0.001 1.084,-5.414 -6.134,-12.632 z M 22.395,70.086 14.278,71.834 C 13.493,70.367 12.551,68.902 10.823,67.175 9.096,65.448 7.63,64.506 6.165,63.719 l 1.75,-8.116 2.346,-2.348 c 0,0 4.418,0.088 9.404,5.078 4.988,4.987 5.078,9.407 5.078,9.407 l -2.348,2.346 z"
   id="path16305"
   style="fill:#99cc33;fill-opacity:1"
   inkscape:connector-curvature="0" />
</g>
<g
   id="g16307"
   style="fill:#99cc33;fill-opacity:1"
   transform="translate(0,2)">
</g>
<g
   id="g16309"
   style="fill:#99cc33;fill-opacity:1"
   transform="translate(0,2)">
</g>
<g
   id="g16311"
   style="fill:#99cc33;fill-opacity:1"
   transform="translate(0,2)">
</g>
<g
   id="g16313"
   style="fill:#99cc33;fill-opacity:1"
   transform="translate(0,2)">
</g>
<g
   id="g16315"
   style="fill:#99cc33;fill-opacity:1"
   transform="translate(0,2)">
</g>
<g
   id="g16317"
   style="fill:#99cc33;fill-opacity:1"
   transform="translate(0,2)">
</g>
<g
   id="g16319"
   style="fill:#99cc33;fill-opacity:1"
   transform="translate(0,2)">
</g>
<g
   id="g16321"
   style="fill:#99cc33;fill-opacity:1"
   transform="translate(0,2)">
</g>
<g
   id="g16323"
   style="fill:#99cc33;fill-opacity:1"
   transform="translate(0,2)">
</g>
<g
   id="g16325"
   style="fill:#99cc33;fill-opacity:1"
   transform="translate(0,2)">
</g>
<g
   id="g16327"
   style="fill:#99cc33;fill-opacity:1"
   transform="translate(0,2)">
</g>
<g
   id="g16329"
   style="fill:#99cc33;fill-opacity:1"
   transform="translate(0,2)">
</g>
<g
   id="g16331"
   style="fill:#99cc33;fill-opacity:1"
   transform="translate(0,2)">
</g>
<g
   id="g16333"
   style="fill:#99cc33;fill-opacity:1"
   transform="translate(0,2)">
</g>
<g
   id="g16335"
   style="fill:#99cc33;fill-opacity:1"
   transform="translate(0,2)">
</g>
</svg>