<?xml version="1.0" encoding="UTF-8" standalone="no"?>
<!-- Generator: Adobe Illustrator 16.0.0, SVG Export Plug-In . SVG Version: 6.00 Build 0)  -->

<svg
   xmlns:dc="http://purl.org/dc/elements/1.1/"
   xmlns:cc="http://creativecommons.org/ns#"
   xmlns:rdf="http://www.w3.org/1999/02/22-rdf-syntax-ns#"
   xmlns:svg="http://www.w3.org/2000/svg"
   xmlns="http://www.w3.org/2000/svg"
   xmlns:sodipodi="http://sodipodi.sourceforge.net/DTD/sodipodi-0.dtd"
   xmlns:inkscape="http://www.inkscape.org/namespaces/inkscape"
   version="1.1"
   id="Capa_1"
   x="0px"
   y="0px"
   width="96"
   height="96"
   viewBox="0 0 95.999999 96"
   xml:space="preserve"
   inkscape:version="0.48.2 r9819"
   sodipodi:docname="small23.svg"><metadata
   id="metadata18103"><rdf:RDF><cc:Work
       rdf:about=""><dc:format>image/svg+xml</dc:format><dc:type
         rdf:resource="http://purl.org/dc/dcmitype/StillImage" /></cc:Work></rdf:RDF></metadata><defs
   id="defs18101" /><sodipodi:namedview
   pagecolor="#ffffff"
   bordercolor="#666666"
   borderopacity="1"
   objecttolerance="10"
   gridtolerance="10"
   guidetolerance="10"
   inkscape:pageopacity="0"
   inkscape:pageshadow="2"
   inkscape:window-width="708"
   inkscape:window-height="480"
   id="namedview18099"
   showgrid="false"
   inkscape:zoom="2.5106383"
   inkscape:cx="47.9995"
   inkscape:cy="47"
   inkscape:window-x="0"
   inkscape:window-y="0"
   inkscape:window-maximized="0"
   inkscape:current-layer="Capa_1" />
<path
   d="m 11.815,66.112086 c -7.569,7.44 -1.176,15.079 -11.235,26.403 -4.54,5.113 18.69,3.554 30.199,-7.76 4.882,-4.798 3.505,-11.793 -1.731,-16.941 -5.236,-5.148 -12.352,-6.5 -17.233,-1.702 z M 95.701,1.5930853 c -3.886,-3.817 -46.895,30.6470007 -59.699,43.2350007 -6.354,6.246 -8.476,9.595 -10.424,12.1 -0.847,1.087 0.272,1.424 0.776,1.681 2.517,1.281 4.277,2.475 6.553,4.712 2.277,2.237 3.492,3.968 4.795,6.441 0.261,0.496 0.604,1.597 1.708,0.766 2.55,-1.915 5.955,-4.001 12.309,-10.248 12.805,-12.588 47.864,-54.8690007 43.982,-58.6870007 z"
   id="path18067"
   style="fill:#99cc33;fill-opacity:1"
   inkscape:connector-curvature="0" />
<g
   id="g18069"
   style="fill:#99cc33;fill-opacity:1"
   transform="translate(0,1.3000853)">
</g>
<g
   id="g18071"
   style="fill:#99cc33;fill-opacity:1"
   transform="translate(0,1.3000853)">
</g>
<g
   id="g18073"
   style="fill:#99cc33;fill-opacity:1"
   transform="translate(0,1.3000853)">
</g>
<g
   id="g18075"
   style="fill:#99cc33;fill-opacity:1"
   transform="translate(0,1.3000853)">
</g>
<g
   id="g18077"
   style="fill:#99cc33;fill-opacity:1"
   transform="translate(0,1.3000853)">
</g>
<g
   id="g18079"
   style="fill:#99cc33;fill-opacity:1"
   transform="translate(0,1.3000853)">
</g>
<g
   id="g18081"
   style="fill:#99cc33;fill-opacity:1"
   transform="translate(0,1.3000853)">
</g>
<g
   id="g18083"
   style="fill:#99cc33;fill-opacity:1"
   transform="translate(0,1.3000853)">
</g>
<g
   id="g18085"
   style="fill:#99cc33;fill-opacity:1"
   transform="translate(0,1.3000853)">
</g>
<g
   id="g18087"
   style="fill:#99cc33;fill-opacity:1"
   transform="translate(0,1.3000853)">
</g>
<g
   id="g18089"
   style="fill:#99cc33;fill-opacity:1"
   transform="translate(0,1.3000853)">
</g>
<g
   id="g18091"
   style="fill:#99cc33;fill-opacity:1"
   transform="translate(0,1.3000853)">
</g>
<g
   id="g18093"
   style="fill:#99cc33;fill-opacity:1"
   transform="translate(0,1.3000853)">
</g>
<g
   id="g18095"
   style="fill:#99cc33;fill-opacity:1"
   transform="translate(0,1.3000853)">
</g>
<g
   id="g18097"
   style="fill:#99cc33;fill-opacity:1"
   transform="translate(0,1.3000853)">
</g>
</svg>