<?xml version="1.0" encoding="UTF-8" standalone="no"?>
<!-- Generator: Adobe Illustrator 16.0.0, SVG Export Plug-In . SVG Version: 6.00 Build 0)  -->

<svg
   xmlns:dc="http://purl.org/dc/elements/1.1/"
   xmlns:cc="http://creativecommons.org/ns#"
   xmlns:rdf="http://www.w3.org/1999/02/22-rdf-syntax-ns#"
   xmlns:svg="http://www.w3.org/2000/svg"
   xmlns="http://www.w3.org/2000/svg"
   xmlns:sodipodi="http://sodipodi.sourceforge.net/DTD/sodipodi-0.dtd"
   xmlns:inkscape="http://www.inkscape.org/namespaces/inkscape"
   version="1.1"
   id="Capa_1"
   x="0px"
   y="0px"
   width="90"
   height="90"
   viewBox="0 0 90 90.000001"
   xml:space="preserve"
   inkscape:version="0.48.2 r9819"
   sodipodi:docname="small18.svg"><metadata
   id="metadata16931"><rdf:RDF><cc:Work
       rdf:about=""><dc:format>image/svg+xml</dc:format><dc:type
         rdf:resource="http://purl.org/dc/dcmitype/StillImage" /></cc:Work></rdf:RDF></metadata><defs
   id="defs16929" /><sodipodi:namedview
   pagecolor="#ffffff"
   bordercolor="#666666"
   borderopacity="1"
   objecttolerance="10"
   gridtolerance="10"
   guidetolerance="10"
   inkscape:pageopacity="0"
   inkscape:pageshadow="2"
   inkscape:window-width="708"
   inkscape:window-height="480"
   id="namedview16927"
   showgrid="false"
   inkscape:zoom="2.6661847"
   inkscape:cx="40"
   inkscape:cy="44.257999"
   inkscape:window-x="0"
   inkscape:window-y="0"
   inkscape:window-maximized="0"
   inkscape:current-layer="Capa_1" />
<g
   id="g16893"
   style="fill:#99cc33;fill-opacity:1"
   transform="translate(5.6001056,1.2843358)">
	<path
   d="M 63.254,36.822 C 51.852,12.287 45.926,2.97 27.295,3.355 20.66,3.492 22.254,-1.45 17.195,0.425 12.14,2.301 16.478,5.045 11.306,9.288 -3.207,21.2 -1.869,32.221 4.861,58.487 7.699,69.549 -1.975,70.092 1.853,80.817 4.646,88.636 25.246,91.91 46.98,83.845 68.714,75.782 82.433,59.775 79.64,51.956 75.811,41.231 68.059,47.152 63.254,36.822 z M 44.621,77.238 C 25.211,84.44 9.258,80.203 8.584,78.321 7.422,75.073 14.85,64.24 37.041,56.005 59.234,47.771 71.617,50.824 72.912,54.452 73.678,56.594 64.033,70.036 44.621,77.238 z M 38.383,59.764 c -10.148,3.766 -17.201,8.073 -21.764,11.951 3.211,2.918 9.23,3.63 15.23,1.404 7.637,-2.833 12.326,-9.337 10.471,-14.526 -0.021,-0.063 -0.055,-0.119 -0.078,-0.181 -1.252,0.414 -2.537,0.862 -3.859,1.352 z"
   id="path16895"
   style="fill:#99cc33;fill-opacity:1"
   inkscape:connector-curvature="0" />
</g>
<g
   id="g16897"
   style="fill:#99cc33;fill-opacity:1"
   transform="translate(5.6001056,1.2843358)">
</g>
<g
   id="g16899"
   style="fill:#99cc33;fill-opacity:1"
   transform="translate(5.6001056,1.2843358)">
</g>
<g
   id="g16901"
   style="fill:#99cc33;fill-opacity:1"
   transform="translate(5.6001056,1.2843358)">
</g>
<g
   id="g16903"
   style="fill:#99cc33;fill-opacity:1"
   transform="translate(5.6001056,1.2843358)">
</g>
<g
   id="g16905"
   style="fill:#99cc33;fill-opacity:1"
   transform="translate(5.6001056,1.2843358)">
</g>
<g
   id="g16907"
   style="fill:#99cc33;fill-opacity:1"
   transform="translate(5.6001056,1.2843358)">
</g>
<g
   id="g16909"
   style="fill:#99cc33;fill-opacity:1"
   transform="translate(5.6001056,1.2843358)">
</g>
<g
   id="g16911"
   style="fill:#99cc33;fill-opacity:1"
   transform="translate(5.6001056,1.2843358)">
</g>
<g
   id="g16913"
   style="fill:#99cc33;fill-opacity:1"
   transform="translate(5.6001056,1.2843358)">
</g>
<g
   id="g16915"
   style="fill:#99cc33;fill-opacity:1"
   transform="translate(5.6001056,1.2843358)">
</g>
<g
   id="g16917"
   style="fill:#99cc33;fill-opacity:1"
   transform="translate(5.6001056,1.2843358)">
</g>
<g
   id="g16919"
   style="fill:#99cc33;fill-opacity:1"
   transform="translate(5.6001056,1.2843358)">
</g>
<g
   id="g16921"
   style="fill:#99cc33;fill-opacity:1"
   transform="translate(5.6001056,1.2843358)">
</g>
<g
   id="g16923"
   style="fill:#99cc33;fill-opacity:1"
   transform="translate(5.6001056,1.2843358)">
</g>
<g
   id="g16925"
   style="fill:#99cc33;fill-opacity:1"
   transform="translate(5.6001056,1.2843358)">
</g>
</svg>