<?xml version="1.0" encoding="UTF-8" standalone="no"?>
<!-- Generator: Adobe Illustrator 16.0.0, SVG Export Plug-In . SVG Version: 6.00 Build 0)  -->

<svg
   xmlns:dc="http://purl.org/dc/elements/1.1/"
   xmlns:cc="http://creativecommons.org/ns#"
   xmlns:rdf="http://www.w3.org/1999/02/22-rdf-syntax-ns#"
   xmlns:svg="http://www.w3.org/2000/svg"
   xmlns="http://www.w3.org/2000/svg"
   xmlns:sodipodi="http://sodipodi.sourceforge.net/DTD/sodipodi-0.dtd"
   xmlns:inkscape="http://www.inkscape.org/namespaces/inkscape"
   version="1.1"
   id="Capa_1"
   x="0px"
   y="0px"
   width="97"
   height="97"
   viewBox="0 0 97 97"
   xml:space="preserve"
   inkscape:version="0.48.2 r9819"
   sodipodi:docname="small21.svg"><metadata
   id="metadata17517"><rdf:RDF><cc:Work
       rdf:about=""><dc:format>image/svg+xml</dc:format><dc:type
         rdf:resource="http://purl.org/dc/dcmitype/StillImage" /></cc:Work></rdf:RDF></metadata><defs
   id="defs17515" /><sodipodi:namedview
   pagecolor="#ffffff"
   bordercolor="#666666"
   borderopacity="1"
   objecttolerance="10"
   gridtolerance="10"
   guidetolerance="10"
   inkscape:pageopacity="0"
   inkscape:pageshadow="2"
   inkscape:window-width="708"
   inkscape:window-height="480"
   id="namedview17513"
   showgrid="false"
   inkscape:zoom="2.4396043"
   inkscape:cx="35"
   inkscape:cy="48.3685"
   inkscape:window-x="0"
   inkscape:window-y="0"
   inkscape:window-maximized="0"
   inkscape:current-layer="Capa_1" />
<path
   d="m 81.543946,24.345 -44.994,-23.1919995 c -6.162,-3.247 -18.314,3.026 -21.805,8.546 C 13.185947,12.165 13.301946,13.948 13.301946,14.955 l 0.555,52.373 c 0.037,1.111 1.438,2.612 2.637,3.348 2.496,1.531 40.297,25.131 41.369,25.799 0.576,0.358 1.256,0.525 1.928,0.525 0.572,0 1.146,-0.127 1.666,-0.385 1.136,-0.558 1.843,-1.642 1.843,-2.82 V 38.786 c 0,-1.145 -0.668,-2.203 -1.756,-2.775 l -40.896,-22.83 c 0.463,-0.899 2.283,-2.801 5.627,-4.5519995 3.523,-1.845 6.162,-1.148 6.768,-0.914 0,0 39.248,21.0039995 40.449,21.6289995 1.195,0.624 1.219,0.718 1.219,1.786 0,1.067 0,52.2 0,52.2 0,2.604 2.645,3.67 4.584,3.67 1.938,0 4.006,-1.9 4.006,-3.67 V 27.121 c -10e-4,-1.145 -0.673,-2.204 -1.757,-2.776 z"
   id="path17481"
   style="fill:#99cc33;fill-opacity:1"
   inkscape:connector-curvature="0" />
<g
   id="g17483"
   style="fill:#99cc33;fill-opacity:1"
   transform="translate(0,0.26300049)">
</g>
<g
   id="g17485"
   style="fill:#99cc33;fill-opacity:1"
   transform="translate(0,0.26300049)">
</g>
<g
   id="g17487"
   style="fill:#99cc33;fill-opacity:1"
   transform="translate(0,0.26300049)">
</g>
<g
   id="g17489"
   style="fill:#99cc33;fill-opacity:1"
   transform="translate(0,0.26300049)">
</g>
<g
   id="g17491"
   style="fill:#99cc33;fill-opacity:1"
   transform="translate(0,0.26300049)">
</g>
<g
   id="g17493"
   style="fill:#99cc33;fill-opacity:1"
   transform="translate(0,0.26300049)">
</g>
<g
   id="g17495"
   style="fill:#99cc33;fill-opacity:1"
   transform="translate(0,0.26300049)">
</g>
<g
   id="g17497"
   style="fill:#99cc33;fill-opacity:1"
   transform="translate(0,0.26300049)">
</g>
<g
   id="g17499"
   style="fill:#99cc33;fill-opacity:1"
   transform="translate(0,0.26300049)">
</g>
<g
   id="g17501"
   style="fill:#99cc33;fill-opacity:1"
   transform="translate(0,0.26300049)">
</g>
<g
   id="g17503"
   style="fill:#99cc33;fill-opacity:1"
   transform="translate(0,0.26300049)">
</g>
<g
   id="g17505"
   style="fill:#99cc33;fill-opacity:1"
   transform="translate(0,0.26300049)">
</g>
<g
   id="g17507"
   style="fill:#99cc33;fill-opacity:1"
   transform="translate(0,0.26300049)">
</g>
<g
   id="g17509"
   style="fill:#99cc33;fill-opacity:1"
   transform="translate(0,0.26300049)">
</g>
<g
   id="g17511"
   style="fill:#99cc33;fill-opacity:1"
   transform="translate(0,0.26300049)">
</g>
</svg>