<?xml version="1.0" encoding="UTF-8" standalone="no"?>
<!-- Generator: Adobe Illustrator 16.0.0, SVG Export Plug-In . SVG Version: 6.00 Build 0)  -->

<svg
   xmlns:dc="http://purl.org/dc/elements/1.1/"
   xmlns:cc="http://creativecommons.org/ns#"
   xmlns:rdf="http://www.w3.org/1999/02/22-rdf-syntax-ns#"
   xmlns:svg="http://www.w3.org/2000/svg"
   xmlns="http://www.w3.org/2000/svg"
   xmlns:sodipodi="http://sodipodi.sourceforge.net/DTD/sodipodi-0.dtd"
   xmlns:inkscape="http://www.inkscape.org/namespaces/inkscape"
   version="1.1"
   id="Capa_1"
   x="0px"
   y="0px"
   width="90"
   height="90"
   viewBox="0 0 90 90"
   xml:space="preserve"
   inkscape:version="0.48.2 r9819"
   sodipodi:docname="small36.svg"><metadata
   id="metadata14689"><rdf:RDF><cc:Work
       rdf:about=""><dc:format>image/svg+xml</dc:format><dc:type
         rdf:resource="http://purl.org/dc/dcmitype/StillImage" /></cc:Work></rdf:RDF></metadata><defs
   id="defs14687" /><sodipodi:namedview
   pagecolor="#ffffff"
   bordercolor="#666666"
   borderopacity="1"
   objecttolerance="10"
   gridtolerance="10"
   guidetolerance="10"
   inkscape:pageopacity="0"
   inkscape:pageshadow="2"
   inkscape:window-width="708"
   inkscape:window-height="480"
   id="namedview14685"
   showgrid="false"
   inkscape:zoom="2.6222222"
   inkscape:cx="43"
   inkscape:cy="45"
   inkscape:window-x="0"
   inkscape:window-y="0"
   inkscape:window-maximized="0"
   inkscape:current-layer="Capa_1" />
<path
   d="m 80.714328,30.146 c -7.918,-18.421 -20.658,-32.452 -27.105,-29.83 -10.947,4.449 6.521,25.817 -47.2350005,47.668 -4.643,1.887 -5.81999997,9.441 -3.8769999,13.957 1.9389999,4.515 8.2909994,9.01 12.9360004,7.123 0.803,-0.326 3.754,-1.275 3.754,-1.275 3.316,4.45 6.787,1.811 8.018,4.639 1.479,3.398 4.697,10.785 5.789,13.298 1.096,2.511 3.576,4.837 5.377,4.153 1.795,-0.684 7.91,-3.011 10.25,-3.901 2.338,-0.89 2.896,-2.974 2.182,-4.619 -0.771,-1.772 -3.932,-2.292 -4.832,-4.36 -0.902,-2.068 -3.848,-8.696 -4.695,-10.785 -1.152,-2.841 1.295,-5.152 4.85,-5.522 24.467,-2.55 29.041,12.561 37.371,9.173 6.446,-2.622 5.133,-21.297 -2.783,-39.719 z m -2.756,29.884 c -1.432,0.582 -11.061,-7.013 -17.215,-21.334 -6.152,-14.318 -5.379,-27.408 -3.949,-27.989 1.43,-0.582 10.822,8.58 16.975,22.898 6.152,14.318 5.621,25.843 4.189,26.425 z"
   id="path14653"
   style="fill:#99cc33;fill-opacity:1"
   inkscape:connector-curvature="0" />
<g
   id="g14655"
   style="fill:#99cc33;fill-opacity:1"
   transform="translate(1.6003275,0)">
</g>
<g
   id="g14657"
   style="fill:#99cc33;fill-opacity:1"
   transform="translate(1.6003275,0)">
</g>
<g
   id="g14659"
   style="fill:#99cc33;fill-opacity:1"
   transform="translate(1.6003275,0)">
</g>
<g
   id="g14661"
   style="fill:#99cc33;fill-opacity:1"
   transform="translate(1.6003275,0)">
</g>
<g
   id="g14663"
   style="fill:#99cc33;fill-opacity:1"
   transform="translate(1.6003275,0)">
</g>
<g
   id="g14665"
   style="fill:#99cc33;fill-opacity:1"
   transform="translate(1.6003275,0)">
</g>
<g
   id="g14667"
   style="fill:#99cc33;fill-opacity:1"
   transform="translate(1.6003275,0)">
</g>
<g
   id="g14669"
   style="fill:#99cc33;fill-opacity:1"
   transform="translate(1.6003275,0)">
</g>
<g
   id="g14671"
   style="fill:#99cc33;fill-opacity:1"
   transform="translate(1.6003275,0)">
</g>
<g
   id="g14673"
   style="fill:#99cc33;fill-opacity:1"
   transform="translate(1.6003275,0)">
</g>
<g
   id="g14675"
   style="fill:#99cc33;fill-opacity:1"
   transform="translate(1.6003275,0)">
</g>
<g
   id="g14677"
   style="fill:#99cc33;fill-opacity:1"
   transform="translate(1.6003275,0)">
</g>
<g
   id="g14679"
   style="fill:#99cc33;fill-opacity:1"
   transform="translate(1.6003275,0)">
</g>
<g
   id="g14681"
   style="fill:#99cc33;fill-opacity:1"
   transform="translate(1.6003275,0)">
</g>
<g
   id="g14683"
   style="fill:#99cc33;fill-opacity:1"
   transform="translate(1.6003275,0)">
</g>
</svg>