<?xml version="1.0" encoding="UTF-8" standalone="no"?>
<!-- Generator: Adobe Illustrator 18.1.1, SVG Export Plug-In . SVG Version: 6.00 Build 0)  -->

<svg
   xmlns:dc="http://purl.org/dc/elements/1.1/"
   xmlns:cc="http://creativecommons.org/ns#"
   xmlns:rdf="http://www.w3.org/1999/02/22-rdf-syntax-ns#"
   xmlns:svg="http://www.w3.org/2000/svg"
   xmlns="http://www.w3.org/2000/svg"
   xmlns:sodipodi="http://sodipodi.sourceforge.net/DTD/sodipodi-0.dtd"
   xmlns:inkscape="http://www.inkscape.org/namespaces/inkscape"
   version="1.1"
   id="Capa_1"
   x="0px"
   y="0px"
   viewBox="0 0 28 28"
   style="enable-background:new 0 0 28 28;"
   xml:space="preserve"
   inkscape:version="0.48.2 r9819"
   width="100%"
   height="100%"
   sodipodi:docname="social20.svg"><metadata
   id="metadata3105"><rdf:RDF><cc:Work
       rdf:about=""><dc:format>image/svg+xml</dc:format><dc:type
         rdf:resource="http://purl.org/dc/dcmitype/StillImage" /></cc:Work></rdf:RDF></metadata><defs
   id="defs3103" /><sodipodi:namedview
   pagecolor="#ffffff"
   bordercolor="#666666"
   borderopacity="1"
   objecttolerance="10"
   gridtolerance="10"
   guidetolerance="10"
   inkscape:pageopacity="0"
   inkscape:pageshadow="2"
   inkscape:window-width="640"
   inkscape:window-height="480"
   id="namedview3101"
   showgrid="false"
   inkscape:zoom="8.4285714"
   inkscape:cx="14"
   inkscape:cy="14"
   inkscape:window-x="518"
   inkscape:window-y="122"
   inkscape:window-maximized="0"
   inkscape:current-layer="Capa_1" />
<g
   id="g3055"
   style="fill:#99cc33;fill-opacity:1">
	<g
   id="g3057"
   style="fill:#99cc33;fill-opacity:1">
		<path
   style="fill:#99cc33;fill-opacity:1"
   d="M6,18C6,16,6,8,6,8s0.005-0.45,0.239-1C4.16,7,2,7,2,7S0,7,0,9v7c0,2,2,2,2,2v10h6v-8    C8,20,6,20,6,18z"
   id="path3059" />
		<path
   style="fill:#99cc33;fill-opacity:1"
   d="M6,6c0.52,0,1.001-0.144,1.427-0.376c0.059-0.036,0.125-0.068,0.188-0.103C8.446,4.988,9,4.061,9,3    c0-1.657-1.343-3-3-3S3,1.343,3,3S4.343,6,6,6z"
   id="path3061" />
		<path
   style="fill:#99cc33;fill-opacity:1"
   d="M26,7h-4.238C21.995,7.55,22,8,22,8s0,8,0,10s-2,2-2,2v8h6V18c0,0,2,0,2-2s0-7,0-7S28,7,26,7z"
   id="path3063" />
		<path
   style="fill:#99cc33;fill-opacity:1"
   d="M20.38,5.519c0.065,0.035,0.134,0.068,0.194,0.105C21,5.856,21.48,6,22,6c1.657,0,3-1.343,3-3    s-1.343-3-3-3s-3,1.343-3,3C19,4.059,19.552,4.985,20.38,5.519z"
   id="path3065" />
		<circle
   style="fill:#99cc33;fill-opacity:1"
   cx="14"
   cy="3"
   r="3"
   id="circle3067" />
		<path
   style="fill:#99cc33;fill-opacity:1"
   d="M20,9c0,0,0-2-2-2c-0.5,0-8,0-8,0S8,7,8,9v7c0,2,2,2,2,2v10h8V18c0,0,2,0,2-2S20,9,20,9z"
   id="path3069" />
	</g>
</g>
<g
   id="g3071">
</g>
<g
   id="g3073">
</g>
<g
   id="g3075">
</g>
<g
   id="g3077">
</g>
<g
   id="g3079">
</g>
<g
   id="g3081">
</g>
<g
   id="g3083">
</g>
<g
   id="g3085">
</g>
<g
   id="g3087">
</g>
<g
   id="g3089">
</g>
<g
   id="g3091">
</g>
<g
   id="g3093">
</g>
<g
   id="g3095">
</g>
<g
   id="g3097">
</g>
<g
   id="g3099">
</g>
</svg>