<?xml version="1.0" encoding="UTF-8" standalone="no"?>
<!-- Generator: Adobe Illustrator 16.0.0, SVG Export Plug-In . SVG Version: 6.00 Build 0)  -->

<svg
   xmlns:dc="http://purl.org/dc/elements/1.1/"
   xmlns:cc="http://creativecommons.org/ns#"
   xmlns:rdf="http://www.w3.org/1999/02/22-rdf-syntax-ns#"
   xmlns:svg="http://www.w3.org/2000/svg"
   xmlns="http://www.w3.org/2000/svg"
   xmlns:sodipodi="http://sodipodi.sourceforge.net/DTD/sodipodi-0.dtd"
   xmlns:inkscape="http://www.inkscape.org/namespaces/inkscape"
   version="1.1"
   id="Capa_1"
   x="0px"
   y="0px"
   width="438.94px"
   height="438.94px"
   viewBox="0 0 438.94 438.94"
   style="enable-background:new 0 0 438.94 438.94;"
   xml:space="preserve"
   inkscape:version="0.48.2 r9819"
   sodipodi:docname="wizard2.svg"><metadata
   id="metadata4574"><rdf:RDF><cc:Work
       rdf:about=""><dc:format>image/svg+xml</dc:format><dc:type
         rdf:resource="http://purl.org/dc/dcmitype/StillImage" /></cc:Work></rdf:RDF></metadata><defs
   id="defs4572">
	
</defs><sodipodi:namedview
   pagecolor="#ffffff"
   bordercolor="#666666"
   borderopacity="1"
   objecttolerance="10"
   gridtolerance="10"
   guidetolerance="10"
   inkscape:pageopacity="0"
   inkscape:pageshadow="2"
   inkscape:window-width="640"
   inkscape:window-height="480"
   id="namedview4570"
   showgrid="false"
   inkscape:zoom="0.5376589"
   inkscape:cx="219.47"
   inkscape:cy="219.47"
   inkscape:window-x="0"
   inkscape:window-y="0"
   inkscape:window-maximized="0"
   inkscape:current-layer="Capa_1" />
<g
   id="g4513"
   style="fill:#99cc33;fill-opacity:1">
		<g
   id="Layer_5_56_"
   style="fill:#99cc33;fill-opacity:1">
			<g
   id="g4516"
   style="fill:#99cc33;fill-opacity:1">
				<g
   id="g4518"
   style="fill:#99cc33;fill-opacity:1">
					<g
   id="g4520"
   style="fill:#99cc33;fill-opacity:1">
						<path
   inkscape:connector-curvature="0"
   id="path4522"
   d="m 264.407,48.53 c 4.334,-3.385 7.922,-1.652 7.972,3.848 l 0.562,64.615 c 0.046,5.5 3.815,12.518 8.373,15.597 l 53.548,36.167 c 4.56,3.078 4.021,7.025 -1.194,8.77 l -61.276,20.504 c -5.218,1.744 -10.729,7.498 -12.246,12.783 l -17.851,62.104 c -1.521,5.286 -5.439,5.993 -8.711,1.571 l -38.438,-51.942 c -3.271,-4.421 -10.445,-7.885 -15.942,-7.695 l -64.579,2.217 c -5.498,0.188 -7.381,-3.322 -4.188,-7.799 l 37.523,-52.607 c 3.194,-4.478 4.27,-12.371 2.393,-17.541 L 128.29,78.39 c -1.879,-5.169 0.877,-8.045 6.122,-6.393 l 61.626,19.431 c 5.246,1.654 13.087,0.239 17.421,-3.145 L 264.407,48.53 z"
   style="fill:#99cc33;fill-opacity:1" />
						<path
   inkscape:connector-curvature="0"
   id="path4524"
   d="m 280.698,4.524 c 1.922,-3.979 6.703,-5.647 10.685,-3.727 l 0,0 c 3.979,1.92 5.646,6.703 3.727,10.682 l -7.827,16.211 c -1.92,3.979 -6.702,5.647 -10.682,3.728 l 0,0 c -3.979,-1.92 -5.647,-6.703 -3.727,-10.682 l 7.824,-16.212 z"
   style="fill:#99cc33;fill-opacity:1" />
					</g>
					<g
   id="g4526"
   style="fill:#99cc33;fill-opacity:1">
						<path
   inkscape:connector-curvature="0"
   id="path4528"
   d="m 93.899,168.534 c -4.294,1.042 -8.618,-1.589 -9.665,-5.884 l 0,0 c -1.042,-4.293 1.59,-8.62 5.882,-9.664 l 17.492,-4.253 c 4.293,-1.045 8.621,1.588 9.664,5.881 l 0,0 c 1.043,4.294 -1.589,8.62 -5.883,9.665 l -17.49,4.255 z"
   style="fill:#99cc33;fill-opacity:1" />
						<path
   inkscape:connector-curvature="0"
   id="path4530"
   d="m 149.993,29.229 c -2.031,-3.925 -0.499,-8.75 3.424,-10.783 l 0,0 c 3.925,-2.031 8.751,-0.5 10.784,3.422 l 8.279,15.986 c 2.03,3.922 0.499,8.75 -3.423,10.781 l 0,0 c -3.924,2.032 -8.752,0.5 -10.784,-3.424 l -8.28,-15.982 z"
   style="fill:#99cc33;fill-opacity:1" />
					</g>
					<g
   id="g4532"
   style="fill:#99cc33;fill-opacity:1">
						<path
   inkscape:connector-curvature="0"
   id="path4534"
   d="m 286.278,261.398 c 1.854,4.011 6.604,5.76 10.618,3.907 l 0,0 c 4.01,-1.854 5.763,-6.606 3.908,-10.616 l -7.552,-16.343 c -1.854,-4.011 -6.604,-5.762 -10.615,-3.907 l 0,0 c -4.011,1.854 -5.761,6.605 -3.908,10.616 l 7.549,16.343 z"
   style="fill:#99cc33;fill-opacity:1" />
						<path
   inkscape:connector-curvature="0"
   id="path4536"
   d="m 360.459,130.824 c 4.335,-0.851 7.16,-5.053 6.312,-9.389 l 0,0 c -0.852,-4.336 -5.053,-7.164 -9.389,-6.314 l -17.665,3.462 c -4.337,0.849 -7.163,5.051 -6.314,9.386 l 0,0 c 0.853,4.336 5.054,7.164 9.392,6.313 l 17.664,-3.458 z"
   style="fill:#99cc33;fill-opacity:1" />
					</g>
				</g>
				<path
   inkscape:connector-curvature="0"
   id="path4538"
   d="m 99.487,434.422 c -1.912,3.963 -6.72,5.641 -10.682,3.728 l -12.269,-5.923 c -3.962,-1.911 -5.64,-6.719 -3.727,-10.682 l 89.863,-186.162 c 1.913,-3.963 6.721,-5.641 10.683,-3.728 l 12.27,5.922 c 3.961,1.912 5.64,6.72 3.727,10.683 L 99.487,434.422 z"
   style="fill:#99cc33;fill-opacity:1" />
			</g>
		</g>
	</g>
<g
   id="g4540">
</g>
<g
   id="g4542">
</g>
<g
   id="g4544">
</g>
<g
   id="g4546">
</g>
<g
   id="g4548">
</g>
<g
   id="g4550">
</g>
<g
   id="g4552">
</g>
<g
   id="g4554">
</g>
<g
   id="g4556">
</g>
<g
   id="g4558">
</g>
<g
   id="g4560">
</g>
<g
   id="g4562">
</g>
<g
   id="g4564">
</g>
<g
   id="g4566">
</g>
<g
   id="g4568">
</g>
</svg>