/* XPM */
static char *noname[] = {
/* width height ncolors chars_per_pixel */
"68 200 33 1",
/* colors */
"  c #000000",
". c #F7CECE",
"X c #DE6363",
"o c #EFA5A5",
"O c #CE1818",
"+ c #FFEFEF",
"@ c #F7C6C6",
"# c #D63939",
"$ c #E77B7B",
"% c #CE1010",
"& c #EFBDBD",
"* c #FFE7E7",
"= c #DE5A5A",
"- c #EF9C9C",
"; c #D65252",
": c #E79494",
"> c #D63131",
", c #E77373",
"< c #CE2929",
"1 c #CE0808",
"2 c #C60000",
"3 c #F7DEDE",
"4 c #EFB5B5",
"5 c #D64A4A",
"6 c #E78C8C",
"7 c #CE2121",
"8 c #FFFFFF",
"9 c #F7D6D6",
"0 c #DE6B6B",
"q c #EFADAD",
"w c #D64242",
"e c #E78484",
"r c #FFF7F7",
/* pixels */
"                                                       2222222222222",
"22222222222222222222222222222222222222222222222222222222222222222222",
"                                                                    ",
"22222222222222222222222222222222222222222222222222222222222222222222",
"                                                                    ",
"22222222222222222222222222222222222222222222222222222222222222222222",
"                                                                    ",
"22222222222222222222222222222222222222222222222222222222222222222222",
"                                                                    ",
"22222222228888888888888888888888888888888888888888888888882222222222",
"          888888888888888888888888888888888888888888888888          ",
"22222222228822222222222222222222222222222222222222222222882222222222",
"          882222222222222222222222222222222222222222222288          ",
"22222222228822222222222222222222222222222222222222222222882222222222",
"          882222222222222222222222222222222222222222222288          ",
"22222222228822222222222222222222222222222222222222222222882222222222",
"          882222222222222222222222222222222222222222222288          ",
"22222222228822222222222222222222222222222222222222222222882222222222",
"          882222222++++++++++++++++++++++++++++++222222288          ",
"2222222222882222222++++++++++++++++++++++++++++++2222222882222222222",
"          882222222++222222222222-2222222222222++222222288          ",
"2222222222882222222++22222222222242222222222222++2222222882222222222",
"          882222222++222222222221&e222222222222++222222288          ",
"2222222222882222222++22222222222qr6222222222222++2222222882222222222",
"          882222222++222222222222-w222222222222++222222288          ",
"2222222222882222222++222222222222:X222222222222++2222222882222222222",
"          882222222++222222222222ee222222222222++222222288          ",
"2222222222882222222++2222222222220o222222222222++2222222882222222222",
"          882222222++22222222222O,9222222222222++222222288          ",
"2222222222882222222++22222222222;0+222222222222++2222222882222222222",
"          882222222++22222222222$;8722222222222++222222288          ",
"2222222222882222222++222222222224<+Xw1222222222++2222222882222222222",
"          882222222++22222222222*<+885222222222++222222288          ",
"2222222222882222222++222222222278r8+#2222222222++2222222882222222222",
"          882222222++222222222%&rq&q72222222222++222222288          ",
"2222222222882222222++22222222209620oe7222222222++2222222882222222222",
"          882222222++22222222223=%:r8+222222222++222222288          ",
"2222222222882222222++222222222<8:+88*X222222222++2222222882222222222",
"          882222222++222222221o8r&0o$o222222222++222222288          ",
"2222222222882222222++2222222>48:%22wo.<22222222++2222222882222222222",
"          882222222++22222222w8<2222.0q22222222++222222288          ",
"2222222222882222222++22222222o92o+&O;:452222222++2222222882222222222",
"          882222222++2222222Or6=*-+374=&O222222++222222288          ",
"2222222222882222222++2222222$87@7273:%&:$222222++2222222882222222222",
"          882222222++2222221*&O6222#>2%6O222222++222222288       2  ",
"2222222222882222222++222222=8511222222222222222++2222222882222222222",
"          882222222++++++++++++++++++++++++++++++222222288       2  ",
"2222222222882222222++++++++++++++++++++++++++++++2222222882222222222",
"          882222222222222222222222222222222222222222222288      22  ",
"22222222228822222222222222222222222222222222222222222222882222222222",
"          882222222222222222222222222222222222222222222288      222 ",
"22222222228822222222222222222222222222222222222222222222882222222222",
"          882222222222222222222222222222222222222222222288      222 ",
"22222222228822222222222222222222222222222222222222222222882222222222",
"          882222222222222222222222222222222222222222222288     2222 ",
"22222222228888888888888888888888888888888888888888888888882222222222",
"          888888888888888888888888888888888888888888888888     2222 ",
"22222222222222222222222222222222222222222222222222222222222222222222",
"                                                              22222 ",
"22222222222222222222222222222222222222222222222222222222222222222222",
"                                                              22222 ",
"22222222222222222222222222222222222222222222222222222222222222222222",
"                                                              22222 ",
"22222222222222222222222222222222222222222222222222222222222222222222",
"                                                             222222 ",
"22222222222222222222222222222222222222222222222222222222222222222222",
"                                                             222222 ",
"22222222222222222222222222222222222222222222222222222222222222222222",
"                                                             222222 ",
"22222222222222222222222222222222222222222222222222222222222222222222",
"                                                            2222222 ",
"22222222222222222222222222222222222222222222222222222222222222222222",
"                                                            2222222 ",
"22222222222222222222222222222222222222222222222222222222222222222222",
"                                                           22222222 ",
"22222222222222222222222222222222222222222222222222222222222222222222",
"                                                           22222222 ",
"22222222222222222222222222222222222222222222222222222222222222222222",
"                                                          222222222 ",
"22222222222222222222222222222222222222222222222222222222222222222222",
"                                                          222222222 ",
"22222222222222222222222222222222222222222222222222222222222222222222",
"                                                          222222222 ",
"22222222222222222222222222222222222222222222222222222222222222222222",
"                                                          222222222 ",
"22222222222222222222222222222222222222222222222222222222222222222222",
"                                                         2222222222 ",
"22222222222222222222222222222222222222222222222222222222222222222222",
"                                                         222222222  ",
"22222222222222222222222222222222222222222222222222222222222222222222",
"                                                        2222222222  ",
"22222222222222222222222222222222222222222222222222222222222222222222",
"                                                        2222222222  ",
"22222222222222222222222222222222222222222222222222222222222222222222",
"                                                       22222222222  ",
"22222222222222222222222222222222222222222222222222222222222222222222",
"                                                       22222222222  ",
"22222222222222222222222222222222222222222222222222222222222222222222",
"                                                      22222222222   ",
"22222222222222222222222222222222222222222222222222222222222222222222",
"                                                      22222222222   ",
"22222222222222222222222222222222222222222222222222222222222222222222",
"                                                      22222222222222",
"22222222222222222222222222222222222222222222222222222222222222222222",
"                                                     222222222222222",
"22222222222222222222222222222222222222222222222222222222222222222222",
"                                                     222222222222222",
"22222222222222222222222222222222222222222222222222222222222222222222",
"                                                    2222222222222222",
"22222222222222222222222222222222222222222222222222222222222222222222",
"                                                    2222222222222222",
"22222222222222222222222222222222222222222222222222222222222222222222",
"                                                  222222222222222222",
"22222222222222222222222222222222222222222222222222222222222222222222",
"                                                22222222222222222222",
"22222222222222222222222222222222222222222222222222222222222222222222",
"                                             22222222222222222222222",
"22222222222222222222222222222222222222222222222222222222222222222222",
"                                           2222222222222222222222222",
"22222222222222222222222222222222222222222222222222222222222222222222",
"                                         2222222222222222222222222  ",
"22222222222222222222222222222222222222222222222222222222222222222222",
"                                       2222222222222222222222       ",
"22222222222222222222222222222222222222222222222222222222222222222222",
"                                     222222222222222222222222       ",
"22222222222222222222222222222222222222222222222222222222222222222222",
"                                   22222222222222222222222222       ",
"22222222222222222222222222222222222222222222222222222222222222222222",
"                                  222222222     222222222222        ",
"22222222222222222222222222222222222222222222222222222222222222222222",
"                                               2222222222222        ",
"22222222222222222222222222222222222222222222222222222222222222222222",
"                                              2222222222222         ",
"22222222222222222222222222222222222222222222222222222222222222222222",
"                                              222222222222          ",
"22222222222222222222222222222222222222222222222222222222222222222222",
"                                             2222222222222          ",
"22222222222222222222222222222222222222222222222222222222222222222222",
"                                             2222222222222          ",
"22222222222222222222222222222222222222222222222222222222222222222222",
"                                            22222222222222          ",
"22222222222222222222222222222222222222222222222222222222222222222222",
"                                            2222222222222           ",
"22222222222222222222222222222222222222222222222222222222222222222222",
"                                           22222222222222           ",
"22222222222222222222222222222222222222222222222222222222222222222222",
"                                           2222222222222         222",
"22222222222222222222222222222222222222222222222222222222222222222222",
"                                          2222222222222     22222222",
"22222222222222222222222222222222222222222222222222222222222222222222",
"                                         22222222222222 222222222222",
"22222222222222222222222222222222222222222222222222222222222222222222",
"                                         222222222222222222222222222",
"22222222222222222222222222222222222222222222222222222222222222222222",
"                                        2222222222222222222222222222",
"22222222222222222222222222222222222222222222222222222222222222222222",
"                                       22222222222222222222222222222",
"22222222222222222222222222222222222222222222222222222222222222222222",
"                                       22222222222222222222222222222",
"22222222222222222222222222222222222222222222222222222222222222222222",
"                                     2222222222222222222222222222222",
"22222222222222222222222222222222222222222222222222222222222222222222",
"                                  2222222222222222222222222222222222",
"22222222222222222222222222222222222222222222222222222222222222222222",
"                               222222222222222222222222222222222222 ",
"22222222222222222222222222222222222222222222222222222222222222222222",
"                           222222222222222222222222222222222        ",
"22222222222222222222222222222222222222222222222222222222222222222222",
"                       222222222222222222222222222222               ",
"22222222222222222222222222222222222222222222222222222222222222222222",
"                    22222222222222222222222222222                   ",
"22222222222222222222222222222222222222222222222222222222222222222222",
"                  222222222222222222222222222222                    ",
"22222222222222222222222222222222222222222222222222222222222222222222",
"                 22222222222     222222222222222                    ",
"22222222222222222222222222222222222222222222222222222222222222222222",
"                  222           222222222222222                     ",
"22222222222222222222222222222222222222222222222222222222222222222222",
"                               222222222222222                      ",
"22222222222222222222222222222222222222222222222222222222222222222222",
"                               222222222222222                      ",
"22222222222222222222222222222222222222222222222222222222222222222222",
"                              222222222222222                       ",
"22222222222222222222222222222222222222222222222222222222222222222222",
"                             2222222222222222                       ",
"22222222222222222222222222222222222222222222222222222222222222222222",
"                            2222222222222222                        ",
"22222222222222222222222222222222222222222222222222222222222222222222",
"                           2222222222222222                    22222",
"22222222222222222222222222222222222222222222222222222222222222222222",
"                           2222222222222222                 22222222",
"22222222222222222222222222222222222222222222222222222222222222222222",
"                          2222222222222222                2222222222",
"22222222222222222222222222222222222222222222222222222222222222222222",
"                         2222222222222222               222222222222",
"22222222222222222222222222222222222222222222222222222222222222222222",
"                        22222222222222222              2222222222222",
"22222222222222222222222222222222222222222222222222222222222222222222",
"                       22222222222222222             222222222222222",
"22222222222222222222222222222222222222222222222222222222222222222222"
};
