/* XPM */
static char *classdot[] = {
/* width height num_colors chars_per_pixel */
"    16    16        4            1",
/* colors */
". c #c0c0c0",
"# c #ff00ff",
"a c #ffffff",
"b c #000000",
/* pixels */
"................",
"................",
"......aaaaa.....",
"....aa#####aa...",
"...a#########a..",
"..a###########b.",
".aa#####aa####bb",
".a######aa#####b",
".b############bb",
"..b###########b.",
"...b########bb..",
"....bb#####bb...",
"......bbbbb.....",
"................",
"................",
"................"
};
SIMPLE  =                    T                                                  BITPIX  =                    8                                                  NAXIS   =                    2                                                  NAXIS1  =                   16                                                  NAXIS2  =                   16                                                  HISTORY Written by XV 3.10a                                                     END                                                                                                                                                                                                                                                                                                                                                                                                                                                                                                                                                                                                                                                                                                                                                                                                                                                                                                                                                                                                                                                                                                                                                                                                                                                                                                                                                                                                                                                                                                                                                                                                                                                                                                                                                                                                                                                                                                                                                                                                                                                                                                                                                                                                                                                                                                                                                                                                                                                                                             응응응응응응응응응응응응응응응응응응응응응응응응응응응
