/* XPM */
static char *noname[] = {
/* width height ncolors chars_per_pixel */
"16 16 20 1",
/* colors */
"  c #928D92",
". c #D6D3CE",
"X c #C639B5",
"o c #CA50B8",
"O c #C78DBA",
"+ c #C7C7D4",
"@ c #A7A6A7",
"# c #98878B",
"$ c #F5C6ED",
"% c #CE64BD",
"& c #EDB4E5",
"* c #C5BABD",
"= c #CFAECA",
"- c #E596D8",
"; c #989899",
": c #E7A8DD",
"> c #DA8ACD",
", c #B391AD",
"< c #D770CA",
"1 c #B7B7B7",
/* pixels */
"................",
"................",
"................",
"...1  ,,,,,1....",
".. ,&&::-><<O*..",
".#:$$&&:-><<%%=.",
";=&$$&&:-><<%oo+",
",:&&&&&--><<%oX=",
",-:&&&-->><<%oX>",
",--:----><<%%XX=",
"@>>-->>><<<%oXo+",
".@>>>>><<<%ooo+.",
"..@O<<<<<%o%O+..",
"....1,OOOO=.....",
"................",
"................"
};
