/* XPM */
static char *noname[] = {
/* width height ncolors chars_per_pixel */
"16 16 4 1",
/* colors */
"` c #000000",
"a c #C0C0C0",
"b c #FF0000",
"c c #808080",
/* pixels */
"`aaaaaaaaaaaaaa`",
"``aaaaaaaaaaa``a",
"a``a```````a``aa",
"aa``ccccccc``aaa",
"aaa`````````caaa",
"aa`c```bbb``c`aa",
"aa`c``b`````c`aa",
"aa`c``b`````c`aa",
"aa`cc``bb```c`aa",
"aa`cc````b``c`aa",
"aa`cc`bbb```c`aa",
"aaac````````caaa",
"aa``ccccccc``aaa",
"a``a```````a``aa",
"``aaaaaaaaaaa``a",
"`aaaaaaaaaaaaa``"
};
