/* XPM */
static char *noname[] = {
/* width height ncolors chars_per_pixel */
"16 16 16 1",
/* colors */
"  c #000000",
". c #928D92",
"X c #282829",
"o c #434343",
"O c #E8E8E8",
"+ c #312F31",
"@ c #DADADA",
"# c #C0C0C0",
"$ c #C7C7D4",
"% c #17171A",
"& c #EDEDF2",
"* c #181823",
"= c #FFFFFF",
"- c #FBFBFB",
"; c #989899",
": c #0000FF",
/* pixels */
"#####.;;;;;;;;.o",
"#####;=======-&o",
"#####  :::::::&o",
"####  =  ====-&o",
"### = = = ::::&+",
"### = = =  =-&&+",
"### = = = = ::OX",
"### = = = = &O@*",
"  # = = = = ::@%",
".=  = = = = @@@%",
" == ======= ::$%",
"# ========= @$$%",
"# ========= %%% ",
"## ======== ####",
"### ====== #####",
"###        #####"
};
