/* XPM */
static char *noname[] = {
/* width height ncolors chars_per_pixel */
"16 16 13 1",
/* colors */
"  c #928D92",
". c #282829",
"X c #434343",
"o c #E8E8E8",
"O c #0000C1",
"+ c #DADADA",
"@ c #C7C7D4",
"# c #FF0000",
"$ c #EDEDF2",
"% c #808080",
"& c #FBFBFB",
"* c #9598FD",
"= c #989899",
/* pixels */
" ==============X",
"=&&&&$$$$oooo++X",
"=&###$********+X",
"=$$$$$********+X",
"=&&$$$$$$oooo++X",
"=$###$********+X",
"=$$$$$OO%*****+X",
"=$$$$OO%%oo++++X",
"OO%$OO%%******+X",
"%OOOO%%*******+X",
"=%OOO%ooo++++++X",
"=%OOOO********+X",
"=OO%%OO*******+X",
"OO%%++OO++++++@X",
"OO%++++O+++++@@X",
"O%.............."
};
