/* XPM */
static char *noname[] = {
/* width height ncolors chars_per_pixel */
"16 16 3 1",
/* colors */
"` c #000000",
"a c #00FFFF",
"b c #FFFFFF",
/* pixels */
"```````bbbb`````",
"``````bbbbbb````",
"````````bb``````",
"````````bb``````",
"````````aa``````",
"````````aa``````",
"``````aaaaaa````",
"``````aaaaaa````",
"````````aa``````",
"````````aa``````",
"````````bb``````",
"````````bb``````",
"``````bbbbbb````",
"```````bbbb`````",
"````````bb``````",
"````````````````"
};
