/* XPM */
static char *noname[] = {
/* width height ncolors chars_per_pixel */
"16 16 2 1",
/* colors */
"` c #000000",
"a c #00FFFF",
/* pixels */
"`aaaaaaaaaaaaaaa",
"`aaaaaaaaaaaaaaa",
"``aa``````````aa",
"```aa`````````aa",
"````aa````````aa",
"``````a```````aa",
"``````````````aa",
"``````````````aa",
"``````a```````aa",
"`````a````````aa",
"```aa`````````aa",
"``aa``````````aa",
"`aaaaaaaaaaaaaaa",
"`aaaaaaaaaaaaaaa",
"````````````````",
"````````````````"
};
