/* XPM */
static char *noname[] = {
/* width height ncolors chars_per_pixel */
"16 16 53 1",
/* colors */
"  c #9A9BD6",
". c #9797EA",
"X c #646465",
"o c #928D92",
"O c #8C8CC1",
"+ c #D6D3CE",
"@ c #818181",
"# c #6C6C73",
"$ c #353540",
"% c #7A7AC9",
"& c #282829",
"* c #000051",
"= c #7677E9",
"- c #434343",
"; c #0000D5",
": c #E8E8E8",
"> c #0000C1",
", c #312F31",
"< c #DADADA",
"1 c #00009C",
"2 c #C7C7D4",
"3 c #17171A",
"4 c #757576",
"5 c #A7A6A7",
"6 c #000063",
"7 c #9A9AC5",
"8 c #555556",
"9 c #494AFD",
"0 c #0000E7",
"q c #8888DE",
"w c #808080",
"e c #807E80",
"r c #0000FE",
"t c #02022C",
"y c #151538",
"u c #000080",
"i c #8585E8",
"p c #0000AB",
"a c #353536",
"s c #181823",
"d c #FFFFFF",
"f c #FBFBFB",
"g c #1A1AFC",
"h c #0000B4",
"j c #B3A7A7",
"k c #5A63FF",
"l c #989899",
"z c #605F62",
"x c #A0A0A4",
"c c #06061A",
"v c #05053A",
"b c #B7B7B7",
"n c #0000FF",
/* pixels */
"++++++++++++++++",
"++++5zaccaz5++++",
"+++o3t>00;uto+++",
"++o-<8urnnn0vo++",
"+53<dfl7.kgn0sb+",
"+4v$:<o88oqgr6e+",
"+$>poo&33,l9nh-+",
"+30r 83333Xin0s+",
"+s0n.8333sXOr;s+",
"+-hnko,3s$5wup-+",
"+46ngql##5:f8c@+",
"+js;ng9=%#:d<&b+",
"++xy;rnnrp$2al++",
"+++xs*1;;1t3l+++",
"++++bo8&&8ob++++",
"++++++++++++++++"
};
