/* XPM */
static char *noname[] = {
/* width height ncolors chars_per_pixel */
"16 16 3 1",
/* colors */
"` c #000000",
"a c #C0C0C0",
"b c #FF0000",
/* pixels */
"aaaaaaaaaaaaaaaa",
"aaaaaaaaaaaaaaaa",
"aabbabbabba`aaaa",
"aabbabbabba``aaa",
"aabbabbabba```aa",
"aabbabbabba````a",
"a```````````````",
"a```````````````",
"aabbabbabba````a",
"aabbabbabba```aa",
"aabbabbabba``aaa",
"aabbabbabba`aaaa",
"aaaaaaaaaaaaaaaa",
"aaaaaaaaaaaaaaaa",
"aaaaaaaaaaaaaaaa",
"aaaaaaaaaaaaaaaa"
};
