/* XPM */
static char *noname[] = {
/* width height ncolors chars_per_pixel */
"16 16 3 1",
/* colors */
"` c #000000",
"a c #C0C0C0",
"b c #0000FF",
/* pixels */
"aaaaaaaaaaaaaaaa",
"aaaabbaaaaaaaaaa",
"aaaabbaaaaaaaaaa",
"aaaabbaaaaaaaaaa",
"abbbbbbbbaaa`aaa",
"abbbbbbbbaa```aa",
"aaaabbaaaa`````a",
"aaaabbaaa```````",
"aaaabbaaaaa```aa",
"aaaaaaaaaaa```aa",
"aaaaaaaaaaa```aa",
"aaaaa`````````aa",
"aaaaa`````````aa",
"aaaaaaaaaaaaaaaa",
"aaaaaaaaaaaaaaaa",
"aaaaaaaaaaaaaaaa"
};
