/* XPM */
static char *noname[] = {
/* width height ncolors chars_per_pixel */
"16 16 4 1",
/* colors */
"  c #000000",
". c #D6D3CE",
"X c #FF0000",
"o c #FFFF00",
/* pixels */
"................",
"................",
"................",
"................",
"....  ..XX.XX.XX",
".... o .XX.XX.XX",
"     oo XX.XX.XX",
" ooooooo X.XX.XX",
" ooooooo X.XX.XX",
"     oo XX.XX.XX",
".... o .XX.XX.XX",
"....  ..XX.XX.XX",
"................",
"................",
"................",
"................"
};
