/* XPM */
static char *noname[] = {
/* width height ncolors chars_per_pixel */
"16 16 3 1",
/* colors */
"` c #000000",
"a c #C0C0C0",
"b c #FF0000",
/* pixels */
"aaaaaaaaaaaaaaaa",
"aaaaaaaaaaaaaaaa",
"aaaaaaaaaaaaaaaa",
"aaaaaaaaabbabbab",
"aaaaa`aaabbabbab",
"aaaaa``aabbabbab",
"a```````abbabbab",
"a```````abbabbab",
"aaaaa``aabbabbab",
"aaaaa`aaabbabbab",
"aaaaaaaaabbabbab",
"aaaaaaaaaaaaaaaa",
"aaaaaaaaaaaaaaaa",
"aaaaaaaaaaaaaaaa",
"aaaaaaaaaaaaaaaa",
"aaaaaaaaaaaaaaaa"
};
