/* XPM */
static char *noname[] = {
/* width height ncolors chars_per_pixel */
"16 16 4 1",
/* colors */
"  c #000000",
". c #FDFE9B",
"X c #D6D3CE",
"o c #808080",
/* pixels */
"XXXXXXXXXXXXXXXX",
"XX           XXX",
"X ........... XX",
"X ........... oX",
"X ........... oX",
"X ........... oX",
"X ........... oX",
"X ........... oX",
"X ........... oX",
"X ........... oX",
"X ........... oX",
"XX       ..  oXX",
"XXXoooooo . oXXX",
"XXXXXXXXX   oXXX",
"XXXXXXXXXX  oXXX",
"XXXXXXXXXXX oXXX"
};
