/* XPM */
static char *noname[] = {
/* width height ncolors chars_per_pixel */
"16 16 64 1",
/* colors */
"  c #000000",
". c #BF0000",
"X c #D97972",
"o c #5F5F00",
"O c #B97952",
"+ c #D6D3CE",
"@ c #79D912",
"# c #D6D61B",
"$ c #BC3C09",
"% c #7F7F7F",
"& c #79B912",
"* c #00005F",
"= c #D6B61B",
"- c #ECECB8",
"; c #6F6F6F",
": c #3C3C29",
"> c #797912",
", c #9C9C09",
"< c #00BF00",
"1 c #F97912",
"2 c #BCBC88",
"3 c #3F3F3F",
"4 c #00007F",
"5 c #009F00",
"6 c #3F3F00",
"7 c #D6B63B",
"8 c #FC3CC8",
"9 c #3C3C88",
"0 c #B6D61B",
"q c #DC3CA8",
"w c #9C9C68",
"e c #1F1F1F",
"r c #4F4F30",
"t c #7C7C09",
"y c #797952",
"u c #FF00FF",
"i c #FF0000",
"p c #1F1F00",
"a c #909090",
"s c #DF00DF",
"d c #3F3F7F",
"f c #0000BF",
"g c #BF00BF",
"h c #7C7C29",
"j c #FC3C09",
"k c #3C3CC8",
"l c #B9B912",
"z c #797972",
"x c #9F009F",
"c c #B6B65B",
"v c #606060",
"b c #5E5E5E",
"n c #DF0000",
"m c #00001F",
"M c #F9F992",
"N c #7C7C49",
"B c #3CDC09",
"V c #303030",
"C c #6C6C39",
"Z c #F3F325",
"A c #3C9C09",
"S c #F6B61B",
"D c #999912",
"F c #0000FF",
/* pixels */
"++ab%%%Ca+++++++",
"+a2MZZZZta+++++a",
"+%ZZ8uuXZ6+++++ ",
"v-ZZquus7lv+++;3",
"vMZZZOgx7Z6++a V",
"%ZB<@ZZZZZ#ra%a+",
"%0<<<&ZZZ#lDdv++",
"%055AZZZ#em43ha+",
"%ZZZ1SZZlm4*>Z6+",
";ZZji.ZZZtm:ZZlv",
"vZZnii$ZZZZZZZlv",
"+NZ=.$=ckFzZZZlv",
"+a2ZZZZFFFFyZZoa",
"++awZZZ9ffyZZ,r+",
"+++ap>lllllt6v++",
"++++++vvvvva++++"
};
