/* XPM */
static char *noname[] = {
/* width height ncolors chars_per_pixel */
"20 20 12 1",
/* colors */
"  c #000000",
". c #777777",
"X c #5F5F5F",
"o c #4D4D4D",
"O c #F8F8F8",
"+ c #EAEAEA",
"@ c #D6D6D6",
"# c #C0C0C0",
"$ c #969696",
"% c #868686",
"& c #E3E3E3",
"* c #D7D7D7",
/* pixels */
"@@@@@@@@@@@@@@@@@%@@",
"@@@@@@@%%%%%%@@@%O.@",
"@@@@@%%*OXOO*%%%Oo @",
"@@@%%*OOOXOOO*%Oo  @",
"@@%*XOOOOOOO+%Oo   @",
"@%*OOXOOOOO+%&o    @",
"@%OOOOOOOO+%&o     @",
"%*OOOOOOO+%&o   XXX ",
"%OOOOOOO+%&o  X.... ",
"%XXXOOO++$o X.$$    ",
"%OOOOO++**$$$$$$$$X ",
"%OOO++*****#$$$$$$X ",
"%$*+++o***#### $$$. ",
"@%$##o**####### $o @",
"@%*%%####o###$$ooX @",
"@@ **..##o$$$oo.. @@",
"@@@  **%%XXoo$$  @@@",
"@@@@@  #$$$$$  @@@@@",
"@@@@@@@      @@@@@@@",
"@@@@@@@@@@@@@@@@@@@@"
};
