/* XPM */
static char *noname[] = {
/* width height ncolors chars_per_pixel */
"20 20 15 1",
/* colors */
"  c #A5A5A5",
". c #7B7B7B",
"X c #6B6B6B",
"o c #313131",
"O c #DEDEDE",
"+ c #D6D6D6",
"@ c #CECECE",
"# c #C6C6C6",
"$ c #9C9C9C",
"% c #848484",
"& c #525252",
"* c #FFFFFF",
"= c #F7F7F7",
"- c #E7E7E7",
"; c #B5B5B5",
/* pixels */
"+*++*++*++++++++++++",
"++*+*+*+++++++++++++",
"+++***%%%%%%%%%$++++",
"***************$&+++",
"+++************$#&++",
"++*+*%**----***$=;&+",
"+*++*%**$$$$$**ooooo",
"+&&&*&&&&&&&--*-#XX&",
"+&*********& $**-$X&",
"+&*** % -**&---**-$&",
"+&*-&&&&.-*&$$$$**+&",
"+&* &&&&&;*&----**O&",
"+&*;&&&&&@*&$$$$**+&",
"+&*-.&&& **&----**O&",
"+&**=@;+=**&$$$$**+&",
"+&*********&----**O&",
"+&&&&&&&&&&& $$$**+&",
"+++++%**--------**+&",
"+++++%************O&",
"+++++%&&&&&&&&&&&&&&"
};
