/* XPM */
static char * icotool_xpm[] = {
/* width height ncolors chars_per_pixel */
"66 20 257 2",
/* colors */
"   	c #D6D6D6",
" .	c #000000",
" +	c #181818",
" @	c #313131",
" #	c #000063",
" $	c #525252",
" %	c #5a5a5a",
" &	c #636363",
" *	c #737373",
" =	c #00319c",
" -	c #0042ce",
" ;	c #0073ef",
" >	c #00a5bd",
" ,	c #0084ff",
" '	c #0094ff",
" )	c #00adef",
" !	c #00b5ff",
" ~	c #00c6ff",
" {	c #00ceff",
" ]	c #31ffff",
" ^	c #848484",
" /	c #9c9c9c",
" (	c #b5b5b5",
" :	c #bdbdbd",
" <	c #84a5ef",
" [	c #9cceff",
" }	c #c6c6c6",
" |	c #cecece",
" 1	c #d6d6d6",
" 2	c #dedede",
" 3	c #ceffff",
" 4	c #e7e7d6",
" 5	c #efefef",
" 6	c #fffff7",
" 7	c #000000",
" 8	c #ffffff",
" 9	c #000000",
" 0	c #000000",
" a	c #000000",
" b	c #000000",
" c	c #000000",
" d	c #000000",
" e	c #000000",
" f	c #000000",
" g	c #000000",
" h	c #000000",
" i	c #000000",
" j	c #000000",
" k	c #000000",
" l	c #000000",
" m	c #000000",
" n	c #000000",
" o	c #000000",
" p	c #000000",
" q	c #000000",
" r	c #000000",
" s	c #000000",
" t	c #000000",
" u	c #000000",
" v	c #000000",
" w	c #000000",
" x	c #000000",
" y	c #000000",
" z	c #000000",
" A	c #000000",
" B	c #000000",
" C	c #000000",
" D	c #000000",
" E	c #000000",
" F	c #000000",
" G	c #000000",
" H	c #000000",
" I	c #000000",
" J	c #000000",
" K	c #000000",
" L	c #000000",
" M	c #000000",
" N	c #000000",
" O	c #000000",
" P	c #000000",
" Q	c #000000",
" R	c #000000",
" S	c #000000",
" T	c #000000",
" U	c #000000",
" V	c #000000",
" W	c #000000",
" X	c #000000",
" Y	c #000000",
" Z	c #000000",
" `	c #000000",
". 	c #000000",
"..	c #000000",
".+	c #000000",
".@	c #000000",
".#	c #000000",
".$	c #000000",
".%	c #000000",
".&	c #000000",
".*	c #000000",
".=	c #000000",
".-	c #000000",
".;	c #000000",
".>	c #000000",
".,	c #000000",
".'	c #000000",
".)	c #000000",
".!	c #000000",
".~	c #000000",
".{	c #000000",
".]	c #000000",
".^	c #000000",
"./	c #000000",
".(	c #000000",
".:	c #000000",
".<	c #000000",
".[	c #000000",
".}	c #000000",
".|	c #000000",
".1	c #000000",
".2	c #000000",
".3	c #000000",
".4	c #000000",
".5	c #000000",
".6	c #000000",
".7	c #000000",
".8	c #000000",
".9	c #000000",
".0	c #000000",
".a	c #000000",
".b	c #000000",
".c	c #000000",
".d	c #000000",
".e	c #000000",
".f	c #000000",
".g	c #000000",
".h	c #000000",
".i	c #000000",
".j	c #000000",
".k	c #000000",
".l	c #000000",
".m	c #000000",
".n	c #000000",
".o	c #000000",
".p	c #000000",
".q	c #000000",
".r	c #000000",
".s	c #000000",
".t	c #000000",
".u	c #000000",
".v	c #000000",
".w	c #000000",
".x	c #000000",
".y	c #000000",
".z	c #000000",
".A	c #000000",
".B	c #000000",
".C	c #000000",
".D	c #000000",
".E	c #000000",
".F	c #000000",
".G	c #000000",
".H	c #000000",
".I	c #000000",
".J	c #000000",
".K	c #000000",
".L	c #000000",
".M	c #000000",
".N	c #000000",
".O	c #000000",
".P	c #000000",
".Q	c #000000",
".R	c #000000",
".S	c #000000",
".T	c #000000",
".U	c #000000",
".V	c #000000",
".W	c #000000",
".X	c #000000",
".Y	c #000000",
".Z	c #000000",
".`	c #000000",
"+ 	c #000000",
"+.	c #000000",
"++	c #000000",
"+@	c #000000",
"+#	c #000000",
"+$	c #000000",
"+%	c #000000",
"+&	c #000000",
"+*	c #000000",
"+=	c #000000",
"+-	c #000000",
"+;	c #000000",
"+>	c #000000",
"+,	c #000000",
"+'	c #000000",
"+)	c #000000",
"+!	c #000000",
"+~	c #000000",
"+{	c #000000",
"+]	c #000000",
"+^	c #000000",
"+/	c #000000",
"+(	c #000000",
"+:	c #000000",
"+<	c #000000",
"+[	c #000000",
"+}	c #000000",
"+|	c #000000",
"+1	c #000000",
"+2	c #000000",
"+3	c #000000",
"+4	c #000000",
"+5	c #000000",
"+6	c #000000",
"+7	c #000000",
"+8	c #000000",
"+9	c #000000",
"+0	c #000000",
"+a	c #000000",
"+b	c #000000",
"+c	c #000000",
"+d	c #000000",
"+e	c #000000",
"+f	c #000000",
"+g	c #000000",
"+h	c #000000",
"+i	c #000000",
"+j	c #000000",
"+k	c #000000",
"+l	c #000000",
"+m	c #000000",
"+n	c #000000",
"+o	c #000000",
"+p	c #000000",
"+q	c #000000",
"+r	c #000000",
"+s	c #000000",
"+t	c #000000",
"+u	c #000000",
"+v	c #000000",
"+w	c #000000",
"+x	c #000000",
"+y	c #000000",
"+z	c #000000",
"+A	c #000000",
"+B	c #000000",
"+C	c #000000",
"+D	c #000000",
"+E	c #000000",
"+F	c #000000",
"+G	c #000000",
"+H	c #000000",
"+I	c #000000",
"+J	c #000000",
"+K	c #000000",
/* pixels */
"                 ^ ^ ^ ^ ^ ^ ^ ^ ^ ^ /                                                                                              ",
"                 ^ 4 4 6 6 6 6 6 6 6 / $                                                                                            ",
"             * * * * * 4 6 6 6 6 6 6 / : $                                                                                          ",
"           * [ [ [ [ [ * 4 4 4 6 6 6 / 4 : $                                                                                        ",
"         * [ } 4 3 3 ] [ * / / / 6 6 @ @ @ @ @                                                                                      ",
"       * [ 3 } 4 3 / / / [ * 4 4 4 6 4 } * * $                                                               .                      ",
"       * 3 6 } 4 3 ] ] ] [ * / / / 6 6 4 / * $           . . . .                                             .                      ",
"       * 3 5 } 4 3 / / / [ + 4 4 4 4 6 6 4 / $         .                                                     .                      ",
"       * 3 6 } 4 3 ] ] ] | + / / / / / 6 6 1 $         .             . . .       . . .     .   .     . . .   . . . .                ",
"       * [ 3 } 4 3 / / / [ + 4 4 4 4 4 6 6 2 $           . . .     .       .           .   . .     .         .       .              ",
"         * [ } 4 3 3 ] < + & / / / / / 6 6 1 $                 .   . . . . .     . . . .   .       .         .       .              ",
"           * [ [ [ [ [ + ( & ^ | 4 4 4 6 6 2 $                 .   .           .       .   .       .         .       .              ",
"             * + + + + 6 ( + # / / / / 6 6 2 $                 .   .       .   .       .   .       .         .       .              ",
"                 % | & & + > ; # ^ | 4 6 6 2 $         . . . .       . . .       . . . .   .         . . .   .       .              ",
"                 ^ 4 4 4 = ! { ; # ^ | 4 6 2 $                                                                                      ",
"                 ^ 6 6 6 6 = ) { , # ^ | 4 2 $                                                                                      ",
"                 ^ | | | | | = ) ~ , # ^ / / $                                                                                      ",
"                 ^ $ $ $ $ $ $ = ) ~ ; # $ $ $                                                                                      ",
"                                 = ) ' - #                                                                                          ",
"                                   = = =                                                                                            "};
