/* XPM */
static char *noname[] = {
/* width height ncolors chars_per_pixel */
"20 20 9 1",
/* colors */
"  c #000000",
". c #4D4D4D",
"X c #F8F8F8",
"o c #EAEAEA",
"O c #D6D6D6",
"+ c #CCCCCC",
"@ c #B2B2B2",
"# c #868686",
"$ c #DDDDDD",
/* pixels */
"OOOOOOOOOOOOOOOOOOOO",
"OOO#######OOOOOOOOOO",
"OO#XXXXXX+ OOOOOOOOO",
"O#X$$++++@@ OOOOOOOO",
"################### ",
"#XXXXXXXXXXXXXXXXXX ",
"#XXXXoo$$$$$$+++@@# ",
"#XXoooo$$.$$+++@@@# ",
"#XXooo$.$.$.++@@@## ",
"#Xooo$$$...++@@@#@# ",
"#Xoo$$...X...@@#@## ",
"#Xo$$$$$...+@@#@#@# ",
"#X$$$$+.+.+.@#@#@## ",
"#X$$$$+++.@@#@#@### ",
"#X$$++++@@@#@#@#### ",
"#X$$+++@#@#@#@##### ",
"#X++++@#@#@#@###### ",
"                    ",
"OOOOOOOOOOOOOOOOOOOO",
"OOOOOOOOOOOOOOOOOOOO"
};
