/* XPM */
static char *noname[] = {
/* width height ncolors chars_per_pixel */
"12 12 33 1",
/* colors */
"  c #000000",
". c #AFAFAF",
"X c #ADADAD",
"o c #979797",
"O c #7F7F7F",
"+ c #797979",
"@ c #777777",
"# c #6F6F6F",
"$ c #676767",
"% c #5F5F5F",
"& c #555555",
"* c #4F4F4F",
"= c #9EA000",
"- c #C8C8C8",
"; c #BEBEBE",
": c #B0B0B0",
"> c #ACACAC",
", c #AAAAAA",
"< c #969696",
"1 c #FCFF05",
"2 c #929292",
"3 c #828282",
"4 c #7C7C7C",
"5 c #D9DC00",
"6 c #727272",
"7 c #6E6E6E",
"8 c #626262",
"9 c #5E5E5E",
"0 c #5A5A5A",
"q c #525252",
"w c #505050",
"e c #FFFF00",
"r c #FFFFC0",
/* pixels */
"------------",
"--<0w=w8,---",
"-4w4:= 7wo--",
"<wX--=e <*.-",
"======re %@-",
"=rrrrrrr1 9-",
"=r1111111= -",
"=5555551= $-",
"      5= q3-",
",w<-- = O0;-",
"-o*%2  &0>--",
"--.+# 63;---"
};
