/* XPM */
static char *noname[] = {
/* width height ncolors chars_per_pixel */
"12 12 35 1",
/* colors */
"  c #000000",
". c #AFAFAF",
"X c #ADADAD",
"o c #979797",
"O c #7F7F7F",
"+ c #797979",
"@ c #777777",
"# c #6F6F6F",
"$ c #676767",
"% c #5F5F5F",
"& c #555555",
"* c #4F4F4F",
"= c #D6D6D6",
"- c #9EA000",
"; c #C8C8C8",
": c #BEBEBE",
"> c #B0B0B0",
", c #ACACAC",
"< c #AAAAAA",
"1 c #969696",
"2 c #FCFF05",
"3 c #929292",
"4 c #828282",
"5 c #7C7C7C",
"6 c #D9DC00",
"7 c #727272",
"8 c #6E6E6E",
"9 c #626262",
"0 c #5E5E5E",
"q c #5A5A5A",
"w c #525252",
"e c #505050",
"r c #FFFF00",
"t c #FFFFC0",
"y c #CFCFCF",
/* pixels */
"============",
"==1qe-e9<===",
"=5e5>- 8eo==",
"1eXy=-r 1*.=",
"------tr %@=",
"-ttttttt2 0=",
"-t2222222- =",
"-6666662- $=",
"      6- w4=",
"<e1;= - Oq:=",
"=o*%3  &q,==",
"==.+# 74:==="
};
