/* XPM */
static char *noname[] = {
/* width height ncolors chars_per_pixel */
"20 20 4 1",
/* colors */
"  c #000000",
". c #800000",
"X c #C0C0C0",
"o c #FFFFFF",
/* pixels */
"....................",
"....................",
"............ .......",
"........... o ......",
"........... oo .....",
"........... oXo ....",
".           oXXo ...",
". oooooooooooXXXo ..",
". XXXXXXXXXXXXXXXo .",
". XXXXXXXXXXXXXXXXo ",
". XXXXXXXXXXXXXXXX .",
". XXXXXXXXXXXXXXX ..",
".           XXXX ...",
"........... XXX ....",
"........... XX .....",
"........... X ......",
"............ .......",
"....................",
"....................",
"...................."
};
