/* XPM */
static char *noname[] = {
/* width height ncolors chars_per_pixel */
"20 20 34 1",
/* colors */
"  c #8BB7B3",
". c #52A19F",
"X c #94BAB5",
"o c #00A4A4",
"O c #096A6B",
"+ c #00999A",
"@ c #729D9A",
"# c #007879",
"$ c #9BBDB8",
"% c #8BCEC9",
"& c #00FFFF",
"* c #00B0B0",
"= c #00EBEB",
"- c #81A5A1",
"; c #00A7A9",
": c #00696A",
"> c #008787",
", c #00E3E3",
"< c #82CDC8",
"1 c #2E9593",
"2 c #00C4C5",
"3 c #00DCDC",
"4 c #D7D4CC",
"5 c #00D5D5",
"6 c #009393",
"7 c #006768",
"8 c #008C8C",
"9 c #86B5B0",
"0 c #009799",
"q c #2E7B7A",
"w c #00AEAF",
"e c #98CCC7",
"r c #83B4AF",
"t c #00CCCC",
/* pixels */
"44444442222222227444",
"4444442&&>&&>&&77444",
"444442>>>>>>>>727444",
"44442&&>&&>&&7727444",
"4442>>>>>>>>>2777444",
"444>&&>&&>&&>2727444",
"444>&&>&&>&&>7727444",
"444>>>>>>>777>777444",
"444>&&>&&>7>>>727444",
"444>&&>&&>7777727444",
"444>>>>777>>>>774444",
"444>&&>77444X*=o6444",
"444>&&>744446&&o2.44",
"444>777441q4r&&tw#44",
"444444441264453+;:44",
"4444444<,880-$@O4444",
"4444444e5&&>$4444444",
"4444444%=&&6 4444444",
"44444444966444444444",
"44444444499444444444"
};
