/* XPM */
static char *noname[] = {
/* width height ncolors chars_per_pixel */
"16 16 40 1",
/* colors */
"  c #DE0E0E",
". c #F6C3C3",
"X c #F8D2D2",
"o c #DE1414",
"O c #EA6868",
"+ c #E01C1C",
"@ c #F5B7B7",
"# c #ED8181",
"$ c #FEFEFE",
"% c #F19F9F",
"& c #FDF3F3",
"* c #E96262",
"= c #DD0707",
"- c #FEFDFD",
"; c #E33434",
": c #E85D5D",
"> c #E96161",
", c #DC0202",
"< c #EF8E8E",
"1 c #F09292",
"2 c #E85C5C",
"3 c #DD0C0C",
"4 c #F9D9D9",
"5 c #DF1B1B",
"6 c #FBE8E8",
"7 c #DC0101",
"8 c #E22E2E",
"9 c #F3ABAB",
"0 c #F09191",
"q c #FFFFFF",
"w c #F2A0A0",
"e c #FBE7E7",
"r c #DC0000",
"t c #FADCDC",
"y c #FCEBEB",
"u c #F4B5B5",
"i c #FFFEFE",
"p c #DD0A0A",
"a c #DF1919",
"s c #EB6D6D",
/* pixels */
"rrrrrrrrrrrrrrrr",
"rqqqqqqqqqqqqqqr",
"rqqqqqqqqqqqqqqr",
"rqqqqy<>:#tqqqqr",
"rqqq@orrrr=0iqqr",
"rqqXprrrrrr79qqr",
"rqq2rrrrrrrr8-qr",
"rq$arrrrrrrrreqr",
"rq$5rrrrrrrr76qr",
"rqq*rrrrrrrr;$qr",
"rqq4 rrrrrr,uqqr",
"rqqq.+rrrr3wqqqr",
"rqqqq&%sO1eqqqqr",
"rqqqqqqqqqqqqqqr",
"rqqqqqqqqqqqqqqr",
"rrrrrrrrrrrrrrrr"
};
