/* XPM */
static char * icotool_xpm[] = {
/* width height ncolors chars_per_pixel */
"16 16 257 2",
/* colors */
"   	c #D6D6D6",
" .	c #ffffff",
" +	c #9b4000",
" @	c #eeeeee",
" #	c #e4e4e4",
" $	c #d5d5d5",
" %	c #cccccc",
" &	c #c5c5c5",
" *	c #bdbdbd",
" =	c #b3b3b3",
" -	c #a7a7a7",
" ;	c #999999",
" >	c #929292",
" ,	c #8d8d8d",
" '	c #707070",
" )	c #6c6c6c",
" !	c #5c5c5c",
" ~	c #525252",
" {	c #4a4a4a",
" ]	c #e10000",
" ^	c #000000",
" /	c #000000",
" (	c #000000",
" :	c #000000",
" <	c #000000",
" [	c #000000",
" }	c #000000",
" |	c #000000",
" 1	c #000000",
" 2	c #82a47e",
" 3	c #000000",
" 4	c #000000",
" 5	c #000000",
" 6	c #000000",
" 7	c #000000",
" 8	c #bdbdbd",
" 9	c #bdb3ae",
" 0	c #bda99e",
" a	c #bd9e8e",
" b	c #be947e",
" c	c #be896f",
" d	c #be7f5f",
" e	c #be754f",
" f	c #bf6a3f",
" g	c #bf6030",
" h	c #bf5520",
" i	c #c04000",
" j	c #000000",
" k	c #000000",
" l	c #000000",
" m	c #000000",
" n	c #000000",
" o	c #000000",
" p	c #cf5f5f",
" q	c #000000",
" r	c #000000",
" s	c #000000",
" t	c #000000",
" u	c #e10000",
" v	c #000000",
" w	c #000000",
" x	c #000000",
" y	c #000000",
" z	c #466200",
" A	c #000000",
" B	c #000000",
" C	c #000000",
" D	c #835100",
" E	c #000000",
" F	c #000000",
" G	c #000000",
" H	c #000000",
" I	c #000000",
" J	c #000000",
" K	c #000000",
" L	c #000000",
" M	c #000000",
" N	c #000000",
" O	c #000000",
" P	c #000000",
" Q	c #000000",
" R	c #000000",
" S	c #000000",
" T	c #000000",
" U	c #000000",
" V	c #000000",
" W	c #000000",
" X	c #000000",
" Y	c #000000",
" Z	c #000000",
" `	c #000000",
". 	c #000000",
"..	c #000000",
".+	c #000000",
".@	c #000000",
".#	c #000000",
".$	c #000000",
".%	c #000000",
".&	c #000000",
".*	c #000000",
".=	c #000000",
".-	c #000000",
".;	c #000000",
".>	c #000000",
".,	c #000000",
".'	c #000000",
".)	c #000000",
".!	c #000000",
".~	c #000000",
".{	c #000000",
".]	c #000000",
".^	c #000000",
"./	c #000000",
".(	c #000000",
".:	c #000000",
".<	c #000000",
".[	c #000000",
".}	c #000000",
".|	c #000000",
".1	c #000000",
".2	c #000000",
".3	c #000000",
".4	c #000000",
".5	c #000000",
".6	c #000000",
".7	c #000000",
".8	c #000000",
".9	c #000000",
".0	c #000000",
".a	c #000000",
".b	c #000000",
".c	c #000000",
".d	c #000000",
".e	c #000000",
".f	c #000000",
".g	c #000000",
".h	c #000000",
".i	c #000000",
".j	c #000000",
".k	c #000000",
".l	c #000000",
".m	c #000000",
".n	c #000000",
".o	c #000000",
".p	c #000000",
".q	c #000000",
".r	c #000000",
".s	c #000000",
".t	c #000000",
".u	c #000000",
".v	c #000000",
".w	c #000000",
".x	c #000000",
".y	c #000000",
".z	c #000000",
".A	c #000000",
".B	c #000000",
".C	c #000000",
".D	c #000000",
".E	c #000000",
".F	c #000000",
".G	c #000000",
".H	c #000000",
".I	c #000000",
".J	c #000000",
".K	c #000000",
".L	c #000000",
".M	c #000000",
".N	c #000000",
".O	c #000000",
".P	c #000000",
".Q	c #000000",
".R	c #000000",
".S	c #000000",
".T	c #000000",
".U	c #000000",
".V	c #000000",
".W	c #000000",
".X	c #000000",
".Y	c #000000",
".Z	c #000000",
".`	c #000000",
"+ 	c #000000",
"+.	c #000000",
"++	c #000000",
"+@	c #000000",
"+#	c #000000",
"+$	c #000000",
"+%	c #000000",
"+&	c #000000",
"+*	c #000000",
"+=	c #000000",
"+-	c #000000",
"+;	c #000000",
"+>	c #000000",
"+,	c #000000",
"+'	c #000000",
"+)	c #000000",
"+!	c #000000",
"+~	c #000000",
"+{	c #000000",
"+]	c #000000",
"+^	c #000000",
"+/	c #000000",
"+(	c #000000",
"+:	c #000000",
"+<	c #000000",
"+[	c #000000",
"+}	c #000000",
"+|	c #000000",
"+1	c #000000",
"+2	c #000000",
"+3	c #000000",
"+4	c #000000",
"+5	c #000000",
"+6	c #000000",
"+7	c #000000",
"+8	c #000000",
"+9	c #000000",
"+0	c #000000",
"+a	c #000000",
"+b	c #000000",
"+c	c #000000",
"+d	c #000000",
"+e	c #000000",
"+f	c #000000",
"+g	c #000000",
"+h	c #000000",
"+i	c #000000",
"+j	c #000000",
"+k	c #000000",
"+l	c #000000",
"+m	c #000000",
"+n	c #000000",
"+o	c #000000",
"+p	c #000000",
"+q	c #000000",
"+r	c #000000",
"+s	c #000000",
"+t	c #000000",
"+u	c #000000",
"+v	c #000000",
"+w	c #000000",
"+x	c #000000",
"+y	c #000000",
"+z	c #000000",
"+A	c #000000",
"+B	c #84b800",
"+C	c #000000",
"+D	c #000000",
"+E	c #007a7a",
"+F	c #000000",
"+G	c #000000",
"+H	c #000000",
"+I	c #000000",
"+J	c #3c0c00",
"+K	c #ffff00",
/* pixels */
"                                ",
"                                ",
"       + + + +                  ",
"     ++J+J+J+J +                ",
"     ++J       + + + + +        ",
"     + + + + + + + + + + +      ",
"     + + + + + ++K + + + ++J    ",
"     + + + + ++K+K + + + ++J    ",
"     + + + ++K+K+K+K+K+K+K+K+K+K",
"     + + + + ++K+K + + + ++J    ",
"     + + + + + ++K + + + ++J    ",
"     + + + + + + + + + + ++J    ",
"       + + + + + + + + ++J+J    ",
"        +J+J+J+J+J+J+J+J+J      ",
"                                ",
"                                "};
