/* XPM */
static char * icotool_xpm[] = {
/* width height ncolors chars_per_pixel */
"20 20 257 2",
/* colors */
"   	c #D6D6D6",
" .	c #313131",
" +	c #525252",
" @	c #737373",
" #	c #c04000",
" $	c #c04101",
" %	c #c14304",
" &	c #c14406",
" *	c #c65218",
" =	c #c8571f",
" -	c #cf6c3b",
" ;	c #d07142",
" >	c #d17243",
" ,	c #d98b64",
" '	c #dd9875",
" )	c #de9a78",
" !	c #df9f7f",
" ~	c #ffff00",
" {	c #848484",
" ]	c #9c9c9c",
" ^	c #bdbdb8",
" /	c #e7b69d",
" (	c #e7b69e",
" :	c #ecc5b2",
" <	c #ecc6b3",
" [	c #edc9b7",
" }	c #c0c0c0",
" |	c #dededb",
" 1	c #f1d4c5",
" 2	c #f4dfd4",
" 3	c #e6e6d5",
" 4	c #f6e3d9",
" 5	c #eeeee2",
" 6	c #f8ebe4",
" 7	c #f9ede7",
" 8	c #fcf5f1",
" 9	c #fdf8f5",
" 0	c #fffff7",
" a	c #fefcfb",
" b	c #fffefe",
" c	c #ffffff",
" d	c #3e7e36",
" e	c #ffffff",
" f	c #000000",
" g	c #000000",
" h	c #000000",
" i	c #000000",
" j	c #000000",
" k	c #000000",
" l	c #000000",
" m	c #000000",
" n	c #000000",
" o	c #000000",
" p	c #000000",
" q	c #000000",
" r	c #000000",
" s	c #000000",
" t	c #000000",
" u	c #000000",
" v	c #000000",
" w	c #000000",
" x	c #000000",
" y	c #000000",
" z	c #000000",
" A	c #000000",
" B	c #000000",
" C	c #000000",
" D	c #000000",
" E	c #000000",
" F	c #000000",
" G	c #000000",
" H	c #000000",
" I	c #000000",
" J	c #000000",
" K	c #000000",
" L	c #000000",
" M	c #000000",
" N	c #000000",
" O	c #000000",
" P	c #000000",
" Q	c #000000",
" R	c #000000",
" S	c #000000",
" T	c #000000",
" U	c #000000",
" V	c #000000",
" W	c #000000",
" X	c #000000",
" Y	c #000000",
" Z	c #000000",
" `	c #000000",
". 	c #000000",
"..	c #000000",
".+	c #000000",
".@	c #000000",
".#	c #000000",
".$	c #000000",
".%	c #000000",
".&	c #000000",
".*	c #000000",
".=	c #000000",
".-	c #000000",
".;	c #000000",
".>	c #000000",
".,	c #000000",
".'	c #000000",
".)	c #000000",
".!	c #000000",
".~	c #000000",
".{	c #000000",
".]	c #000000",
".^	c #000000",
"./	c #000000",
".(	c #000000",
".:	c #000000",
".<	c #000000",
".[	c #000000",
".}	c #000000",
".|	c #000000",
".1	c #000000",
".2	c #000000",
".3	c #000000",
".4	c #000000",
".5	c #000000",
".6	c #000000",
".7	c #000000",
".8	c #000000",
".9	c #000000",
".0	c #000000",
".a	c #000000",
".b	c #000000",
".c	c #000000",
".d	c #000000",
".e	c #000000",
".f	c #000000",
".g	c #000000",
".h	c #000000",
".i	c #000000",
".j	c #000000",
".k	c #000000",
".l	c #000000",
".m	c #000000",
".n	c #000000",
".o	c #000000",
".p	c #000000",
".q	c #000000",
".r	c #000000",
".s	c #000000",
".t	c #000000",
".u	c #000000",
".v	c #000000",
".w	c #000000",
".x	c #000000",
".y	c #000000",
".z	c #000000",
".A	c #000000",
".B	c #000000",
".C	c #000000",
".D	c #000000",
".E	c #000000",
".F	c #000000",
".G	c #000000",
".H	c #000000",
".I	c #000000",
".J	c #000000",
".K	c #000000",
".L	c #000000",
".M	c #000000",
".N	c #000000",
".O	c #000000",
".P	c #000000",
".Q	c #000000",
".R	c #000000",
".S	c #000000",
".T	c #000000",
".U	c #000000",
".V	c #000000",
".W	c #000000",
".X	c #000000",
".Y	c #000000",
".Z	c #000000",
".`	c #000000",
"+ 	c #000000",
"+.	c #000000",
"++	c #000000",
"+@	c #000000",
"+#	c #000000",
"+$	c #000000",
"+%	c #000000",
"+&	c #000000",
"+*	c #000000",
"+=	c #000000",
"+-	c #000000",
"+;	c #000000",
"+>	c #000000",
"+,	c #000000",
"+'	c #000000",
"+)	c #000000",
"+!	c #000000",
"+~	c #000000",
"+{	c #000000",
"+]	c #000000",
"+^	c #000000",
"+/	c #000000",
"+(	c #000000",
"+:	c #000000",
"+<	c #000000",
"+[	c #000000",
"+}	c #000000",
"+|	c #000000",
"+1	c #000000",
"+2	c #000000",
"+3	c #000000",
"+4	c #000000",
"+5	c #000000",
"+6	c #000000",
"+7	c #000000",
"+8	c #000000",
"+9	c #000000",
"+0	c #000000",
"+a	c #000000",
"+b	c #000000",
"+c	c #000000",
"+d	c #000000",
"+e	c #000000",
"+f	c #000000",
"+g	c #000000",
"+h	c #000000",
"+i	c #000000",
"+j	c #000000",
"+k	c #000000",
"+l	c #000000",
"+m	c #000000",
"+n	c #000000",
"+o	c #000000",
"+p	c #000000",
"+q	c #000000",
"+r	c #000000",
"+s	c #000000",
"+t	c #000000",
"+u	c #000000",
"+v	c #000000",
"+w	c #000000",
"+x	c #000000",
"+y	c #000000",
"+z	c #000000",
"+A	c #000000",
"+B	c #000000",
"+C	c #000000",
"+D	c #000000",
"+E	c #000000",
"+F	c #000000",
"+G	c #000000",
"+H	c #000000",
"+I	c #000000",
"+J	c #000000",
"+K	c #000000",
/* pixels */
"   ~     ~     ~                        ",
"     ~   ~   ~                          ",
"       ~ ~ ~ { { { { { { { { { ]        ",
" ~ ~ ~ ~ ~ ~ ~ ~ ~ ~ 0 0 0 0 0 ] +      ",
"       ~ ~ ~ 0 0 0 0 0 0 0 0 0 ] ^ +    ",
"     ~   ~ { ~ 0 3 3 3 3 0 0 0 ] 5 ^ +  ",
"   ~     ~ { 0 ~ ] ] ] ] ] 0 0 . . . . .",
"   d d d ~ d d d d d d 3 3 3 0 3 } @ @ +",
"   d c c ~ e e e e e d ] ] ] 0 0 3 ] @ +",
"   d c c c d d c c e d 3 3 3 3 0 0 3 ] +",
"   d c c c d d c c e d ] ] ] ] ] 0 0 | +",
"   d c d d d d d d e d 3 3 3 3 3 0 0 | +",
"   d c d d d d d d e d ] ] ] ] ] 0 0 | +",
"   d c c c d d c c e d 3 3 3 3 3 0 0 | +",
"   d c c c d d c c e d ] ] ] ] ] 0 0 | +",
"   d c c c c c c e e d 3 3 3 3 3 0 0 | +",
"   d d d d d d d d d d ] ] ] ] ] 0 0 | +",
"           { 0 0 3 3 3 3 3 3 3 3 0 0 | +",
"           { 0 0 0 0 0 0 0 0 0 0 0 0 | +",
"           { + + + + + + + + + + + + + +"};
