/* XPM */
static char *noname[] = {
/* width height ncolors chars_per_pixel */
"20 20 7 1",
/* colors */
"  c #000000",
". c #8CFFFF",
"X c #D6FFFF",
"o c #2152FF",
"O c #4ABDFF",
"+ c #D6D6D6",
"@ c #FFFFFF",
/* pixels */
"++++++++++++++++++++",
"++++++++++++++++++++",
"++++++++++++++++++++",
"++++ooooo+++++++++++",
"+++o.....oo+++++++++",
"+++o.OOOO..oo+++++ +",
"++o.O    OO..o+++o +",
"++o.O +++  O..o+o@ +",
"++o.O +++++ O..o@X +",
"++o.O ++++++ oX@X. +",
"++o.O +++++++o@X.. +",
"++o.O ++++++o@X... +",
"+++o.O ++++oOOOOOO +",
"+++o.O +++         +",
"++++o.O ++++++++++++",
"++++o.O ++++++++++++",
"+++++   ++++++++++++",
"++++++++++++++++++++",
"++++++++++++++++++++",
"++++++++++++++++++++"
};
