/* XPM */
static char *noname[] = {
/* width height ncolors chars_per_pixel */
"70 20 30 1",
/* colors */
"  c #000000",
". c #737300",
"X c #310096",
"o c #FF6B6B",
"O c #F2F2F2",
"+ c #A6CAF0",
"@ c #FFFF8E",
"# c #FFAA00",
"$ c #D4F0FF",
"% c #DADADA",
"& c #D6D6D6",
"* c #CECECE",
"= c #B93D00",
"- c #FFFBF0",
"; c #929292",
": c #868686",
"> c #7A7A7A",
", c #DC9200",
"< c #6E6E6E",
"1 c #FFC66B",
"2 c #565656",
"3 c #FFFFD4",
"4 c #FFFFFF",
"5 c #6B8FFF",
"6 c #3E3E3E",
"7 c #963100",
"8 c #D4FFFF",
"9 c #503200",
"0 c #1A1A1A",
"q c #FF5500",
/* pixels */
"&&&&&>>&&>>>>>>>>&&&&&&&&&&&&&&&&&&&&&&&&&&&&&&&&&&&&&&&&&&&&&&&&&&&&&",
"&&&&>44;;44448$$$<&&&&&&&&&&&&&&&&&&&&&&&&&&&&&&&&&&&&&&&&&&&&&&&&&&&&",
"&&&&>8*44$*******OX&&&&&&&&&&&&&&&&&&&&&&&&&&&&&&&&&&&&&&&&&&&&&&&&&&&",
"&&&&>8*;;**++:5:5>%2&&&&&&&&&&&&&&&&&&&&&&&&&&&&&&&&&&&&&&&&&&&&&&&&&&",
"&&&&>8600>:+5:X   :X&&&&&&&&&&&&&&&&&&&&&&&&&&&&&&&&&&&&&&&&&&&&&&&&&&",
"&&&&>>6&&X0+5 X&&  2&&&&&&&&&&&&&&&&&&&&&&&&&&&&&&&&&&&&&&&&&&&&&&&&&&",
"&&&&&&&&&&0+: &&&&&&&&     &&&&&&&&&&&&& &&&&&&&&&&&&&&&&&&&&&&&&&&&&&",
"&&&&&&&&&&0+: &&&&&&&& &&&&&&&&&&&&&&&&& &&&&&&&&&&&&&&&&&&&&&&&&&&&&&",
"&&.... &&&oo7o&&&&&&&& &&&&&&   &&&   &&   & &&& & & &&   &&&   &&&&&&",
"&.-@@@, &q311=9&&&&&&&     & &&& &&&&& & &&& &&& &  && &&& & &&&&&&&&&",
".........=@qq79&&&&&&& &&&&&     &&    & &&& &&& & &&&     &  &&&&&&&&",
".@@@@@@@@=@qq79&&&&&&& &&&&& &&&&& &&& & &&& &&& & &&& &&&&&&&  &&&&&&",
".@#4#@#@#=1qq79&&&&&&& &&&&& &&& & &&& & &&& &&& & &&& &&& &&&& &&&&&&",
".@4#@#@#,=1qq79&&&&&&& &&&&&&   &&&    &&  &&    & &&&&   &&   &&&&&&&",
".@#@#@#,#=1qq79&&&&&&&&&&&&&&&&&&&&&&&&&&&&&&&&&&&&&&&&&&&&&&&&&&&&&&&",
".@@#@#,#,=1qq79&&&&&&&&&&&&&&&&&&&&&&&&&&&&&&&&&&&&&&&&&&&&&&&&&&&&&&&",
".@#@#,#,,=1qq79&&&&&&&&&&&&&&&&&&&&&&&&&&&&&&&&&&&&&&&&&&&&&&&&&&&&&&&",
".@@#,#,,,=1qq79&&&&&&&&&&&&&&&&&&&&&&&&&&&&&&&&&&&&&&&&&&&&&&&&&&&&&&&",
"         =q7779&&&&&&&&&&&&&&&&&&&&&&&&&&&&&&&&&&&&&&&&&&&&&&&&&&&&&&&",
"&&&&&&&&&&9999&&&&&&&&&&&&&&&&&&&&&&&&&&&&&&&&&&&&&&&&&&&&&&&&&&&&&&&&"
};
