/* XPM */
static char *noname[] = {
/* width height ncolors chars_per_pixel */
"20 20 16 1",
/* colors */
"  c #000000",
". c #7B7B7B",
"X c #636363",
"o c #393939",
"O c #DEDEDE",
"+ c #D6D6D6",
"@ c #CECECE",
"# c #C6C6C6",
"$ c #9C9C9C",
"% c #949494",
"& c #848484",
"* c #525252",
"= c #FFFFFF",
"- c #4A4A4A",
"; c #E7E7E7",
": c #B5B5B5",
/* pixels */
"&&&%&&&&&&&&&&&X&& +",
"&==%&&&&&&&&&&&X#= +",
"&==$=========;+X&& +",
"&==$=========+@X%% +",
"&==$=======;;+@X%& +",
"&=+$======;;+O@X%& +",
"&=O$===;;;+O+@@X%& +",
"&=+%=;;++O+@@@@X&. +",
"&O+%;++@@@@@@@@X.. +",
"&+O@%&&&&&...XX&.X +",
"&O+::%%%%%%%%&&&.X +",
"&+::%%%%%%%&&&..XX +",
"&@:%***--------o&X +",
"&:%%*****--oO+:oXX +",
"&%%%***-ooooO+:oXX +",
"&%%%*-oo-o-oO::oXX +",
"&%%%*-ooooooO::oXX +",
"&%%%-o-o-o-o:::oXX +",
"+                  +",
"++++++++++++++++++++"
};
