/* XPM */
static char *noname[] = {
/* width height ncolors chars_per_pixel */
"16 16 6 1",
/* colors */
"  c #000000",
". c #C5A697",
"X c #808080",
"o c #646464",
"O c #606060",
"+ c #404040",
/* pixels */
".......O........",
"......O O.......",
".....O   O......",
"....... ........",
"....... ........",
"..O..Xo+oX...O..",
".. OX+++++X.. O.",
"    +++++++    O",
".. OX+++++X.. O.",
"..O..Xo+oX...O..",
".......O........",
"......O O.......",
".....O   O......",
"....... ........",
"....... ........",
"....... ........"
};
