/* XPM */
static char *noname[] = {
/* width height ncolors chars_per_pixel */
"16 16 16 1",
/* colors */
"  c #000000",
". c #A9A9A9",
"X c #959595",
"o c #878787",
"O c #4B4B4B",
"+ c #F4F4F4",
"@ c #EEEEEE",
"# c #E4E4E4",
"$ c #D4D4D4",
"% c #C6C6C6",
"& c #B4B4B4",
"* c #A2A2A2",
"= c #FFFFFF",
"- c #DDDDDD",
"; c #222222",
": c #BBBBBB",
/* pixels */
"................",
".==============.",
".==#%%%#=======.",
".=##+++*%======.",
".=:#####$%%%%%=.",
".=%+@+@+@+@##O=.",
".=%+++;+;@;#@O=.",
".=%+@++X;X--#O=.",
".=%@#@;;;;;##O=.",
".=%@@@@X;X-#-O=.",
".=%@@+;#;-;--O=.",
".=.:::%::::&:O=.",
".=%oooooooooo%=.",
".==============.",
"................",
"                "
};
