/* XPM */
static char *noname[] = {
/* width height ncolors chars_per_pixel */
"12 12 26 1",
/* colors */
"  c #D2B7B0",
". c #CC817C",
"X c #CF9F99",
"o c #C42625",
"O c #D0A39D",
"+ c #C53432",
"@ c #C85652",
"# c #C3201F",
"$ c #D6D6D6",
"% c #C85855",
"& c #C53331",
"* c #C74643",
"= c #C42A29",
"- c #C53937",
"; c #C31F1E",
": c #CA6460",
"> c #C42E2C",
", c #CF9C96",
"< c #C31E1D",
"1 c #C84F4C",
"2 c #C74A47",
"3 c #C42E2D",
"4 c #C63F3C",
"5 c #C32322",
"6 c #CC827D",
"7 c #C95D59",
/* pixels */
"$$$$$$$$$$$$",
"$$.>#5#-,$$$",
"$7;;;;;;#6$$",
".;;;;;;;;<O$",
">;;;;;;;;;@$",
";;;;;;;;;;&$",
"=;;;;;;;;;=$",
"#;;;;;;;;;4$",
"-;;;;;;;;5:$",
",#;;;;;;;3 $",
"$6<+;;;o3X$$",
"$$O%2*1: $$$"
};
