/* XPM */
static char * icotool_xpm[] = {
/* width height ncolors chars_per_pixel */
"32 32 17 1",
/* colors */
"   	c #D6D6D6",
".	c #000000",
"+	c #800000",
"@	c #008000",
"#	c #808000",
"$	c #000080",
"%	c #800080",
"&	c #008080",
"*	c #c0c0c0",
"=	c #808080",
"-	c #ff0000",
";	c #00ff00",
">	c #ffff00",
",	c #0000ff",
"'	c #ff00ff",
")	c #00ffff",
"!	c #ffffff",
/* pixels */
"                                ",
"                    ...  ...    ",
"                   .!!!..*!=.   ",
"                  .!!$!.*!*=.   ",
"                 .$!!!.*!**=.   ",
"                .!!$!.*!**=..   ",
"               .!!!!.*!**=.**.  ",
"              .!!$!.*!**=.**!!. ",
"             .$!!!.*!**=.*$!!!. ",
"            .!!$!.*!**=.**!$!!. ",
"           .!!!!.*!**=.*$!!!!.. ",
"          .!!$!.*!**=.**!$!!.=. ",
"         .$!!!.*!**=.*$!!!$.==. ",
"        .!!$!.*!**=.**!$!!.==.  ",
"       .!!!!.*!**=.*$!!!!.==.   ",
"      .!!$!.*!**=.**!$!!.==.    ",
"     .$!!!.*!**=.*$!!!$.==.     ",
"    .!!$!.*!**=.**!$!!.==.      ",
"   .!!!!.*!**=.*$!!!!.==.       ",
"  .!!$!.-!**=.**!$!!.==.        ",
" .!!!!.-!'*=.*$!!!$.==.         ",
".!!...-!'-%.**!$!!.==.          ",
".!.'-'!'-%.*$!!!!.==.           ",
"=.'>!!'-%.**!$!!.==.            ",
"=.>!-'%%.*$!!!$.==.             ",
" .'>'%-%.**$!!.==.              ",
" .%'%-%%.*!!!.==.               ",
"  .%%%%.**!!.==.                ",
"   .....*!!.==.                 ",
"     =.=...==.                  ",
"       .====.                   ",
"        ....                    "};
