/* XPM */
static char * icotool_xpm[] = {
/* width height ncolors chars_per_pixel */
"8 8 257 2",
/* colors */
"   	c #D6D6D6",
" .	c #000000",
" +	c #800000",
" @	c #008000",
" #	c #808000",
" $	c #000080",
" %	c #800080",
" &	c #008080",
" *	c #c0c0c0",
" =	c #c0dcc0",
" -	c #a6caf0",
" ;	c #fff0d4",
" >	c #ffe2b1",
" ,	c #ffd48e",
" '	c #ffc66b",
" )	c #ffb848",
" !	c #ffaa25",
" ~	c #ffaa00",
" {	c #dc9200",
" ]	c #b97a00",
" ^	c #966200",
" /	c #734a00",
" (	c #503200",
" :	c #ffe3d4",
" <	c #ffc7b1",
" [	c #ffab8e",
" }	c #ff8f6b",
" |	c #ff7348",
" 1	c #ff5725",
" 2	c #ff5500",
" 3	c #dc4900",
" 4	c #b93d00",
" 5	c #963100",
" 6	c #732500",
" 7	c #501900",
" 8	c #ffd4d4",
" 9	c #ffb1b1",
" 0	c #ff8e8e",
" a	c #ff6b6b",
" b	c #ff4848",
" c	c #ff2525",
" d	c #ff0000",
" e	c #dc0000",
" f	c #b90000",
" g	c #960000",
" h	c #730000",
" i	c #500000",
" j	c #ffd4e3",
" k	c #ffb1c7",
" l	c #ff8eab",
" m	c #ff6b8f",
" n	c #ff4873",
" o	c #ff2557",
" p	c #ff0055",
" q	c #dc0049",
" r	c #b9003d",
" s	c #960031",
" t	c #730025",
" u	c #500019",
" v	c #ffd4f0",
" w	c #ffb1e2",
" x	c #ff8ed4",
" y	c #ff6bc6",
" z	c #ff48b8",
" A	c #ff25aa",
" B	c #ff00aa",
" C	c #dc0092",
" D	c #b9007a",
" E	c #960062",
" F	c #73004a",
" G	c #500032",
" H	c #ffd4ff",
" I	c #ffb1ff",
" J	c #ff8eff",
" K	c #ff6bff",
" L	c #ff48ff",
" M	c #ff25ff",
" N	c #ff00ff",
" O	c #dc00dc",
" P	c #b900b9",
" Q	c #960096",
" R	c #730073",
" S	c #500050",
" T	c #f0d4ff",
" U	c #e2b1ff",
" V	c #d48eff",
" W	c #c66bff",
" X	c #b848ff",
" Y	c #aa25ff",
" Z	c #aa00ff",
" `	c #9200dc",
". 	c #7a00b9",
"..	c #620096",
".+	c #4a0073",
".@	c #320050",
".#	c #e3d4ff",
".$	c #c7b1ff",
".%	c #ab8eff",
".&	c #8f6bff",
".*	c #7348ff",
".=	c #5725ff",
".-	c #5500ff",
".;	c #4900dc",
".>	c #3d00b9",
".,	c #310096",
".'	c #250073",
".)	c #190050",
".!	c #d4d4ff",
".~	c #b1b1ff",
".{	c #8e8eff",
".]	c #6b6bff",
".^	c #4848ff",
"./	c #2525ff",
".(	c #0000ff",
".:	c #0000dc",
".<	c #0000b9",
".[	c #000096",
".}	c #000073",
".|	c #000050",
".1	c #d4e3ff",
".2	c #b1c7ff",
".3	c #8eabff",
".4	c #6b8fff",
".5	c #4873ff",
".6	c #2557ff",
".7	c #0055ff",
".8	c #0049dc",
".9	c #003db9",
".0	c #003196",
".a	c #002573",
".b	c #001950",
".c	c #d4f0ff",
".d	c #b1e2ff",
".e	c #8ed4ff",
".f	c #6bc6ff",
".g	c #48b8ff",
".h	c #25aaff",
".i	c #00aaff",
".j	c #0092dc",
".k	c #007ab9",
".l	c #006296",
".m	c #004a73",
".n	c #003250",
".o	c #d4ffff",
".p	c #b1ffff",
".q	c #8effff",
".r	c #6bffff",
".s	c #48ffff",
".t	c #25ffff",
".u	c #00ffff",
".v	c #00dcdc",
".w	c #00b9b9",
".x	c #009696",
".y	c #007373",
".z	c #005050",
".A	c #d4fff0",
".B	c #b1ffe2",
".C	c #8effd4",
".D	c #6bffc6",
".E	c #48ffb8",
".F	c #25ffaa",
".G	c #00ffaa",
".H	c #00dc92",
".I	c #00b97a",
".J	c #009662",
".K	c #00734a",
".L	c #005032",
".M	c #d4ffe3",
".N	c #b1ffc7",
".O	c #8effab",
".P	c #6bff8f",
".Q	c #48ff73",
".R	c #25ff57",
".S	c #00ff55",
".T	c #00dc49",
".U	c #00b93d",
".V	c #009631",
".W	c #007325",
".X	c #005019",
".Y	c #d4ffd4",
".Z	c #b1ffb1",
".`	c #8eff8e",
"+ 	c #6bff6b",
"+.	c #48ff48",
"++	c #25ff25",
"+@	c #00ff00",
"+#	c #00dc00",
"+$	c #00b900",
"+%	c #009600",
"+&	c #007300",
"+*	c #005000",
"+=	c #e3ffd4",
"+-	c #c7ffb1",
"+;	c #abff8e",
"+>	c #8fff6b",
"+,	c #73ff48",
"+'	c #57ff25",
"+)	c #55ff00",
"+!	c #49dc00",
"+~	c #3db900",
"+{	c #319600",
"+]	c #257300",
"+^	c #195000",
"+/	c #f0ffd4",
"+(	c #e2ffb1",
"+:	c #d4ff8e",
"+<	c #c6ff6b",
"+[	c #b8ff48",
"+}	c #aaff25",
"+|	c #aaff00",
"+1	c #92dc00",
"+2	c #7ab900",
"+3	c #629600",
"+4	c #4a7300",
"+5	c #325000",
"+6	c #ffffd4",
"+7	c #ffffb1",
"+8	c #ffff8e",
"+9	c #ffff6b",
"+0	c #ffff48",
"+a	c #ffff25",
"+b	c #ffff00",
"+c	c #dcdc00",
"+d	c #b9b900",
"+e	c #969600",
"+f	c #737300",
"+g	c #505000",
"+h	c #f2f2f2",
"+i	c #e6e6e6",
"+j	c #dadada",
"+k	c #cecece",
"+l	c #c2c2c2",
"+m	c #b6b6b6",
"+n	c #aaaaaa",
"+o	c #9e9e9e",
"+p	c #929292",
"+q	c #868686",
"+r	c #7a7a7a",
"+s	c #6e6e6e",
"+t	c #626262",
"+u	c #565656",
"+v	c #4a4a4a",
"+w	c #3e3e3e",
"+x	c #323232",
"+y	c #262626",
"+z	c #1a1a1a",
"+A	c #0e0e0e",
"+B	c #fffbf0",
"+C	c #a0a0a4",
"+D	c #808080",
"+E	c #ff0000",
"+F	c #00ff00",
"+G	c #ffff00",
"+H	c #0000ff",
"+I	c #ff00ff",
"+J	c #00ffff",
"+K	c #ffffff",
/* pixels */
"   ! g         e",
"     ! g     g  ",
"       + g g    ",
"         g g    ",
"       g 3 + g  ",
"     d       3 +",
"   c           3",
"                "};
