/* XPM */
static char * icotool_xpm[] = {
/* width height ncolors chars_per_pixel */
"66 20 257 2",
/* colors */
"   	c #D6D6D6",
" .	c #ffffff",
" +	c #e6e6e6",
" @	c #dadada",
" #	c #d6d6d6",
" $	c #cecece",
" %	c #c0c0c0",
" &	c #b6b6b6",
" *	c #929292",
" =	c #868686",
" -	c #7a7a7a",
" ;	c #626262",
" >	c #4a4a4a",
" ,	c #3e3e3e",
" '	c #1a1a1a",
" )	c #000000",
" !	c #cacfd4",
" ~	c #cacacb",
" {	c #cecec0",
" ]	c #c1c1c0",
" ^	c #b2c3ec",
" /	c #b5c9db",
" (	c #92bcff",
" :	c #bebfc8",
" <	c #b9bbc0",
" [	c #adbac6",
" }	c #a791c9",
" |	c #ffffad",
" 1	c #c7c9ba",
" 2	c #ffff9c",
" 3	c #ffff96",
" 4	c #fffb86",
" 5	c #fed787",
" 6	c #c8c683",
" 7	c #fcb29f",
" 8	c #ffa18e",
" 9	c #bababa",
" 0	c #bab7b2",
" a	c #b6b6b5",
" b	c #a3a7b6",
" c	c #b5b6ab",
" d	c #a9aaaa",
" e	c #a9a3a7",
" f	c #a2a1a1",
" g	c #9a8eb3",
" h	c #9d92ae",
" i	c #9a93a6",
" j	c #879da3",
" k	c #a1a29e",
" l	c #b8b788",
" m	c #b19c86",
" n	c #9c9c9c",
" o	c #9a9291",
" p	c #929393",
" q	c #8e9393",
" r	c #87839b",
" s	c #969a8a",
" t	c #8b8b8b",
" u	c #858484",
" v	c #6e8aa0",
" w	c #4330c3",
" x	c #5a3c94",
" y	c #3300a4",
" z	c #e0e17b",
" A	c #ffe364",
" B	c #dfe477",
" C	c #ffdc7e",
" D	c #ffd772",
" E	c #d4da77",
" F	c #d2d671",
" G	c #d2d76c",
" H	c #ffe355",
" I	c #ffde5c",
" J	c #fbd754",
" K	c #ffd94c",
" L	c #f9d34a",
" M	c #fad045",
" N	c #f5c940",
" O	c #c4c75e",
" P	c #c2c353",
" Q	c #ffb350",
" R	c #f3a051",
" S	c #ffa74a",
" T	c #ffa046",
" U	c #cbb353",
" V	c #ff9b43",
" W	c #d79b4c",
" X	c #d88946",
" Y	c #d78642",
" Z	c #a9a96e",
" `	c #bd9357",
". 	c #ffc725",
"..	c #ffc119",
".+	c #fbb303",
".@	c #f3ad03",
".#	c #f4a203",
".$	c #eeaa00",
".%	c #e3a100",
".&	c #e19f00",
".*	c #e59200",
".=	c #e28e00",
".-	c #c39b00",
".;	c #d48400",
".>	c #b2b532",
".,	c #a8a73e",
".'	c #a9a929",
".)	c #91920e",
".!	c #87890e",
".~	c #878706",
".{	c #ff6b52",
".]	c #ce7735",
".^	c #e56515",
"./	c #ff6300",
".(	c #ee6000",
".:	c #ff5800",
".<	c #c14600",
".[	c #807f00",
".}	c #bb4700",
".|	c #af3d00",
".1	c #7b7b7b",
".2	c #737373",
".3	c #6a6a6a",
".4	c #636363",
".5	c #63625f",
".6	c #5d5d5d",
".7	c #595955",
".8	c #545454",
".9	c #4a4a4a",
".0	c #454545",
".a	c #230060",
".b	c #2c2044",
".c	c #152348",
".d	c #5c4813",
".e	c #5e3e00",
".f	c #513a00",
".g	c #5b3300",
".h	c #552b00",
".i	c #422000",
".j	c #511b00",
".k	c #3b3b3b",
".l	c #313131",
".m	c #2b2b2b",
".n	c #202a24",
".o	c #222424",
".p	c #3b3c1b",
".q	c #372900",
".r	c #1f2a00",
".s	c #311800",
".t	c #291500",
".u	c #161616",
".v	c #1b0000",
".w	c #0c0c0c",
".x	c #0b0b00",
".y	c #000000",
".z	c #3d3d3d",
".A	c #343434",
".B	c #2a2a2a",
".C	c #252525",
".D	c #261b3c",
".E	c #343516",
".F	c #302300",
".G	c #1b241e",
".H	c #1a2400",
".I	c #3a1b00",
".J	c #2a1300",
".K	c #231100",
".L	c #1c1e1e",
".M	c #121212",
".N	c #160000",
".O	c #090909",
".P	c #080800",
".Q	c #000000",
".R	c #000000",
".S	c #000000",
".T	c #000000",
".U	c #000000",
".V	c #000000",
".W	c #000000",
".X	c #000000",
".Y	c #000000",
".Z	c #000000",
".`	c #000000",
"+ 	c #000000",
"+.	c #000000",
"++	c #000000",
"+@	c #000000",
"+#	c #000000",
"+$	c #000000",
"+%	c #000000",
"+&	c #000000",
"+*	c #000000",
"+=	c #000000",
"+-	c #000000",
"+;	c #000000",
"+>	c #000000",
"+,	c #000000",
"+'	c #000000",
"+)	c #000000",
"+!	c #000000",
"+~	c #000000",
"+{	c #000000",
"+]	c #000000",
"+^	c #000000",
"+/	c #000000",
"+(	c #000000",
"+:	c #000000",
"+<	c #000000",
"+[	c #000000",
"+}	c #000000",
"+|	c #000000",
"+1	c #000000",
"+2	c #000000",
"+3	c #000000",
"+4	c #000000",
"+5	c #000000",
"+6	c #000000",
"+7	c #000000",
"+8	c #000000",
"+9	c #000000",
"+0	c #000000",
"+a	c #000000",
"+b	c #000000",
"+c	c #000000",
"+d	c #000000",
"+e	c #000000",
"+f	c #000000",
"+g	c #000000",
"+h	c #000000",
"+i	c #000000",
"+j	c #000000",
"+k	c #000000",
"+l	c #000000",
"+m	c #000000",
"+n	c #000000",
"+o	c #000000",
"+p	c #000000",
"+q	c #000000",
"+r	c #000000",
"+s	c #000000",
"+t	c #000000",
"+u	c #000000",
"+v	c #000000",
"+w	c #000000",
"+x	c #000000",
"+y	c #000000",
"+z	c #000000",
"+A	c #000000",
"+B	c #000000",
"+C	c #000000",
"+D	c #000000",
"+E	c #000000",
"+F	c #000000",
"+G	c #000000",
"+H	c #000000",
"+I	c #000000",
"+J	c #000000",
"+K	c #ffffff",
/* pixels */
"           - -     - - - - - - - -                                                                                                  ",
"         - . . - - . . . . . + + + )                                                                                                ",
"         - . $ . . $ $ $ $ $ $ $ & . )                                                                                              ",
"         - . $ * * $ $ $ $ = = = = = . )                                                                                            ",
"         - . , ' ' - = $ * = , ) ) ) = )                                                                                            ",
"         - - ,     , ' $ * ) ,     ) ) )                                                                                            ",
"                     ' $ = )                 ) ) ) ) )                           )                                                  ",
"                     ' $ = )                 )                                   )                                                  ",
"     ; ; ; ; )       = = > )                 )             ) ) )       ) ) )     ) ) )   )       )   )   )     ) ) )       ) ) )    ",
"   ; . . . . % )   = . $ $ ; )               ) ) ) ) )   )       )           )   )       )       )   ) )     )       )   )          ",
" ; ; ; ; ; ; ; ; ; ; . = ; > )               )           ) ) ) ) )     ) ) ) )   )       )       )   )       ) ) ) ) )   ) )        ",
" ; . . . . . . . . ; . = ; > )               )           )           )       )   )       )       )   )       )               ) )    ",
" ; . . . @ @ $ $ & ; $ = ; > )               )           )       )   )       )   )       )       )   )       )       )         )    ",
" ; . . @ @ $ $ & & ; $ = ; > )               )             ) ) )       ) ) ) )     ) )     ) ) ) )   )         ) ) )     ) ) )      ",
" ; . @ @ $ $ & & & ; $ = ; > )                                                                                                      ",
" ; . @ $ $ & & & = ; $ = ; > )                                                                                                      ",
" ; . $ $ & & & = = ; $ = ; > )                                                                                                      ",
" ; . & & & & = = = ; $ = ; > )                                                                                                      ",
" ) ) ) ) ) ) ) ) ) ; ; > > > )                                                                                                      ",
"                     ) ) ) )                                                                                                        "};
