/* XPM */
static char *noname[] = {
/* width height ncolors chars_per_pixel */
"20 20 12 1",
/* colors */
"  c #000000",
". c #F2F2F2",
"X c #E6E6E6",
"o c #DADADA",
"O c #C2C2C2",
"+ c #C0C0C0",
"@ c #9E9E9E",
"# c #868686",
"$ c #6E6E6E",
"% c #565656",
"& c #FFFFFF",
"* c #323232",
/* pixels */
" &  &  X            ",
"  & & X             ",
"   &&&#########@    ",
"&&&&&&&&&&&&&&&@%   ",
"   &&&&&&&&&&&&@+%  ",
"  & &#&&XXXX&&&@.+% ",
" &  &#&&@@@@@&&*****",
" %%%&%%%%%%XXX&XO$$%",
" %&&&&&&&&%@@@&&X@$%",
" %&&&%%&&&%XXXX&&X@%",
" %&&&%%&&&%@@@@@&&o%",
" %&%%%%%%&%XXXXX&&o%",
" %&%%%%%%&%@@@@@&&o%",
" %&&&%%&&&%XXXXX&&o%",
" %&&&%%&.&%@@@@@&&o%",
" %&&&&&&&&%XXXXX&&o%",
" %%%%%%%%%%@@@@@&&o%",
"     #&&XXXXXXXX&&o%",
"     #&&&&&&&&&&&&o%",
"     #%%%%%%%%%%%%%%"
};
