/* XPM */
static char *noname[] = {
/* width height ncolors chars_per_pixel */
"20 20 28 1",
/* colors */
"  c #000000",
". c #336600",
"X c #CCFF99",
"o c #99CCFF",
"O c #FF0066",
"+ c #D4D0C8",
"@ c #4D4D4D",
"# c #F8F8F8",
"$ c #0099FF",
"% c #33FFFF",
"& c #336699",
"* c #339900",
"= c #CC0000",
"- c #33CC66",
"; c #330099",
": c #99FFFF",
"> c #868686",
", c #3399CC",
"< c #CCFFFF",
"1 c #009999",
"2 c #008000",
"3 c #33CCFF",
"4 c #FF9900",
"5 c #33FF66",
"6 c #FFCC66",
"7 c #99FF99",
"8 c #0000FF",
"9 c #3366FF",
/* pixels */
"++++++......9+++++++",
"++++..###777299+++++",
"+++.##XX55-*219 ++++",
"++.#X5-222229$19 +++",
"+.#XX-*29$$$$9$9; ++",
"+9*5-*29$$$$9$9$8 ++",
"9<$.*22$$$$9$9$98; +",
"9<%$2$3$1@@@@@998; +",
"9<<%33$$@>ooo> 98; +",
"*****3$@>o##<o> 8; +",
"*XX-*2$@o##<:3, 8; +",
"*#X5-*2@o#<::3, 8; +",
"*XXX5-*@o<::3,, 8; +",
"+*X55-*@>o33,,& ; ++",
"+**55-**@,,,,& =  ++",
"++**-**22     6O= ++",
"+++ ..2999998;=6O= +",
"++++  888888;  =6O= ",
"++++++       +++=4= ",
"+++++++++++++++++  +"
};
