/* XPM */
static char * icotool_xpm[] = {
/* width height ncolors chars_per_pixel */
"16 16 257 2",
/* colors */
"   	c #D6D6D6",
" .	c #3b9ad4",
" +	c #fb7b3c",
" @	c #000000",
" #	c #fb7c3d",
" $	c #fc7e3f",
" %	c #fc7e40",
" &	c #ff8549",
" *	c #ff884c",
" =	c #ff9057",
" -	c #ff945d",
" ;	c #ff955d",
" >	c #ff9a65",
" ,	c #ff9f6b",
" '	c #ffa16e",
" )	c #ffae7f",
" !	c #ffaf81",
" ~	c #ffb78c",
" {	c #ffbe95",
" ]	c #ffc198",
" ^	c #ffc49d",
" /	c #ffcba6",
" (	c #ffdcbc",
" :	c #ffe3c6",
" <	c #fff6e0",
" [	c #ffffec",
" }	c #fffff2",
" |	c #fffff8",
" 1	c #ffffff",
" 2	c #ffffff",
" 3	c #ffffff",
" 4	c #ffffff",
" 5	c #ffffff",
" 6	c #ffffff",
" 7	c #ffffff",
" 8	c #ffffff",
" 9	c #ffffff",
" 0	c #ffffff",
" a	c #ffffff",
" b	c #ffffff",
" c	c #ffffff",
" d	c #ffffff",
" e	c #ffffff",
" f	c #ffffff",
" g	c #ffffff",
" h	c #ffffff",
" i	c #ffffff",
" j	c #ffffff",
" k	c #3b3b3b",
" l	c #3b3b3b",
" m	c #3b3b3b",
" n	c #3b3b3b",
" o	c #3b3b3b",
" p	c #3b3b3b",
" q	c #3b3b3b",
" r	c #3b3b3b",
" s	c #3b3b3b",
" t	c #3b3b3b",
" u	c #3b3b3b",
" v	c #3b9ad4",
" w	c #50a7dc",
" x	c #65b4e5",
" y	c #7ac2ed",
" z	c #90cff6",
" A	c #a5dcff",
" B	c #baeaff",
" C	c #cff7ff",
" D	c #e5ffff",
" E	c #faffff",
" F	c #ffffff",
" G	c #ffffff",
" H	c #3b3b3b",
" I	c #3b3b3b",
" J	c #3b3b3b",
" K	c #3b3b3b",
" L	c #3b3b3b",
" M	c #3b3b3b",
" N	c #3b3b3b",
" O	c #3b3b3b",
" P	c #3b3b3b",
" Q	c #3b3b3b",
" R	c #3b3b3b",
" S	c #3b3b3b",
" T	c #3b3b3b",
" U	c #3b3b3b",
" V	c #3b3b3b",
" W	c #3b3b3b",
" X	c #3b3b3b",
" Y	c #3b3b3b",
" Z	c #3b3b3b",
" `	c #3b3b3b",
". 	c #3b3b3b",
"..	c #3b3b3b",
".+	c #3b3b3b",
".@	c #3b3b3b",
".#	c #3b3b3b",
".$	c #3b3b3b",
".%	c #3b3b3b",
".&	c #3b3b3b",
".*	c #3b3b3b",
".=	c #3b3b3b",
".-	c #3b3b3b",
".;	c #3b3b3b",
".>	c #3b3b3b",
".,	c #3b3b3b",
".'	c #3b3b3b",
".)	c #3b3b3b",
".!	c #3b3b3b",
".~	c #3b3b3b",
".{	c #3b3b3b",
".]	c #3b3b3b",
".^	c #3b3b3b",
"./	c #3b3b3b",
".(	c #3b3b3b",
".:	c #3b3b3b",
".<	c #3b3b3b",
".[	c #3b3b3b",
".}	c #3b3b3b",
".|	c #3b3b3b",
".1	c #3b3b3b",
".2	c #3b3b3b",
".3	c #3b3b3b",
".4	c #3b3b3b",
".5	c #3b3b3b",
".6	c #3b3b3b",
".7	c #3b3b3b",
".8	c #3b3b3b",
".9	c #3b3b3b",
".0	c #3b3b3b",
".a	c #3b3b3b",
".b	c #3b3b3b",
".c	c #3b3b3b",
".d	c #3b3b3b",
".e	c #3b3b3b",
".f	c #3b3b3b",
".g	c #3b3b3b",
".h	c #3b3b3b",
".i	c #3b3b3b",
".j	c #3b3b3b",
".k	c #3b3b3b",
".l	c #3b3b3b",
".m	c #3b3b3b",
".n	c #3b3b3b",
".o	c #3b3b3b",
".p	c #3b3b3b",
".q	c #3b3b3b",
".r	c #3b3b3b",
".s	c #3b3b3b",
".t	c #3b3b3b",
".u	c #3b3b3b",
".v	c #3b3b3b",
".w	c #3b3b3b",
".x	c #3b3b3b",
".y	c #3b3b3b",
".z	c #3b3b3b",
".A	c #3b3b3b",
".B	c #3b3b3b",
".C	c #3b3b3b",
".D	c #3b3b3b",
".E	c #3b3b3b",
".F	c #3b3b3b",
".G	c #3b3b3b",
".H	c #3b3b3b",
".I	c #3b3b3b",
".J	c #3b3b3b",
".K	c #3b3b3b",
".L	c #3b3b3b",
".M	c #3b3b3b",
".N	c #3b3b3b",
".O	c #3b3b3b",
".P	c #3b3b3b",
".Q	c #3b3b3b",
".R	c #3b3b3b",
".S	c #3b3b3b",
".T	c #3b3b3b",
".U	c #3b3b3b",
".V	c #3b3b3b",
".W	c #3b3b3b",
".X	c #3b3b3b",
".Y	c #3b3b3b",
".Z	c #3b3b3b",
".`	c #3b3b3b",
"+ 	c #3b3b3b",
"+.	c #3b3b3b",
"++	c #3b3b3b",
"+@	c #3b3b3b",
"+#	c #3b3b3b",
"+$	c #3b3b3b",
"+%	c #3b3b3b",
"+&	c #3b3b3b",
"+*	c #3b3b3b",
"+=	c #3b3b3b",
"+-	c #3b3b3b",
"+;	c #3b3b3b",
"+>	c #3b3b3b",
"+,	c #3b3b3b",
"+'	c #3b3b3b",
"+)	c #3b3b3b",
"+!	c #3b3b3b",
"+~	c #3b3b3b",
"+{	c #3b3b3b",
"+]	c #3b3b3b",
"+^	c #3b3b3b",
"+/	c #3b3b3b",
"+(	c #3b3b3b",
"+:	c #3b3b3b",
"+<	c #3b3b3b",
"+[	c #3b3b3b",
"+}	c #3b3b3b",
"+|	c #3b3b3b",
"+1	c #3b3b3b",
"+2	c #3b3b3b",
"+3	c #3b3b3b",
"+4	c #3b3b3b",
"+5	c #3b3b3b",
"+6	c #3b3b3b",
"+7	c #3b3b3b",
"+8	c #3b3b3b",
"+9	c #3b3b3b",
"+0	c #3b3b3b",
"+a	c #3b3b3b",
"+b	c #3b3b3b",
"+c	c #3b3b3b",
"+d	c #3b3b3b",
"+e	c #3b3b3b",
"+f	c #3b3b3b",
"+g	c #3b3b3b",
"+h	c #3b3b3b",
"+i	c #3b3b3b",
"+j	c #3b3b3b",
"+k	c #3b3b3b",
"+l	c #3b3b3b",
"+m	c #3b3b3b",
"+n	c #3b3b3b",
"+o	c #3b3b3b",
"+p	c #3b3b3b",
"+q	c #3b3b3b",
"+r	c #3b3b3b",
"+s	c #3b3b3b",
"+t	c #3b3b3b",
"+u	c #3b3b3b",
"+v	c #3b3b3b",
"+w	c #3b3b3b",
"+x	c #3b3b3b",
"+y	c #3b3b3b",
"+z	c #3b3b3b",
"+A	c #3b3b3b",
"+B	c #3b3b3b",
"+C	c #3b3b3b",
"+D	c #3b3b3b",
"+E	c #3b3b3b",
"+F	c #3b3b3b",
"+G	c #3b3b3b",
"+H	c #3b3b3b",
"+I	c #3b3b3b",
"+J	c #3b3b3b",
"+K	c #3b3b3b",
/* pixels */
" . . . . . . . . . . . . . . . .",
" . G G G G G G G G G G G G G G .",
" . G G G G G G G G G G G G G G .",
" . G G G G G G F F G G G G G G .",
" . G G G F z w v v w z F G G G .",
" . G G E w v v v v v v w E G G .",
" . G G z v v v v v v v v z G G .",
" . G G w v v v v v v v v w G G .",
" . G G z v v v v v v v v z G G .",
" . G G E w v v v v v v w E G G .",
" . G G G F z w v v w z F G G G .",
" . G G G G G G F F G G G G G G .",
" . G G G G G G G G G G G G G G .",
" . G G G G G G G G G G G G G G .",
" . . . . . . . . . . . . . . . .",
"                                "};
