/* XPM */
static char *noname[] = {
/* width height ncolors chars_per_pixel */
"16 16 4 1",
/* colors */
"  c #000000",
". c #DADADA",
"X c #C0C0C0",
"o c #808000",
/* pixels */
"................",
".              .",
". o XXXXXXXX . .",
". o XXXXXXXX   .",
". o XXXXXXXX o .",
". o XXXXXXXX o .",
". o XXXXXXXX o .",
". o XXXXXXXX o .",
". oo        oo .",
". oooooooooooo .",
". oo         o .",
". oo      XX o .",
". oo      XX o .",
". oo      XX o .",
"..             .",
"................"
};
