/* XPM */
static char *noname[] = {
/* width height ncolors chars_per_pixel */
"16 16 27 1",
/* colors */
"  c #9A9BD6",
". c #9797EA",
"X c #6060A0",
"o c #B6B6C6",
"O c #A6A6CA",
"+ c #D6D3CE",
"@ c #818181",
"# c #A6A6D3",
"$ c #6F70E9",
"% c #BDC4DC",
"& c #7677E9",
"* c #A7A7B9",
"= c #DADADA",
"- c #CFD0E3",
"; c #8F90ED",
": c #A7A8F7",
"> c #B9B9D7",
", c #C7C7D4",
"< c #757576",
"1 c #8888DE",
"2 c #808080",
"3 c #8585E8",
"4 c #D4D4FD",
"5 c #FFFFFF",
"6 c #C5C5FB",
"7 c #B3A7A7",
"8 c #B6B6F9",
/* pixels */
"2222222222222225",
"2++++++++++++++5",
"2+XXXXXXXXXXXX+5",
"2+XXXXXXXXXXXX+5",
"2+7==========@+5",
"2+7==========@+5",
"2+7==*O#  ,==@+5",
"2+7=*646:;3>=@+5",
"2+7=#668:;&1=@+5",
"2+7=O:::.3$ =@+5",
"2+7=, .;3& ==@+5",
"2+7===,o%-===@+5",
"2+7==========@+5",
"2+<<<<<<<<<<<<+5",
"2++++++++++++++5",
"5555555555555555"
};
