/* XPM */
static char *noname[] = {
/* width height ncolors chars_per_pixel */
"16 16 2 1",
/* colors */
"` c #000000",
"a c #FFFFFF",
/* pixels */
"````````````````",
"``aaaaa``aa``aa`",
"``aaaaa``aa``aa`",
"`````````````aa`",
"`````````````aa`",
"``aaaaa``aa``aa`",
"`````````aa`````",
"`````````aa`````",
"``aaaaa``aa``aa`",
"``aaaaa``aa``aa`",
"``a``````````aa`",
"``a`````````````",
"``aaaaa``aaaaaa`",
"``aaaaa``aaaaaa`",
"````````````````",
"````````````````"
};
