/* XPM */
static char *profiler[] = {
/* width height num_colors chars_per_pixel */
"    16    16        4            1",
/* colors */
". c #000000",
"# c #c0c0c0",
"a c #0000ff",
"b c #ff00ff",
/* pixels */
"################",
"#.##############",
"#.##############",
"#.##############",
"#.b####a######b#",
"#.#b##a#a####b##",
"#.##ba###aa#b###",
"#.##ab#####b####",
"#.#a#b#####ba###",
"#.a###b###b##a##",
"#.#####b#b####a#",
"#.######b#######",
"#.##############",
"#.##############",
"#..............#",
"################"
};
SIMPLE  =                    T                                                  BITPIX  =                    8                                                  NAXIS   =                    2                                                  NAXIS1  =                   16                                                  NAXIS2  =                   16                                                  HISTORY Written by XV 3.10a                                                     END                                                                                                                                                                                                                                                                                                                                                                                                                                                                                                                                                                                                                                                                                                                                                                                                                                                                                                                                                                                                                                                                                                                                                                                                                                                                                                                                                                                                                                                                                                                                                                                                                                                                                                                                                                                                                                                                                                                                                                                                                                                                                                                                                                                                                                                                                                                                                                                                                                                                                             응응응응응응응응
