/* XPM */
static char *noname[] = {
/* width height ncolors chars_per_pixel */
"16 16 3 1",
/* colors */
"  c #000000",
". c #D6D3CE",
"X c #0000FF",
/* pixels */
"................",
". ..............",
". ..............",
". ..............",
". X....X......X.",
". .X..X.X....X..",
". ..XX...XX.X...",
". ..X......X....",
". .X.X.....XX...",
". X...X...X..X..",
". .....X.X....X.",
". ......X.......",
". ..............",
". ..............",
".              .",
"................"
};
