/* XPM */
static char *noname[] = {
/* width height ncolors chars_per_pixel */
"64 64 2 1",
/* colors */
"  c #000000",
". c #FFFFFF",
/* pixels */
"................................................................",
"................................ ...............................",
"................................ ...............................",
"................................ ...............................",
"................................ ...............................",
"................................ ...............................",
"................................ ...............................",
"................................ ...............................",
"................................ ...............................",
"................................ ...............................",
"................................ ...............................",
"................................ ...............................",
"................................ ...............................",
"................................ ...............................",
"...............................   ..............................",
"............................... . ..............................",
"...............................   ..............................",
"..............................  .  .............................",
"...............................   ..............................",
"............................... . ..............................",
"............................... . ..............................",
"............................... . ..............................",
"..............................     .............................",
"..............................     .............................",
".............................       ............................",
"..............................  .  .............................",
"............................   ...   ...........................",
"............................         ...........................",
"...........................           ..........................",
"...........................    ...    ..........................",
"..........................   .......   .........................",
".........................   .........   ........................",
"........................   ...........   .......................",
"........................    .........    .......................",
"................................................................",
"................................................................",
"................................................................",
"................................................................",
"................................................................",
"........................................................... ....",
"..    ...    ..       ....      .  ...  ..  .....   ......  ....",
"...  ...  .. ...  ... ....  ... .  .. . . . ......  .....   ....",
"...  ...  .. ...  ........  ........  ..  ........  ....    ....",
"... .....  .....     .....     .           ..  ... .....   .....",
"... ......  .... .. ...... .. ... .. ... ... .  .  .... .  .....",
"..  ... ... ...  ........  .....  .. ... ..   ...  ...      ....",
"..  ... ... ...   .. ....   .. .  .  ..  ..  .. .  ......  .....",
".    ..    ...       ...       .     ..  ...   ..   ....  ......",
"................................... ... ........................",
".................................  ..  .........................",
"................................................................",
"................................................................",
"................................................................",
"................................................................",
"................................................................",
"................................................................",
"................................................................",
"................................................................",
"................................................................",
"................................................................",
"................................................................",
"................................................................",
"................................................................",
"................................................................"
};
