/* XPM */
static char *noname[] = {
/* width height ncolors chars_per_pixel */
"16 16 3 1",
/* colors */
"  c #000000",
". c #D6D3CE",
"X c #808080",
/* pixels */
"....... ........",
"....... ........",
"....... ........",
"....... ........",
"....... ........",
"...... X .......",
"...... X .......",
"...... X .......",
"..... XXX ......",
"..... XXX ......",
".... XX XX .....",
"... XXXXXXX ....",
".. XX     XX ...",
".. X ..... X ...",
". XX ..... XX ..",
"..  .......  ..."
};
