/* XPM */
static char *noname[] = {
/* width height ncolors chars_per_pixel */
"48 16 15 1",
/* colors */
"  c #000000",
". c #77D4FF",
"X c #FDFE9B",
"o c #D6D3CE",
"O c #ECF9FF",
"+ c #63CDFF",
"@ c #4FC7FF",
"# c #808080",
"$ c #B1E6FF",
"% c #9DE0FF",
"& c #89DAFF",
"* c #FFFFFF",
"= c #FFFF00",
"- c #D8F2FF",
"; c #C4ECFF",
/* pixels */
"ooooooooooooooo ==**X== #oooooooo #ooooooooooooo",
"oooooooooooooo ==**X== ##oooooooo ##oooooooooooo",
"ooooooooooooo ==**X== ##oooooooo @ #oooooooooooo",
"oooooooooooo ==**X== ##ooooooooo + ##ooooooooooo",
"ooooooooooo ==**X== ##ooooooooo ... #ooooooooooo",
"oooooooooo ==**X== #####ooooooo &&& ##oooooooooo",
"ooooooooo ==XX**X      #oooooo &%%%% ##ooooooooo",
"oooooooo ===== =**X== ##ooooo &%%$$$$ #ooooooooo",
"ooooooo       =**X== ##oooooo %%$;;;; ##oooooooo",
"ooooooooooooo =*X=  ##oooooo &%$;----- #oooooooo",
"oooooooooooo =*X= ###ooooooo &%$;-OOO- ##ooooooo",
"oooooooooooo *=  ##ooooooooo &%$;-O*O- ##ooooooo",
"ooooooooooo *=  ##oooooooooo &%$;-OOO- ##ooooooo",
"ooooooooooo = ###oooooooooooo %$;---- ##oooooooo",
"ooooooooooo  ##ooooooooooooooo %$;;; ###oooooooo",
"oooooooooo  ##ooooooooooooooooo     ##oooooooooo"
};
