/* XPM */
static char *noname[] = {
/* width height ncolors chars_per_pixel */
"16 16 4 1",
/* colors */
"` c #000000",
"a c #C0C0C0",
"b c #FFFFFF",
"c c #0000FF",
/* pixels */
"aaaaaaaaaaaaaaaa",
"aaaaaa````baaaaa",
"aaaaaa`cccbaaaaa",
"aaaaaa`cccbaaaaa",
"aaaaaa`cccbaaaaa",
"aa`````ccc````ba",
"aa`cccccccccccba",
"aa`cccccbcccccba",
"aa`cccccccccccba",
"aabbbb`cccbbbbba",
"aaaaaa`cccbaaaaa",
"aaaaaa`cccbaaaaa",
"aaaaaa`cccbaaaaa",
"aaaaaabbbbbaaaaa",
"aaaaaaaaaaaaaaaa",
"aaaaaaaaaaaaaaaa"
};
