/* XPM */
static char *noname[] = {
/* width height ncolors chars_per_pixel */
"16 16 28 1",
/* colors */
"  c #9797EA",
". c #6060A0",
"X c #D6D3CE",
"o c #818181",
"O c #7B83FF",
"+ c #7A7AC9",
"@ c #D0C4C4",
"# c #3636FA",
"$ c #8689F9",
"% c #777AB8",
"& c #DADADA",
"* c #8F90ED",
"= c #C0C0C0",
"- c #C7C7D4",
"; c #757576",
": c #A7A6A7",
"> c #494AFD",
", c #808080",
"< c #8585E8",
"1 c #555AFE",
"2 c #FFFFFF",
"3 c #7B84C6",
"4 c #B3A7A7",
"5 c #5A63FF",
"6 c #989899",
"7 c #A0A0A4",
"8 c #6465FE",
"9 c #B7B7B7",
/* pixels */
",,,,,,,,,,,,,,,2",
",XXXXXXXXXXXXXX2",
",X............X2",
",X............X2",
",X4&&&&&&&&&&oX2",
",X4&&&7%%9&&&oX2",
",X4&&&6$89&&&oX2",
",X4&:7;$87=-&oX2",
",X4&3$$O851*&oX2",
",X4&+888>##<&oX2",
",X4&=9:5#=-&&oX2",
",X4&&&@5#&&&&oX2",
",X4&&&& <&&&&oX2",
",X;;;;;;;;;;;;X2",
",XXXXXXXXXXXXXX2",
"2222222222222222"
};
