/* XPM */
static char *noname[] = {
/* width height ncolors chars_per_pixel */
"16 16 27 1",
/* colors */
"  c #9797EA",
". c #6060A0",
"X c #818181",
"o c #7B83FF",
"O c #7A7AC9",
"+ c #D0C4C4",
"@ c #3636FA",
"# c #8689F9",
"$ c #777AB8",
"% c #DADADA",
"& c #8F90ED",
"* c #C0C0C0",
"= c #C7C7D4",
"- c #757576",
"; c #A7A6A7",
": c #494AFD",
"> c #808080",
", c #8585E8",
"< c #555AFE",
"1 c #FFFFFF",
"2 c #7B84C6",
"3 c #B3A7A7",
"4 c #5A63FF",
"5 c #989899",
"6 c #A0A0A4",
"7 c #6465FE",
"8 c #B7B7B7",
/* pixels */
">>>>>>>>>>>>>>>1",
">**************1",
">*............*1",
">*............*1",
">*3%%%%%%%%%%X*1",
">*3%%%6$$8%%%X*1",
">*3%%%5#78%%%X*1",
">*3%;6-#76*=%X*1",
">*3%2##o74<&%X*1",
">*3%O777:@@,%X*1",
">*3%*8;4@*=%%X*1",
">*3%%%+4@%%%%X*1",
">*3%%%% ,%%%%X*1",
">*------------*1",
">**************1",
"1111111111111111"
};
