/* XPM */
static char *noname[] = {
/* width height ncolors chars_per_pixel */
"16 16 31 1",
/* colors */
"  c #9A9BD6",
". c #9797EA",
"X c #89899A",
"o c #B6B6C6",
"O c #D6D3CE",
"+ c #7376A5",
"@ c #818181",
"# c #7B83FF",
"$ c #A6A6D3",
"% c #8689F9",
"& c #7B7B98",
"* c #8585A8",
"= c #777AB8",
"- c #9797AC",
"; c #C0C0C0",
": c #C7C7D4",
"> c #757576",
", c #A8A8EA",
"< c #9A9AC5",
"1 c #494AFD",
"2 c #9595B9",
"3 c #0000AB",
"4 c #7373D6",
"5 c #555AFE",
"6 c #7B84C6",
"7 c #65658C",
"8 c #6B73FF",
"9 c #8889B8",
"0 c #73738C",
"q c #3942FF",
"w c #6465FE",
/* pixels */
"OO3OOOOOOOOOOOOO",
"O333OOOOOOOOOOOO",
"33333OOOOOOOOOOO",
"O@3@@>OOOOOOOOOO",
"OO3@OOOOOOOOOOOO",
"OO3>OOOOOOOOOOOO",
"OO33333OO>&+XOOO",
"OOO>@@>@O>%8*OOO",
"OOOOOOOOO7%8*OOO",
"OOOOOO>&0+%8=9<o",
"OOOOOO*%%%#w555 ",
"OOOOOO*888w1qqq.",
"OOOOOO-9965q4< :",
"OOOOOOOOO25q<OOO",
"OOOOOOOOO<5q$OOO",
"OOOOOOOOO;,.:OOO"
};
