/* XPM */
static char *noname[] = {
/* width height ncolors chars_per_pixel */
"16 16 25 1",
/* colors */
"  c #9797EA",
". c #D6D3CE",
"X c #4F50FF",
"o c #8689F9",
"O c #6F70E9",
"+ c #CA50B8",
"@ c #7677E9",
"# c #C78DBA",
"$ c #F5C6ED",
"% c #CE64BD",
"& c #EDB4E5",
"* c #B9A3B5",
"= c #8888DE",
"- c #0000AB",
"; c #CFAECA",
": c #B3A7A7",
"> c #8C93FE",
", c #E596D8",
"< c #E7A8DD",
"1 c #3942FF",
"2 c #DA8ACD",
"3 c #B391AD",
"4 c #6465FE",
"5 c #D770CA",
"6 c #7475FD",
/* pixels */
"..:3###*........",
".*&&<,5%#.......",
"3&$&<,5%+#......",
"#<&<,25%+5......",
"*,,,225++#......",
".#2255%+#.......",
"..*####;...>6=..",
"....--.....>6=..",
"....--.....>6=..",
"....--.-   o64OO",
"....-----6664XXX",
"....-----@@4X1XX",
".......-...4XO..",
"...........4XO..",
"...........4XO..",
"................"
};
