/* XPM */
static char *noname[] = {
/* width height ncolors chars_per_pixel */
"16 16 30 1",
/* colors */
"  c #9A9BD6",
". c #9797EA",
"X c #89899A",
"o c #B6B6C6",
"O c #A6A6CA",
"+ c #D6D3CE",
"@ c #7376A5",
"# c #818181",
"$ c #7B83FF",
"% c #8689F9",
"& c #7B7B98",
"* c #8585A8",
"= c #777AB8",
"- c #9797AC",
"; c #C7C7D4",
": c #757576",
"> c #A8A8EA",
", c #9A9AC5",
"< c #494AFD",
"1 c #9595B9",
"2 c #0000AB",
"3 c #7373D6",
"4 c #555AFE",
"5 c #7B84C6",
"6 c #65658C",
"7 c #6B73FF",
"8 c #8889B8",
"9 c #73738C",
"0 c #3942FF",
"q c #6465FE",
/* pixels */
"+++:@@X+++++++++",
"+++9%7*+++++++++",
"+++6%7*+++++++++",
"#&9@%7=8,o++++++",
"*%%%$q444 ++++++",
"8777q<000 ++++++",
"-885403, ;++++++",
"+++140,+++++++++",
"+++O40 +22222+++",
"+++o>.;++###2#++",
"++++++++++++2#++",
"++++++++++++2#++",
"++++++++++22222+",
"+++++++++++222#:",
"++++++++++++2##+",
"+++++++++++++:++"
};
