/* XPM */
static char *noname[] = {
/* width height ncolors chars_per_pixel */
"16 16 24 1",
/* colors */
"  c #000000",
". c #928D92",
"X c #D6D3CE",
"o c #818181",
"O c #434343",
"+ c #70706F",
"@ c #312F31",
"# c #DADADA",
"$ c #C0C0C0",
"% c #C7C7D4",
"& c #17171A",
"* c #757576",
"= c #A7A6A7",
"- c #EDEDF2",
"; c #555556",
": c #B7B9E1",
"> c #353536",
", c #FFFFFF",
"< c #FFFF00",
"1 c #B3A7A7",
"2 c #989899",
"3 c #605F62",
"4 c #A0A0A4",
"5 c #B7B7B7",
/* pixels */
".222222222.OXXXX",
"2,,,,.,,,,,>XXXX",
"2,::,35,::,>XXXX",
"2,,,,2#,,,,>XXXX",
"2,::,55,::,@ XXX",
"2,,,,*1,,,, < XX",
"2,::,;4-,,  << X",
"2,,,,;o2, <<<<< ",
"2,:,*34#,,  << X",
"2,,,;**+,,, < XX",
"2,,$O+$=,:,& XXX",
"2,,5O25==,, XXXX",
"2,,O*2.==,,&XXXX",
"2,,O%,,,,:, XXXX",
"2,,,,,,,,,, XXXX",
">>>>>>>>>>> XXXX"
};
