/* XPM */
static char *noname[] = {
/* width height ncolors chars_per_pixel */
"16 16 21 1",
/* colors */
"  c #9797EA",
". c #928D92",
"X c #D6D3CE",
"o c #7B83FF",
"O c #7A7AC9",
"+ c #3636FA",
"@ c #8689F9",
"# c #777AB8",
"$ c #C0C0C0",
"% c #C7C7D4",
"& c #757576",
"* c #A7A6A7",
"= c #8585E8",
"- c #0000AB",
"; c #555AFE",
": c #B3A7A7",
"> c #8889B8",
", c #989899",
"< c #3942FF",
"1 c #6465FE",
"2 c #B7B7B7",
/* pixels */
"$$-XXXXXXXXXXXXX",
"$---XXXXXXXXXXXX",
"-----XXXXXXXXXXX",
"XX-XXXXXXXXXXXXX",
"XX-XXX.#O*XXXXXX",
"XX---X.@1*XXXXXX",
"XXXX,.&@1,2XXXXX",
"XXXX>@@o1;; XXXX",
"XXXXO111<++=XXXX",
"XXXX::*;+2X%XXXX",
"XXXXXX2;<XX---XX",
"XXXXXXX =%XXX-XX",
"XXXXXXXXXXXXX-XX",
"XXXXXXXXXXX-----",
"XXXXXXXXXXXX---$",
"XXXXXXXXXXXXX-$$"
};
