/* XPM */
static char *noname[] = {
/* width height ncolors chars_per_pixel */
"16 16 3 1",
/* colors */
"` c #000000",
"a c #C0C0C0",
"b c #0000FF",
/* pixels */
"aaaaaaa``aaaaaaa",
"aaaaaa````aaaaaa",
"aaaaa``````aaaaa",
"aaaaaaa``aaaaaaa",
"aaaaaaaaaaaaaaaa",
"aaaaaaabbaaaaaaa",
"aaaaaaabbaaaaaaa",
"aaaaabbbbbbaaaaa",
"aaaaabbbbbbaaaaa",
"aaaaaaabbaaaaaaa",
"aaaaaaabbaaaaaaa",
"aaaaaaaaaaaaaaaa",
"aaaaaaa``aaaaaaa",
"aaaaa``````aaaaa",
"aaaaaa````aaaaaa",
"aaaaaaa``aaaaaaa"
};
