/* XPM */
static char *noname[] = {
/* width height ncolors chars_per_pixel */
"16 16 8 1",
/* colors */
"  c #000000",
". c #928D92",
"X c #D6D3CE",
"o c #CFD0E3",
"O c #EDEDF2",
"+ c #808080",
"@ c #000080",
"# c #B7B7B7",
/* pixels */
"......... XXXXXX",
".OOOOOOOO XXXXXX",
".Ooo+@@@@+XXXXXX",
".OO+@####@+### X",
".Oo@o#OOOO@OOO X",
".OO@O#Oo@@@@@O X",
".Oooo#OOO@@@OO X",
".OOOO#Oooo@ooO X",
".Oo@o#OOOOOOOO X",
".O@@@#OooooooO X",
".@@@@@OOOO@OOO X",
".OO@O#Oooo@ooO X",
"   +@#OOO@+OOO X",
"XXXX+@@@@+oooO X",
"XXXXX#OOOOOOOO X",
"XXXXX          X"
};
