/* XPM */
static char *noname[] = {
/* width height ncolors chars_per_pixel */
"16 16 5 1",
/* colors */
"  c #000000",
". c #D6D3CE",
"X c #C8CA00",
"o c #FFFFFF",
"O c #FFFF00",
/* pixels */
".. X OoO .......",
". XX oOo .......",
" XXX OoO .......",
"     o      ....",
" OoOo X OoO ....",
" oOo XX oOo ....",
" OoO    Oo     .",
" oOo OoOo OoOo .",
"     oOo OoOoO .",
".... Oo OoOoOo .",
".... oO oOoOoO .",
"....    OoOoOo .",
"....... oOoOoO .",
"....... OoOoOo .",
"....... oOoOoO .",
".......        ."
};
