/* XPM */
static char *noname[] = {
/* width height ncolors chars_per_pixel */
"16 16 2 1",
/* colors */
"` c #000000",
"a c #C0C0C0",
/* pixels */
"`````aaaaaaaaaaa",
"`````aaaaaaaaaaa",
"aaaaaaaaaaaaaaaa",
"aaaaaaaaa`aaaaaa",
"`````aaa``aaaaaa",
"`````aa`````````",
"aaaaaa``````````",
"aaaaa`````aaaaaa",
"`````a``````````",
"`````aa`````````",
"aaaaaaaa``aaaaaa",
"aaaaaaaaa`aaaaaa",
"`````aaaaaaaaaaa",
"`````aaaaaaaaaaa",
"aaaaaaaaaaaaaaaa",
"aaaaaaaaaaaaaaaa"
};
