/* XPM */
static char *noname[] = {
/* width height ncolors chars_per_pixel */
"16 16 6 1",
/* colors */
"  c #000000",
". c #F5F6AA",
"X c #C0C0C0",
"o c #808080",
"O c #A7A900",
"+ c #FFFF00",
/* pixels */
"XXXXXXXXXXXXXXXX",
"XXXXXXXXXXXXXXXX",
"XXXXXXXXXo   oXX",
"XXXXXXXXo XXX X ",
"XXXXXXXX XXXXX  ",
"XX   XXXXXXXX   ",
"X .++       XXXX",
"X .++++++++ XXXX",
"X .++++++++ XXXX",
"X .+++          ",
"X .++ OOOOOOOOO ",
"X .+ OOOOOOOOO X",
"X . OOOOOOOOO XX",
"X  OOOOOOOOO XXX",
"X           XXXX",
"XXXXXXXXXXXXXXXX"
};
