#define aggreg_width 17
#define aggreg_height 17
static char aggreg_bits[] = {
   0x00, 0x00, 0x00, 0x00, 0x40, 0x00, 0x00, 0x40, 0x00, 0x00, 0x20, 0x00,
   0x00, 0x20, 0x00, 0x00, 0x20, 0x00, 0x00, 0x30, 0x00, 0xfe, 0x1f, 0x00,
   0x00, 0x00, 0x00, 0xfe, 0x1f, 0x00, 0x00, 0x30, 0x00, 0x00, 0x20, 0x00,
   0x00, 0x20, 0x00, 0x00, 0x20, 0x00, 0x00, 0x40, 0x00, 0x00, 0x40, 0x00,
   0x00, 0x00, 0x00};
