#define argument_width 17
#define argument_height 17
static char argument_bits[] = {
   0xff, 0xff, 0xff, 0xff, 0xff, 0xff, 0xff, 0xff, 0xff, 0xff, 0xff, 0xff,
   0xff, 0xff, 0xff, 0xff, 0xff, 0xff, 0xdf, 0xc7, 0xff, 0x9f, 0x83, 0xff,
   0x01, 0x01, 0xff, 0x9f, 0x83, 0xff, 0xdf, 0xc7, 0xff, 0xff, 0xff, 0xff,
   0xff, 0xff, 0xff, 0xff, 0xff, 0xff, 0xff, 0xff, 0xff, 0xff, 0xff, 0xff,
   0xff, 0xff, 0xff};
