#define complink_width 17
#define complink_height 17
static char complink_bits[] = {
   0xff, 0xff, 0xff, 0xff, 0xef, 0xff, 0xc7, 0xc3, 0xff, 0x03, 0xef, 0xff,
   0x01, 0xbe, 0xff, 0x01, 0x02, 0xff, 0x01, 0xbe, 0xff, 0x03, 0xef, 0xff,
   0xff, 0xc3, 0xff, 0xff, 0xef, 0xff, 0x55, 0xfd, 0xff, 0xff, 0xdf, 0xff,
   0xff, 0x9f, 0xff, 0x01, 0x00, 0xff, 0xff, 0x9f, 0xff, 0xff, 0xdf, 0xff,
   0xff, 0xff, 0xff};
