#define constraint_width 17
#define constraint_height 17
static char constraint_bits[] = {
   0xff, 0xff, 0xff, 0xff, 0xff, 0xff, 0xff, 0xff, 0xff, 0xff, 0xff, 0xff,
   0xff, 0xff, 0xff, 0x21, 0x64, 0xff, 0xbd, 0x65, 0xff, 0xbd, 0x55, 0xff,
   0xbd, 0x55, 0xff, 0xbd, 0x35, 0xff, 0xbd, 0x75, 0xff, 0x21, 0x74, 0xff,
   0xff, 0xff, 0xff, 0xff, 0xff, 0xff, 0xff, 0xff, 0xff, 0xff, 0xff, 0xff,
   0xff, 0xff, 0xff};
