#define dictiony_width 17
#define dictiony_height 17
static char dictiony_bits[] = {
   0x00, 0x00, 0x00, 0x0c, 0x60, 0x00, 0x34, 0x58, 0x00, 0xc6, 0xc6, 0x00,
   0x16, 0xd1, 0x00, 0x26, 0xc9, 0x00, 0x56, 0xd5, 0x00, 0x26, 0xc9, 0x00,
   0x56, 0xd5, 0x00, 0x26, 0xc9, 0x00, 0x0e, 0xe1, 0x00, 0x32, 0x99, 0x00,
   0x46, 0xc5, 0x00, 0x98, 0x33, 0x00, 0x60, 0x0c, 0x00, 0x80, 0x03, 0x00,
   0x00, 0x00, 0x00};
