#define documentation_width 17
#define documentation_height 17
static char documentation_bits[] = {
   0x00, 0x00, 0x00, 0x00, 0x00, 0x00, 0xfe, 0x00, 0x00, 0x82, 0x00, 0x00,
   0x82, 0x00, 0x00, 0xea, 0x07, 0x00, 0x22, 0x04, 0x00, 0xba, 0x05, 0x00,
   0x22, 0x3f, 0x00, 0xba, 0x21, 0x00, 0x22, 0x2d, 0x00, 0xaa, 0x21, 0x00,
   0x22, 0x25, 0x00, 0x22, 0x21, 0x00, 0x3e, 0x2d, 0x00, 0xe0, 0x21, 0x00,
   0x00, 0x3f, 0x00};
