#define dstats_width 17
#define dstats_height 17
static unsigned char dstats_bits[] = {
   0x00, 0x00, 0x00, 0x02, 0x00, 0x00, 0x02, 0x0e, 0x00, 0x02, 0x0a, 0x00,
   0x02, 0x0a, 0x00, 0x3a, 0xea, 0x00, 0x2a, 0xaa, 0x00, 0xaa, 0xbb, 0x00,
   0xae, 0xaa, 0x00, 0xaa, 0xaa, 0x00, 0xea, 0xaa, 0x00, 0xaa, 0xaa, 0x00,
   0xaa, 0xaa, 0x00, 0xaa, 0xaa, 0x00, 0xaa, 0xaa, 0x00, 0xfe, 0xff, 0x01,
   0x00, 0x00, 0x00};
