#define featclau_width 17
#define featclau_height 17
static unsigned char featclau_bits[] = {
   0xff, 0xff, 0xff, 0xc7, 0xff, 0xff, 0xc7, 0xff, 0xff, 0x01, 0xff, 0xff,
   0x01, 0xff, 0xff, 0x01, 0xff, 0xff, 0xc7, 0xff, 0xff, 0x47, 0xff, 0xff,
   0xff, 0xff, 0xff, 0xff, 0xc5, 0xff, 0xff, 0xc7, 0xff, 0xff, 0x01, 0xff,
   0xff, 0x01, 0xff, 0xff, 0x01, 0xff, 0xff, 0xc7, 0xff, 0xff, 0xc7, 0xff,
   0xff, 0xff, 0xff};
