#define ff_help_width 17
#define ff_help_height 17
static char ff_help_bits[] = {
   0x00, 0x00, 0x00, 0x00, 0x00, 0x00, 0x00, 0x00, 0x00, 0x00, 0x00, 0x00,
   0x00, 0x08, 0x00, 0x00, 0x18, 0x00, 0x00, 0x38, 0x00, 0xfe, 0x7f, 0x00,
   0xfe, 0xff, 0x00, 0xfe, 0x7f, 0x00, 0x00, 0x38, 0x00, 0x00, 0x18, 0x00,
   0x00, 0x08, 0x00, 0x00, 0x00, 0x00, 0x00, 0x00, 0x00, 0x00, 0x00, 0x00,
   0x00, 0x00, 0x00};
