#define generic_width 17
#define generic_height 17
static char generic_bits[] = {
   0xff, 0xff, 0xff, 0xff, 0xff, 0xff, 0xff, 0xff, 0xff, 0xff, 0xff, 0xff,
   0x63, 0x18, 0xff, 0x33, 0x33, 0xff, 0x33, 0x3f, 0xff, 0x33, 0x3f, 0xff,
   0x33, 0x31, 0xff, 0x33, 0x33, 0xff, 0x33, 0x33, 0xff, 0x33, 0x33, 0xff,
   0x63, 0x10, 0xff, 0xff, 0xff, 0xff, 0xff, 0xff, 0xff, 0xff, 0xff, 0xff,
   0xff, 0xff, 0xff};
