#define hd_aggreg_width 17
#define hd_aggreg_height 17
static char hd_aggreg_bits[] = {
   0x00, 0x00, 0x00, 0x00, 0x40, 0x00, 0x00, 0x00, 0x00, 0x00, 0x00, 0x00,
   0x00, 0x20, 0x00, 0x00, 0x00, 0x00, 0x00, 0x20, 0x00, 0x54, 0x15, 0x00,
   0x00, 0x00, 0x00, 0x54, 0x15, 0x00, 0x00, 0x20, 0x00, 0x00, 0x00, 0x00,
   0x00, 0x20, 0x00, 0x00, 0x00, 0x00, 0x00, 0x00, 0x00, 0x00, 0x40, 0x00,
   0x00, 0x00, 0x00};
