#define hd_compinh_width 17
#define hd_compinh_height 17
static char hd_compinh_bits[] = {
   0x00, 0x10, 0x00, 0x00, 0x20, 0x00, 0x54, 0x55, 0x00, 0x00, 0x20, 0x00,
   0x00, 0x10, 0x00, 0x00, 0x00, 0x00, 0x00, 0x10, 0x00, 0x00, 0x20, 0x00,
   0x54, 0x55, 0x00, 0x00, 0x20, 0x00, 0x00, 0x10, 0x00, 0x00, 0x00, 0x00,
   0x00, 0x10, 0x00, 0x00, 0x20, 0x00, 0x54, 0x55, 0x00, 0x00, 0x20, 0x00,
   0x00, 0x10, 0x00};
