#define hdlabel_width 17
#define hdlabel_height 17
static char hdlabel_bits[] = {
   0x00, 0x00, 0x00, 0x00, 0x00, 0x00, 0x90, 0x28, 0x00, 0x00, 0x02, 0x00,
   0xa8, 0x08, 0x00, 0x00, 0x02, 0x00, 0xa8, 0x28, 0x00, 0x00, 0x00, 0x00,
   0x00, 0x00, 0x00, 0x00, 0x10, 0x00, 0x00, 0x30, 0x00, 0xfe, 0x7f, 0x00,
   0xfe, 0xff, 0x00, 0xfe, 0x7f, 0x00, 0x00, 0x30, 0x00, 0x00, 0x10, 0x00,
   0x00, 0x00, 0x00};
