#define ileftd_width 16
#define ileftd_height 16
static unsigned char ileftd_bits[] = {
   0xff, 0x00, 0x81, 0x00, 0xbd, 0x00, 0x81, 0x00, 0x9d, 0x00, 0x81, 0xfe,
   0xbd, 0x82, 0x81, 0xba, 0x8d, 0x82, 0x81, 0xfe, 0xff, 0x00, 0x08, 0x00,
   0x1c, 0x10, 0x2a, 0x10, 0x08, 0x10, 0xf8, 0x1f};
