#define label_width 17
#define label_height 17
static char label_bits[] = {
   0x00, 0x00, 0x00, 0x00, 0x00, 0x00, 0x90, 0x39, 0x00, 0xa8, 0x0a, 0x00,
   0xb8, 0x09, 0x00, 0xa8, 0x0a, 0x00, 0xa8, 0x39, 0x00, 0x00, 0x00, 0x00,
   0x00, 0x00, 0x00, 0x00, 0x10, 0x00, 0x00, 0x30, 0x00, 0xfe, 0x7f, 0x00,
   0xfe, 0xff, 0x00, 0xfe, 0x7f, 0x00, 0x00, 0x30, 0x00, 0x00, 0x10, 0x00,
   0x00, 0x00, 0x00};
