#define marker_width 17
#define marker_height 17
static char marker_bits[] = {
   0x00, 0x00, 0x00, 0x20, 0x00, 0x00, 0x50, 0x00, 0x00, 0x88, 0x00, 0x00,
   0x04, 0x01, 0x00, 0x02, 0x02, 0x00, 0x04, 0x01, 0x00, 0x88, 0x00, 0x00,
   0x50, 0x00, 0x00, 0x20, 0x38, 0x00, 0x00, 0x44, 0x00, 0x00, 0x82, 0x00,
   0x00, 0x82, 0x00, 0x00, 0x82, 0x00, 0x00, 0x44, 0x00, 0x00, 0x38, 0x00,
   0x00, 0x00, 0x00};
