#define n_bracket_width 15
#define n_bracket_height 7
static char n_bracket_bits[] = {
   0xc0, 0x01, 0x78, 0x0f, 0x3e, 0x3e, 0x07, 0x70, 0x01, 0x40, 0x00, 0x00,
   0x00, 0x00};
