#define prevarrw_width 17
#define prevarrw_height 17
static char prevarrw_bits[] = {
   0x00, 0x00, 0x00, 0x00, 0x00, 0x00, 0x00, 0x00, 0x00, 0x00, 0x00, 0x00,
   0x20, 0x00, 0x00, 0x30, 0x00, 0x00, 0x38, 0x00, 0x00, 0xfc, 0xff, 0x00,
   0xfe, 0xff, 0x00, 0xfc, 0xff, 0x00, 0x38, 0x00, 0x00, 0x30, 0x00, 0x00,
   0x20, 0x00, 0x00, 0x00, 0x00, 0x00, 0x00, 0x00, 0x00, 0x00, 0x00, 0x00,
   0x00, 0x00, 0x00};
