#define printer_width 17
#define printer_height 17
static char printer_bits[] = {
   0x00, 0x00, 0x00, 0xe0, 0x1f, 0x00, 0x20, 0x10, 0x00, 0x20, 0x10, 0x00,
   0x20, 0x10, 0x00, 0x38, 0x70, 0x00, 0x28, 0x50, 0x00, 0x28, 0x50, 0x00,
   0x28, 0x50, 0x00, 0xfe, 0xff, 0x00, 0x02, 0x80, 0x00, 0x02, 0x80, 0x00,
   0x1a, 0xa8, 0x00, 0x1a, 0xa8, 0x00, 0x02, 0x80, 0x00, 0xfe, 0xff, 0x00,
   0x00, 0x00, 0x00};
