#define query_width 17
#define query_height 17
static char query_bits[] = {
   0xff, 0xff, 0xff, 0x03, 0xe0, 0xff, 0x01, 0xc0, 0xff, 0xf1, 0xc7, 0xff,
   0xf9, 0xcf, 0xff, 0xf9, 0xcf, 0xff, 0xf9, 0xcf, 0xff, 0xf9, 0xcf, 0xff,
   0xf9, 0xcf, 0xff, 0xf9, 0xcd, 0xff, 0xf9, 0xc9, 0xff, 0xf1, 0xc3, 0xff,
   0x01, 0xc0, 0xff, 0x03, 0xc0, 0xff, 0xff, 0x9f, 0xff, 0xff, 0x3f, 0xff,
   0xff, 0xff, 0xff};
