#define rem_reverse_width 17
#define rem_reverse_height 17
static char rem_reverse_bits[] = {
   0x00, 0x00, 0x00, 0x10, 0x08, 0x00, 0x18, 0x18, 0x00, 0xfc, 0x3f, 0x00,
   0x18, 0x18, 0x00, 0x10, 0x08, 0x00, 0x00, 0x00, 0x00, 0x00, 0x00, 0x00,
   0xaa, 0xaa, 0x00, 0x00, 0x00, 0x00, 0x00, 0x40, 0x00, 0x00, 0xc0, 0x00,
   0x84, 0xff, 0x01, 0x06, 0xc0, 0x00, 0xff, 0x41, 0x00, 0x06, 0x00, 0x00,
   0x04, 0x00, 0x00};
