#define rem_relation_width 17
#define rem_relation_height 17
static char rem_relation_bits[] = {
   0xff, 0xff, 0xff, 0xff, 0xf7, 0xff, 0xff, 0xe7, 0xff, 0x07, 0xc0, 0xff,
   0xff, 0xe7, 0xff, 0xff, 0xf7, 0xff, 0xff, 0xff, 0xff, 0x7f, 0xfc, 0xff,
   0x9f, 0xf3, 0xff, 0xc7, 0xc7, 0xff, 0x9b, 0xb3, 0xff, 0x03, 0x81, 0xff,
   0x37, 0xd8, 0xff, 0xb7, 0xda, 0xff, 0x8f, 0xe2, 0xff, 0x1f, 0xf1, 0xff,
   0x3f, 0xf8, 0xff};
