#define s_arrow_width 7
#define s_arrow_height 7
static char s_arrow_bits[] = {
   0x08, 0x1c, 0x1c, 0x3e, 0x3e, 0x7f, 0x7f};
