#define sannotat_width 17
#define sannotat_height 17
static char sannotat_bits[] = {
   0xff, 0xff, 0xff, 0xff, 0xff, 0xff, 0xff, 0xff, 0xff, 0x07, 0x60, 0xff,
   0xf7, 0x3f, 0xff, 0xf7, 0x9f, 0xff, 0xf7, 0xcf, 0xff, 0xd7, 0xe7, 0xff,
   0x97, 0xd3, 0xff, 0x37, 0xd9, 0xff, 0x77, 0xdc, 0xff, 0xf7, 0xde, 0xff,
   0xf7, 0xdf, 0xff, 0x07, 0xc0, 0xff, 0xff, 0xff, 0xff, 0xff, 0xff, 0xff,
   0xff, 0xff, 0xff};
