#define sel_client_width 17
#define sel_client_height 17
static char sel_client_bits[] = {
   0xff, 0xff, 0xff, 0xff, 0xff, 0xff, 0xff, 0xff, 0xff, 0xff, 0xff, 0xff,
   0xff, 0xff, 0xff, 0xff, 0xef, 0xff, 0xff, 0xcf, 0xff, 0x01, 0x80, 0xff,
   0xff, 0x0f, 0xff, 0x01, 0x80, 0xff, 0xff, 0xcf, 0xff, 0xff, 0xef, 0xff,
   0xff, 0xff, 0xff, 0xff, 0xff, 0xff, 0xff, 0xff, 0xff, 0xff, 0xff, 0xff,
   0xff, 0xff, 0xff};
