#define sel_comp_inherit_width 17
#define sel_comp_inherit_height 17
static char sel_comp_inherit_bits[] = {
   0xff, 0xef, 0xff, 0xff, 0xcf, 0xff, 0x01, 0x80, 0xff, 0xff, 0xcf, 0xff,
   0xff, 0xef, 0xff, 0xff, 0xff, 0xff, 0xff, 0xef, 0xff, 0xff, 0xcf, 0xff,
   0x01, 0x80, 0xff, 0xff, 0xcf, 0xff, 0xff, 0xef, 0xff, 0xff, 0xff, 0xff,
   0xff, 0xef, 0xff, 0xff, 0xcf, 0xff, 0x01, 0x80, 0xff, 0xff, 0xcf, 0xff,
   0xff, 0xef, 0xff};
