#define sel_features_width 17
#define sel_features_height 17
static char sel_features_bits[] = {
   0xe7, 0x9f, 0xff, 0xe7, 0x9f, 0xff, 0x81, 0x07, 0xfe, 0x81, 0x07, 0xfe,
   0xe7, 0x9f, 0xff, 0xe7, 0x9f, 0xff, 0xff, 0xfc, 0xff, 0xff, 0xfc, 0xff,
   0x3f, 0xf0, 0xff, 0x3f, 0xf0, 0xff, 0xff, 0xfc, 0xff, 0xe7, 0x9c, 0xff,
   0xe7, 0x9f, 0xff, 0x81, 0x07, 0xfe, 0x81, 0x07, 0xfe, 0xe7, 0x9f, 0xff,
   0xe7, 0x9f, 0xff};
