#define sgenerat_width 17
#define sgenerat_height 17
static char sgenerat_bits[] = {
   0xff, 0xff, 0xff, 0xe1, 0xfb, 0xff, 0xed, 0xfb, 0xff, 0x81, 0xfb, 0xff,
   0xb5, 0xfb, 0xff, 0x85, 0xfb, 0xff, 0xb1, 0xfb, 0xff, 0xb7, 0xf5, 0xff,
   0x85, 0xe0, 0xff, 0xfd, 0xf1, 0xff, 0xf5, 0xf5, 0xff, 0xe5, 0xe0, 0xff,
   0xc3, 0xe0, 0xff, 0x67, 0xce, 0xff, 0x37, 0x9f, 0xff, 0x1f, 0x1f, 0xff,
   0xff, 0xff, 0xff};
