#define sel_marker_width 17
#define sel_marker_height 17
static char sel_marker_bits[] = {
   0xff, 0xff, 0xff, 0xdf, 0xff, 0xff, 0xaf, 0xff, 0xff, 0x77, 0xff, 0xff,
   0xfb, 0xfe, 0xff, 0xfd, 0xfd, 0xff, 0xfb, 0xfe, 0xff, 0x77, 0xff, 0xff,
   0xaf, 0xff, 0xff, 0xdf, 0xc7, 0xff, 0xff, 0xbb, 0xff, 0xff, 0x7d, 0xff,
   0xff, 0x7d, 0xff, 0xff, 0x7d, 0xff, 0xff, 0xbb, 0xff, 0xff, 0xc7, 0xff,
   0xff, 0xff, 0xff};
