#define smodif_width 17
#define smodif_height 17
static char smodif_bits[] = {
   0xff, 0xff, 0xff, 0xff, 0xff, 0xff, 0x3f, 0xf8, 0xff, 0x3f, 0xf8, 0xff,
   0x7f, 0xfc, 0xff, 0x7f, 0xfc, 0xff, 0xff, 0xfe, 0xff, 0x8f, 0xe2, 0xff,
   0x87, 0xc3, 0xff, 0x03, 0x81, 0xff, 0x03, 0x81, 0xff, 0x03, 0x80, 0xff,
   0x07, 0xc0, 0xff, 0x0f, 0xe0, 0xff, 0x3f, 0xf8, 0xff, 0xff, 0xff, 0xff,
   0xff, 0xff, 0xff};
