#define sort_width 17
#define sort_height 17
static char sort_bits[] = {
   0xff, 0xff, 0xff, 0xff, 0xff, 0xff, 0xff, 0xff, 0xff, 0xff, 0xff, 0xff,
   0x77, 0x1c, 0xff, 0x6b, 0xeb, 0xff, 0x5d, 0xeb, 0xff, 0x5d, 0xeb, 0xff,
   0x41, 0xed, 0xff, 0x5d, 0xeb, 0xff, 0x5d, 0xeb, 0xff, 0x5d, 0x1c, 0xff,
   0xff, 0xff, 0xff, 0xff, 0xff, 0xff, 0xff, 0xff, 0xff, 0xff, 0xff, 0xff,
   0xff, 0xff, 0xff};
