#define sprinter_width 17
#define sprinter_height 17
static char sprinter_bits[] = {
   0xff, 0xff, 0xff, 0x1f, 0xe0, 0xff, 0xdf, 0xef, 0xff, 0xdf, 0xef, 0xff,
   0xc7, 0x8f, 0xff, 0xd7, 0xaf, 0xff, 0xd7, 0xaf, 0xff, 0xd7, 0xaf, 0xff,
   0xd7, 0xaf, 0xff, 0x01, 0x00, 0xff, 0xfd, 0x7f, 0xff, 0xfd, 0x7f, 0xff,
   0xe5, 0x57, 0xff, 0xe5, 0x57, 0xff, 0xfd, 0x7f, 0xff, 0x01, 0x00, 0xff,
   0xff, 0xff, 0xff};
