#define sshw_ecode_width 17
#define sshw_ecode_height 17
static char sshw_ecode_bits[] = {
   0xff, 0xff, 0xff, 0xff, 0xfe, 0xff, 0xff, 0xfe, 0xff, 0xff, 0xfe, 0xff,
   0xff, 0xfe, 0xff, 0xff, 0xfe, 0xff, 0xff, 0xfe, 0xff, 0x3f, 0xf9, 0xff,
   0x7f, 0xfc, 0xff, 0x7f, 0xfc, 0xff, 0x7f, 0xfd, 0xff, 0x3f, 0xf8, 0xff,
   0x3f, 0xf8, 0xff, 0x9f, 0xf3, 0xff, 0xcf, 0xe7, 0xff, 0xc7, 0xc7, 0xff,
   0xff, 0xff, 0xff};
