#define sel_specificiation_width 17
#define sel_specificiation_height 17
static char sel_specificiation_bits[] = {
   0xff, 0xff, 0xff, 0x07, 0xe0, 0xff, 0xf7, 0xef, 0xff, 0xf7, 0xef, 0xff,
   0x07, 0xe0, 0xff, 0xf7, 0xef, 0xff, 0xf7, 0xef, 0xff, 0x57, 0xec, 0xff,
   0xf7, 0xef, 0xff, 0x57, 0xee, 0xff, 0xf7, 0xef, 0xff, 0x57, 0xec, 0xff,
   0xf7, 0xef, 0xff, 0x87, 0xe1, 0xff, 0xf7, 0xef, 0xff, 0x07, 0xe0, 0xff,
   0xff, 0xff, 0xff};
