#define wastebasket_width 17
#define wastebasket_height 17
static char wastebasket_bits[] = {
   0x00, 0x00, 0x00, 0x80, 0x03, 0x00, 0x40, 0x04, 0x00, 0xf8, 0x3f, 0x00,
   0x04, 0x40, 0x00, 0xfe, 0xff, 0x00, 0x08, 0x20, 0x00, 0x08, 0x20, 0x00,
   0x48, 0x25, 0x00, 0x48, 0x25, 0x00, 0x48, 0x25, 0x00, 0x48, 0x25, 0x00,
   0x48, 0x25, 0x00, 0x08, 0x20, 0x00, 0x10, 0x10, 0x00, 0xe0, 0x0f, 0x00,
   0x00, 0x00, 0x00};
