#define unzoom_width 17
#define unzoom_height 17
static char unzoom_bits[] = {
   0x18, 0x00, 0x00, 0xf8, 0x00, 0x00, 0xfc, 0x7d, 0x00, 0xfc, 0x41, 0x00,
   0xf8, 0x40, 0x00, 0x00, 0x40, 0x00, 0x00, 0xf0, 0x01, 0x00, 0xe0, 0x00,
   0x70, 0x40, 0x00, 0x88, 0x3f, 0x00, 0x04, 0x40, 0x00, 0x04, 0x40, 0x00,
   0x04, 0x40, 0x00, 0x04, 0x40, 0x00, 0x04, 0x40, 0x00, 0x04, 0x40, 0x00,
   0xf8, 0x3f, 0x00};
