#define up_help_width 17
#define up_help_height 17
static char up_help_bits[] = {
   0x00, 0x00, 0x00, 0x00, 0x10, 0x00, 0x00, 0x38, 0x00, 0x00, 0x7c, 0x00,
   0x06, 0xfe, 0x00, 0x06, 0xff, 0x01, 0x00, 0x38, 0x00, 0x00, 0x38, 0x00,
   0x00, 0x38, 0x00, 0x36, 0x38, 0x00, 0x36, 0x38, 0x00, 0x00, 0x38, 0x00,
   0x00, 0x38, 0x00, 0x00, 0x38, 0x00, 0xb6, 0x39, 0x00, 0xb6, 0x39, 0x00,
   0x00, 0x00, 0x00};
