#define view_width 16
#define view_height 16
static char view_bits[] = {
   0x00, 0x00, 0x00, 0x20, 0x00, 0x10, 0x00, 0x08, 0x00, 0x14, 0x00, 0x13,
   0xc0, 0x28, 0x30, 0x38, 0x0e, 0x28, 0x30, 0x10, 0xc0, 0x10, 0x00, 0x0b,
   0x00, 0x04, 0x00, 0x08, 0x00, 0x10, 0x00, 0x00};
