#define e_bracket_width 7
#define e_bracket_height 15
static char e_bracket_bits[] = {
   0x18, 0x0c, 0x0c, 0x06, 0x06, 0x06, 0x03, 0x01, 0x03, 0x06, 0x06, 0x06,
   0x0c, 0x0c, 0x18};
