/* XPM */
static char *magick[] = {
/* columns rows colors chars-per-pixel */
"15 7 2 1",
"  c Gray0",
". c Gray100",
/* pixels */
"...............",
"...............",
" ............. ",
"   .........   ",
".     ...     .",
"...    .    ...",
"......   ......"
};
