/* XPM */
static char *magick[] = {
/* columns rows colors chars-per-pixel */
"5 5 2 1",
"  c Gray0",
". c Gray100",
/* pixels */
"     ",
" . . ",
"     ",
" . . ",
"     "
};
