<svg height="2500" viewBox="0 0 3400 2500" width="3400" xmlns="http://www.w3.org/2000/svg" xmlns:xlink="http://www.w3.org/1999/xlink">
<image x="0" y="0" width="100" height="100" xlink:href="icons/1/1.svg" />
<image x="100" y="0" width="100" height="100" xlink:href="icons/1/2.svg" />
<image x="200" y="0" width="100" height="100" xlink:href="icons/1/3.svg" />
<image x="300" y="0" width="100" height="100" xlink:href="icons/1/4.svg" />
<image x="400" y="0" width="100" height="100" xlink:href="icons/1/5.svg" />
<image x="500" y="0" width="100" height="100" xlink:href="icons/1/6.svg" />
<image x="600" y="0" width="100" height="100" xlink:href="icons/1/7.svg" />
<image x="700" y="0" width="100" height="100" xlink:href="icons/1/8.svg" />
<image x="800" y="0" width="100" height="100" xlink:href="icons/1/9.svg" />
<image x="900" y="0" width="100" height="100" xlink:href="icons/1/10.svg" />
<image x="1000" y="0" width="100" height="100" xlink:href="icons/1/11.svg" />
<image x="1100" y="0" width="100" height="100" xlink:href="icons/1/12.svg" />
<image x="1200" y="0" width="100" height="100" xlink:href="icons/1/13.svg" />
<image x="1300" y="0" width="100" height="100" xlink:href="icons/1/14.svg" />
<image x="1400" y="0" width="100" height="100" xlink:href="icons/1/15.svg" />
<image x="1500" y="0" width="100" height="100" xlink:href="icons/1/16.svg" />
<image x="1600" y="0" width="100" height="100" xlink:href="icons/1/17.svg" />
<image x="1700" y="0" width="100" height="100" xlink:href="icons/1/18.svg" />
<image x="1800" y="0" width="100" height="100" xlink:href="icons/1/19.svg" />
<image x="1900" y="0" width="100" height="100" xlink:href="icons/1/20.svg" />
<image x="2000" y="0" width="100" height="100" xlink:href="icons/1/21.svg" />
<image x="2100" y="0" width="100" height="100" xlink:href="icons/1/22.svg" />
<image x="2200" y="0" width="100" height="100" xlink:href="icons/1/23.svg" />
<image x="2300" y="0" width="100" height="100" xlink:href="icons/1/24.svg" />
<image x="2400" y="0" width="100" height="100" xlink:href="icons/1/25.svg" />
<image x="2500" y="0" width="100" height="100" xlink:href="icons/1/26.svg" />
<image x="2600" y="0" width="100" height="100" xlink:href="icons/1/27.svg" />
<image x="2700" y="0" width="100" height="100" xlink:href="icons/1/28.svg" />
<image x="2800" y="0" width="100" height="100" xlink:href="icons/1/29.svg" />
<image x="2900" y="0" width="100" height="100" xlink:href="icons/1/30.svg" />
<image x="3000" y="0" width="100" height="100" xlink:href="icons/1/31.svg" />
<image x="3100" y="0" width="100" height="100" xlink:href="icons/1/32.svg" />
<image x="3200" y="0" width="100" height="100" xlink:href="icons/1/33.svg" />
<image x="3300" y="0" width="100" height="100" xlink:href="icons/1/34.svg" />
<image x="0" y="100" width="100" height="100" xlink:href="icons/2/1.svg" />
<image x="100" y="100" width="100" height="100" xlink:href="icons/2/2.svg" />
<image x="0" y="200" width="100" height="100" xlink:href="icons/3/1.svg" />
<image x="100" y="200" width="100" height="100" xlink:href="icons/3/2.svg" />
<image x="200" y="200" width="100" height="100" xlink:href="icons/3/3.svg" />
<image x="300" y="200" width="100" height="100" xlink:href="icons/3/4.svg" />
<image x="400" y="200" width="100" height="100" xlink:href="icons/3/5.svg" />
<image x="500" y="200" width="100" height="100" xlink:href="icons/3/6.svg" />
<image x="600" y="200" width="100" height="100" xlink:href="icons/3/7.svg" />
<image x="700" y="200" width="100" height="100" xlink:href="icons/3/8.svg" />
<image x="800" y="200" width="100" height="100" xlink:href="icons/3/9.svg" />
<image x="900" y="200" width="100" height="100" xlink:href="icons/3/10.svg" />
<image x="1000" y="200" width="100" height="100" xlink:href="icons/3/11.svg" />
<image x="1100" y="200" width="100" height="100" xlink:href="icons/3/12.svg" />
<image x="1200" y="200" width="100" height="100" xlink:href="icons/3/13.svg" />
<image x="1300" y="200" width="100" height="100" xlink:href="icons/3/14.svg" />
<image x="1400" y="200" width="100" height="100" xlink:href="icons/3/15.svg" />
<image x="1500" y="200" width="100" height="100" xlink:href="icons/3/16.svg" />
<image x="1600" y="200" width="100" height="100" xlink:href="icons/3/17.svg" />
<image x="1700" y="200" width="100" height="100" xlink:href="icons/3/18.svg" />
<image x="1800" y="200" width="100" height="100" xlink:href="icons/3/19.svg" />
<image x="1900" y="200" width="100" height="100" xlink:href="icons/3/20.svg" />
<image x="2000" y="200" width="100" height="100" xlink:href="icons/3/21.svg" />
<image x="2100" y="200" width="100" height="100" xlink:href="icons/3/22.svg" />
<image x="2200" y="200" width="100" height="100" xlink:href="icons/3/23.svg" />
<image x="2300" y="200" width="100" height="100" xlink:href="icons/3/24.svg" />
<image x="2400" y="200" width="100" height="100" xlink:href="icons/3/25.svg" />
<image x="2500" y="200" width="100" height="100" xlink:href="icons/3/26.svg" />
<image x="2600" y="200" width="100" height="100" xlink:href="icons/3/27.svg" />
<image x="2700" y="200" width="100" height="100" xlink:href="icons/3/28.svg" />
<image x="2800" y="200" width="100" height="100" xlink:href="icons/3/29.svg" />
<image x="2900" y="200" width="100" height="100" xlink:href="icons/3/30.svg" />
<image x="3000" y="200" width="100" height="100" xlink:href="icons/3/31.svg" />
<image x="3100" y="200" width="100" height="100" xlink:href="icons/3/32.svg" />
<image x="0" y="300" width="100" height="100" xlink:href="icons/4/1.png" />
<image x="100" y="300" width="100" height="100" xlink:href="icons/4/2.png" />
<image x="0" y="400" width="100" height="100" xlink:href="icons/5/1.svg" />
<image x="100" y="400" width="100" height="100" xlink:href="icons/5/2.svg" />
<image x="200" y="400" width="100" height="100" xlink:href="icons/5/3.svg" />
<image x="300" y="400" width="100" height="100" xlink:href="icons/5/4.svg" />
<image x="400" y="400" width="100" height="100" xlink:href="icons/5/5.png" />
<image x="500" y="400" width="100" height="100" xlink:href="icons/5/6.svg" />
<image x="600" y="400" width="100" height="100" xlink:href="icons/5/7.svg" />
<image x="700" y="400" width="100" height="100" xlink:href="icons/5/8.svg" />
<image x="800" y="400" width="100" height="100" xlink:href="icons/5/9.svg" />
<image x="900" y="400" width="100" height="100" xlink:href="icons/5/10.svg" />
<image x="1000" y="400" width="100" height="100" xlink:href="icons/5/11.svg" />
<image x="1100" y="400" width="100" height="100" xlink:href="icons/5/12.svg" />
<image x="1200" y="400" width="100" height="100" xlink:href="icons/5/13.svg" />
<image x="1300" y="400" width="100" height="100" xlink:href="icons/5/14.svg" />
<image x="1400" y="400" width="100" height="100" xlink:href="icons/5/15.svg" />
<image x="1500" y="400" width="100" height="100" xlink:href="icons/5/16.svg" />
<image x="1600" y="400" width="100" height="100" xlink:href="icons/5/17.svg" />
<image x="1700" y="400" width="100" height="100" xlink:href="icons/5/18.svg" />
<image x="1800" y="400" width="100" height="100" xlink:href="icons/5/19.png" />
<image x="1900" y="400" width="100" height="100" xlink:href="icons/5/20.png" />
<image x="2000" y="400" width="100" height="100" xlink:href="icons/5/21.png" />
<image x="2100" y="400" width="100" height="100" xlink:href="icons/5/22.png" />
<image x="2200" y="400" width="100" height="100" xlink:href="icons/5/23.svg" />
<image x="2300" y="400" width="100" height="100" xlink:href="icons/5/24.svg" />
<image x="2400" y="400" width="100" height="100" xlink:href="icons/5/25.svg" />
<image x="2500" y="400" width="100" height="100" xlink:href="icons/5/26.svg" />
<image x="2600" y="400" width="100" height="100" xlink:href="icons/5/27.svg" />
<image x="2700" y="400" width="100" height="100" xlink:href="icons/5/28.svg" />
<image x="2800" y="400" width="100" height="100" xlink:href="icons/5/29.svg" />
<image x="2900" y="400" width="100" height="100" xlink:href="icons/5/30.svg" />
<image x="3000" y="400" width="100" height="100" xlink:href="icons/5/31.svg" />
<image x="0" y="500" width="100" height="100" xlink:href="icons/6/1.png" />
<image x="100" y="500" width="100" height="100" xlink:href="icons/6/2.svg" />
<image x="200" y="500" width="100" height="100" xlink:href="icons/6/3.svg" />
<image x="300" y="500" width="100" height="100" xlink:href="icons/6/4.png" />
<image x="400" y="500" width="100" height="100" xlink:href="icons/6/5.svg" />
<image x="500" y="500" width="100" height="100" xlink:href="icons/6/6.svg" />
<image x="600" y="500" width="100" height="100" xlink:href="icons/6/7.svg" />
<image x="700" y="500" width="100" height="100" xlink:href="icons/6/8.svg" />
<image x="800" y="500" width="100" height="100" xlink:href="icons/6/9.svg" />
<image x="900" y="500" width="100" height="100" xlink:href="icons/6/10.png" />
<image x="1000" y="500" width="100" height="100" xlink:href="icons/6/11.png" />
<image x="1100" y="500" width="100" height="100" xlink:href="icons/6/12.png" />
<image x="1200" y="500" width="100" height="100" xlink:href="icons/6/13.png" />
<image x="1300" y="500" width="100" height="100" xlink:href="icons/6/14.png" />
<image x="1400" y="500" width="100" height="100" xlink:href="icons/6/15.png" />
<image x="1500" y="500" width="100" height="100" xlink:href="icons/6/16.png" />
<image x="1600" y="500" width="100" height="100" xlink:href="icons/6/17.png" />
<image x="1700" y="500" width="100" height="100" xlink:href="icons/6/18.png" />
<image x="1800" y="500" width="100" height="100" xlink:href="icons/6/19.png" />
<image x="1900" y="500" width="100" height="100" xlink:href="icons/6/20.png" />
<image x="2000" y="500" width="100" height="100" xlink:href="icons/6/21.png" />
<image x="2100" y="500" width="100" height="100" xlink:href="icons/6/22.png" />
<image x="2200" y="500" width="100" height="100" xlink:href="icons/6/23.png" />
<image x="2300" y="500" width="100" height="100" xlink:href="icons/6/24.png" />
<image x="2400" y="500" width="100" height="100" xlink:href="icons/6/25.png" />
<image x="2500" y="500" width="100" height="100" xlink:href="icons/6/26.png" />
<image x="2600" y="500" width="100" height="100" xlink:href="icons/6/27.png" />
<image x="2700" y="500" width="100" height="100" xlink:href="icons/6/28.png" />
<image x="2800" y="500" width="100" height="100" xlink:href="icons/6/29.png" />
<image x="2900" y="500" width="100" height="100" xlink:href="icons/6/30.png" />
<image x="3000" y="500" width="100" height="100" xlink:href="icons/6/31.png" />
<image x="3100" y="500" width="100" height="100" xlink:href="icons/6/32.png" />
<image x="3200" y="500" width="100" height="100" xlink:href="icons/6/33.png" />
<image x="0" y="600" width="100" height="100" xlink:href="icons/7/1.png" />
<image x="100" y="600" width="100" height="100" xlink:href="icons/7/2.png" />
<image x="200" y="600" width="100" height="100" xlink:href="icons/7/3.svg" />
<image x="300" y="600" width="100" height="100" xlink:href="icons/7/4.svg" />
<image x="400" y="600" width="100" height="100" xlink:href="icons/7/5.svg" />
<image x="500" y="600" width="100" height="100" xlink:href="icons/7/6.svg" />
<image x="600" y="600" width="100" height="100" xlink:href="icons/7/7.svg" />
<image x="700" y="600" width="100" height="100" xlink:href="icons/7/8.svg" />
<image x="800" y="600" width="100" height="100" xlink:href="icons/7/9.svg" />
<image x="900" y="600" width="100" height="100" xlink:href="icons/7/10.svg" />
<image x="1000" y="600" width="100" height="100" xlink:href="icons/7/11.svg" />
<image x="1100" y="600" width="100" height="100" xlink:href="icons/7/12.svg" />
<image x="1200" y="600" width="100" height="100" xlink:href="icons/7/13.svg" />
<image x="1300" y="600" width="100" height="100" xlink:href="icons/7/14.svg" />
<image x="1400" y="600" width="100" height="100" xlink:href="icons/7/15.svg" />
<image x="1500" y="600" width="100" height="100" xlink:href="icons/7/16.svg" />
<image x="1600" y="600" width="100" height="100" xlink:href="icons/7/17.svg" />
<image x="0" y="700" width="100" height="100" xlink:href="icons/8/1.svg" />
<image x="100" y="700" width="100" height="100" xlink:href="icons/8/2.svg" />
<image x="200" y="700" width="100" height="100" xlink:href="icons/8/3.svg" />
<image x="300" y="700" width="100" height="100" xlink:href="icons/8/4.svg" />
<image x="400" y="700" width="100" height="100" xlink:href="icons/8/5.svg" />
<image x="500" y="700" width="100" height="100" xlink:href="icons/8/6.png" />
<image x="600" y="700" width="100" height="100" xlink:href="icons/8/7.png" />
<image x="700" y="700" width="100" height="100" xlink:href="icons/8/8.png" />
<image x="800" y="700" width="100" height="100" xlink:href="icons/8/9.png" />
<image x="900" y="700" width="100" height="100" xlink:href="icons/8/10.png" />
<image x="1000" y="700" width="100" height="100" xlink:href="icons/8/11.png" />
<image x="1100" y="700" width="100" height="100" xlink:href="icons/8/12.png" />
<image x="1200" y="700" width="100" height="100" xlink:href="icons/8/13.png" />
<image x="1300" y="700" width="100" height="100" xlink:href="icons/8/14.png" />
<image x="1400" y="700" width="100" height="100" xlink:href="icons/8/15.png" />
<image x="1500" y="700" width="100" height="100" xlink:href="icons/8/16.png" />
<image x="1600" y="700" width="100" height="100" xlink:href="icons/8/17.png" />
<image x="1700" y="700" width="100" height="100" xlink:href="icons/8/18.png" />
<image x="1800" y="700" width="100" height="100" xlink:href="icons/8/19.png" />
<image x="1900" y="700" width="100" height="100" xlink:href="icons/8/20.svg" />
<image x="2000" y="700" width="100" height="100" xlink:href="icons/8/21.png" />
<image x="2100" y="700" width="100" height="100" xlink:href="icons/8/22.png" />
<image x="2200" y="700" width="100" height="100" xlink:href="icons/8/23.png" />
<image x="2300" y="700" width="100" height="100" xlink:href="icons/8/24.png" />
<image x="2400" y="700" width="100" height="100" xlink:href="icons/8/25.png" />
<image x="2500" y="700" width="100" height="100" xlink:href="icons/8/26.png" />
<image x="2600" y="700" width="100" height="100" xlink:href="icons/8/27.png" />
<image x="2700" y="700" width="100" height="100" xlink:href="icons/8/28.png" />
<image x="2800" y="700" width="100" height="100" xlink:href="icons/8/29.png" />
<image x="2900" y="700" width="100" height="100" xlink:href="icons/8/30.png" />
<image x="3000" y="700" width="100" height="100" xlink:href="icons/8/31.png" />
<image x="3100" y="700" width="100" height="100" xlink:href="icons/8/32.png" />
<image x="3200" y="700" width="100" height="100" xlink:href="icons/8/33.png" />
<image x="0" y="800" width="100" height="100" xlink:href="icons/9/1.svg" />
<image x="100" y="800" width="100" height="100" xlink:href="icons/9/2.svg" />
<image x="200" y="800" width="100" height="100" xlink:href="icons/9/3.svg" />
<image x="300" y="800" width="100" height="100" xlink:href="icons/9/4.png" />
<image x="400" y="800" width="100" height="100" xlink:href="icons/9/5.png" />
<image x="500" y="800" width="100" height="100" xlink:href="icons/9/6.png" />
<image x="600" y="800" width="100" height="100" xlink:href="icons/9/7.png" />
<image x="700" y="800" width="100" height="100" xlink:href="icons/9/8.png" />
<image x="800" y="800" width="100" height="100" xlink:href="icons/9/9.png" />
<image x="900" y="800" width="100" height="100" xlink:href="icons/9/10.png" />
<image x="1000" y="800" width="100" height="100" xlink:href="icons/9/11.png" />
<image x="1100" y="800" width="100" height="100" xlink:href="icons/9/12.png" />
<image x="1200" y="800" width="100" height="100" xlink:href="icons/9/13.png" />
<image x="1300" y="800" width="100" height="100" xlink:href="icons/9/14.png" />
<image x="1400" y="800" width="100" height="100" xlink:href="icons/9/15.png" />
<image x="1500" y="800" width="100" height="100" xlink:href="icons/9/16.png" />
<image x="1600" y="800" width="100" height="100" xlink:href="icons/9/17.png" />
<image x="100" y="900" width="100" height="100" xlink:href="icons/10/2.svg" />
<image x="200" y="900" width="100" height="100" xlink:href="icons/10/3.png" />
<image x="300" y="900" width="100" height="100" xlink:href="icons/10/4.svg" />
<image x="400" y="900" width="100" height="100" xlink:href="icons/10/5.svg" />
<image x="500" y="900" width="100" height="100" xlink:href="icons/10/6.png" />
<image x="600" y="900" width="100" height="100" xlink:href="icons/10/7.png" />
<image x="700" y="900" width="100" height="100" xlink:href="icons/10/8.png" />
<image x="800" y="900" width="100" height="100" xlink:href="icons/10/9.svg" />
<image x="900" y="900" width="100" height="100" xlink:href="icons/10/10.svg" />
<image x="1000" y="900" width="100" height="100" xlink:href="icons/10/11.png" />
<image x="1100" y="900" width="100" height="100" xlink:href="icons/10/12.png" />
<image x="1200" y="900" width="100" height="100" xlink:href="icons/10/13.svg" />
<image x="1300" y="900" width="100" height="100" xlink:href="icons/10/14.png" />
<image x="1400" y="900" width="100" height="100" xlink:href="icons/10/15.png" />
<image x="1500" y="900" width="100" height="100" xlink:href="icons/10/16.svg" />
<image x="1600" y="900" width="100" height="100" xlink:href="icons/10/17.svg" />
<image x="1700" y="900" width="100" height="100" xlink:href="icons/10/18.svg" />
<image x="1800" y="900" width="100" height="100" xlink:href="icons/10/19.png" />
<image x="1900" y="900" width="100" height="100" xlink:href="icons/10/20.svg" />
<image x="2000" y="900" width="100" height="100" xlink:href="icons/10/21.svg" />
<image x="2100" y="900" width="100" height="100" xlink:href="icons/10/22.svg" />
<image x="2200" y="900" width="100" height="100" xlink:href="icons/10/23.svg" />
<image x="2300" y="900" width="100" height="100" xlink:href="icons/10/24.png" />
<image x="2400" y="900" width="100" height="100" xlink:href="icons/10/25.png" />
<image x="2500" y="900" width="100" height="100" xlink:href="icons/10/26.png" />
<image x="2600" y="900" width="100" height="100" xlink:href="icons/10/27.png" />
<image x="2700" y="900" width="100" height="100" xlink:href="icons/10/28.png" />
<image x="2800" y="900" width="100" height="100" xlink:href="icons/10/29.png" />
<image x="2900" y="900" width="100" height="100" xlink:href="icons/10/30.png" />
<image x="3000" y="900" width="100" height="100" xlink:href="icons/10/31.svg" />
<image x="3100" y="900" width="100" height="100" xlink:href="icons/10/32.svg" />
<image x="3200" y="900" width="100" height="100" xlink:href="icons/10/33.svg" />
<image x="0" y="1000" width="100" height="100" xlink:href="icons/11/1.svg" />
<image x="100" y="1000" width="100" height="100" xlink:href="icons/11/2.svg" />
<image x="200" y="1000" width="100" height="100" xlink:href="icons/11/3.png" />
<image x="300" y="1000" width="100" height="100" xlink:href="icons/11/4.png" />
<image x="400" y="1000" width="100" height="100" xlink:href="icons/11/5.svg" />
<image x="500" y="1000" width="100" height="100" xlink:href="icons/11/6.png" />
<image x="600" y="1000" width="100" height="100" xlink:href="icons/11/7.svg" />
<image x="0" y="1100" width="100" height="100" xlink:href="icons/12/1.png" />
<image x="100" y="1100" width="100" height="100" xlink:href="icons/12/2.png" />
<image x="200" y="1100" width="100" height="100" xlink:href="icons/12/3.png" />
<image x="300" y="1100" width="100" height="100" xlink:href="icons/12/4.png" />
<image x="400" y="1100" width="100" height="100" xlink:href="icons/12/5.png" />
<image x="500" y="1100" width="100" height="100" xlink:href="icons/12/6.svg" />
<image x="600" y="1100" width="100" height="100" xlink:href="icons/12/7.png" />
<image x="700" y="1100" width="100" height="100" xlink:href="icons/12/8.png" />
<image x="800" y="1100" width="100" height="100" xlink:href="icons/12/9.png" />
<image x="900" y="1100" width="100" height="100" xlink:href="icons/12/10.png" />
<image x="1000" y="1100" width="100" height="100" xlink:href="icons/12/11.png" />
<image x="1100" y="1100" width="100" height="100" xlink:href="icons/12/12.png" />
<image x="1200" y="1100" width="100" height="100" xlink:href="icons/12/13.png" />
<image x="1300" y="1100" width="100" height="100" xlink:href="icons/12/14.png" />
<image x="1400" y="1100" width="100" height="100" xlink:href="icons/12/15.png" />
<image x="1500" y="1100" width="100" height="100" xlink:href="icons/12/16.png" />
<image x="1600" y="1100" width="100" height="100" xlink:href="icons/12/17.png" />
<image x="1700" y="1100" width="100" height="100" xlink:href="icons/12/18.png" />
<image x="1800" y="1100" width="100" height="100" xlink:href="icons/12/19.png" />
<image x="1900" y="1100" width="100" height="100" xlink:href="icons/12/20.png" />
<image x="2000" y="1100" width="100" height="100" xlink:href="icons/12/21.svg" />
<image x="2100" y="1100" width="100" height="100" xlink:href="icons/12/22.png" />
<image x="2200" y="1100" width="100" height="100" xlink:href="icons/12/23.svg" />
<image x="2300" y="1100" width="100" height="100" xlink:href="icons/12/24.svg" />
<image x="2400" y="1100" width="100" height="100" xlink:href="icons/12/25.png" />
<image x="2500" y="1100" width="100" height="100" xlink:href="icons/12/26.png" />
<image x="0" y="1200" width="100" height="100" xlink:href="icons/13/1.svg" />
<image x="100" y="1200" width="100" height="100" xlink:href="icons/13/2.svg" />
<image x="200" y="1200" width="100" height="100" xlink:href="icons/13/3.svg" />
<image x="300" y="1200" width="100" height="100" xlink:href="icons/13/4.svg" />
<image x="400" y="1200" width="100" height="100" xlink:href="icons/13/5.svg" />
<image x="500" y="1200" width="100" height="100" xlink:href="icons/13/6.svg" />
<image x="600" y="1200" width="100" height="100" xlink:href="icons/13/7.svg" />
<image x="700" y="1200" width="100" height="100" xlink:href="icons/13/8.svg" />
<image x="800" y="1200" width="100" height="100" xlink:href="icons/13/9.png" />
<image x="900" y="1200" width="100" height="100" xlink:href="icons/13/10.svg" />
<image x="0" y="1300" width="100" height="100" xlink:href="icons/14/1.png" />
<image x="100" y="1300" width="100" height="100" xlink:href="icons/14/2.svg" />
<image x="200" y="1300" width="100" height="100" xlink:href="icons/14/3.svg" />
<image x="300" y="1300" width="100" height="100" xlink:href="icons/14/4.svg" />
<image x="400" y="1300" width="100" height="100" xlink:href="icons/14/5.svg" />
<image x="500" y="1300" width="100" height="100" xlink:href="icons/14/6.png" />
<image x="600" y="1300" width="100" height="100" xlink:href="icons/14/7.svg" />
<image x="700" y="1300" width="100" height="100" xlink:href="icons/14/8.svg" />
<image x="800" y="1300" width="100" height="100" xlink:href="icons/14/9.svg" />
<image x="900" y="1300" width="100" height="100" xlink:href="icons/14/10.png" />
<image x="1000" y="1300" width="100" height="100" xlink:href="icons/14/11.svg" />
<image x="1100" y="1300" width="100" height="100" xlink:href="icons/14/12.png" />
<image x="1200" y="1300" width="100" height="100" xlink:href="icons/14/13.png" />
<image x="1300" y="1300" width="100" height="100" xlink:href="icons/14/14.png" />
<image x="1400" y="1300" width="100" height="100" xlink:href="icons/14/15.png" />
<image x="1500" y="1300" width="100" height="100" xlink:href="icons/14/16.png" />
<image x="1600" y="1300" width="100" height="100" xlink:href="icons/14/17.png" />
<image x="1700" y="1300" width="100" height="100" xlink:href="icons/14/18.png" />
<image x="1800" y="1300" width="100" height="100" xlink:href="icons/14/19.png" />
<image x="1900" y="1300" width="100" height="100" xlink:href="icons/14/20.png" />
<image x="2000" y="1300" width="100" height="100" xlink:href="icons/14/21.png" />
<image x="2100" y="1300" width="100" height="100" xlink:href="icons/14/22.png" />
<image x="2200" y="1300" width="100" height="100" xlink:href="icons/14/23.png" />
<image x="2300" y="1300" width="100" height="100" xlink:href="icons/14/24.svg" />
<image x="2400" y="1300" width="100" height="100" xlink:href="icons/14/25.svg" />
<image x="2500" y="1300" width="100" height="100" xlink:href="icons/14/26.png" />
<image x="2600" y="1300" width="100" height="100" xlink:href="icons/14/27.png" />
<image x="0" y="1400" width="100" height="100" xlink:href="icons/15/1.png" />
<image x="100" y="1400" width="100" height="100" xlink:href="icons/15/2.png" />
<image x="200" y="1400" width="100" height="100" xlink:href="icons/15/3.png" />
<image x="300" y="1400" width="100" height="100" xlink:href="icons/15/4.png" />
<image x="400" y="1400" width="100" height="100" xlink:href="icons/15/5.png" />
<image x="500" y="1400" width="100" height="100" xlink:href="icons/15/6.png" />
<image x="600" y="1400" width="100" height="100" xlink:href="icons/15/7.png" />
<image x="700" y="1400" width="100" height="100" xlink:href="icons/15/8.png" />
<image x="800" y="1400" width="100" height="100" xlink:href="icons/15/9.png" />
<image x="900" y="1400" width="100" height="100" xlink:href="icons/15/10.png" />
<image x="1000" y="1400" width="100" height="100" xlink:href="icons/15/11.png" />
<image x="1100" y="1400" width="100" height="100" xlink:href="icons/15/12.png" />
<image x="1200" y="1400" width="100" height="100" xlink:href="icons/15/13.png" />
<image x="1300" y="1400" width="100" height="100" xlink:href="icons/15/14.png" />
<image x="1400" y="1400" width="100" height="100" xlink:href="icons/15/15.svg" />
<image x="1500" y="1400" width="100" height="100" xlink:href="icons/15/16.svg" />
<image x="1600" y="1400" width="100" height="100" xlink:href="icons/15/17.png" />
<image x="1700" y="1400" width="100" height="100" xlink:href="icons/15/18.png" />
<image x="1800" y="1400" width="100" height="100" xlink:href="icons/15/19.png" />
<image x="1900" y="1400" width="100" height="100" xlink:href="icons/15/20.svg" />
<image x="2000" y="1400" width="100" height="100" xlink:href="icons/15/21.svg" />
<image x="2100" y="1400" width="100" height="100" xlink:href="icons/15/22.png" />
<image x="2200" y="1400" width="100" height="100" xlink:href="icons/15/23.svg" />
<image x="0" y="1500" width="100" height="100" xlink:href="icons/16/1.png" />
<image x="100" y="1500" width="100" height="100" xlink:href="icons/16/2.png" />
<image x="200" y="1500" width="100" height="100" xlink:href="icons/16/3.png" />
<image x="300" y="1500" width="100" height="100" xlink:href="icons/16/4.png" />
<image x="400" y="1500" width="100" height="100" xlink:href="icons/16/5.png" />
<image x="500" y="1500" width="100" height="100" xlink:href="icons/16/6.png" />
<image x="600" y="1500" width="100" height="100" xlink:href="icons/16/7.png" />
<image x="700" y="1500" width="100" height="100" xlink:href="icons/16/8.png" />
<image x="800" y="1500" width="100" height="100" xlink:href="icons/16/9.png" />
<image x="900" y="1500" width="100" height="100" xlink:href="icons/16/10.png" />
<image x="1000" y="1500" width="100" height="100" xlink:href="icons/16/11.png" />
<image x="1100" y="1500" width="100" height="100" xlink:href="icons/16/12.png" />
<image x="1200" y="1500" width="100" height="100" xlink:href="icons/16/13.png" />
<image x="1300" y="1500" width="100" height="100" xlink:href="icons/16/14.png" />
<image x="1400" y="1500" width="100" height="100" xlink:href="icons/16/15.png" />
<image x="1500" y="1500" width="100" height="100" xlink:href="icons/16/16.png" />
<image x="1600" y="1500" width="100" height="100" xlink:href="icons/16/17.png" />
<image x="1700" y="1500" width="100" height="100" xlink:href="icons/16/18.png" />
<image x="1800" y="1500" width="100" height="100" xlink:href="icons/16/19.png" />
<image x="1900" y="1500" width="100" height="100" xlink:href="icons/16/20.png" />
<image x="2000" y="1500" width="100" height="100" xlink:href="icons/16/21.png" />
<image x="2100" y="1500" width="100" height="100" xlink:href="icons/16/22.png" />
<image x="2200" y="1500" width="100" height="100" xlink:href="icons/16/23.png" />
<image x="2300" y="1500" width="100" height="100" xlink:href="icons/16/24.png" />
<image x="2400" y="1500" width="100" height="100" xlink:href="icons/16/25.png" />
<image x="2500" y="1500" width="100" height="100" xlink:href="icons/16/26.png" />
<image x="2600" y="1500" width="100" height="100" xlink:href="icons/16/27.svg" />
<image x="2700" y="1500" width="100" height="100" xlink:href="icons/16/28.svg" />
<image x="2800" y="1500" width="100" height="100" xlink:href="icons/16/29.svg" />
<image x="2900" y="1500" width="100" height="100" xlink:href="icons/16/30.png" />
<image x="3000" y="1500" width="100" height="100" xlink:href="icons/16/31.png" />
<image x="3100" y="1500" width="100" height="100" xlink:href="icons/16/32.png" />
<image x="3200" y="1500" width="100" height="100" xlink:href="icons/16/33.png" />
<image x="0" y="1600" width="100" height="100" xlink:href="icons/17/1.png" />
<image x="100" y="1600" width="100" height="100" xlink:href="icons/17/2.png" />
<image x="200" y="1600" width="100" height="100" xlink:href="icons/17/3.png" />
<image x="300" y="1600" width="100" height="100" xlink:href="icons/17/4.png" />
<image x="0" y="1700" width="100" height="100" xlink:href="icons/18/1.png" />
<image x="100" y="1700" width="100" height="100" xlink:href="icons/18/2.png" />
<image x="200" y="1700" width="100" height="100" xlink:href="icons/18/3.png" />
<image x="300" y="1700" width="100" height="100" xlink:href="icons/18/4.png" />
<image x="400" y="1700" width="100" height="100" xlink:href="icons/18/5.png" />
<image x="500" y="1700" width="100" height="100" xlink:href="icons/18/6.png" />
<image x="600" y="1700" width="100" height="100" xlink:href="icons/18/7.png" />
<image x="700" y="1700" width="100" height="100" xlink:href="icons/18/8.png" />
<image x="800" y="1700" width="100" height="100" xlink:href="icons/18/9.png" />
<image x="900" y="1700" width="100" height="100" xlink:href="icons/18/10.png" />
<image x="1000" y="1700" width="100" height="100" xlink:href="icons/18/11.png" />
<image x="1100" y="1700" width="100" height="100" xlink:href="icons/18/12.png" />
<image x="1200" y="1700" width="100" height="100" xlink:href="icons/18/13.svg" />
<image x="1300" y="1700" width="100" height="100" xlink:href="icons/18/14.svg" />
<image x="1400" y="1700" width="100" height="100" xlink:href="icons/18/15.png" />
<image x="1500" y="1700" width="100" height="100" xlink:href="icons/18/16.png" />
<image x="1600" y="1700" width="100" height="100" xlink:href="icons/18/17.png" />
<image x="1700" y="1700" width="100" height="100" xlink:href="icons/18/18.png" />
<image x="1800" y="1700" width="100" height="100" xlink:href="icons/18/19.png" />
<image x="1900" y="1700" width="100" height="100" xlink:href="icons/18/20.png" />
<image x="2000" y="1700" width="100" height="100" xlink:href="icons/18/21.png" />
<image x="2100" y="1700" width="100" height="100" xlink:href="icons/18/22.png" />
<image x="0" y="1800" width="100" height="100" xlink:href="icons/19/1.png" />
<image x="100" y="1800" width="100" height="100" xlink:href="icons/19/2.png" />
<image x="200" y="1800" width="100" height="100" xlink:href="icons/19/3.png" />
<image x="300" y="1800" width="100" height="100" xlink:href="icons/19/4.png" />
<image x="400" y="1800" width="100" height="100" xlink:href="icons/19/5.png" />
<image x="500" y="1800" width="100" height="100" xlink:href="icons/19/6.png" />
<image x="600" y="1800" width="100" height="100" xlink:href="icons/19/7.png" />
<image x="700" y="1800" width="100" height="100" xlink:href="icons/19/8.svg" />
<image x="800" y="1800" width="100" height="100" xlink:href="icons/19/9.svg" />
<image x="900" y="1800" width="100" height="100" xlink:href="icons/19/10.svg" />
<image x="1000" y="1800" width="100" height="100" xlink:href="icons/19/11.svg" />
<image x="1100" y="1800" width="100" height="100" xlink:href="icons/19/12.png" />
<image x="0" y="1900" width="100" height="100" xlink:href="icons/20/1.svg" />
<image x="100" y="1900" width="100" height="100" xlink:href="icons/20/2.svg" />
<image x="200" y="1900" width="100" height="100" xlink:href="icons/20/3.svg" />
<image x="300" y="1900" width="100" height="100" xlink:href="icons/20/4.svg" />
<image x="400" y="1900" width="100" height="100" xlink:href="icons/20/5.svg" />
<image x="500" y="1900" width="100" height="100" xlink:href="icons/20/6.svg" />
<image x="600" y="1900" width="100" height="100" xlink:href="icons/20/7.svg" />
<image x="700" y="1900" width="100" height="100" xlink:href="icons/20/8.svg" />
<image x="800" y="1900" width="100" height="100" xlink:href="icons/20/9.png" />
<image x="900" y="1900" width="100" height="100" xlink:href="icons/20/10.png" />
<image x="1000" y="1900" width="100" height="100" xlink:href="icons/20/11.png" />
<image x="1100" y="1900" width="100" height="100" xlink:href="icons/20/12.png" />
<image x="1200" y="1900" width="100" height="100" xlink:href="icons/20/13.png" />
<image x="1300" y="1900" width="100" height="100" xlink:href="icons/20/14.png" />
<image x="1400" y="1900" width="100" height="100" xlink:href="icons/20/15.png" />
<image x="0" y="2000" width="100" height="100" xlink:href="icons/21/1.svg" />
<image x="100" y="2000" width="100" height="100" xlink:href="icons/21/2.svg" />
<image x="200" y="2000" width="100" height="100" xlink:href="icons/21/3.png" />
<image x="300" y="2000" width="100" height="100" xlink:href="icons/21/4.svg" />
<image x="400" y="2000" width="100" height="100" xlink:href="icons/21/5.svg" />
<image x="500" y="2000" width="100" height="100" xlink:href="icons/21/6.svg" />
<image x="600" y="2000" width="100" height="100" xlink:href="icons/21/7.png" />
<image x="700" y="2000" width="100" height="100" xlink:href="icons/21/8.png" />
<image x="800" y="2000" width="100" height="100" xlink:href="icons/21/9.png" />
<image x="900" y="2000" width="100" height="100" xlink:href="icons/21/10.png" />
<image x="1000" y="2000" width="100" height="100" xlink:href="icons/21/11.png" />
<image x="1100" y="2000" width="100" height="100" xlink:href="icons/21/12.svg" />
<image x="1200" y="2000" width="100" height="100" xlink:href="icons/21/13.png" />
<image x="1300" y="2000" width="100" height="100" xlink:href="icons/21/14.png" />
<image x="1400" y="2000" width="100" height="100" xlink:href="icons/21/15.png" />
<image x="1500" y="2000" width="100" height="100" xlink:href="icons/21/16.png" />
<image x="1600" y="2000" width="100" height="100" xlink:href="icons/21/17.png" />
<image x="1700" y="2000" width="100" height="100" xlink:href="icons/21/18.png" />
<image x="1800" y="2000" width="100" height="100" xlink:href="icons/21/19.png" />
<image x="1900" y="2000" width="100" height="100" xlink:href="icons/21/20.png" />
<image x="2000" y="2000" width="100" height="100" xlink:href="icons/21/21.png" />
<image x="0" y="2100" width="100" height="100" xlink:href="icons/22/1.svg" />
<image x="100" y="2100" width="100" height="100" xlink:href="icons/22/2.svg" />
<image x="200" y="2100" width="100" height="100" xlink:href="icons/22/3.svg" />
<image x="300" y="2100" width="100" height="100" xlink:href="icons/22/4.svg" />
<image x="400" y="2100" width="100" height="100" xlink:href="icons/22/5.svg" />
<image x="500" y="2100" width="100" height="100" xlink:href="icons/22/6.svg" />
<image x="600" y="2100" width="100" height="100" xlink:href="icons/22/7.svg" />
<image x="700" y="2100" width="100" height="100" xlink:href="icons/22/8.svg" />
<image x="800" y="2100" width="100" height="100" xlink:href="icons/22/9.svg" />
<image x="900" y="2100" width="100" height="100" xlink:href="icons/22/10.svg" />
<image x="1000" y="2100" width="100" height="100" xlink:href="icons/22/11.svg" />
<image x="1100" y="2100" width="100" height="100" xlink:href="icons/22/12.svg" />
<image x="1200" y="2100" width="100" height="100" xlink:href="icons/22/13.svg" />
<image x="1300" y="2100" width="100" height="100" xlink:href="icons/22/14.svg" />
<image x="1400" y="2100" width="100" height="100" xlink:href="icons/22/15.svg" />
<image x="1500" y="2100" width="100" height="100" xlink:href="icons/22/16.svg" />
<image x="1600" y="2100" width="100" height="100" xlink:href="icons/22/17.svg" />
<image x="1700" y="2100" width="100" height="100" xlink:href="icons/22/18.svg" />
<image x="1800" y="2100" width="100" height="100" xlink:href="icons/22/19.svg" />
<image x="1900" y="2100" width="100" height="100" xlink:href="icons/22/20.svg" />
<image x="2000" y="2100" width="100" height="100" xlink:href="icons/22/21.svg" />
<image x="2100" y="2100" width="100" height="100" xlink:href="icons/22/22.svg" />
<image x="2200" y="2100" width="100" height="100" xlink:href="icons/22/23.svg" />
<image x="2300" y="2100" width="100" height="100" xlink:href="icons/22/24.svg" />
<image x="2400" y="2100" width="100" height="100" xlink:href="icons/22/25.svg" />
<image x="2500" y="2100" width="100" height="100" xlink:href="icons/22/26.svg" />
<image x="0" y="2200" width="100" height="100" xlink:href="icons/23/1.png" />
<image x="100" y="2200" width="100" height="100" xlink:href="icons/23/2.png" />
<image x="200" y="2200" width="100" height="100" xlink:href="icons/23/3.png" />
<image x="300" y="2200" width="100" height="100" xlink:href="icons/23/4.png" />
<image x="400" y="2200" width="100" height="100" xlink:href="icons/23/5.png" />
<image x="500" y="2200" width="100" height="100" xlink:href="icons/23/6.png" />
<image x="600" y="2200" width="100" height="100" xlink:href="icons/23/7.png" />
<image x="700" y="2200" width="100" height="100" xlink:href="icons/23/8.png" />
<image x="800" y="2200" width="100" height="100" xlink:href="icons/23/9.png" />
<image x="0" y="2300" width="100" height="100" xlink:href="icons/24/1.png" />
<image x="100" y="2300" width="100" height="100" xlink:href="icons/24/2.png" />
<image x="200" y="2300" width="100" height="100" xlink:href="icons/24/3.png" />
<image x="300" y="2300" width="100" height="100" xlink:href="icons/24/4.png" />
<image x="400" y="2300" width="100" height="100" xlink:href="icons/24/5.png" />
<image x="500" y="2300" width="100" height="100" xlink:href="icons/24/6.png" />
<image x="600" y="2300" width="100" height="100" xlink:href="icons/24/7.png" />
<image x="700" y="2300" width="100" height="100" xlink:href="icons/24/8.svg" />
<image x="800" y="2300" width="100" height="100" xlink:href="icons/24/9.png" />
<image x="0" y="2400" width="100" height="100" xlink:href="icons/25/1.png" />
<image x="100" y="2400" width="100" height="100" xlink:href="icons/25/2.svg" />
<image x="200" y="2400" width="100" height="100" xlink:href="icons/25/3.png" />
<image x="300" y="2400" width="100" height="100" xlink:href="icons/25/4.png" />
<image x="400" y="2400" width="100" height="100" xlink:href="icons/25/5.png" />
<image x="500" y="2400" width="100" height="100" xlink:href="icons/25/6.svg" />
<image x="600" y="2400" width="100" height="100" xlink:href="icons/25/7.png" />
<image x="700" y="2400" width="100" height="100" xlink:href="icons/25/8.png" />
<image x="800" y="2400" width="100" height="100" xlink:href="icons/25/9.png" />
</svg>
