<svg height="700" viewBox="0 0 1200 700" width="1200" xmlns="http://www.w3.org/2000/svg" xmlns:xlink="http://www.w3.org/1999/xlink">
<image x="0" y="0" width="100" height="100" xlink:href="mini/1/1.svg" />
<image x="100" y="0" width="100" height="100" xlink:href="mini/1/2.svg" />
<image x="200" y="0" width="100" height="100" xlink:href="mini/1/3.svg" />
<image x="300" y="0" width="100" height="100" xlink:href="mini/1/4.svg" />
<image x="400" y="0" width="100" height="100" xlink:href="mini/1/5.svg" />
<image x="500" y="0" width="100" height="100" xlink:href="mini/1/6.svg" />
<image x="600" y="0" width="100" height="100" xlink:href="mini/1/7.svg" />
<image x="700" y="0" width="100" height="100" xlink:href="mini/1/8.svg" />
<image x="800" y="0" width="100" height="100" xlink:href="mini/1/9.svg" />
<image x="900" y="0" width="100" height="100" xlink:href="mini/1/10.svg" />
<image x="1000" y="0" width="100" height="100" xlink:href="mini/1/11.svg" />
<image x="0" y="100" width="100" height="100" xlink:href="mini/2/1.svg" />
<image x="100" y="100" width="100" height="100" xlink:href="mini/2/2.svg" />
<image x="200" y="100" width="100" height="100" xlink:href="mini/2/3.svg" />
<image x="300" y="100" width="100" height="100" xlink:href="mini/2/4.svg" />
<image x="400" y="100" width="100" height="100" xlink:href="mini/2/5.svg" />
<image x="500" y="100" width="100" height="100" xlink:href="mini/2/6.svg" />
<image x="600" y="100" width="100" height="100" xlink:href="mini/2/7.svg" />
<image x="700" y="100" width="100" height="100" xlink:href="mini/2/8.svg" />
<image x="800" y="100" width="100" height="100" xlink:href="mini/2/9.svg" />
<image x="900" y="100" width="100" height="100" xlink:href="mini/2/10.svg" />
<image x="1000" y="100" width="100" height="100" xlink:href="mini/2/11.svg" />
<image x="1100" y="100" width="100" height="100" xlink:href="mini/2/12.svg" />
<image x="0" y="200" width="100" height="100" xlink:href="mini/3/1.svg" />
<image x="100" y="200" width="100" height="100" xlink:href="mini/3/2.svg" />
<image x="200" y="200" width="100" height="100" xlink:href="mini/3/3.svg" />
<image x="300" y="200" width="100" height="100" xlink:href="mini/3/4.svg" />
<image x="400" y="200" width="100" height="100" xlink:href="mini/3/5.svg" />
<image x="500" y="200" width="100" height="100" xlink:href="mini/3/6.svg" />
<image x="600" y="200" width="100" height="100" xlink:href="mini/3/7.svg" />
<image x="700" y="200" width="100" height="100" xlink:href="mini/3/8.png" />
<image x="800" y="200" width="100" height="100" xlink:href="mini/3/9.png" />
<image x="900" y="200" width="100" height="100" xlink:href="mini/3/10.svg" />
<image x="1000" y="200" width="100" height="100" xlink:href="mini/3/11.svg" />
<image x="1100" y="200" width="100" height="100" xlink:href="mini/3/12.svg" />
<image x="0" y="300" width="100" height="100" xlink:href="mini/4/1.png" />
<image x="100" y="300" width="100" height="100" xlink:href="mini/4/2.png" />
<image x="200" y="300" width="100" height="100" xlink:href="mini/4/3.png" />
<image x="300" y="300" width="100" height="100" xlink:href="mini/4/4.svg" />
<image x="400" y="300" width="100" height="100" xlink:href="mini/4/5.png" />
<image x="500" y="300" width="100" height="100" xlink:href="mini/4/6.png" />
<image x="600" y="300" width="100" height="100" xlink:href="mini/4/7.png" />
<image x="700" y="300" width="100" height="100" xlink:href="mini/4/8.png" />
<image x="800" y="300" width="100" height="100" xlink:href="mini/4/9.png" />
<image x="1000" y="300" width="100" height="100" xlink:href="mini/4/11.svg" />
<image x="1100" y="300" width="100" height="100" xlink:href="mini/4/12.png" />
<image x="0" y="400" width="100" height="100" xlink:href="mini/5/1.svg" />
<image x="100" y="400" width="100" height="100" xlink:href="mini/5/2.svg" />
<image x="200" y="400" width="100" height="100" xlink:href="mini/5/3.svg" />
<image x="300" y="400" width="100" height="100" xlink:href="mini/5/4.png" />
<image x="400" y="400" width="100" height="100" xlink:href="mini/5/5.svg" />
<image x="500" y="400" width="100" height="100" xlink:href="mini/5/6.png" />
<image x="600" y="400" width="100" height="100" xlink:href="mini/5/7.png" />
<image x="700" y="400" width="100" height="100" xlink:href="mini/5/8.png" />
<image x="800" y="400" width="100" height="100" xlink:href="mini/5/9.png" />
<image x="1000" y="400" width="100" height="100" xlink:href="mini/5/11.png" />
<image x="0" y="500" width="100" height="100" xlink:href="mini/6/1.svg" />
<image x="100" y="500" width="100" height="100" xlink:href="mini/6/2.png" />
<image x="200" y="500" width="100" height="100" xlink:href="mini/6/3.png" />
<image x="300" y="500" width="100" height="100" xlink:href="mini/6/4.png" />
<image x="400" y="500" width="100" height="100" xlink:href="mini/6/5.png" />
<image x="500" y="500" width="100" height="100" xlink:href="mini/6/6.png" />
<image x="600" y="500" width="100" height="100" xlink:href="mini/6/7.png" />
<image x="700" y="500" width="100" height="100" xlink:href="mini/6/8.png" />
<image x="800" y="500" width="100" height="100" xlink:href="mini/6/9.svg" />
<image x="0" y="600" width="100" height="100" xlink:href="mini/7/1.png" />
<image x="100" y="600" width="100" height="100" xlink:href="mini/7/2.png" />
<image x="200" y="600" width="100" height="100" xlink:href="mini/7/3.png" />
<image x="300" y="600" width="100" height="100" xlink:href="mini/7/4.png" />
</svg>
