<svg height="78" viewBox="0 0 133 78" width="133" xmlns="http://www.w3.org/2000/svg" xmlns:xlink="http://www.w3.org/1999/xlink">
<image x="1" y="1" width="10" height="10" xlink:href="./1/1.svg" fill="transparent" style="fill:none" />
<image x="12" y="1" width="10" height="10" xlink:href="./1/2.svg" fill="transparent" style="fill:none" />
<image x="23" y="1" width="10" height="10" xlink:href="./1/3.svg" fill="transparent" style="fill:none" />
<image x="34" y="1" width="10" height="10" xlink:href="./1/4.svg" fill="transparent" style="fill:none" />
<image x="45" y="1" width="10" height="10" xlink:href="./1/5.svg" fill="transparent" style="fill:none" />
<image x="56" y="1" width="10" height="10" xlink:href="./1/6.svg" fill="transparent" style="fill:none" />
<image x="67" y="1" width="10" height="10" xlink:href="./1/7.svg" fill="transparent" style="fill:none" />
<image x="78" y="1" width="10" height="10" xlink:href="./1/8.svg" fill="transparent" style="fill:none" />
<image x="89" y="1" width="10" height="10" xlink:href="./1/9.svg" fill="transparent" style="fill:none" />
<image x="100" y="1" width="10" height="10" xlink:href="./1/10.svg" fill="transparent" style="fill:none" />
<image x="111" y="1" width="10" height="10" xlink:href="./1/11.svg" fill="transparent" style="fill:none" />
<image x="1" y="12" width="10" height="10" xlink:href="./2/1.svg" fill="transparent" style="fill:none" />
<image x="12" y="12" width="10" height="10" xlink:href="./2/2.svg" fill="transparent" style="fill:none" />
<image x="23" y="12" width="10" height="10" xlink:href="./2/3.svg" fill="transparent" style="fill:none" />
<image x="34" y="12" width="10" height="10" xlink:href="./2/4.svg" fill="transparent" style="fill:none" />
<image x="45" y="12" width="10" height="10" xlink:href="./2/5.svg" fill="transparent" style="fill:none" />
<image x="56" y="12" width="10" height="10" xlink:href="./2/6.svg" fill="transparent" style="fill:none" />
<image x="67" y="12" width="10" height="10" xlink:href="./2/7.svg" fill="transparent" style="fill:none" />
<image x="78" y="12" width="10" height="10" xlink:href="./2/8.svg" fill="transparent" style="fill:none" />
<image x="89" y="12" width="10" height="10" xlink:href="./2/9.svg" fill="transparent" style="fill:none" />
<image x="100" y="12" width="10" height="10" xlink:href="./2/10.svg" fill="transparent" style="fill:none" />
<image x="111" y="12" width="10" height="10" xlink:href="./2/11.svg" fill="transparent" style="fill:none" />
<image x="122" y="12" width="10" height="10" xlink:href="./2/12.svg" fill="transparent" style="fill:none" />
<image x="1" y="23" width="10" height="10" xlink:href="./3/1.svg" fill="transparent" style="fill:none" />
<image x="12" y="23" width="10" height="10" xlink:href="./3/2.svg" fill="transparent" style="fill:none" />
<image x="23" y="23" width="10" height="10" xlink:href="./3/3.svg" fill="transparent" style="fill:none" />
<image x="34" y="23" width="10" height="10" xlink:href="./3/4.svg" fill="transparent" style="fill:none" />
<image x="45" y="23" width="10" height="10" xlink:href="./3/5.svg" fill="transparent" style="fill:none" />
<image x="56" y="23" width="10" height="10" xlink:href="./3/6.svg" fill="transparent" style="fill:none" />
<image x="67" y="23" width="10" height="10" xlink:href="./3/7.svg" fill="transparent" style="fill:none" />
<rect x="78" y="23" width="10" height="10" fill="transparent" style="fill:none" />
<image x="78" y="23" width="10" height="10" xlink:href="./3/8.png" fill="transparent" style="fill:none" />
<rect x="89" y="23" width="10" height="10" fill="transparent" style="fill:none" />
<image x="89" y="23" width="10" height="10" xlink:href="./3/9.png" fill="transparent" style="fill:none" />
<image x="100" y="23" width="10" height="10" xlink:href="./3/10.svg" fill="transparent" style="fill:none" />
<image x="111" y="23" width="10" height="10" xlink:href="./3/11.svg" fill="transparent" style="fill:none" />
<image x="122" y="23" width="10" height="10" xlink:href="./3/12.svg" fill="transparent" style="fill:none" />
<rect x="1" y="34" width="10" height="10" fill="transparent" style="fill:none" />
<image x="1" y="34" width="10" height="10" xlink:href="./4/1.png" fill="transparent" style="fill:none" />
<rect x="12" y="34" width="10" height="10" fill="transparent" style="fill:none" />
<image x="12" y="34" width="10" height="10" xlink:href="./4/2.png" fill="transparent" style="fill:none" />
<rect x="23" y="34" width="10" height="10" fill="transparent" style="fill:none" />
<image x="23" y="34" width="10" height="10" xlink:href="./4/3.png" fill="transparent" style="fill:none" />
<image x="34" y="34" width="10" height="10" xlink:href="./4/4.svg" fill="transparent" style="fill:none" />
<rect x="45" y="34" width="10" height="10" fill="transparent" style="fill:none" />
<image x="45" y="34" width="10" height="10" xlink:href="./4/5.png" fill="transparent" style="fill:none" />
<rect x="56" y="34" width="10" height="10" fill="transparent" style="fill:none" />
<image x="56" y="34" width="10" height="10" xlink:href="./4/6.png" fill="transparent" style="fill:none" />
<rect x="67" y="34" width="10" height="10" fill="transparent" style="fill:none" />
<image x="67" y="34" width="10" height="10" xlink:href="./4/7.png" fill="transparent" style="fill:none" />
<rect x="78" y="34" width="10" height="10" fill="transparent" style="fill:none" />
<image x="78" y="34" width="10" height="10" xlink:href="./4/8.png" fill="transparent" style="fill:none" />
<rect x="89" y="34" width="10" height="10" fill="transparent" style="fill:none" />
<image x="89" y="34" width="10" height="10" xlink:href="./4/9.png" fill="transparent" style="fill:none" />
<image x="111" y="34" width="10" height="10" xlink:href="./4/11.svg" fill="transparent" style="fill:none" />
<rect x="122" y="34" width="10" height="10" fill="transparent" style="fill:none" />
<image x="122" y="34" width="10" height="10" xlink:href="./4/12.png" fill="transparent" style="fill:none" />
<image x="1" y="45" width="10" height="10" xlink:href="./5/1.svg" fill="transparent" style="fill:none" />
<image x="12" y="45" width="10" height="10" xlink:href="./5/2.svg" fill="transparent" style="fill:none" />
<image x="23" y="45" width="10" height="10" xlink:href="./5/3.svg" fill="transparent" style="fill:none" />
<rect x="34" y="45" width="10" height="10" fill="transparent" style="fill:none" />
<image x="34" y="45" width="10" height="10" xlink:href="./5/4.png" fill="transparent" style="fill:none" />
<image x="45" y="45" width="10" height="10" xlink:href="./5/5.svg" fill="transparent" style="fill:none" />
<rect x="56" y="45" width="10" height="10" fill="transparent" style="fill:none" />
<image x="56" y="45" width="10" height="10" xlink:href="./5/6.png" fill="transparent" style="fill:none" />
<rect x="67" y="45" width="10" height="10" fill="transparent" style="fill:none" />
<image x="67" y="45" width="10" height="10" xlink:href="./5/7.png" fill="transparent" style="fill:none" />
<rect x="78" y="45" width="10" height="10" fill="transparent" style="fill:none" />
<image x="78" y="45" width="10" height="10" xlink:href="./5/8.png" fill="transparent" style="fill:none" />
<rect x="89" y="45" width="10" height="10" fill="transparent" style="fill:none" />
<image x="89" y="45" width="10" height="10" xlink:href="./5/9.png" fill="transparent" style="fill:none" />
<rect x="111" y="45" width="10" height="10" fill="transparent" style="fill:none" />
<image x="111" y="45" width="10" height="10" xlink:href="./5/11.png" fill="transparent" style="fill:none" />
<image x="1" y="56" width="10" height="10" xlink:href="./6/1.svg" fill="transparent" style="fill:none" />
<image x="12" y="56" width="10" height="10" xlink:href="./6/2.svg" fill="transparent" style="fill:none" />
<image x="23" y="56" width="10" height="10" xlink:href="./6/3.svg" fill="transparent" style="fill:none" />
<image x="34" y="56" width="10" height="10" xlink:href="./6/4.svg" fill="transparent" style="fill:none" />
<image x="45" y="56" width="10" height="10" xlink:href="./6/5.svg" fill="transparent" style="fill:none" />
<image x="56" y="56" width="10" height="10" xlink:href="./6/6.svg" fill="transparent" style="fill:none" />
<image x="67" y="56" width="10" height="10" xlink:href="./6/7.svg" fill="transparent" style="fill:none" />
<image x="78" y="56" width="10" height="10" xlink:href="./6/8.svg" fill="transparent" style="fill:none" />
<image x="89" y="56" width="10" height="10" xlink:href="./6/9.svg" fill="transparent" style="fill:none" />
<image x="100" y="56" width="10" height="10" xlink:href="./6/10.svg" fill="transparent" style="fill:none" />
<rect x="1" y="67" width="10" height="10" fill="transparent" style="fill:none" />
<image x="1" y="67" width="10" height="10" xlink:href="./7/1.png" fill="transparent" style="fill:none" />
<rect x="12" y="67" width="10" height="10" fill="transparent" style="fill:none" />
<image x="12" y="67" width="10" height="10" xlink:href="./7/2.png" fill="transparent" style="fill:none" />
<rect x="23" y="67" width="10" height="10" fill="transparent" style="fill:none" />
<image x="23" y="67" width="10" height="10" xlink:href="./7/3.png" fill="transparent" style="fill:none" />
<rect x="34" y="67" width="10" height="10" fill="transparent" style="fill:none" />
<image x="34" y="67" width="10" height="10" xlink:href="./7/4.png" fill="transparent" style="fill:none" />
</svg>
