<svg height="92" viewBox="0 0 157 92" width="157" xmlns="http://www.w3.org/2000/svg" xmlns:xlink="http://www.w3.org/1999/xlink">
<image x="1" y="1" width="12" height="12" xlink:href="./1/1.svg" fill="transparent" style="fill:none" />
<image x="14" y="1" width="12" height="12" xlink:href="./1/2.svg" fill="transparent" style="fill:none" />
<image x="27" y="1" width="12" height="12" xlink:href="./1/3.svg" fill="transparent" style="fill:none" />
<image x="40" y="1" width="12" height="12" xlink:href="./1/4.svg" fill="transparent" style="fill:none" />
<image x="53" y="1" width="12" height="12" xlink:href="./1/5.svg" fill="transparent" style="fill:none" />
<image x="66" y="1" width="12" height="12" xlink:href="./1/6.svg" fill="transparent" style="fill:none" />
<image x="79" y="1" width="12" height="12" xlink:href="./1/7.svg" fill="transparent" style="fill:none" />
<image x="92" y="1" width="12" height="12" xlink:href="./1/8.svg" fill="transparent" style="fill:none" />
<image x="105" y="1" width="12" height="12" xlink:href="./1/9.svg" fill="transparent" style="fill:none" />
<image x="118" y="1" width="12" height="12" xlink:href="./1/10.svg" fill="transparent" style="fill:none" />
<image x="131" y="1" width="12" height="12" xlink:href="./1/11.svg" fill="transparent" style="fill:none" />
<image x="1" y="14" width="12" height="12" xlink:href="./2/1.svg" fill="transparent" style="fill:none" />
<image x="14" y="14" width="12" height="12" xlink:href="./2/2.svg" fill="transparent" style="fill:none" />
<image x="27" y="14" width="12" height="12" xlink:href="./2/3.svg" fill="transparent" style="fill:none" />
<image x="40" y="14" width="12" height="12" xlink:href="./2/4.svg" fill="transparent" style="fill:none" />
<image x="53" y="14" width="12" height="12" xlink:href="./2/5.svg" fill="transparent" style="fill:none" />
<image x="66" y="14" width="12" height="12" xlink:href="./2/6.svg" fill="transparent" style="fill:none" />
<image x="79" y="14" width="12" height="12" xlink:href="./2/7.svg" fill="transparent" style="fill:none" />
<image x="92" y="14" width="12" height="12" xlink:href="./2/8.svg" fill="transparent" style="fill:none" />
<image x="105" y="14" width="12" height="12" xlink:href="./2/9.svg" fill="transparent" style="fill:none" />
<image x="118" y="14" width="12" height="12" xlink:href="./2/10.svg" fill="transparent" style="fill:none" />
<image x="131" y="14" width="12" height="12" xlink:href="./2/11.svg" fill="transparent" style="fill:none" />
<image x="144" y="14" width="12" height="12" xlink:href="./2/12.svg" fill="transparent" style="fill:none" />
<image x="1" y="27" width="12" height="12" xlink:href="./3/1.svg" fill="transparent" style="fill:none" />
<image x="14" y="27" width="12" height="12" xlink:href="./3/2.svg" fill="transparent" style="fill:none" />
<image x="27" y="27" width="12" height="12" xlink:href="./3/3.svg" fill="transparent" style="fill:none" />
<image x="40" y="27" width="12" height="12" xlink:href="./3/4.svg" fill="transparent" style="fill:none" />
<image x="53" y="27" width="12" height="12" xlink:href="./3/5.svg" fill="transparent" style="fill:none" />
<image x="66" y="27" width="12" height="12" xlink:href="./3/6.svg" fill="transparent" style="fill:none" />
<image x="79" y="27" width="12" height="12" xlink:href="./3/7.svg" fill="transparent" style="fill:none" />
<rect x="92" y="27" width="12" height="12" fill="transparent" style="fill:none" />
<image x="92" y="27" width="12" height="12" xlink:href="./3/8.png" fill="transparent" style="fill:none" />
<rect x="105" y="27" width="12" height="12" fill="transparent" style="fill:none" />
<image x="105" y="27" width="12" height="12" xlink:href="./3/9.png" fill="transparent" style="fill:none" />
<image x="118" y="27" width="12" height="12" xlink:href="./3/10.svg" fill="transparent" style="fill:none" />
<image x="131" y="27" width="12" height="12" xlink:href="./3/11.svg" fill="transparent" style="fill:none" />
<image x="144" y="27" width="12" height="12" xlink:href="./3/12.svg" fill="transparent" style="fill:none" />
<rect x="1" y="40" width="12" height="12" fill="transparent" style="fill:none" />
<image x="1" y="40" width="12" height="12" xlink:href="./4/1.png" fill="transparent" style="fill:none" />
<rect x="14" y="40" width="12" height="12" fill="transparent" style="fill:none" />
<image x="14" y="40" width="12" height="12" xlink:href="./4/2.png" fill="transparent" style="fill:none" />
<rect x="27" y="40" width="12" height="12" fill="transparent" style="fill:none" />
<image x="27" y="40" width="12" height="12" xlink:href="./4/3.png" fill="transparent" style="fill:none" />
<image x="40" y="40" width="12" height="12" xlink:href="./4/4.svg" fill="transparent" style="fill:none" />
<rect x="53" y="40" width="12" height="12" fill="transparent" style="fill:none" />
<image x="53" y="40" width="12" height="12" xlink:href="./4/5.png" fill="transparent" style="fill:none" />
<rect x="66" y="40" width="12" height="12" fill="transparent" style="fill:none" />
<image x="66" y="40" width="12" height="12" xlink:href="./4/6.png" fill="transparent" style="fill:none" />
<rect x="79" y="40" width="12" height="12" fill="transparent" style="fill:none" />
<image x="79" y="40" width="12" height="12" xlink:href="./4/7.png" fill="transparent" style="fill:none" />
<rect x="92" y="40" width="12" height="12" fill="transparent" style="fill:none" />
<image x="92" y="40" width="12" height="12" xlink:href="./4/8.png" fill="transparent" style="fill:none" />
<rect x="105" y="40" width="12" height="12" fill="transparent" style="fill:none" />
<image x="105" y="40" width="12" height="12" xlink:href="./4/9.png" fill="transparent" style="fill:none" />
<image x="131" y="40" width="12" height="12" xlink:href="./4/11.svg" fill="transparent" style="fill:none" />
<rect x="144" y="40" width="12" height="12" fill="transparent" style="fill:none" />
<image x="144" y="40" width="12" height="12" xlink:href="./4/12.png" fill="transparent" style="fill:none" />
<image x="1" y="53" width="12" height="12" xlink:href="./5/1.svg" fill="transparent" style="fill:none" />
<image x="14" y="53" width="12" height="12" xlink:href="./5/2.svg" fill="transparent" style="fill:none" />
<image x="27" y="53" width="12" height="12" xlink:href="./5/3.svg" fill="transparent" style="fill:none" />
<rect x="40" y="53" width="12" height="12" fill="transparent" style="fill:none" />
<image x="40" y="53" width="12" height="12" xlink:href="./5/4.png" fill="transparent" style="fill:none" />
<image x="53" y="53" width="12" height="12" xlink:href="./5/5.svg" fill="transparent" style="fill:none" />
<rect x="66" y="53" width="12" height="12" fill="transparent" style="fill:none" />
<image x="66" y="53" width="12" height="12" xlink:href="./5/6.png" fill="transparent" style="fill:none" />
<rect x="79" y="53" width="12" height="12" fill="transparent" style="fill:none" />
<image x="79" y="53" width="12" height="12" xlink:href="./5/7.png" fill="transparent" style="fill:none" />
<rect x="92" y="53" width="12" height="12" fill="transparent" style="fill:none" />
<image x="92" y="53" width="12" height="12" xlink:href="./5/8.png" fill="transparent" style="fill:none" />
<rect x="105" y="53" width="12" height="12" fill="transparent" style="fill:none" />
<image x="105" y="53" width="12" height="12" xlink:href="./5/9.png" fill="transparent" style="fill:none" />
<rect x="131" y="53" width="12" height="12" fill="transparent" style="fill:none" />
<image x="131" y="53" width="12" height="12" xlink:href="./5/11.png" fill="transparent" style="fill:none" />
<image x="1" y="66" width="12" height="12" xlink:href="./6/1.svg" fill="transparent" style="fill:none" />
<image x="14" y="66" width="12" height="12" xlink:href="./6/2.svg" fill="transparent" style="fill:none" />
<image x="27" y="66" width="12" height="12" xlink:href="./6/3.svg" fill="transparent" style="fill:none" />
<image x="40" y="66" width="12" height="12" xlink:href="./6/4.svg" fill="transparent" style="fill:none" />
<image x="53" y="66" width="12" height="12" xlink:href="./6/5.svg" fill="transparent" style="fill:none" />
<image x="66" y="66" width="12" height="12" xlink:href="./6/6.svg" fill="transparent" style="fill:none" />
<image x="79" y="66" width="12" height="12" xlink:href="./6/7.svg" fill="transparent" style="fill:none" />
<image x="92" y="66" width="12" height="12" xlink:href="./6/8.svg" fill="transparent" style="fill:none" />
<image x="105" y="66" width="12" height="12" xlink:href="./6/9.svg" fill="transparent" style="fill:none" />
<image x="118" y="66" width="12" height="12" xlink:href="./6/10.svg" fill="transparent" style="fill:none" />
<rect x="1" y="79" width="12" height="12" fill="transparent" style="fill:none" />
<image x="1" y="79" width="12" height="12" xlink:href="./7/1.png" fill="transparent" style="fill:none" />
<rect x="14" y="79" width="12" height="12" fill="transparent" style="fill:none" />
<image x="14" y="79" width="12" height="12" xlink:href="./7/2.png" fill="transparent" style="fill:none" />
<rect x="27" y="79" width="12" height="12" fill="transparent" style="fill:none" />
<image x="27" y="79" width="12" height="12" xlink:href="./7/3.png" fill="transparent" style="fill:none" />
<rect x="40" y="79" width="12" height="12" fill="transparent" style="fill:none" />
<image x="40" y="79" width="12" height="12" xlink:href="./7/4.png" fill="transparent" style="fill:none" />
</svg>
