<svg height="113" viewBox="0 0 193 113" width="193" xmlns="http://www.w3.org/2000/svg" xmlns:xlink="http://www.w3.org/1999/xlink">
<image x="1" y="1" width="15" height="15" xlink:href="./1/1.svg" fill="transparent" style="fill:none" />
<image x="17" y="1" width="15" height="15" xlink:href="./1/2.svg" fill="transparent" style="fill:none" />
<image x="33" y="1" width="15" height="15" xlink:href="./1/3.svg" fill="transparent" style="fill:none" />
<image x="49" y="1" width="15" height="15" xlink:href="./1/4.svg" fill="transparent" style="fill:none" />
<image x="65" y="1" width="15" height="15" xlink:href="./1/5.svg" fill="transparent" style="fill:none" />
<image x="81" y="1" width="15" height="15" xlink:href="./1/6.svg" fill="transparent" style="fill:none" />
<image x="97" y="1" width="15" height="15" xlink:href="./1/7.svg" fill="transparent" style="fill:none" />
<image x="113" y="1" width="15" height="15" xlink:href="./1/8.svg" fill="transparent" style="fill:none" />
<image x="129" y="1" width="15" height="15" xlink:href="./1/9.svg" fill="transparent" style="fill:none" />
<image x="145" y="1" width="15" height="15" xlink:href="./1/10.svg" fill="transparent" style="fill:none" />
<image x="161" y="1" width="15" height="15" xlink:href="./1/11.svg" fill="transparent" style="fill:none" />
<image x="1" y="17" width="15" height="15" xlink:href="./2/1.svg" fill="transparent" style="fill:none" />
<image x="17" y="17" width="15" height="15" xlink:href="./2/2.svg" fill="transparent" style="fill:none" />
<image x="33" y="17" width="15" height="15" xlink:href="./2/3.svg" fill="transparent" style="fill:none" />
<image x="49" y="17" width="15" height="15" xlink:href="./2/4.svg" fill="transparent" style="fill:none" />
<image x="65" y="17" width="15" height="15" xlink:href="./2/5.svg" fill="transparent" style="fill:none" />
<image x="81" y="17" width="15" height="15" xlink:href="./2/6.svg" fill="transparent" style="fill:none" />
<image x="97" y="17" width="15" height="15" xlink:href="./2/7.svg" fill="transparent" style="fill:none" />
<image x="113" y="17" width="15" height="15" xlink:href="./2/8.svg" fill="transparent" style="fill:none" />
<image x="129" y="17" width="15" height="15" xlink:href="./2/9.svg" fill="transparent" style="fill:none" />
<image x="145" y="17" width="15" height="15" xlink:href="./2/10.svg" fill="transparent" style="fill:none" />
<image x="161" y="17" width="15" height="15" xlink:href="./2/11.svg" fill="transparent" style="fill:none" />
<image x="177" y="17" width="15" height="15" xlink:href="./2/12.svg" fill="transparent" style="fill:none" />
<image x="1" y="33" width="15" height="15" xlink:href="./3/1.svg" fill="transparent" style="fill:none" />
<image x="17" y="33" width="15" height="15" xlink:href="./3/2.svg" fill="transparent" style="fill:none" />
<image x="33" y="33" width="15" height="15" xlink:href="./3/3.svg" fill="transparent" style="fill:none" />
<image x="49" y="33" width="15" height="15" xlink:href="./3/4.svg" fill="transparent" style="fill:none" />
<image x="65" y="33" width="15" height="15" xlink:href="./3/5.svg" fill="transparent" style="fill:none" />
<image x="81" y="33" width="15" height="15" xlink:href="./3/6.svg" fill="transparent" style="fill:none" />
<image x="97" y="33" width="15" height="15" xlink:href="./3/7.svg" fill="transparent" style="fill:none" />
<rect x="113" y="33" width="15" height="15" fill="transparent" style="fill:none" />
<image x="113" y="33" width="15" height="15" xlink:href="./3/8.png" fill="transparent" style="fill:none" />
<rect x="129" y="33" width="15" height="15" fill="transparent" style="fill:none" />
<image x="129" y="33" width="15" height="15" xlink:href="./3/9.png" fill="transparent" style="fill:none" />
<image x="145" y="33" width="15" height="15" xlink:href="./3/10.svg" fill="transparent" style="fill:none" />
<image x="161" y="33" width="15" height="15" xlink:href="./3/11.svg" fill="transparent" style="fill:none" />
<image x="177" y="33" width="15" height="15" xlink:href="./3/12.svg" fill="transparent" style="fill:none" />
<rect x="1" y="49" width="15" height="15" fill="transparent" style="fill:none" />
<image x="1" y="49" width="15" height="15" xlink:href="./4/1.png" fill="transparent" style="fill:none" />
<rect x="17" y="49" width="15" height="15" fill="transparent" style="fill:none" />
<image x="17" y="49" width="15" height="15" xlink:href="./4/2.png" fill="transparent" style="fill:none" />
<rect x="33" y="49" width="15" height="15" fill="transparent" style="fill:none" />
<image x="33" y="49" width="15" height="15" xlink:href="./4/3.png" fill="transparent" style="fill:none" />
<image x="49" y="49" width="15" height="15" xlink:href="./4/4.svg" fill="transparent" style="fill:none" />
<rect x="65" y="49" width="15" height="15" fill="transparent" style="fill:none" />
<image x="65" y="49" width="15" height="15" xlink:href="./4/5.png" fill="transparent" style="fill:none" />
<rect x="81" y="49" width="15" height="15" fill="transparent" style="fill:none" />
<image x="81" y="49" width="15" height="15" xlink:href="./4/6.png" fill="transparent" style="fill:none" />
<rect x="97" y="49" width="15" height="15" fill="transparent" style="fill:none" />
<image x="97" y="49" width="15" height="15" xlink:href="./4/7.png" fill="transparent" style="fill:none" />
<rect x="113" y="49" width="15" height="15" fill="transparent" style="fill:none" />
<image x="113" y="49" width="15" height="15" xlink:href="./4/8.png" fill="transparent" style="fill:none" />
<rect x="129" y="49" width="15" height="15" fill="transparent" style="fill:none" />
<image x="129" y="49" width="15" height="15" xlink:href="./4/9.png" fill="transparent" style="fill:none" />
<image x="161" y="49" width="15" height="15" xlink:href="./4/11.svg" fill="transparent" style="fill:none" />
<rect x="177" y="49" width="15" height="15" fill="transparent" style="fill:none" />
<image x="177" y="49" width="15" height="15" xlink:href="./4/12.png" fill="transparent" style="fill:none" />
<image x="1" y="65" width="15" height="15" xlink:href="./5/1.svg" fill="transparent" style="fill:none" />
<image x="17" y="65" width="15" height="15" xlink:href="./5/2.svg" fill="transparent" style="fill:none" />
<image x="33" y="65" width="15" height="15" xlink:href="./5/3.svg" fill="transparent" style="fill:none" />
<rect x="49" y="65" width="15" height="15" fill="transparent" style="fill:none" />
<image x="49" y="65" width="15" height="15" xlink:href="./5/4.png" fill="transparent" style="fill:none" />
<image x="65" y="65" width="15" height="15" xlink:href="./5/5.svg" fill="transparent" style="fill:none" />
<rect x="81" y="65" width="15" height="15" fill="transparent" style="fill:none" />
<image x="81" y="65" width="15" height="15" xlink:href="./5/6.png" fill="transparent" style="fill:none" />
<rect x="97" y="65" width="15" height="15" fill="transparent" style="fill:none" />
<image x="97" y="65" width="15" height="15" xlink:href="./5/7.png" fill="transparent" style="fill:none" />
<rect x="113" y="65" width="15" height="15" fill="transparent" style="fill:none" />
<image x="113" y="65" width="15" height="15" xlink:href="./5/8.png" fill="transparent" style="fill:none" />
<rect x="129" y="65" width="15" height="15" fill="transparent" style="fill:none" />
<image x="129" y="65" width="15" height="15" xlink:href="./5/9.png" fill="transparent" style="fill:none" />
<rect x="161" y="65" width="15" height="15" fill="transparent" style="fill:none" />
<image x="161" y="65" width="15" height="15" xlink:href="./5/11.png" fill="transparent" style="fill:none" />
<image x="1" y="81" width="15" height="15" xlink:href="./6/1.svg" fill="transparent" style="fill:none" />
<image x="17" y="81" width="15" height="15" xlink:href="./6/2.svg" fill="transparent" style="fill:none" />
<image x="33" y="81" width="15" height="15" xlink:href="./6/3.svg" fill="transparent" style="fill:none" />
<image x="49" y="81" width="15" height="15" xlink:href="./6/4.svg" fill="transparent" style="fill:none" />
<image x="65" y="81" width="15" height="15" xlink:href="./6/5.svg" fill="transparent" style="fill:none" />
<image x="81" y="81" width="15" height="15" xlink:href="./6/6.svg" fill="transparent" style="fill:none" />
<image x="97" y="81" width="15" height="15" xlink:href="./6/7.svg" fill="transparent" style="fill:none" />
<image x="113" y="81" width="15" height="15" xlink:href="./6/8.svg" fill="transparent" style="fill:none" />
<image x="129" y="81" width="15" height="15" xlink:href="./6/9.svg" fill="transparent" style="fill:none" />
<image x="145" y="81" width="15" height="15" xlink:href="./6/10.svg" fill="transparent" style="fill:none" />
<rect x="1" y="97" width="15" height="15" fill="transparent" style="fill:none" />
<image x="1" y="97" width="15" height="15" xlink:href="./7/1.png" fill="transparent" style="fill:none" />
<rect x="17" y="97" width="15" height="15" fill="transparent" style="fill:none" />
<image x="17" y="97" width="15" height="15" xlink:href="./7/2.png" fill="transparent" style="fill:none" />
<rect x="33" y="97" width="15" height="15" fill="transparent" style="fill:none" />
<image x="33" y="97" width="15" height="15" xlink:href="./7/3.png" fill="transparent" style="fill:none" />
<rect x="49" y="97" width="15" height="15" fill="transparent" style="fill:none" />
<image x="49" y="97" width="15" height="15" xlink:href="./7/4.png" fill="transparent" style="fill:none" />
</svg>
