<svg height="148" viewBox="0 0 253 148" width="253" xmlns="http://www.w3.org/2000/svg" xmlns:xlink="http://www.w3.org/1999/xlink">
<image x="1" y="1" width="20" height="20" xlink:href="./1/1.svg" />
<image x="22" y="1" width="20" height="20" xlink:href="./1/2.svg" />
<image x="43" y="1" width="20" height="20" xlink:href="./1/3.svg" />
<image x="64" y="1" width="20" height="20" xlink:href="./1/4.svg" />
<image x="85" y="1" width="20" height="20" xlink:href="./1/5.svg" />
<image x="106" y="1" width="20" height="20" xlink:href="./1/6.svg" />
<image x="127" y="1" width="20" height="20" xlink:href="./1/7.svg" />
<image x="148" y="1" width="20" height="20" xlink:href="./1/8.svg" />
<image x="169" y="1" width="20" height="20" xlink:href="./1/9.svg" />
<image x="190" y="1" width="20" height="20" xlink:href="./1/10.svg" />
<image x="211" y="1" width="20" height="20" xlink:href="./1/11.svg" />
<image x="1" y="22" width="20" height="20" xlink:href="./2/1.svg" />
<image x="22" y="22" width="20" height="20" xlink:href="./2/2.svg" />
<image x="43" y="22" width="20" height="20" xlink:href="./2/3.svg" />
<image x="64" y="22" width="20" height="20" xlink:href="./2/4.svg" />
<image x="85" y="22" width="20" height="20" xlink:href="./2/5.svg" />
<image x="106" y="22" width="20" height="20" xlink:href="./2/6.svg" />
<image x="127" y="22" width="20" height="20" xlink:href="./2/7.svg" />
<image x="148" y="22" width="20" height="20" xlink:href="./2/8.svg" />
<image x="169" y="22" width="20" height="20" xlink:href="./2/9.svg" />
<image x="190" y="22" width="20" height="20" xlink:href="./2/10.svg" />
<image x="211" y="22" width="20" height="20" xlink:href="./2/11.svg" />
<image x="232" y="22" width="20" height="20" xlink:href="./2/12.svg" />
<image x="1" y="43" width="20" height="20" xlink:href="./3/1.svg" />
<image x="22" y="43" width="20" height="20" xlink:href="./3/2.svg" />
<image x="43" y="43" width="20" height="20" xlink:href="./3/3.svg" />
<image x="64" y="43" width="20" height="20" xlink:href="./3/4.svg" />
<image x="85" y="43" width="20" height="20" xlink:href="./3/5.svg" />
<image x="106" y="43" width="20" height="20" xlink:href="./3/6.svg" />
<image x="127" y="43" width="20" height="20" xlink:href="./3/7.svg" />
<rect x="148" y="43" width="20" height="20" fill="transparent" />
<image x="148" y="43" width="20" height="20" xlink:href="./3/8.png" />
<rect x="169" y="43" width="20" height="20" fill="transparent" />
<image x="169" y="43" width="20" height="20" xlink:href="./3/9.png" />
<image x="190" y="43" width="20" height="20" xlink:href="./3/10.svg" />
<image x="211" y="43" width="20" height="20" xlink:href="./3/11.svg" />
<image x="232" y="43" width="20" height="20" xlink:href="./3/12.svg" />
<rect x="1" y="64" width="20" height="20" fill="transparent" />
<image x="1" y="64" width="20" height="20" xlink:href="./4/1.png" />
<rect x="22" y="64" width="20" height="20" fill="transparent" />
<image x="22" y="64" width="20" height="20" xlink:href="./4/2.png" />
<rect x="43" y="64" width="20" height="20" fill="transparent" />
<image x="43" y="64" width="20" height="20" xlink:href="./4/3.png" />
<image x="64" y="64" width="20" height="20" xlink:href="./4/4.svg" />
<rect x="85" y="64" width="20" height="20" fill="transparent" />
<image x="85" y="64" width="20" height="20" xlink:href="./4/5.png" />
<rect x="106" y="64" width="20" height="20" fill="transparent" />
<image x="106" y="64" width="20" height="20" xlink:href="./4/6.png" />
<rect x="127" y="64" width="20" height="20" fill="transparent" />
<image x="127" y="64" width="20" height="20" xlink:href="./4/7.png" />
<rect x="148" y="64" width="20" height="20" fill="transparent" />
<image x="148" y="64" width="20" height="20" xlink:href="./4/8.png" />
<rect x="169" y="64" width="20" height="20" fill="transparent" />
<image x="169" y="64" width="20" height="20" xlink:href="./4/9.png" />
<image x="211" y="64" width="20" height="20" xlink:href="./4/11.svg" />
<rect x="232" y="64" width="20" height="20" fill="transparent" />
<image x="232" y="64" width="20" height="20" xlink:href="./4/12.png" />
<image x="1" y="85" width="20" height="20" xlink:href="./5/1.svg" />
<image x="22" y="85" width="20" height="20" xlink:href="./5/2.svg" />
<image x="43" y="85" width="20" height="20" xlink:href="./5/3.svg" />
<rect x="64" y="85" width="20" height="20" fill="transparent" />
<image x="64" y="85" width="20" height="20" xlink:href="./5/4.png" />
<image x="85" y="85" width="20" height="20" xlink:href="./5/5.svg" />
<rect x="106" y="85" width="20" height="20" fill="transparent" />
<image x="106" y="85" width="20" height="20" xlink:href="./5/6.png" />
<rect x="127" y="85" width="20" height="20" fill="transparent" />
<image x="127" y="85" width="20" height="20" xlink:href="./5/7.png" />
<rect x="148" y="85" width="20" height="20" fill="transparent" />
<image x="148" y="85" width="20" height="20" xlink:href="./5/8.png" />
<rect x="169" y="85" width="20" height="20" fill="transparent" />
<image x="169" y="85" width="20" height="20" xlink:href="./5/9.png" />
<rect x="211" y="85" width="20" height="20" fill="transparent" />
<image x="211" y="85" width="20" height="20" xlink:href="./5/11.png" />
<image x="1" y="106" width="20" height="20" xlink:href="./6/1.svg" />
<image x="22" y="106" width="20" height="20" xlink:href="./6/2.svg" />
<image x="43" y="106" width="20" height="20" xlink:href="./6/3.svg" />
<image x="64" y="106" width="20" height="20" xlink:href="./6/4.svg" />
<image x="85" y="106" width="20" height="20" xlink:href="./6/5.svg" />
<image x="106" y="106" width="20" height="20" xlink:href="./6/6.svg" />
<image x="127" y="106" width="20" height="20" xlink:href="./6/7.svg" />
<image x="148" y="106" width="20" height="20" xlink:href="./6/8.svg" />
<image x="169" y="106" width="20" height="20" xlink:href="./6/9.svg" />
<image x="190" y="106" width="20" height="20" xlink:href="./6/10.svg" />
<rect x="1" y="127" width="20" height="20" fill="transparent" />
<image x="1" y="127" width="20" height="20" xlink:href="./7/1.png" />
<rect x="22" y="127" width="20" height="20" fill="transparent" />
<image x="22" y="127" width="20" height="20" xlink:href="./7/2.png" />
<rect x="43" y="127" width="20" height="20" fill="transparent" />
<image x="43" y="127" width="20" height="20" xlink:href="./7/3.png" />
<rect x="64" y="127" width="20" height="20" fill="transparent" />
<image x="64" y="127" width="20" height="20" xlink:href="./7/4.png" />
</svg>
