#define class_width 17
#define class_height 17
static char class_bits[] = {
   0xff, 0xff, 0x01, 0xff, 0xff, 0x01, 0xff, 0xff, 0x01, 0xff, 0xff, 0x01,
   0x3f, 0xf8, 0x01, 0x0f, 0xe0, 0x01, 0x07, 0xc0, 0x01, 0x03, 0x80, 0x01,
   0x03, 0x80, 0x01, 0x03, 0x80, 0x01, 0x07, 0xc0, 0x01, 0x0f, 0xe0, 0x01,
   0x3f, 0xf8, 0x01, 0xff, 0xff, 0x01, 0xff, 0xff, 0x01, 0xff, 0xff, 0x01,
   0xff, 0xff, 0x01};
