#define clr_bp_width 16
#define clr_bp_height 16
static char clr_bp_bits[] = {
   0x01, 0x80, 0x03, 0x60, 0xf6, 0x37, 0x0c, 0x18, 0xf8, 0x0f, 0x74, 0x2e,
   0xb4, 0x2f, 0xb4, 0x2f, 0x74, 0x2e, 0xf4, 0x2d, 0x74, 0x2e, 0xf0, 0x0f,
   0x0c, 0x18, 0xf6, 0x37, 0x03, 0x60, 0x01, 0xc0};
