#define current.bm_width 17
#define current.bm_height 17
static char current.bm_bits[] = {
   0x00, 0x00, 0x00, 0x80, 0x0f, 0x00, 0xe0, 0x39, 0x00, 0x38, 0x60, 0x00,
   0x18, 0x40, 0x00, 0x9c, 0xdb, 0x00, 0xcc, 0xdd, 0x00, 0xce, 0xdd, 0x00,
   0xee, 0xcc, 0x00, 0xee, 0xcc, 0x00, 0xee, 0x6e, 0x00, 0xee, 0x7f, 0x00,
   0xcc, 0x3b, 0x00, 0x1c, 0x00, 0x00, 0x78, 0x00, 0x00, 0xe0, 0x1f, 0x00,
   0x00, 0x00, 0x00};
