#define dbgquit_width 17
#define dbgquit_height 17
static unsigned char dbgquit_bits[] = {
   0x00, 0x10, 0x01, 0x00, 0x02, 0x00, 0x80, 0x60, 0x00, 0x00, 0x18, 0x00,
   0x00, 0x86, 0x00, 0x80, 0x21, 0x00, 0x80, 0x01, 0x00, 0xe0, 0x07, 0x00,
   0xf0, 0x0f, 0x00, 0xf8, 0x1f, 0x00, 0xa8, 0x1f, 0x00, 0xfc, 0x3f, 0x00,
   0xac, 0x3f, 0x00, 0xf8, 0x1f, 0x00, 0xf8, 0x1f, 0x00, 0xf0, 0x0f, 0x00,
   0xc0, 0x03, 0x00};
