#define dbgstatu_width 17
#define dbgstatu_height 17
static unsigned char dbgstatu_bits[] = {
   0x00, 0x00, 0x00, 0xc0, 0x3f, 0x00, 0xe0, 0x78, 0x00, 0x30, 0xc0, 0x00,
   0x18, 0xc0, 0x00, 0x08, 0x8b, 0x00, 0x8c, 0x8d, 0x00, 0x8c, 0x8d, 0x00,
   0xc4, 0x8c, 0x00, 0xc4, 0xcc, 0x00, 0xcc, 0x4e, 0x00, 0x8c, 0x3b, 0x00,
   0x18, 0x00, 0x00, 0x30, 0x00, 0x00, 0x60, 0x30, 0x00, 0xc0, 0x0f, 0x00,
   0x00, 0x00, 0x00};
