#define dbreakpoint.bm_width 17
#define dbreakpoint.bm_height 17
static char dbreakpoint.bm_bits[] = {
   0xff, 0xff, 0x01, 0x01, 0x38, 0x00, 0xff, 0xef, 0x01, 0xff, 0xc7, 0x01,
   0xff, 0x83, 0x01, 0xff, 0x01, 0x01, 0xff, 0xef, 0x01, 0x49, 0xee, 0x01,
   0x49, 0xee, 0x01, 0x49, 0xee, 0x01, 0x49, 0xee, 0x01, 0x49, 0xe2, 0x01,
   0x49, 0xfe, 0x01, 0x49, 0xfe, 0x01, 0x49, 0xfe, 0x01, 0x49, 0xfe, 0x01,
   0xff, 0xff, 0x01};
