#define dxecstep.bm_width 17
#define dxecstep.bm_height 17
static char dxecstep.bm_bits[] = {
   0xff, 0xff, 0x01, 0xff, 0xc3, 0x01, 0x9f, 0x81, 0x01, 0x8f, 0x00, 0x01,
   0x8f, 0x00, 0x01, 0x9f, 0x81, 0x01, 0xff, 0xc3, 0x01, 0xff, 0xff, 0x01,
   0xff, 0xff, 0x01, 0xff, 0xff, 0x01, 0x7f, 0xf8, 0x01, 0x33, 0xf0, 0x01,
   0x11, 0xe0, 0x01, 0x11, 0xe0, 0x01, 0x33, 0xf0, 0x01, 0x7f, 0xf8, 0x01,
   0xff, 0xff, 0x01};
