#define dexecnostop.bm_width 17
#define dexecnostop.bm_height 17
static char dexecnostop.bm_bits[] = {
   0xff, 0xff, 0x01, 0xff, 0xff, 0x01, 0xff, 0xff, 0x01, 0xaf, 0xfe, 0x01,
   0xaf, 0xee, 0x01, 0xaf, 0xce, 0x01, 0xaf, 0x8e, 0x01, 0x01, 0x00, 0x01,
   0x01, 0x00, 0x01, 0xaf, 0x8e, 0x01, 0xaf, 0xce, 0x01, 0xaf, 0xee, 0x01,
   0xaf, 0xfe, 0x01, 0xff, 0xff, 0x01, 0xff, 0xff, 0x01, 0xff, 0xff, 0x01,
   0xff, 0xff, 0x01};
