#define dshowancestors.bm_width 17
#define dshowancestors.bm_height 17
static char dshowancestors.bm_bits[] = {
   0xff, 0xff, 0x01, 0x21, 0x04, 0x01, 0x21, 0x04, 0x01, 0xfb, 0xde, 0x01,
   0xfb, 0xde, 0x01, 0x03, 0xde, 0x01, 0xdf, 0xdf, 0x01, 0x07, 0x02, 0x01,
   0x07, 0x02, 0x01, 0xdf, 0xf7, 0x01, 0xdf, 0xf7, 0x01, 0x1f, 0xf0, 0x01,
   0xff, 0xfe, 0x01, 0xff, 0xfe, 0x01, 0x0f, 0xf0, 0x01, 0x0f, 0xf0, 0x01,
   0xff, 0xff, 0x01};
