#define dshowclients.bm_width 17
#define dshowclients.bm_height 17
static char dshowclients.bm_bits[] = {
   0xff, 0xff, 0x01, 0xff, 0x07, 0x01, 0xff, 0x07, 0x01, 0xff, 0xff, 0x01,
   0xdf, 0xff, 0x01, 0x9f, 0x07, 0x01, 0x01, 0x07, 0x01, 0x01, 0xfe, 0x01,
   0x1f, 0xfc, 0x01, 0x01, 0xfe, 0x01, 0x01, 0x07, 0x01, 0x9f, 0x07, 0x01,
   0xdf, 0xff, 0x01, 0xff, 0xff, 0x01, 0xff, 0x07, 0x01, 0xff, 0x07, 0x01,
   0xff, 0xff, 0x01};
