#define dshowclusters.bm_width 17
#define dshowclusters.bm_height 17
static char dshowclusters.bm_bits[] = {
   0xff, 0xff, 0x01, 0xf9, 0xff, 0x01, 0x09, 0x00, 0x01, 0xff, 0xff, 0x01,
   0x0f, 0x00, 0x01, 0xff, 0xff, 0x01, 0x0f, 0x00, 0x01, 0xff, 0xff, 0x01,
   0xff, 0xff, 0x01, 0xf9, 0xff, 0x01, 0x09, 0x00, 0x01, 0xff, 0xff, 0x01,
   0x0f, 0x00, 0x01, 0xff, 0xff, 0x01, 0x0f, 0x00, 0x01, 0xff, 0xff, 0x01,
   0xff, 0xff, 0x01};
