#define dshowflat.bm_width 17
#define dshowflat.bm_height 17
static char dshowflat.bm_bits[] = {
   0xff, 0xff, 0x01, 0x01, 0x00, 0x01, 0xff, 0xff, 0x01, 0xff, 0xff, 0x01,
   0x01, 0x00, 0x01, 0xff, 0xff, 0x01, 0xff, 0xff, 0x01, 0x01, 0x00, 0x01,
   0xff, 0xff, 0x01, 0xff, 0xff, 0x01, 0x01, 0x00, 0x01, 0xff, 0xff, 0x01,
   0xff, 0xff, 0x01, 0x01, 0x00, 0x01, 0xff, 0xff, 0x01, 0xff, 0xff, 0x01,
   0x01, 0x00, 0x01};
