#define dshowstatistics.bm_width 17
#define dshowstatistics.bm_height 17
static char dshowstatistics.bm_bits[] = {
   0xff, 0xff, 0x01, 0xfd, 0xff, 0x01, 0xfd, 0xff, 0x01, 0xfd, 0xff, 0x01,
   0x0d, 0xff, 0x01, 0x6d, 0xff, 0x01, 0x6d, 0xff, 0x01, 0x6d, 0xc3, 0x01,
   0x61, 0xdb, 0x01, 0x6d, 0xdb, 0x01, 0x6d, 0xdb, 0x01, 0x6d, 0xd8, 0x01,
   0x6d, 0xdb, 0x01, 0x6d, 0xdb, 0x01, 0x6d, 0xdb, 0x01, 0x01, 0x00, 0x01,
   0xff, 0xff, 0x01};
