#define showtext_dark.bm_width 17
#define showtext_dark.bm_height 17
static char showtext_dark.bm_bits[] = {
   0xff, 0xff, 0x01, 0x01, 0x00, 0x01, 0xff, 0xff, 0x01, 0xff, 0xff, 0x01,
   0xff, 0xff, 0x01, 0xff, 0xff, 0x01, 0x01, 0x00, 0x01, 0xff, 0xff, 0x01,
   0xff, 0xff, 0x01, 0xff, 0xff, 0x01, 0xff, 0xff, 0x01, 0x01, 0x00, 0x01,
   0xff, 0xff, 0x01, 0xff, 0xff, 0x01, 0xff, 0xff, 0x01, 0xff, 0xff, 0x01,
   0x01, 0x00, 0x01};
