#define explain_dot.bm_width 17
#define explain_dot.bm_height 17
static char explain_dot.bm_bits[] = {
   0x00, 0x00, 0x00, 0xc0, 0x07, 0x00, 0x30, 0x18, 0x00, 0x08, 0x20, 0x00,
   0x04, 0x40, 0x00, 0x02, 0x83, 0x00, 0x82, 0x87, 0x00, 0x02, 0x83, 0x00,
   0x82, 0x80, 0x00, 0x04, 0x40, 0x00, 0x08, 0x20, 0x00, 0x10, 0x18, 0x00,
   0xd0, 0x07, 0x00, 0x38, 0x00, 0x00, 0x0c, 0x00, 0x00, 0x02, 0x00, 0x00,
   0x00, 0x00, 0x00};
