#define gbreakpt_width 14
#define gbreakpt_height 14
static char gbreakpt_bits[] = {
   0x00, 0x00, 0x00, 0x00, 0x00, 0x00, 0xff, 0x3f, 0x01, 0x20, 0xfa, 0x17,
   0xf4, 0x0b, 0xf4, 0x05, 0xe8, 0x05, 0xd0, 0x02, 0x20, 0x01, 0xe0, 0x01,
   0xc0, 0x00, 0x00, 0x00};
