#define obj_up_width 17
#define obj_up_height 17
static unsigned char obj_up_bits[] = {
   0x00, 0x00, 0x00, 0xfe, 0xff, 0x00, 0x9e, 0xf0, 0x00, 0x9c, 0x7f, 0x00,
   0x9c, 0x72, 0x00, 0xf8, 0x3e, 0x00, 0x98, 0x32, 0x00, 0x90, 0x12, 0x00,
   0xf0, 0x1f, 0x00, 0xe0, 0x0f, 0x00, 0xe0, 0x0f, 0x00, 0xc0, 0x07, 0x00,
   0xc0, 0x07, 0x00, 0x80, 0x03, 0x00, 0x80, 0x03, 0x00, 0x00, 0x01, 0x00,
   0x00, 0x00, 0x00};
