#define object_cur.bm_width 17
#define object_cur.bm_height 17
static char object_cur.bm_bits[] = {
   0x00, 0x00, 0x00, 0x00, 0x00, 0x00, 0x7c, 0x66, 0x00, 0x7c, 0x66, 0x00,
   0x7c, 0x66, 0x00, 0x7c, 0x66, 0x00, 0x00, 0x66, 0x00, 0x00, 0x06, 0x00,
   0x7c, 0x06, 0x00, 0x7c, 0x66, 0x00, 0x7c, 0x66, 0x00, 0x7c, 0x00, 0x00,
   0x7c, 0x00, 0x00, 0x7c, 0x7e, 0x00, 0x7c, 0x7e, 0x00, 0x00, 0x00, 0x00,
   0x00, 0x00, 0x00};
