#define routine_width 17
#define routine_height 17
static char routine_bits[] = {
   0xff, 0xff, 0xff, 0xff, 0xff, 0xff, 0xff, 0xff, 0xff, 0x3f, 0xf8, 0xff,
   0x3f, 0xf8, 0xff, 0x3f, 0xf8, 0xff, 0x07, 0xc0, 0xff, 0x07, 0xc0, 0xff,
   0x07, 0xc0, 0xff, 0x07, 0xc0, 0xff, 0x07, 0xc0, 0xff, 0x3f, 0xf8, 0xff,
   0x3f, 0xf8, 0xff, 0x3f, 0xf8, 0xff, 0xff, 0xff, 0xff, 0xff, 0xff, 0xff,
   0xff, 0xff, 0xff};
