#define search.bm_width 17
#define search.bm_height 17
static char search.bm_bits[] = {
   0x00, 0x00, 0x00, 0xfc, 0xff, 0x00, 0x02, 0x00, 0x00, 0xfc, 0x3f, 0x00,
   0x00, 0x40, 0x00, 0xf0, 0x3f, 0x00, 0x08, 0x00, 0x00, 0xf0, 0x0f, 0x00,
   0x00, 0x10, 0x00, 0x80, 0x0f, 0x00, 0x80, 0x00, 0x00, 0x80, 0x00, 0x00,
   0xf0, 0x07, 0x00, 0xe0, 0x03, 0x00, 0xc0, 0x01, 0x00, 0x80, 0x00, 0x00,
   0x00, 0x00, 0x00};
