#define stop.bm_width 17
#define stop.bm_height 17
static char stop.bm_bits[] = {
   0x00, 0x00, 0x00, 0xf0, 0x0f, 0x00, 0xf8, 0x1f, 0x00, 0x0c, 0x30, 0x00,
   0x06, 0x60, 0x00, 0x03, 0xc0, 0x00, 0x03, 0xc0, 0x00, 0x03, 0xc0, 0x00,
   0x03, 0xc0, 0x00, 0x03, 0xc0, 0x00, 0x03, 0xc0, 0x00, 0x03, 0xc0, 0x00,
   0x03, 0xc0, 0x00, 0x06, 0x60, 0x00, 0x0c, 0x30, 0x00, 0xf8, 0x1f, 0x00,
   0xf0, 0x0f, 0x00};
