#define showexported.bm_width 17
#define showexported.bm_height 17
static char showexported.bm_bits[] = {
   0x00, 0x00, 0x00, 0x18, 0x00, 0x00, 0x18, 0x00, 0x00, 0x7e, 0x00, 0x00,
   0x7e, 0x10, 0x00, 0x18, 0x30, 0x00, 0x18, 0x7f, 0x00, 0x00, 0xff, 0x00,
   0x00, 0xf0, 0x01, 0x00, 0xff, 0x00, 0x18, 0x7f, 0x00, 0x18, 0x30, 0x00,
   0x7e, 0x10, 0x00, 0x7e, 0x00, 0x00, 0x18, 0x00, 0x00, 0x18, 0x00, 0x00,
   0x00, 0x00, 0x00};
