#define showfs_width 17
#define showfs_height 17
static char showfs_bits[] = {
   0xc0, 0x0f, 0x00, 0x00, 0x00, 0x00, 0xc0, 0x0f, 0x00, 0x00, 0x00, 0x00,
   0xc0, 0x0f, 0x00, 0x00, 0x00, 0x00, 0xc0, 0x0f, 0x00, 0x00, 0x00, 0x00,
   0xc0, 0x0f, 0x00, 0x00, 0x00, 0x00, 0xc0, 0x0f, 0x00, 0x00, 0x00, 0x00,
   0xc0, 0x0f, 0x00, 0x00, 0x00, 0x00, 0xc0, 0x0f, 0x00, 0x00, 0x00, 0x00,
   0xc0, 0x0f, 0x00};
