#define showonces_width 17
#define showonces_height 17
static char showonces_bits[] = {
   0x00, 0x00, 0x00, 0xfe, 0xff, 0x00, 0xfe, 0xff, 0x00, 0xfc, 0xff, 0x00,
   0x38, 0xc0, 0x00, 0x70, 0xc0, 0x00, 0xe0, 0xc0, 0x00, 0xc0, 0xc1, 0x00,
   0x00, 0xc0, 0x00, 0xc0, 0xc1, 0x00, 0xe0, 0xc0, 0x00, 0x70, 0xc0, 0x00,
   0x38, 0xc0, 0x00, 0x1c, 0xc0, 0x00, 0xfe, 0xff, 0x00, 0xfe, 0xff, 0x00,
   0x00, 0x00, 0x00};
