#define tower_width 25
#define tower_height 50
static char tower_bits[] = {
   0x08, 0x21, 0x84, 0x00, 0x21, 0x84, 0x10, 0x00, 0x84, 0x10, 0x42, 0x00,
   0x10, 0x42, 0x08, 0x01, 0x42, 0x08, 0x21, 0x00, 0x08, 0x31, 0x84, 0x00,
   0x21, 0x94, 0x10, 0x00, 0x84, 0x10, 0x42, 0x00, 0x10, 0x52, 0x08, 0x01,
   0x42, 0x18, 0x21, 0x00, 0x08, 0x31, 0x84, 0x00, 0x21, 0x94, 0x10, 0x00,
   0x84, 0x10, 0x42, 0x00, 0x10, 0x52, 0x08, 0x01, 0x42, 0x18, 0x21, 0x00,
   0x08, 0x31, 0x84, 0x00, 0x21, 0x94, 0x10, 0x00, 0x84, 0x10, 0x42, 0x00,
   0x10, 0x52, 0x08, 0x01, 0x42, 0x18, 0x21, 0x00, 0x08, 0x31, 0x84, 0x00,
   0x21, 0x94, 0x10, 0x00, 0x84, 0x10, 0x42, 0x00, 0x10, 0x7a, 0x08, 0x01,
   0x42, 0x38, 0x21, 0x00, 0x08, 0x39, 0x84, 0x00, 0x21, 0xac, 0x10, 0x00,
   0x84, 0x38, 0x42, 0x00, 0x10, 0x6a, 0x08, 0x01, 0x42, 0x28, 0x21, 0x00,
   0x08, 0x29, 0x84, 0x00, 0x21, 0xfc, 0x10, 0x00, 0x84, 0x7c, 0x42, 0x00,
   0x10, 0x7e, 0x08, 0x01, 0x42, 0x4c, 0x21, 0x00, 0x08, 0xe7, 0x84, 0x00,
   0x21, 0xff, 0x10, 0x00, 0x84, 0xff, 0x43, 0x00, 0x90, 0xc7, 0x0b, 0x01,
   0xc2, 0x09, 0x27, 0x00, 0xe8, 0x21, 0x8e, 0x00, 0x71, 0x84, 0x1c, 0x00,
   0xf4, 0x10, 0x5e, 0x00, 0x10, 0x42, 0x08, 0x01, 0x42, 0x08, 0x21, 0x00,
   0x08, 0x21, 0x84, 0x00, 0x21, 0x84, 0x10, 0x00, 0x84, 0x10, 0x42, 0x00,
   0x10, 0x42, 0x08, 0x01, 0x42, 0x08, 0x21, 0x00};
