<?xml version="1.0" encoding="UTF-8" standalone="no"?>
<!-- Generator: Adobe Illustrator 16.0.0, SVG Export Plug-In . SVG Version: 6.00 Build 0)  -->

<svg
   xmlns:dc="http://purl.org/dc/elements/1.1/"
   xmlns:cc="http://creativecommons.org/ns#"
   xmlns:rdf="http://www.w3.org/1999/02/22-rdf-syntax-ns#"
   xmlns:svg="http://www.w3.org/2000/svg"
   xmlns="http://www.w3.org/2000/svg"
   xmlns:sodipodi="http://sodipodi.sourceforge.net/DTD/sodipodi-0.dtd"
   xmlns:inkscape="http://www.inkscape.org/namespaces/inkscape"
   version="1.1"
   id="Layer_1"
   x="0px"
   y="0px"
   width="100px"
   height="100px"
   viewBox="0 0 100 100"
   enable-background="new 0 0 100 100"
   xml:space="preserve"
   inkscape:version="0.48.2 r9819"
   sodipodi:docname="article2.svg"><metadata
   id="metadata4491"><rdf:RDF><cc:Work
       rdf:about=""><dc:format>image/svg+xml</dc:format><dc:type
         rdf:resource="http://purl.org/dc/dcmitype/StillImage" /></cc:Work></rdf:RDF></metadata><defs
   id="defs4489" /><sodipodi:namedview
   pagecolor="#ffffff"
   bordercolor="#666666"
   borderopacity="1"
   objecttolerance="10"
   gridtolerance="10"
   guidetolerance="10"
   inkscape:pageopacity="0"
   inkscape:pageshadow="2"
   inkscape:window-width="708"
   inkscape:window-height="480"
   id="namedview4487"
   showgrid="false"
   inkscape:zoom="2.36"
   inkscape:cx="50"
   inkscape:cy="50"
   inkscape:window-x="669"
   inkscape:window-y="114"
   inkscape:window-maximized="0"
   inkscape:current-layer="Layer_1" />
<g
   id="g4457"
   style="fill:#99cc33;fill-opacity:1">
	<g
   id="g4459"
   style="fill:#99cc33;fill-opacity:1">
		<path
   d="M88.208,2.83c0-1.542-1.287-2.83-2.831-2.83C61.792,0,38.208,0,14.623,0c-1.542,0-2.83,1.288-2.83,2.83    c0,31.447,0,62.895,0,94.34c0,1.543,1.288,2.83,2.83,2.83c23.585,0,47.169,0,70.754,0c0.833,0,1.467-0.303,1.92-0.758    c0.027-0.023,0.053-0.051,0.078-0.075c0.023-0.024,0.053-0.052,0.074-0.078c0.455-0.452,0.759-1.086,0.759-1.919    C88.208,65.725,88.208,34.277,88.208,2.83z M82.547,94.34c-21.697,0-43.396,0-65.094,0c0-29.561,0-59.12,0-88.68    c21.698,0,43.396,0,65.094,0C82.547,35.22,82.547,64.779,82.547,94.34z"
   id="path4461"
   style="fill:#99cc33;fill-opacity:1" />
	</g>
	<g
   id="g4463"
   style="fill:#99cc33;fill-opacity:1">
		<rect
   x="25.167"
   y="16.5"
   width="21.333"
   height="4"
   id="rect4465"
   style="fill:#99cc33;fill-opacity:1" />
	</g>
	<rect
   x="53.833"
   y="16"
   width="21.5"
   height="20"
   id="rect4467"
   style="fill:#99cc33;fill-opacity:1" />
	<g
   id="g4469"
   style="fill:#99cc33;fill-opacity:1">
		<rect
   x="25.167"
   y="24.5"
   width="21.333"
   height="4"
   id="rect4471"
   style="fill:#99cc33;fill-opacity:1" />
	</g>
	<g
   id="g4473"
   style="fill:#99cc33;fill-opacity:1">
		<rect
   x="25.167"
   y="32.5"
   width="21.333"
   height="4"
   id="rect4475"
   style="fill:#99cc33;fill-opacity:1" />
	</g>
	<g
   id="g4477"
   style="fill:#99cc33;fill-opacity:1">
		<rect
   x="25.167"
   y="40.5"
   width="50.167"
   height="4"
   id="rect4479"
   style="fill:#99cc33;fill-opacity:1" />
	</g>
	<g
   id="g4481"
   style="fill:#99cc33;fill-opacity:1">
		<rect
   x="25.167"
   y="50.5"
   width="50.167"
   height="4"
   id="rect4483"
   style="fill:#99cc33;fill-opacity:1" />
	</g>
	<path
   d="M64.05,72.516h-2.18c-0.284-1.094-0.724-2.145-1.287-3.1l1.546-1.549c0.469-0.469,0.469-1.23,0-1.699l-2.545-2.547   c-0.469-0.469-1.229-0.469-1.697,0l-1.554,1.546c-0.954-0.563-2.005-1.003-3.099-1.287V61.7c0-0.663-0.521-1.2-1.186-1.2h-3.6   c-0.663,0-1.186,0.537-1.186,1.2v2.18c-1.092,0.284-2.144,0.722-3.098,1.286l-1.55-1.545c-0.469-0.469-1.23-0.469-1.699,0   l-2.546,2.545c-0.469,0.469-0.469,1.229,0,1.697l1.546,1.553c-0.565,0.955-1.003,2.006-1.287,3.1h-2.18   c-0.663,0-1.2,0.521-1.2,1.186v3.6c0,0.663,0.537,1.186,1.2,1.186h2.18c0.284,1.094,0.722,2.145,1.287,3.1l-1.546,1.549   c-0.469,0.469-0.469,1.23,0,1.699l2.545,2.546c0.469,0.47,1.229,0.47,1.697,0.001l1.553-1.546c0.954,0.563,2.006,1.003,3.098,1.287   v2.181c0,0.662,0.522,1.199,1.186,1.199h3.6c0.663,0,1.186-0.537,1.186-1.199v-2.181c1.094-0.284,2.145-0.724,3.1-1.287   l1.549,1.546c0.469,0.469,1.23,0.469,1.699,0l2.546-2.545c0.47-0.469,0.47-1.229,0.001-1.697l-1.546-1.554   c0.563-0.954,1.003-2.005,1.287-3.099h2.18c0.663,0,1.2-0.521,1.2-1.186v-3.6C65.25,73.037,64.713,72.516,64.05,72.516z    M50.25,81.5c-3.314,0-6-2.688-6-6c0-3.314,2.686-6,6-6c3.313,0,6,2.686,6,6C56.25,78.813,53.563,81.5,50.25,81.5z"
   id="path4485"
   style="fill:#99cc33;fill-opacity:1" />
</g>
</svg>