<?xml version="1.0" encoding="UTF-8" standalone="no"?>
<!-- Generator: Adobe Illustrator 16.0.0, SVG Export Plug-In . SVG Version: 6.00 Build 0)  -->

<svg
   xmlns:dc="http://purl.org/dc/elements/1.1/"
   xmlns:cc="http://creativecommons.org/ns#"
   xmlns:rdf="http://www.w3.org/1999/02/22-rdf-syntax-ns#"
   xmlns:svg="http://www.w3.org/2000/svg"
   xmlns="http://www.w3.org/2000/svg"
   xmlns:sodipodi="http://sodipodi.sourceforge.net/DTD/sodipodi-0.dtd"
   xmlns:inkscape="http://www.inkscape.org/namespaces/inkscape"
   version="1.1"
   id="Capa_1"
   x="0px"
   y="0px"
   width="100"
   height="100"
   viewBox="0 0 100 100"
   xml:space="preserve"
   inkscape:version="0.48.2 r9819"
   sodipodi:docname="info2.svg"><metadata
   id="metadata7925"><rdf:RDF><cc:Work
       rdf:about=""><dc:format>image/svg+xml</dc:format><dc:type
         rdf:resource="http://purl.org/dc/dcmitype/StillImage" /></cc:Work></rdf:RDF></metadata><defs
   id="defs7923" /><sodipodi:namedview
   pagecolor="#ffffff"
   bordercolor="#666666"
   borderopacity="1"
   objecttolerance="10"
   gridtolerance="10"
   guidetolerance="10"
   inkscape:pageopacity="0"
   inkscape:pageshadow="2"
   inkscape:window-width="708"
   inkscape:window-height="480"
   id="namedview7921"
   showgrid="false"
   inkscape:zoom="2.36"
   inkscape:cx="23"
   inkscape:cy="50"
   inkscape:window-x="0"
   inkscape:window-y="0"
   inkscape:window-maximized="0"
   inkscape:current-layer="Capa_1" />
<g
   id="g7887"
   style="fill:#99cc33;fill-opacity:1"
   transform="translate(27.3,0)">
	<path
   d="m 35.162,0 c 6.696,0 10.043,4.567 10.043,9.789 0,6.522 -5.814,12.555 -13.391,12.555 -6.344,0 -10.045,-3.752 -9.869,-9.947 C 21.945,7.176 26.35,0 35.162,0 z M 14.543,100 C 9.256,100 5.379,96.738 9.08,82.385 l 6.07,-25.457 c 1.057,-4.077 1.23,-5.707 0,-5.707 -1.588,0 -8.451,2.816 -12.51,5.59 L 0,52.406 C 12.863,41.48 27.662,35.072 34.004,35.072 c 5.285,0 6.168,6.361 3.525,16.148 L 30.58,77.98 c -1.234,4.729 -0.703,6.359 0.527,6.359 1.586,0 6.787,-1.963 11.896,-6.041 L 46,82.377 C 33.488,95.1 19.83,100 14.543,100 z"
   id="path7889"
   style="fill:#99cc33;fill-opacity:1"
   inkscape:connector-curvature="0" />
</g>
<g
   id="g7891"
   style="fill:#99cc33;fill-opacity:1"
   transform="translate(-1.3,0)">
</g>
<g
   id="g7893"
   style="fill:#99cc33;fill-opacity:1"
   transform="translate(-1.3,0)">
</g>
<g
   id="g7895"
   style="fill:#99cc33;fill-opacity:1"
   transform="translate(-1.3,0)">
</g>
<g
   id="g7897"
   style="fill:#99cc33;fill-opacity:1"
   transform="translate(-1.3,0)">
</g>
<g
   id="g7899"
   style="fill:#99cc33;fill-opacity:1"
   transform="translate(-1.3,0)">
</g>
<g
   id="g7901"
   style="fill:#99cc33;fill-opacity:1"
   transform="translate(-1.3,0)">
</g>
<g
   id="g7903"
   style="fill:#99cc33;fill-opacity:1"
   transform="translate(-1.3,0)">
</g>
<g
   id="g7905"
   style="fill:#99cc33;fill-opacity:1"
   transform="translate(-1.3,0)">
</g>
<g
   id="g7907"
   style="fill:#99cc33;fill-opacity:1"
   transform="translate(-1.3,0)">
</g>
<g
   id="g7909"
   style="fill:#99cc33;fill-opacity:1"
   transform="translate(-1.3,0)">
</g>
<g
   id="g7911"
   style="fill:#99cc33;fill-opacity:1"
   transform="translate(-1.3,0)">
</g>
<g
   id="g7913"
   style="fill:#99cc33;fill-opacity:1"
   transform="translate(-1.3,0)">
</g>
<g
   id="g7915"
   style="fill:#99cc33;fill-opacity:1"
   transform="translate(-1.3,0)">
</g>
<g
   id="g7917"
   style="fill:#99cc33;fill-opacity:1"
   transform="translate(-1.3,0)">
</g>
<g
   id="g7919"
   style="fill:#99cc33;fill-opacity:1"
   transform="translate(-1.3,0)">
</g>
</svg>