<?xml version="1.0" encoding="UTF-8" standalone="no"?>
<!-- Generator: Adobe Illustrator 16.0.4, SVG Export Plug-In . SVG Version: 6.00 Build 0)  -->

<svg
   xmlns:dc="http://purl.org/dc/elements/1.1/"
   xmlns:cc="http://creativecommons.org/ns#"
   xmlns:rdf="http://www.w3.org/1999/02/22-rdf-syntax-ns#"
   xmlns:svg="http://www.w3.org/2000/svg"
   xmlns="http://www.w3.org/2000/svg"
   xmlns:sodipodi="http://sodipodi.sourceforge.net/DTD/sodipodi-0.dtd"
   xmlns:inkscape="http://www.inkscape.org/namespaces/inkscape"
   version="1.1"
   id="Capa_1"
   x="0px"
   y="0px"
   width="15"
   height="15"
   viewBox="0 0 15 15"
   enable-background="new 0 0 12.059 15"
   xml:space="preserve"
   inkscape:version="0.48.2 r9819"
   sodipodi:docname="interface1.svg"><metadata
   id="metadata9030"><rdf:RDF><cc:Work
       rdf:about=""><dc:format>image/svg+xml</dc:format><dc:type
         rdf:resource="http://purl.org/dc/dcmitype/StillImage" /></cc:Work></rdf:RDF></metadata><defs
   id="defs9028" /><sodipodi:namedview
   pagecolor="#ffffff"
   bordercolor="#666666"
   borderopacity="1"
   objecttolerance="10"
   gridtolerance="10"
   guidetolerance="10"
   inkscape:pageopacity="0"
   inkscape:pageshadow="2"
   inkscape:window-width="708"
   inkscape:window-height="480"
   id="namedview9026"
   showgrid="false"
   inkscape:zoom="15.733333"
   inkscape:cx="6.0294999"
   inkscape:cy="7.4999998"
   inkscape:window-x="0"
   inkscape:window-y="0"
   inkscape:window-maximized="0"
   inkscape:current-layer="Capa_1" />
<g
   id="g9020"
   style="fill:#99cc33;fill-opacity:1"
   transform="translate(1.6,0)">
	<polygon
   points="12.059,4.028 9.016,0.012 9.016,4.028 "
   id="polygon9022"
   style="fill:#99cc33;fill-opacity:1" />
	<path
   d="M 8,0 H 0 v 15 h 8 4 V 5 H 8 V 0 z M 1,1 H 7 V 2 H 1 V 1 z M 1,3 H 7 V 4 H 1 V 3 z M 1,5 H 7 V 6 H 1 V 5 z m 10,9 H 1 v -1 h 10 v 1 z m 0,-2 H 1 v -1 h 10 v 1 z m 0,-2 H 1 V 9 h 10 v 1 z M 11,7 V 8 H 1 V 7 h 10 z"
   id="path9024"
   style="fill:#99cc33;fill-opacity:1"
   inkscape:connector-curvature="0" />
</g>
</svg>