<?xml version="1.0" encoding="UTF-8" standalone="no"?>
<!-- Generator: Adobe Illustrator 16.0.4, SVG Export Plug-In . SVG Version: 6.00 Build 0)  -->

<svg
   xmlns:dc="http://purl.org/dc/elements/1.1/"
   xmlns:cc="http://creativecommons.org/ns#"
   xmlns:rdf="http://www.w3.org/1999/02/22-rdf-syntax-ns#"
   xmlns:svg="http://www.w3.org/2000/svg"
   xmlns="http://www.w3.org/2000/svg"
   xmlns:sodipodi="http://sodipodi.sourceforge.net/DTD/sodipodi-0.dtd"
   xmlns:inkscape="http://www.inkscape.org/namespaces/inkscape"
   version="1.1"
   id="Layer_1"
   x="0px"
   y="0px"
   width="32px"
   height="32px"
   viewBox="0 0 32 32"
   enable-background="new 0 0 32 32"
   xml:space="preserve"
   inkscape:version="0.48.2 r9819"
   sodipodi:docname="person277.svg"><metadata
   id="metadata15751"><rdf:RDF><cc:Work
       rdf:about=""><dc:format>image/svg+xml</dc:format><dc:type
         rdf:resource="http://purl.org/dc/dcmitype/StillImage" /></cc:Work></rdf:RDF></metadata><defs
   id="defs15749" /><sodipodi:namedview
   pagecolor="#ffffff"
   bordercolor="#666666"
   borderopacity="1"
   objecttolerance="10"
   gridtolerance="10"
   guidetolerance="10"
   inkscape:pageopacity="0"
   inkscape:pageshadow="2"
   inkscape:window-width="708"
   inkscape:window-height="480"
   id="namedview15747"
   showgrid="false"
   inkscape:zoom="7.375"
   inkscape:cx="16"
   inkscape:cy="16"
   inkscape:window-x="0"
   inkscape:window-y="0"
   inkscape:window-maximized="0"
   inkscape:current-layer="Layer_1" />
<path
   d="M29.6,15.028h-1.259v-3.77c0-0.306-0.137-0.597-0.376-0.791c-1.874-1.524-3.947-2.297-6.162-2.297  c-0.078,0-0.154,0.002-0.229,0.004c0.031-0.249,0.05-0.502,0.05-0.759c0-3.374-2.733-6.11-6.11-6.11c-3.375,0-6.11,2.735-6.11,6.11  c0,0.257,0.019,0.509,0.05,0.757C7.31,8.217,5.29,8.988,3.468,10.468c-0.239,0.193-0.387,0.484-0.387,0.791v3.77H2.444  c-1.125,0-2.044,0.937-2.044,2.062v2.037c0,1.123,0.919,2.011,2.044,2.011h0.638v7.365c0,0.387,0.228,0.738,0.573,0.911  c0.144,0.071,0.305,0.106,0.462,0.106c0.215,0,0.432-0.066,0.611-0.201c0.02-0.014,1.936-1.418,4.95-1.418  c1.747,0,3.522,0.455,5.243,1.416c0.604,0.336,1.355,0.137,1.604,0c1.731-0.939,3.496-1.416,5.242-1.416  c2.965,0,4.916,1.394,4.953,1.42c0.18,0.133,0.391,0.199,0.604,0.199c0.153,0,0.312-0.035,0.452-0.106  c0.346-0.173,0.562-0.524,0.562-0.911v-7.365h1.26c1.125,0,2.021-0.888,2.021-2.011V17.09C31.618,15.965,30.725,15.028,29.6,15.028z   M9.702,25.865c-1.907,0-3.49,0.469-4.533,0.931v-5.659h1.349c1.124,0,2.003-0.887,2.003-2.01V17.09  c0-1.124-0.878-2.062-2.003-2.062H5.169v-3.271c1.341-1.028,2.897-1.549,4.488-1.549c1.914,0,3.538,0.754,4.421,1.266  c0.109,0.111,0.18,0.224,0.33,0.337v15.005C12.843,26.184,11.279,25.865,9.702,25.865z M26.329,26.796  c-1.118-0.462-2.628-0.931-4.535-0.931c-1.577,0-3.214,0.318-4.705,0.949V11.673c0.745-0.486,2.562-1.465,4.741-1.465  c1.59,0,3.082,0.521,4.497,1.549v3.271h-0.802c-1.125,0-2.028,0.937-2.028,2.062v2.037c0,1.123,0.903,2.01,2.028,2.01h0.802v5.659  H26.329z"
   id="path15745"
   style="fill:#99cc33;fill-opacity:1" />
</svg>