<?xml version="1.0" encoding="UTF-8" standalone="no"?>
<!-- Generator: Adobe Illustrator 16.0.0, SVG Export Plug-In . SVG Version: 6.00 Build 0)  -->

<svg
   xmlns:dc="http://purl.org/dc/elements/1.1/"
   xmlns:cc="http://creativecommons.org/ns#"
   xmlns:rdf="http://www.w3.org/1999/02/22-rdf-syntax-ns#"
   xmlns:svg="http://www.w3.org/2000/svg"
   xmlns="http://www.w3.org/2000/svg"
   xmlns:sodipodi="http://sodipodi.sourceforge.net/DTD/sodipodi-0.dtd"
   xmlns:inkscape="http://www.inkscape.org/namespaces/inkscape"
   version="1.1"
   id="Capa_1"
   x="0px"
   y="0px"
   width="96"
   height="96"
   viewBox="0 0 96 96"
   xml:space="preserve"
   inkscape:version="0.48.2 r9819"
   sodipodi:docname="traffic2.svg"><metadata
   id="metadata9616"><rdf:RDF><cc:Work
       rdf:about=""><dc:format>image/svg+xml</dc:format><dc:type
         rdf:resource="http://purl.org/dc/dcmitype/StillImage" /><dc:title /></cc:Work></rdf:RDF></metadata><defs
   id="defs9614" /><sodipodi:namedview
   pagecolor="#ffffff"
   bordercolor="#666666"
   borderopacity="1"
   objecttolerance="10"
   gridtolerance="10"
   guidetolerance="10"
   inkscape:pageopacity="0"
   inkscape:pageshadow="2"
   inkscape:window-width="708"
   inkscape:window-height="480"
   id="namedview9612"
   showgrid="false"
   inkscape:zoom="2.6222222"
   inkscape:cx="48"
   inkscape:cy="45"
   inkscape:window-x="0"
   inkscape:window-y="0"
   inkscape:window-maximized="0"
   inkscape:current-layer="Capa_1" />
<path
   d="m 47.999,58.39225 c 11.951,0 21.955,-4.061 22.561,-9.362 -1.777,-4.985 -3.715,-10.421 -5.619,-15.764 -1.322,3.811 -8.623,6.498 -16.941,6.498 -8.316,0 -15.617,-2.688 -16.941,-6.497 -1.904,5.342 -3.84,10.777 -5.617,15.763 0.604,5.301 10.606,9.362 22.557,9.362 z m 0,-33.526 c 5.617,0 10.836,-1.739 12.363,-4.439 -2.105,-5.913 -3.914,-10.986 -5.057,-14.187 -0.759,-2.133 -4.201,-3.241 -7.306,-3.241 -3.105,0 -6.547,1.108 -7.307,3.241 -1.141,3.201 -2.949,8.274 -5.057,14.187 1.528,2.7 6.749,4.439 12.364,4.439 z m 43.904,38.465 -18.777,-7.563 2.162,6.033 c -0.109,6.394 -12.521,11.489 -27.289,11.489 -14.766,0 -27.18,-5.095 -27.287,-11.489 l 2.16,-6.033 -18.775,7.563 c -5.264,2.121 -5.484,6.049 -0.49,8.726 l 35.312,18.935 c 4.994,2.677 13.168,2.677 18.162,0 l 35.312,-18.935 c 4.995,-2.677 4.774,-6.605 -0.49,-8.726 z"
   id="path9580"
   style="fill:#e0851f;fill-opacity:1"
   inkscape:connector-curvature="0" />
<g
   id="g9582"
   style="fill:#e0851f;fill-opacity:1"
   transform="translate(0,6)">
</g>
<g
   id="g9584"
   style="fill:#e0851f;fill-opacity:1"
   transform="translate(0,6)">
</g>
<g
   id="g9586"
   style="fill:#e0851f;fill-opacity:1"
   transform="translate(0,6)">
</g>
<g
   id="g9588"
   style="fill:#e0851f;fill-opacity:1"
   transform="translate(0,6)">
</g>
<g
   id="g9590"
   style="fill:#e0851f;fill-opacity:1"
   transform="translate(0,6)">
</g>
<g
   id="g9592"
   style="fill:#e0851f;fill-opacity:1"
   transform="translate(0,6)">
</g>
<g
   id="g9594"
   style="fill:#e0851f;fill-opacity:1"
   transform="translate(0,6)">
</g>
<g
   id="g9596"
   style="fill:#e0851f;fill-opacity:1"
   transform="translate(0,6)">
</g>
<g
   id="g9598"
   style="fill:#e0851f;fill-opacity:1"
   transform="translate(0,6)">
</g>
<g
   id="g9600"
   style="fill:#e0851f;fill-opacity:1"
   transform="translate(0,6)">
</g>
<g
   id="g9602"
   style="fill:#e0851f;fill-opacity:1"
   transform="translate(0,6)">
</g>
<g
   id="g9604"
   style="fill:#e0851f;fill-opacity:1"
   transform="translate(0,6)">
</g>
<g
   id="g9606"
   style="fill:#e0851f;fill-opacity:1"
   transform="translate(0,6)">
</g>
<g
   id="g9608"
   style="fill:#e0851f;fill-opacity:1"
   transform="translate(0,6)">
</g>
<g
   id="g9610"
   style="fill:#e0851f;fill-opacity:1"
   transform="translate(0,6)">
</g>
</svg>