<svg xmlns="http://www.w3.org/2000/svg" height="100" viewBox="0 0 100 100" width="100"><filter color-interpolation-filters="sRGB" id="a"><feColorMatrix values="0.4 0.4 0.4 0 0 0.4 0.4 0.4 0 0 0.4 0.4 0.4 0 0 0 0 0 1 0" /></filter><filter color-interpolation-filters="sRGB" id="b"><feColorMatrix values="0.4 0.4 0.4 0 0 0.4 0.4 0.4 0 0 0.4 0.4 0.4 0 0 0 0 0 1 0" /></filter><g filter="url(#a)" transform="translate(-.570895 .510333)"><path d="m2.8623961 91.897222h95.4169979v-68.912276h-37.106611l-10.601888-15.9028332h-37.106611l-10.6018879 15.9028332z" fill="#fff803" fill-rule="evenodd" stroke="#bf7c00" stroke-linejoin="round" stroke-width="4.523707" /><path d="m6.012383 31.39484h40.713361l11.309267-7.916487-9.047414-13.5711208h-33.9278l-9.047414 13.5711208z" fill="#fdffcc" stroke-width=".958259" /><path d="m2.8623961 91.897222h95.4169979v-68.912276h-37.106611l-10.601888-15.9028332h-37.106611l-10.6018879 15.9028332z" fill="#fff803" fill-rule="evenodd" stroke="#bf7c00" stroke-linejoin="round" stroke-width="4.523707" /><path d="m6.012383 31.39484h40.713361l11.309267-7.916487-9.047414-13.5711208h-33.9278l-9.047414 13.5711208z" fill="#fdffcc" stroke-width=".958259" /></g><g filter="url(#b)" transform="translate(-.570895 .510333)"><path d="m2.8623961 91.897222h95.4169979v-68.912276h-37.106611l-10.601888-15.9028332h-37.106611l-10.6018879 15.9028332z" fill="#fff803" fill-rule="evenodd" stroke="#bf7c00" stroke-linejoin="round" stroke-width="4.523707" /><path d="m6.012383 31.39484h40.713361l11.309267-7.916487-9.047414-13.5711208h-33.9278l-9.047414 13.5711208z" fill="#fdffcc" stroke-width=".958259" /><path d="m2.8623961 91.897222h95.4169979v-68.912276h-37.106611l-10.601888-15.9028332h-37.106611l-10.6018879 15.9028332z" fill="#fff803" fill-rule="evenodd" stroke="#bf7c00" stroke-linejoin="round" stroke-width="4.523707" /><path d="m6.012383 31.39484h40.713361l11.309267-7.916487-9.047414-13.5711208h-33.9278l-9.047414 13.5711208z" fill="#fdffcc" stroke-width=".958259" /></g><path d="m47.643503 4.0685016c-16.146332.5077957-26.849717 8.2715304-26.849717 24.2869434v16.344707h-3.6379c-2.665909 0-4.843887 1.836779-4.843887 4.137731v42.968284c0 2.300991 2.177978 4.137751 4.843887 4.137751h65.755677c2.665909 0 4.776438-1.83676 4.776438-4.137751v-42.968284c0-2.300952-2.110529-4.137731-4.776438-4.137731h-3.705329l.06741-16.078905c0-16.999279-11.619799-24.3424842-29.206212-24.5527454-.821199-.0074-1.630507-.023052-2.423946 0zm1.614643 10.7430584c.297528-.0074.638717 0 .944183 0 19.514457 0 18.018835 13.877126 18.304466 18.014871v11.873721h-36.743835v-11.806272c-.07129-4.102044-1.209963-17.661794 17.495186-18.08232z" fill="#999" stroke="#030303" stroke-width="6.112163" transform="matrix(.5 0 0 .5 0 50)" /><filter color-interpolation-filters="sRGB" id="c"><feColorMatrix values="0.4 0.4 0.4 0 0 0.4 0.4 0.4 0 0 0.4 0.4 0.4 0 0 0 0 0 1 0" /></filter><filter color-interpolation-filters="sRGB" id="d"><feColorMatrix values="0.4 0.4 0.4 0 0 0.4 0.4 0.4 0 0 0.4 0.4 0.4 0 0 0 0 0 1 0" /></filter><g filter="url(#c)" transform="translate(-.570895 .510333)"><path d="m2.8623961 91.897222h95.4169979v-68.912276h-37.106611l-10.601888-15.9028332h-37.106611l-10.6018879 15.9028332z" fill="#fff803" fill-rule="evenodd" stroke="#bf7c00" stroke-linejoin="round" stroke-width="4.523707" /><path d="m6.012383 31.39484h40.713361l11.309267-7.916487-9.047414-13.5711208h-33.9278l-9.047414 13.5711208z" fill="#fdffcc" stroke-width=".958259" /><path d="m2.8623961 91.897222h95.4169979v-68.912276h-37.106611l-10.601888-15.9028332h-37.106611l-10.6018879 15.9028332z" fill="#fff803" fill-rule="evenodd" stroke="#bf7c00" stroke-linejoin="round" stroke-width="4.523707" /><path d="m6.012383 31.39484h40.713361l11.309267-7.916487-9.047414-13.5711208h-33.9278l-9.047414 13.5711208z" fill="#fdffcc" stroke-width=".958259" /></g><g filter="url(#d)" transform="translate(-.570895 .510333)"><path d="m2.8623961 91.897222h95.4169979v-68.912276h-37.106611l-10.601888-15.9028332h-37.106611l-10.6018879 15.9028332z" fill="#fff803" fill-rule="evenodd" stroke="#bf7c00" stroke-linejoin="round" stroke-width="4.523707" /><path d="m6.012383 31.39484h40.713361l11.309267-7.916487-9.047414-13.5711208h-33.9278l-9.047414 13.5711208z" fill="#fdffcc" stroke-width=".958259" /><path d="m2.8623961 91.897222h95.4169979v-68.912276h-37.106611l-10.601888-15.9028332h-37.106611l-10.6018879 15.9028332z" fill="#fff803" fill-rule="evenodd" stroke="#bf7c00" stroke-linejoin="round" stroke-width="4.523707" /><path d="m6.012383 31.39484h40.713361l11.309267-7.916487-9.047414-13.5711208h-33.9278l-9.047414 13.5711208z" fill="#fdffcc" stroke-width=".958259" /></g><path d="m47.643503 4.0685016c-16.146332.5077957-26.849717 8.2715304-26.849717 24.2869434v16.344707h-3.6379c-2.665909 0-4.843887 1.836779-4.843887 4.137731v42.968284c0 2.300991 2.177978 4.137751 4.843887 4.137751h65.755677c2.665909 0 4.776438-1.83676 4.776438-4.137751v-42.968284c0-2.300952-2.110529-4.137731-4.776438-4.137731h-3.705329l.06741-16.078905c0-16.999279-11.619799-24.3424842-29.206212-24.5527454-.821199-.0074-1.630507-.023052-2.423946 0zm1.614643 10.7430584c.297528-.0074.638717 0 .944183 0 19.514457 0 18.018835 13.877126 18.304466 18.014871v11.873721h-36.743835v-11.806272c-.07129-4.102044-1.209963-17.661794 17.495186-18.08232z" fill="#999" stroke="#030303" stroke-width="6.112163" transform="matrix(.5 0 0 .5 0 50)" /><filter color-interpolation-filters="sRGB" id="e"><feGaussianBlur result="blur" stdDeviation="2 2" /></filter><g transform="matrix(.82679775 0 0 .82679775 18.4148495 -136.16371)"><path d="m68.438928 227.72955 26.531385 55.3395-53.062773.00001z" fill="#c91f1f" stroke="#771b04" stroke-linejoin="round" stroke-width="5.135108" /><path d="m68.438927 234.73752 10.678538 22.27343-21.357076.00001z" fill="#ffc128" filter="url(#e)" /></g></svg>