<svg height="100" viewBox="0 0 100 100" width="100" xmlns="http://www.w3.org/2000/svg"><g transform="translate(-.570895 .510333)"><path d="m2.8623961 91.897222h95.4169979v-68.912276h-37.106611l-10.601888-15.9028332h-37.106611l-10.6018879 15.9028332z" fill="#fff803" fill-rule="evenodd" stroke="#bf7c00" stroke-linejoin="round" stroke-width="4.523707"/><path d="m6.012383 31.39484h40.713361l11.309267-7.916487-9.047414-13.5711208h-33.9278l-9.047414 13.5711208z" fill="#fdffcc" stroke-width=".958259"/></g><g transform="translate(-.570895 .510333)"><path d="m2.8623961 91.897222h95.4169979v-68.912276h-37.106611l-10.601888-15.9028332h-37.106611l-10.6018879 15.9028332z" fill="#fff803" fill-rule="evenodd" stroke="#bf7c00" stroke-linejoin="round" stroke-width="4.523707"/><path d="m6.012383 31.39484h40.713361l11.309267-7.916487-9.047414-13.5711208h-33.9278l-9.047414 13.5711208z" fill="#fdffcc" stroke-width=".958259"/></g><path d="m24.503507 20c-11.146799.000174-20.1830209 9.036396-20.183195 20.183195.00742 8.447629 5.2749026 15.996964 13.2009 18.919471v34.897334l7.478788 5 6.485801-5v-3.309726h6.982294v-9.309725h-6.982294v-6.516808h6.982294v-9.309726h-6.982294v-6.462258c7.922255-2.921121 13.188921-10.46493 13.2009-18.908562-.000174-11.146799-9.036395-20.183021-20.183194-20.183195zm0 11.10803c4.943849-.000149 8.951669.283779 8.951519 5.227629.00015 4.94385-4.00767 5.944192-8.951519 5.944042-4.94385.00015-8.951669-1.000192-8.951519-5.944042-.00015-4.94385 4.007669-5.227778 8.951519-5.227629z" fill="#fd0" stroke="#371d00" stroke-width="2.119676"/><g transform="matrix(.50281285 0 0 .49625699 54.644281 48.200159)"><path d="m23.812502 96.824998v-21.166667h-21.1666686v-21.166667h21.1666686v-21.166667h21.166666v21.166667h21.166668v21.166667h-21.166668v21.166667z" fill="#27c204" stroke="#005a1d" stroke-width="3.96875"/><g fill="none" stroke="#fff" stroke-linecap="round"><path d="m28.019449 75.658333v16.967731" opacity=".7" stroke-width="4.103144"/><path d="m6.8527784 58.48864v13.313167" opacity=".7" stroke-width="3.634507"/><path d="m28.019449 37.425931v16.967731" opacity=".7" stroke-width="4.103144"/></g></g></svg>