<svg height="100" viewBox="0 0 100 100" width="100" xmlns="http://www.w3.org/2000/svg" xmlns:xlink="http://www.w3.org/1999/xlink"><linearGradient id="a"><stop offset="0" stop-color="#c9c9c9"/><stop offset="1" stop-color="#e3f9fc"/></linearGradient><linearGradient id="b" gradientTransform="matrix(.84335867 .40834093 -.39923406 .86259641 28.26115 -6.440423)" gradientUnits="userSpaceOnUse" x1="9.940678" x2="24.805084" xlink:href="#a" y1="77.542374" y2="48.728813"/><linearGradient id="c" gradientTransform="matrix(.84335867 .40834093 -.39923406 .86259641 28.26115 -18.440423)" gradientUnits="userSpaceOnUse" x1="9.940678" x2="24.805084" xlink:href="#a" y1="77.542374" y2="48.728813"/><linearGradient id="d" gradientTransform="matrix(.84335867 .40834093 -.39923406 .86259641 28.26115 -32.440423)" gradientUnits="userSpaceOnUse" x1="9.940678" x2="24.805084" xlink:href="#a" y1="77.542374" y2="48.728813"/><g fill-rule="evenodd"><g stroke="#000" stroke-linecap="round" stroke-linejoin="round" stroke-width="3.77466"><path d="m31.728981 40.79351 63.966609 30.97162-27.424568 26.34758-63.9666121-30.97162z" fill="url(#b)"/><path d="m31.728981 28.79351 63.966609 30.97162-27.424568 26.34758-63.9666121-30.97162z" fill="url(#c)"/><path d="m31.728981 14.79351 63.966609 30.97162-27.424568 26.34758-63.9666121-30.97162z" fill="url(#d)"/><path d="m31.728981 40.79351 63.966609 30.97162-27.424568 26.34758-63.9666121-30.97162z" fill="url(#b)"/><path d="m31.728981 28.79351 63.966609 30.97162-27.424568 26.34758-63.9666121-30.97162z" fill="url(#c)"/><path d="m31.728981 14.79351 63.966609 30.97162-27.424568 26.34758-63.9666121-30.97162z" fill="url(#d)"/></g><g transform="matrix(.97344465 0 0 .97344465 -20.088015 -17.845102)"><path d="m72.000001 46.850475 11.578164 22.845331 11.578163 22.845332-23.156328-.000001-23.156329-.000001 11.578164-22.84533z" fill="#fff500" stroke="#000" stroke-linecap="round" stroke-linejoin="round" stroke-width="3.105315"/><g fill="#020202"><path d="m68.9715 58.792999h6.057v20h-6.057z"/><path d="m68.9715 83.453827h6.057001v6h-6.057001z"/></g></g></g></svg>