<svg height="100" viewBox="0 0 100 100" width="100" xmlns="http://www.w3.org/2000/svg" xmlns:xlink="http://www.w3.org/1999/xlink"><linearGradient id="a"><stop offset="0" stop-color="#c9c9c9"/><stop offset="1" stop-color="#e3f9fc"/></linearGradient><linearGradient id="b" gradientTransform="matrix(.84335867 .40834093 -.39923406 .86259641 28.26115 -6.440423)" gradientUnits="userSpaceOnUse" x1="9.940678" x2="24.805084" xlink:href="#a" y1="77.542374" y2="48.728813"/><linearGradient id="c" gradientTransform="matrix(.84335867 .40834093 -.39923406 .86259641 28.26115 -18.440423)" gradientUnits="userSpaceOnUse" x1="9.940678" x2="24.805084" xlink:href="#a" y1="77.542374" y2="48.728813"/><linearGradient id="d" gradientTransform="matrix(.84335867 .40834093 -.39923406 .86259641 28.26115 -32.440423)" gradientUnits="userSpaceOnUse" x1="9.940678" x2="24.805084" xlink:href="#a" y1="77.542374" y2="48.728813"/><filter id="e" color-interpolation-filters="sRGB" height="1.022578" width="1.025613" x="-.012806" y="-.011289"><feGaussianBlur stdDeviation=".43337757"/></filter><filter id="f" color-interpolation-filters="sRGB" height="1.02478" width="1.023268" x="-.011634" y="-.01239"><feGaussianBlur stdDeviation=".43281248"/></filter><g fill-rule="evenodd" stroke="#000" stroke-linecap="round" stroke-linejoin="round" stroke-width="3.77466"><path d="m31.728981 40.79351 63.966609 30.97162-27.424568 26.34758-63.9666121-30.97162z" fill="url(#b)"/><path d="m31.728981 28.79351 63.966609 30.97162-27.424568 26.34758-63.9666121-30.97162z" fill="url(#c)"/><path d="m31.728981 14.79351 63.966609 30.97162-27.424568 26.34758-63.9666121-30.97162z" fill="url(#d)"/><path d="m31.728981 40.79351 63.966609 30.97162-27.424568 26.34758-63.9666121-30.97162z" fill="url(#b)"/><path d="m31.728981 28.79351 63.966609 30.97162-27.424568 26.34758-63.9666121-30.97162z" fill="url(#c)"/><path d="m31.728981 14.79351 63.966609 30.97162-27.424568 26.34758-63.9666121-30.97162z" fill="url(#d)"/></g><g transform="matrix(.5 0 0 .5 24.850176 25.000014)"><path d="m5.6666053 21.999883 9.3333567-18.6667132c52.523046 42.7779062 61.525871 62.2826002 79.932772 88.4945302l-9.333356 4.666679c-18.019827-26.029985-41.203954-51.161105-79.9327727-74.494496z" fill="#f00" stroke="#640000" stroke-linecap="round" stroke-linejoin="round" stroke-width="4.666678"/><path d="m0 20c49.844837 30.144055 67.79745 54.748354 85.642045 79.815335l4.287212-2.190916c-19.294125-26.455797-48.760514-62.871787-85.7345558-86.462199z" fill="#af0000" filter="url(#f)" opacity=".9" transform="matrix(.93333564 0 0 .93333564 5.666605 3.33317)"/><path d="m28.999996 96.666734-23.3333907-14.000035c22.8840157-27.258418 45.7215557-54.571763 74.6668507-74.666851l14.000035 4.666678c-26.15775 27.270083-49.305843 55.041776-65.333495 84.000208z" fill="#f00" stroke="#640000" stroke-linecap="round" stroke-linejoin="round" stroke-width="4.666678"/><path d="m25 100c18.741241-33.280066 42.797136-62.76395 70-90l-6.16222-2.1336167c-28.763578 26.1093807-54.157134 54.2926197-75.05519 85.2423217z" fill="#af0000" filter="url(#e)" opacity=".9" transform="matrix(.93333564 0 0 .93333564 5.666605 3.33317)"/></g></svg>