<svg enable-background="new" height="100" viewBox="0 0 100 100" width="100" xmlns="http://www.w3.org/2000/svg" xmlns:xlink="http://www.w3.org/1999/xlink"><linearGradient id="a" gradientUnits="userSpaceOnUse" x1="90.833336" x2="50.000002" y1="64.583335" y2="47.083335"><stop offset="0" stop-color="#36a6ff"/><stop offset="1" stop-color="#d2ebff"/></linearGradient><linearGradient id="b" gradientUnits="userSpaceOnUse" x1="32.697742" x2="-8.333334" y1="60.10593" y2="23.750001"><stop offset="0" stop-color="#007ee2"/><stop offset=".49000001" stop-color="#339aeb" stop-opacity=".745098"/><stop offset="1" stop-color="#66b6f5" stop-opacity=".489199"/></linearGradient><linearGradient id="c" gradientUnits="userSpaceOnUse" x1="63.54852" x2="36.282622" y1="71.073826" y2="26.82451"><stop offset="0" stop-color="#006ee2"/><stop offset="1" stop-color="#d0eaff"/></linearGradient><linearGradient id="d" gradientUnits="userSpaceOnUse" x1="50" x2="50" y1="25" y2="75"><stop offset="0" stop-color="#ffd000"/><stop offset=".35714287" stop-color="#ff0"/><stop offset=".5" stop-color="#fffc9e"/><stop offset=".64285713" stop-color="#ff0"/><stop offset="1" stop-color="#ffd000"/></linearGradient><path d="m67.5 93.75 29.166667-23.333334v-64.1666662l-29.166667 23.3333332zm-64.1666669-64.166667 29.1666669-23.3333332h64.166667l-29.166667 23.3333332zm0 64.166667v-64.166667h64.1666669v64.166667z" fill="url(#a)" stroke="url(#b)" stroke-linejoin="round" stroke-miterlimit="10" stroke-width="4.666667"/><path d="m67.5 93.75 29.166667-23.333334v-64.1666662l-29.166667 23.3333332zm-64.1666669-64.166667 29.1666669-23.3333332h64.166667l-29.166667 23.3333332zm0 64.166667v-64.166667h64.1666669v64.166667z" fill="url(#a)" stroke="url(#b)" stroke-linejoin="round" stroke-miterlimit="10" stroke-width="4.666667"/><g fill-rule="evenodd" transform="matrix(.49005163 0 0 .49005163 50.497419 51.217662)"><path d="m84.564164 61.456322c3.580745 20.728965-15.519152 38.088981-34.662988 38.088981-19.143839-.000002-37.194035-17.205842-34.662987-38.088981 2.901197-23.937159 35.654911-51.4775005 34.662987-63.9410851.495962 11.9676239 30.472371 39.6815711 34.662988 63.9410851z" fill="#004c9d"/><path d="m79.530174 61.003672c3.059239 17.70996-13.258913 32.541631-29.614605 32.541631-16.355695-.000002-31.777026-14.699951-29.614605-32.541631 2.478661-20.450907 30.462063-43.980221 29.614605-54.6285864.423729 10.2246364 26.034318 33.9022734 29.614605 54.6285864z" fill="url(#c)"/></g><path d="m67.5 93.75 29.166667-23.333334v-64.1666662l-29.166667 23.3333332zm-64.1666669-64.166667 29.1666669-23.3333332h64.166667l-29.166667 23.3333332zm0 64.166667v-64.166667h64.1666669v64.166667z" fill="url(#a)" stroke="url(#b)" stroke-linejoin="round" stroke-miterlimit="10" stroke-width="4.666667"/><path d="m67.5 93.75 29.166667-23.333334v-64.1666662l-29.166667 23.3333332zm-64.1666669-64.166667 29.1666669-23.3333332h64.166667l-29.166667 23.3333332zm0 64.166667v-64.166667h64.1666669v64.166667z" fill="url(#a)" stroke="url(#b)" stroke-linejoin="round" stroke-miterlimit="10" stroke-width="4.666667"/><g fill-rule="evenodd" transform="matrix(.49005163 0 0 .49005163 50.497419 51.217662)"><path d="m84.564164 61.456322c3.580745 20.728965-15.519152 38.088981-34.662988 38.088981-19.143839-.000002-37.194035-17.205842-34.662987-38.088981 2.901197-23.937159 35.654911-51.4775005 34.662987-63.9410851.495962 11.9676239 30.472371 39.6815711 34.662988 63.9410851z" fill="#004c9d"/><path d="m79.530174 61.003672c3.059239 17.70996-13.258913 32.541631-29.614605 32.541631-16.355695-.000002-31.777026-14.699951-29.614605-32.541631 2.478661-20.450907 30.462063-43.980221 29.614605-54.6285864.423729 10.2246364 26.034318 33.9022734 29.614605 54.6285864z" fill="url(#c)"/></g><path d="m62.403168 4.0199751-43.411088 45.9800249 27.907127 9.196005-9.302375 36.78402 43.411088-45.980025-27.907129-9.196005z" fill="url(#d)" stroke="#dc9c00" stroke-linecap="round" stroke-linejoin="round" stroke-width="7" transform="scale(.5)"/></svg>