<svg enable-background="new" height="100" viewBox="0 0 100 100" width="100" xmlns="http://www.w3.org/2000/svg" xmlns:xlink="http://www.w3.org/1999/xlink"><linearGradient id="a" gradientUnits="userSpaceOnUse" x1="90.833336" x2="50.000002" y1="64.583335" y2="47.083335"><stop offset="0" stop-color="#36a6ff"/><stop offset="1" stop-color="#d2ebff"/></linearGradient><linearGradient id="b" gradientUnits="userSpaceOnUse" x1="32.697742" x2="-8.333334" y1="60.10593" y2="23.750001"><stop offset="0" stop-color="#007ee2"/><stop offset=".49000001" stop-color="#339aeb" stop-opacity=".745098"/><stop offset="1" stop-color="#66b6f5" stop-opacity=".489199"/></linearGradient><linearGradient id="c" gradientUnits="userSpaceOnUse" x1="80" x2="90" y1="70" y2="75"><stop offset="0" stop-color="#d8a42d"/><stop offset="1" stop-color="#8c6a1a"/></linearGradient><linearGradient id="d" gradientUnits="userSpaceOnUse" x1="70" x2="60" y1="70" y2="80"><stop offset="0" stop-color="#d8a42d"/><stop offset="1" stop-color="#755815"/></linearGradient><linearGradient id="e" gradientUnits="userSpaceOnUse" x1="75" x2="75" y1="55" y2="65"><stop offset="0" stop-color="#b68d30"/><stop offset="1" stop-color="#ffd982"/></linearGradient><g stroke-linejoin="round"><path d="m67.5 93.75 29.166667-23.333334v-64.1666662l-29.166667 23.3333332zm-64.1666669-64.166667 29.1666669-23.3333332h64.166667l-29.166667 23.3333332zm0 64.166667v-64.166667h64.1666669v64.166667z" fill="url(#a)" stroke="url(#b)" stroke-miterlimit="10" stroke-width="4.666667"/><path d="m67.5 93.75 29.166667-23.333334v-64.1666662l-29.166667 23.3333332zm-64.1666669-64.166667 29.1666669-23.3333332h64.166667l-29.166667 23.3333332zm0 64.166667v-64.166667h64.1666669v64.166667z" fill="url(#a)" stroke="url(#b)" stroke-miterlimit="10" stroke-width="4.666667"/><g stroke="#000" stroke-linecap="round" stroke-width="2" transform="matrix(1.1904792 0 0 1.1904792 -14.28594 -8.333505)"><path d="m75 90v-20l-15-10v20z" fill="url(#d)"/><path d="m75 70 15-10v20l-15 10z" fill="url(#c)"/><path d="m90 60-15-10-15 10 15 10z" fill="url(#e)"/></g></g></svg>