<svg enable-background="new" height="100" viewBox="0 0 100 100" width="100" xmlns="http://www.w3.org/2000/svg" xmlns:xlink="http://www.w3.org/1999/xlink"><linearGradient id="a" gradientUnits="userSpaceOnUse" x1="90.833336" x2="50.000002" y1="64.583335" y2="47.083335"><stop offset="0" stop-color="#36a6ff"/><stop offset="1" stop-color="#d2ebff"/></linearGradient><linearGradient id="b" gradientUnits="userSpaceOnUse" x1="32.697742" x2="-8.333334" y1="60.10593" y2="23.750001"><stop offset="0" stop-color="#007ee2"/><stop offset=".49000001" stop-color="#339aeb" stop-opacity=".745098"/><stop offset="1" stop-color="#66b6f5" stop-opacity=".489199"/></linearGradient><path d="m67.5 93.75 29.166667-23.333334v-64.1666662l-29.166667 23.3333332zm-64.1666669-64.166667 29.1666669-23.3333332h64.166667l-29.166667 23.3333332zm0 64.166667v-64.166667h64.1666669v64.166667z" fill="url(#a)" stroke="url(#b)" stroke-linejoin="round" stroke-miterlimit="10" stroke-width="4.666667"/><path d="m67.5 93.75 29.166667-23.333334v-64.1666662l-29.166667 23.3333332zm-64.1666669-64.166667 29.1666669-23.3333332h64.166667l-29.166667 23.3333332zm0 64.166667v-64.166667h64.1666669v64.166667z" fill="url(#a)" stroke="url(#b)" stroke-linejoin="round" stroke-miterlimit="10" stroke-width="4.666667"/><g fill-rule="evenodd" transform="matrix(.5 0 0 .5 49.501608 50.017288)"><ellipse cx="40.50135" cy="38.177055" fill="#5afffb" rx="32.141159" ry="32.221706" stroke="#000" stroke-linejoin="round" stroke-width="6.63455"/><path d="m58.150896 69.466298 11.173822-12.125954 24.476389 24.676954-11.173818 12.125952z" fill="#f60" stroke="#000" stroke-linejoin="round" stroke-width="6.299335"/><ellipse cx="33.193089" cy="37.86689" fill="#fff" rx="18.541073" ry="17.768526" stroke-width="2.099778"/></g></svg>