<?xml version="1.0" encoding="UTF-8" standalone="no"?>
<!-- Generator: Adobe Illustrator 16.0.0, SVG Export Plug-In . SVG Version: 6.00 Build 0)  -->

<svg
   xmlns:dc="http://purl.org/dc/elements/1.1/"
   xmlns:cc="http://creativecommons.org/ns#"
   xmlns:rdf="http://www.w3.org/1999/02/22-rdf-syntax-ns#"
   xmlns:svg="http://www.w3.org/2000/svg"
   xmlns="http://www.w3.org/2000/svg"
   xmlns:sodipodi="http://sodipodi.sourceforge.net/DTD/sodipodi-0.dtd"
   xmlns:inkscape="http://www.inkscape.org/namespaces/inkscape"
   version="1.1"
   id="Capa_1"
   x="0px"
   y="0px"
   width="26"
   height="26"
   viewBox="0 0 25.999999 26"
   xml:space="preserve"
   inkscape:version="0.48.2 r9819"
   sodipodi:docname="arrows.svg"><metadata
   id="metadata3886"><rdf:RDF><cc:Work
       rdf:about=""><dc:format>image/svg+xml</dc:format><dc:type
         rdf:resource="http://purl.org/dc/dcmitype/StillImage" /></cc:Work></rdf:RDF></metadata><defs
   id="defs3884" /><sodipodi:namedview
   pagecolor="#ffffff"
   bordercolor="#666666"
   borderopacity="1"
   objecttolerance="10"
   gridtolerance="10"
   guidetolerance="10"
   inkscape:pageopacity="0"
   inkscape:pageshadow="2"
   inkscape:window-width="1281"
   inkscape:window-height="480"
   id="namedview3882"
   showgrid="false"
   inkscape:zoom="9.1207729"
   inkscape:cx="-4.1335002"
   inkscape:cy="12.938898"
   inkscape:window-x="0"
   inkscape:window-y="0"
   inkscape:window-maximized="0"
   inkscape:current-layer="Capa_1"
   fit-margin-top="0"
   fit-margin-left="0"
   fit-margin-right="0"
   fit-margin-bottom="0" />
<path
   d="m 10.632313,11.139604 -6.5269999,-0.617 c 0,0 -0.869,0.023 -0.385,-0.461 0.488,-0.4860002 1.664,-1.6640002 1.664,-1.6640002 0,0 -0.287,-0.286 -0.724,-0.727 -1.256,-1.256 -3.541,-3.541 -4.47099999,-4.471 0,0 -0.322,-0.188 0.064,-0.57 0.385,-0.389 2.06699999,-2.07199991 2.34199999,-2.34399991 0.271,-0.275 0.479,-0.053 0.479,-0.053 0.904,0.89999991 3.27,3.26399991 4.482,4.47899991 0.395,0.394 0.652,0.652 0.652,0.652 0,0 0.943,-0.945 1.539,-1.539 0.5919999,-0.592 0.5879999,0.301 0.5879999,0.301 0,0 0.826,5.848 0.826,6.5470002 10e-4,0.51 -0.529,0.467 -0.529,0.467 z"
   id="path3844"
   style="fill:#99cc33;fill-opacity:1"
   inkscape:connector-curvature="0" />
<path
   d="m 15.371313,14.994604 6.525,0.617 c 0,0 0.871,-0.025 0.387,0.459 -0.486,0.486 -1.666,1.67 -1.666,1.67 0,0 0.285,0.281 0.727,0.723 1.258,1.256 3.541,3.541 4.473,4.475 0,0 0.318,0.182 -0.064,0.564 -0.385,0.387 -2.07,2.074 -2.348,2.348 -0.27,0.271 -0.475,0.055 -0.475,0.055 -0.904,-0.906 -3.27,-3.268 -4.484,-4.482 -0.393,-0.393 -0.646,-0.648 -0.646,-0.648 0,0 -0.945,0.941 -1.543,1.535 -0.592,0.594 -0.592,-0.299 -0.592,-0.299 0,0 -0.82,-5.852 -0.82,-6.547 -0.002,-0.511 0.526,-0.47 0.526,-0.47 z"
   id="path3846"
   style="fill:#99cc33;fill-opacity:1"
   inkscape:connector-curvature="0" />
<path
   d="m 10.994313,15.428604 -0.615,6.529 c 0,0 0.025,0.873 -0.4609999,0.385 -0.488,-0.49 -1.668,-1.666 -1.668,-1.666 0,0 -0.287,0.287 -0.721,0.727 -1.258,1.258 -3.547,3.541 -4.477,4.475 0,0 -0.186,0.314 -0.57,-0.068 -0.384,-0.382 -2.06599999,-2.072 -2.34399999,-2.34 -0.275,-0.273 -0.055,-0.482 -0.055,-0.482 0.904,-0.9 3.26599999,-3.268 4.48199999,-4.482 0.395,-0.393 0.652,-0.65 0.652,-0.65 0,0 -0.943,-0.945 -1.539,-1.535 -0.596,-0.596 0.297,-0.592 0.297,-0.592 0,0 5.852,-0.822 6.5529999,-0.822 0.509,-0.003 0.466,0.521 0.466,0.521 z"
   id="path3848"
   style="fill:#99cc33;fill-opacity:1"
   inkscape:connector-curvature="0" />
<path
   d="m 14.849313,10.691604 0.615,-6.5310002 c 0,0 -0.023,-0.867 0.461,-0.383 0.488,0.488 1.666,1.668 1.666,1.668 0,0 0.287,-0.287 0.729,-0.727 1.256,-1.258 3.539,-3.541 4.471,-4.47099991 0,0 0.186,-0.32 0.57,0.066 0.385,0.381 2.068,2.06599991 2.342,2.33799991 0.277,0.275 0.057,0.482 0.057,0.482 -0.902,0.904 -3.268,3.268 -4.48,4.482 -0.396,0.391 -0.656,0.648 -0.656,0.648 0,0 0.947,0.943 1.541,1.537 0.592,0.5980002 -0.297,0.5920002 -0.297,0.5920002 0,0 -5.852,0.824 -6.553,0.824 -0.507,0.003 -0.466,-0.525 -0.466,-0.525 z"
   id="path3850"
   style="fill:#99cc33;fill-opacity:1"
   inkscape:connector-curvature="0" />
<g
   id="g3852"
   transform="translate(3.1310723e-4,0.12360388)">
</g>
<g
   id="g3854"
   transform="translate(3.1310723e-4,0.12360388)">
</g>
<g
   id="g3856"
   transform="translate(3.1310723e-4,0.12360388)">
</g>
<g
   id="g3858"
   transform="translate(3.1310723e-4,0.12360388)">
</g>
<g
   id="g3860"
   transform="translate(3.1310723e-4,0.12360388)">
</g>
<g
   id="g3862"
   transform="translate(3.1310723e-4,0.12360388)">
</g>
<g
   id="g3864"
   transform="translate(3.1310723e-4,0.12360388)">
</g>
<g
   id="g3866"
   transform="translate(3.1310723e-4,0.12360388)">
</g>
<g
   id="g3868"
   transform="translate(3.1310723e-4,0.12360388)">
</g>
<g
   id="g3870"
   transform="translate(3.1310723e-4,0.12360388)">
</g>
<g
   id="g3872"
   transform="translate(3.1310723e-4,0.12360388)">
</g>
<g
   id="g3874"
   transform="translate(3.1310723e-4,0.12360388)">
</g>
<g
   id="g3876"
   transform="translate(3.1310723e-4,0.12360388)">
</g>
<g
   id="g3878"
   transform="translate(3.1310723e-4,0.12360388)">
</g>
<g
   id="g3880"
   transform="translate(3.1310723e-4,0.12360388)">
</g>
</svg>