<?xml version="1.0" encoding="UTF-8" standalone="no"?>
<!-- Generator: Adobe Illustrator 16.0.4, SVG Export Plug-In . SVG Version: 6.00 Build 0)  -->

<svg
   xmlns:dc="http://purl.org/dc/elements/1.1/"
   xmlns:cc="http://creativecommons.org/ns#"
   xmlns:rdf="http://www.w3.org/1999/02/22-rdf-syntax-ns#"
   xmlns:svg="http://www.w3.org/2000/svg"
   xmlns="http://www.w3.org/2000/svg"
   xmlns:sodipodi="http://sodipodi.sourceforge.net/DTD/sodipodi-0.dtd"
   xmlns:inkscape="http://www.inkscape.org/namespaces/inkscape"
   version="1.1"
   id="Capa_1"
   x="0px"
   y="0px"
   width="90"
   height="90"
   viewBox="0 -49.5 90 90"
   enable-background="new 0 -49.5 90 107.5"
   xml:space="preserve"
   inkscape:version="0.48.2 r9819"
   sodipodi:docname="card2.svg"><metadata
   id="metadata5609"><rdf:RDF><cc:Work
       rdf:about=""><dc:format>image/svg+xml</dc:format><dc:type
         rdf:resource="http://purl.org/dc/dcmitype/StillImage" /></cc:Work></rdf:RDF></metadata><defs
   id="defs5607" /><sodipodi:namedview
   pagecolor="#ffffff"
   bordercolor="#666666"
   borderopacity="1"
   objecttolerance="10"
   gridtolerance="10"
   guidetolerance="10"
   inkscape:pageopacity="0"
   inkscape:pageshadow="2"
   inkscape:window-width="708"
   inkscape:window-height="480"
   id="namedview5605"
   showgrid="false"
   inkscape:zoom="2.1953488"
   inkscape:cx="44.999999"
   inkscape:cy="53.749999"
   inkscape:window-x="480"
   inkscape:window-y="89"
   inkscape:window-maximized="0"
   inkscape:current-layer="Capa_1" />
<g
   id="g5601"
   style="fill:#99cc33;fill-opacity:1"
   transform="translate(0,-7.75)">
	<path
   d="m 2.97,-19.322 c 2.441,1.312 36.241,19.468 37.499,20.144 1.259,0.676 2.889,1.002 4.531,1.002 1.643,0 3.271,-0.326 4.531,-1.002 1.258,-0.676 35.058,-18.831 37.498,-20.144 2.443,-1.311 4.755,-5.428 0.268,-5.428 H 2.703 c -4.484,0 -2.176,4.117 0.267,5.428 z m 85.094,10 c -2.773,1.447 -36.835,19.26 -38.533,20.144 -1.699,0.887 -2.889,1.002 -4.531,1.002 -1.642,0 -2.832,-0.115 -4.531,-1.002 C 38.771,9.938 4.711,-7.875 1.936,-9.322 -0.017,-10.339 0,-9.146 0,-8.224 c 0,0.922 0,36.679 0,36.679 0,2.096 2.792,4.795 4.959,4.795 h 80.082 c 2.167,0 4.959,-2.699 4.959,-4.795 0,0 0,-35.757 0,-36.679 0,-0.922 0.02,-2.115 -1.936,-1.098 z"
   id="path5603"
   style="fill:#99cc33;fill-opacity:1"
   inkscape:connector-curvature="0" />
</g>
</svg>