<?xml version="1.0" encoding="UTF-8" standalone="no"?>
<!-- Generator: Adobe Illustrator 17.1.0, SVG Export Plug-In . SVG Version: 6.00 Build 0)  -->

<svg
   xmlns:dc="http://purl.org/dc/elements/1.1/"
   xmlns:cc="http://creativecommons.org/ns#"
   xmlns:rdf="http://www.w3.org/1999/02/22-rdf-syntax-ns#"
   xmlns:svg="http://www.w3.org/2000/svg"
   xmlns="http://www.w3.org/2000/svg"
   xmlns:sodipodi="http://sodipodi.sourceforge.net/DTD/sodipodi-0.dtd"
   xmlns:inkscape="http://www.inkscape.org/namespaces/inkscape"
   version="1.1"
   id="Layer_1"
   x="0px"
   y="0px"
   width="1000px"
   height="1000px"
   viewBox="0 0 1000 1000"
   enable-background="new 0 0 1000 1000"
   xml:space="preserve"
   inkscape:version="0.48.2 r9819"
   sodipodi:docname="objective.svg"><metadata
   id="metadata12396"><rdf:RDF><cc:Work
       rdf:about=""><dc:format>image/svg+xml</dc:format><dc:type
         rdf:resource="http://purl.org/dc/dcmitype/StillImage" /></cc:Work></rdf:RDF></metadata><defs
   id="defs12394" /><sodipodi:namedview
   pagecolor="#ffffff"
   bordercolor="#666666"
   borderopacity="1"
   objecttolerance="10"
   gridtolerance="10"
   guidetolerance="10"
   inkscape:pageopacity="0"
   inkscape:pageshadow="2"
   inkscape:window-width="708"
   inkscape:window-height="480"
   id="namedview12392"
   showgrid="false"
   inkscape:zoom="0.236"
   inkscape:cx="500"
   inkscape:cy="500"
   inkscape:window-x="0"
   inkscape:window-y="0"
   inkscape:window-maximized="0"
   inkscape:current-layer="Layer_1" />
<g
   id="g12384"
   style="fill:#99cc33;fill-opacity:1">
	<path
   d="M447,981.4c236.6,0,428.4-191.8,428.4-428.4c0-72.8-18.1-141.3-50.1-201.3c-3.5,0.5-7.1,0.7-10.6,0.7c-2,0-4.1-0.1-6.2-0.2   l-54.5-4.2l-39.2,39.2c29.9,48.2,47.2,105,47.2,165.8c0,173.9-141,314.9-314.9,314.9S132.1,726.9,132.1,553s141-314.9,314.9-314.9   c60.9,0,117.7,17.3,165.8,47.2l35.5-35.5l-4.8-62.5c-0.4-5-0.3-10,0.2-14.9c-58.9-30.5-125.8-47.8-196.8-47.8   C210.4,124.6,18.6,316.4,18.6,553S210.4,981.4,447,981.4z"
   id="path12386"
   style="fill:#99cc33;fill-opacity:1" />
	<path
   d="M447,442.3c2.8,0,5.6,0.1,8.4,0.3l79.1-79.1l1.7-1.7c-27.1-12.7-57.3-19.8-89.2-19.8c-116.5,0-210.9,94.4-210.9,210.9   S330.5,763.9,447,763.9S657.9,669.5,657.9,553c0-31.9-7.1-62.1-19.8-89.2l-1.7,1.7l-79.1,79.1c0.2,2.8,0.3,5.6,0.3,8.4   c0,61.1-49.5,110.7-110.7,110.7S336.3,614.1,336.3,553S385.9,442.3,447,442.3z"
   id="path12388"
   style="fill:#99cc33;fill-opacity:1" />
	<path
   d="M888.5,171l25.4-25.4c11.6-11.6,11.6-30.3,0-41.9L896.3,86c-5.8-5.8-13.4-8.7-20.9-8.7s-15.2,2.9-20.9,8.7l-29.1,29.1   l-6-77.5c-0.4-5.7-5.1-9.2-10-9.2c-2.5,0-5,0.9-7,2.9L687.9,145.8c-10.3,10.3-15.6,24.6-14.5,39.2l0.3,4.5l5.5,71.7l-41.4,41.4   l-74.5,74.5l-1.7,1.7l-72.1,72.1l-32,32c-4.2,4.2-6.8,9.8-7.2,15.7l-2,25.1c-1.2,14.6,10.4,27,24.9,27c0.4,0,0.8,0,1.3,0l26.5-1.3   c6.2-0.3,12.1-2.9,16.4-7.3l31.7-31.7l72.1-72.1l1.7-1.7l74.5-74.5l45-45l65.4,5l2.9,0.2c1.3,0.1,2.6,0.1,3.8,0.1   c13.2,0,25.9-5.2,35.4-14.6l114.4-114.4c6-6,2.2-16.4-6.3-17L888.5,171z"
   id="path12390"
   style="fill:#99cc33;fill-opacity:1" />
</g>
</svg>