<svg height="100" viewBox="0 0 100 100" width="100" xmlns="http://www.w3.org/2000/svg" xmlns:xlink="http://www.w3.org/1999/xlink"><linearGradient id="a" gradientUnits="userSpaceOnUse" x1="78.201012" x2="22.398232" y1="74.419151" y2="16.592201"><stop offset="0" stop-color="#375ca1"/><stop offset="1"/></linearGradient><linearGradient id="b" gradientUnits="userSpaceOnUse" x1="20.823696" x2="78.201012" y1="11.761463" y2="74.419151"><stop offset="0" stop-color="#ddd"/><stop offset="1" stop-color="#ddd" stop-opacity="0"/></linearGradient><g transform="matrix(.5 0 0 .5 50 50)"><g><path d="m13.636363 4.5454545h45.454545l27.27273 23.6363635-.00004 67.272727h-72.727235z" fill="#ddd" fill-rule="evenodd"/><path d="m13.636363 4.5454545h45.454545c1.226635 7.5626315 3.707549 14.8256425-.222924 23.1373275 9.935654 2.855766 18.24073 2.000945 27.495654.499036l-27.27273-23.6363635 27.27273 23.6363635-.00004 67.272727h-72.727235z" style="fill-rule:evenodd;stroke-width:6;stroke-linecap:round;stroke-linejoin:round;fill:url(#b);stroke:url(#a)"/><g fill="none" opacity=".75" stroke="#00328d" stroke-width="2.2" transform="matrix(1.8181818 0 0 1.8181818 -86.363637 -80.909091)"><path d="m60 64h30"/><path d="m60 73h30"/><path d="m60 82h30"/><path d="m60 91h30"/><path d="m60 55h15"/></g></g><g><path d="m13.636363 4.5454545h45.454545l27.27273 23.6363635-.00004 67.272727h-72.727235z" fill="#ddd" fill-rule="evenodd"/><path d="m13.636363 4.5454545h45.454545c1.226635 7.5626315 3.707549 14.8256425-.222924 23.1373275 9.935654 2.855766 18.24073 2.000945 27.495654.499036l-27.27273-23.6363635 27.27273 23.6363635-.00004 67.272727h-72.727235z" style="fill-rule:evenodd;stroke-width:6;stroke-linecap:round;stroke-linejoin:round;fill:url(#b);stroke:url(#a)"/><g fill="none" opacity=".75" stroke="#00328d" stroke-width="2.2" transform="matrix(1.8181818 0 0 1.8181818 -86.363637 -80.909091)"><path d="m60 64h30"/><path d="m60 73h30"/><path d="m60 82h30"/><path d="m60 91h30"/><path d="m60 55h15"/></g></g></g></svg>