<svg height="100" viewBox="0 0 100 100" width="100" xmlns="http://www.w3.org/2000/svg" xmlns:xlink="http://www.w3.org/1999/xlink"><linearGradient id="a" gradientTransform="matrix(4.732752 0 0 2.7472733 -268.98945 -161.07419)" gradientUnits="userSpaceOnUse" x1="57.527332" x2="60.823169" y1="76.929142" y2="76.929142"><stop offset="0" stop-color="#6b2e00"/><stop offset="1"/></linearGradient><linearGradient id="b" gradientUnits="userSpaceOnUse" x1="58.508313" x2="46.112267" y1="7.313679" y2="30.28523"><stop offset="0" stop-color="#ffcb1f"/><stop offset="1" stop-color="#c40000"/></linearGradient><g fill-rule="evenodd" transform="matrix(.5 0 0 .5 50 50)"><g><path d="m18.653547 11.413691c11.474154 3.120598 16.356633-4.7875051 27.830787-4.7277622 11.474153.0597429 29.53998 8.0873322 41.014133 4.7277622v37.676562c-10.785071 2.26267-28.226197-5.273945-39.56027-4.813976s-16.561093 8.916522-29.28465 4.813976z" fill="url(#b)" stroke="#800000" stroke-width="5"/><path d="m3.2731449 2.5289467c5.3995382-2.80109055 10.6773771-3.8984099 15.5983791 0v95.4844963c-5.614472 2.282567-10.9427959 2.991327-15.5983791 0z" fill="url(#a)" stroke-width="2.409462"/></g><g><path d="m18.653547 11.413691c11.474154 3.120598 16.356633-4.7875051 27.830787-4.7277622 11.474153.0597429 29.53998 8.0873322 41.014133 4.7277622v37.676562c-10.785071 2.26267-28.226197-5.273945-39.56027-4.813976s-16.561093 8.916522-29.28465 4.813976z" fill="url(#b)" stroke="#800000" stroke-width="5"/><path d="m3.2731449 2.5289467c5.3995382-2.80109055 10.6773771-3.8984099 15.5983791 0v95.4844963c-5.614472 2.282567-10.9427959 2.991327-15.5983791 0z" fill="url(#a)" stroke-width="2.409462"/></g></g></svg>