<svg height="100" viewBox="0 0 100 100" width="100" xmlns="http://www.w3.org/2000/svg"><g fill-rule="evenodd" transform="translate(-.996785 .034575)"><ellipse cx="40.50135" cy="38.177055" fill="#5afffb" rx="32.141159" ry="32.221706" stroke="#000" stroke-linejoin="round" stroke-width="6.63455"/><path d="m58.150896 69.466298 11.173822-12.125954 24.476389 24.676954-11.173818 12.125952z" fill="#f60" stroke="#000" stroke-linejoin="round" stroke-width="6.299335"/><ellipse cx="33.193089" cy="37.86689" fill="#fff" rx="18.541073" ry="17.768526" stroke-width="2.099778"/></g><g fill-rule="evenodd" transform="translate(-.996785 .034575)"><ellipse cx="40.50135" cy="38.177055" fill="#5afffb" rx="32.141159" ry="32.221706" stroke="#000" stroke-linejoin="round" stroke-width="6.63455"/><path d="m58.150896 69.466298 11.173822-12.125954 24.476389 24.676954-11.173818 12.125952z" fill="#f60" stroke="#000" stroke-linejoin="round" stroke-width="6.299335"/><ellipse cx="33.193089" cy="37.86689" fill="#fff" rx="18.541073" ry="17.768526" stroke-width="2.099778"/></g><g transform="matrix(.60337542 0 0 .59550838 45.573137 22.84019)"><path d="m23.812502 96.824998v-21.166667h-21.1666686v-21.166667h21.1666686v-21.166667h21.166666v21.166667h21.166668v21.166667h-21.166668v21.166667z" fill="#27c204" stroke="#005a1d" stroke-width="3.96875"/><g fill="none" stroke="#fff" stroke-linecap="round"><path d="m28.019449 75.658333v16.967731" opacity=".7" stroke-width="4.103144"/><path d="m6.8527784 58.48864v13.313167" opacity=".7" stroke-width="3.634507"/><path d="m28.019449 37.425931v16.967731" opacity=".7" stroke-width="4.103144"/></g></g></svg>