<svg height="100" viewBox="0 0 100 100" width="100" xmlns="http://www.w3.org/2000/svg" xmlns:xlink="http://www.w3.org/1999/xlink"><linearGradient id="a" gradientUnits="userSpaceOnUse" x1="14.750063" x2="15.09523" y1="44.750008" y2="52.500008"><stop offset="0" stop-color="#ffd200"/><stop offset="1" stop-color="#b85d00"/></linearGradient><g transform="matrix(.66441106 -.74736735 .74736735 .66441106 -12.664936 49.67083)"><g><path d="m24 36-20.7500558 14.5 20.7500558 13.5c4.583277-9.515432 3.716782-18.067447 0-28z" fill="url(#a)" stroke="#000" stroke-linecap="round" stroke-linejoin="round" stroke-width="3"/><path d="m9.9332272 45.622914-6.683283 4.877086 6.683283 4.481057c1.9648908-4.437452 1.9593098-4.401909 0-9.358143z" stroke="#000" stroke-linecap="round" stroke-linejoin="round" stroke-width=".960227"/><g fill-rule="evenodd"><path d="m23.249944 34.5h70.499622l4.500378 10v10l-3.6 11h-71.4l2.437556-10.9375-.0625-10z" fill="#020202" stroke="#000" stroke-linecap="round" stroke-linejoin="bevel"/><path d="m78.178022 35.466641h2l4.071922 9.033359v10l-4.117361 10.011262h-2l4.117361-10.011262v-10z" fill="#ffcc36"/><path d="m85.249944 54.5h12l-3 10h-13z" fill="#851403"/><path d="m27.249944 54.5h54l-4 10h-52z" fill="#068503"/><path d="m27.249944 44.5h54v10h-54z" fill="#0cad08"/><path d="m25.249944 35.5h52l4 9h-54z" fill="#17ea11"/><path d="m85.249944 44.5h12l.01387 10h-12.01387z" fill="#c11300"/><path d="m81.249944 35.5h12l4 9h-12z" fill="#f23c3c"/></g></g><g><path d="m24 36-20.7500558 14.5 20.7500558 13.5c4.583277-9.515432 3.716782-18.067447 0-28z" fill="url(#a)" stroke="#000" stroke-linecap="round" stroke-linejoin="round" stroke-width="3"/><path d="m9.9332272 45.622914-6.683283 4.877086 6.683283 4.481057c1.9648908-4.437452 1.9593098-4.401909 0-9.358143z" stroke="#000" stroke-linecap="round" stroke-linejoin="round" stroke-width=".960227"/><g fill-rule="evenodd"><path d="m23.249944 34.5h70.499622l4.500378 10v10l-3.6 11h-71.4l2.437556-10.9375-.0625-10z" fill="#020202" stroke="#000" stroke-linecap="round" stroke-linejoin="bevel"/><path d="m78.178022 35.466641h2l4.071922 9.033359v10l-4.117361 10.011262h-2l4.117361-10.011262v-10z" fill="#ffcc36"/><path d="m85.249944 54.5h12l-3 10h-13z" fill="#851403"/><path d="m27.249944 54.5h54l-4 10h-52z" fill="#068503"/><path d="m27.249944 44.5h54v10h-54z" fill="#0cad08"/><path d="m25.249944 35.5h52l4 9h-54z" fill="#17ea11"/><path d="m85.249944 44.5h12l.01387 10h-12.01387z" fill="#c11300"/><path d="m81.249944 35.5h12l4 9h-12z" fill="#f23c3c"/></g></g></g></svg>